G04 #@! TF.GenerationSoftware,KiCad,Pcbnew,6.0.2+dfsg-1*
G04 #@! TF.CreationDate,2023-07-16T14:07:35-07:00*
G04 #@! TF.ProjectId,adampsu,6164616d-7073-4752-9e6b-696361645f70,rev?*
G04 #@! TF.SameCoordinates,Original*
G04 #@! TF.FileFunction,Soldermask,Top*
G04 #@! TF.FilePolarity,Negative*
%FSLAX46Y46*%
G04 Gerber Fmt 4.6, Leading zero omitted, Abs format (unit mm)*
G04 Created by KiCad (PCBNEW 6.0.2+dfsg-1) date 2023-07-16 14:07:35*
%MOMM*%
%LPD*%
G01*
G04 APERTURE LIST*
G04 Aperture macros list*
%AMRoundRect*
0 Rectangle with rounded corners*
0 $1 Rounding radius*
0 $2 $3 $4 $5 $6 $7 $8 $9 X,Y pos of 4 corners*
0 Add a 4 corners polygon primitive as box body*
4,1,4,$2,$3,$4,$5,$6,$7,$8,$9,$2,$3,0*
0 Add four circle primitives for the rounded corners*
1,1,$1+$1,$2,$3*
1,1,$1+$1,$4,$5*
1,1,$1+$1,$6,$7*
1,1,$1+$1,$8,$9*
0 Add four rect primitives between the rounded corners*
20,1,$1+$1,$2,$3,$4,$5,0*
20,1,$1+$1,$4,$5,$6,$7,0*
20,1,$1+$1,$6,$7,$8,$9,0*
20,1,$1+$1,$8,$9,$2,$3,0*%
G04 Aperture macros list end*
%ADD10C,0.100000*%
%ADD11C,0.150000*%
%ADD12C,0.300000*%
%ADD13C,0.400000*%
%ADD14O,1.802000X2.602000*%
%ADD15RoundRect,0.301000X0.450000X-0.325000X0.450000X0.325000X-0.450000X0.325000X-0.450000X-0.325000X0*%
%ADD16RoundRect,0.051000X-1.500000X2.050000X-1.500000X-2.050000X1.500000X-2.050000X1.500000X2.050000X0*%
%ADD17RoundRect,0.300550X-0.950450X0.325450X-0.950450X-0.325450X0.950450X-0.325450X0.950450X0.325450X0*%
%ADD18RoundRect,0.051000X2.050000X1.500000X-2.050000X1.500000X-2.050000X-1.500000X2.050000X-1.500000X0*%
%ADD19RoundRect,0.301001X0.624999X-0.462499X0.624999X0.462499X-0.624999X0.462499X-0.624999X-0.462499X0*%
%ADD20RoundRect,0.288500X0.237500X-0.287500X0.237500X0.287500X-0.237500X0.287500X-0.237500X-0.287500X0*%
%ADD21RoundRect,0.051000X0.300000X-0.775000X0.300000X0.775000X-0.300000X0.775000X-0.300000X-0.775000X0*%
%ADD22RoundRect,0.051000X1.550000X-1.300000X1.550000X1.300000X-1.550000X1.300000X-1.550000X-1.300000X0*%
%ADD23RoundRect,0.051000X-0.850000X-0.850000X0.850000X-0.850000X0.850000X0.850000X-0.850000X0.850000X0*%
%ADD24O,1.802000X1.802000*%
%ADD25RoundRect,0.288500X-0.287500X-0.237500X0.287500X-0.237500X0.287500X0.237500X-0.287500X0.237500X0*%
%ADD26RoundRect,0.288500X-0.237500X0.287500X-0.237500X-0.287500X0.237500X-0.287500X0.237500X0.287500X0*%
%ADD27RoundRect,0.288500X0.287500X0.237500X-0.287500X0.237500X-0.287500X-0.237500X0.287500X-0.237500X0*%
%ADD28RoundRect,0.301001X-0.462499X-0.624999X0.462499X-0.624999X0.462499X0.624999X-0.462499X0.624999X0*%
%ADD29RoundRect,0.301000X0.875000X1.025000X-0.875000X1.025000X-0.875000X-1.025000X0.875000X-1.025000X0*%
%ADD30RoundRect,0.301000X-0.325000X-0.450000X0.325000X-0.450000X0.325000X0.450000X-0.325000X0.450000X0*%
%ADD31RoundRect,0.301001X-0.624999X0.462499X-0.624999X-0.462499X0.624999X-0.462499X0.624999X0.462499X0*%
%ADD32RoundRect,0.051000X0.325000X-0.780000X0.325000X0.780000X-0.325000X0.780000X-0.325000X-0.780000X0*%
%ADD33C,2.602000*%
%ADD34O,2.102000X3.602000*%
%ADD35O,3.602000X2.102000*%
%ADD36RoundRect,0.051000X-1.000000X-1.750000X1.000000X-1.750000X1.000000X1.750000X-1.000000X1.750000X0*%
%ADD37RoundRect,0.051000X1.050000X-0.700000X1.050000X0.700000X-1.050000X0.700000X-1.050000X-0.700000X0*%
%ADD38RoundRect,0.051000X-1.050000X0.700000X-1.050000X-0.700000X1.050000X-0.700000X1.050000X0.700000X0*%
%ADD39C,4.102000*%
%ADD40RoundRect,0.051000X-0.800000X0.800000X-0.800000X-0.800000X0.800000X-0.800000X0.800000X0.800000X0*%
%ADD41C,1.702000*%
%ADD42C,1.880000*%
%ADD43C,2.388000*%
%ADD44O,10.102000X8.102000*%
%ADD45O,12.102000X6.102000*%
%ADD46RoundRect,0.301001X0.462499X0.624999X-0.462499X0.624999X-0.462499X-0.624999X0.462499X-0.624999X0*%
%ADD47RoundRect,0.201000X0.150000X-0.725000X0.150000X0.725000X-0.150000X0.725000X-0.150000X-0.725000X0*%
G04 APERTURE END LIST*
D10*
D11*
X177002200Y-166007200D02*
X177002200Y-198007200D01*
X285002200Y-198007200D01*
X285002200Y-166007200D01*
X177002200Y-166007200D01*
D10*
D11*
X10000000Y-10000000D02*
X10000000Y-200007200D01*
X287002200Y-200007200D01*
X287002200Y-10000000D01*
X10000000Y-10000000D01*
D10*
D11*
X12000000Y-12000000D02*
X12000000Y-198007200D01*
X285002200Y-198007200D01*
X285002200Y-12000000D01*
X12000000Y-12000000D01*
D10*
D11*
X60000000Y-12000000D02*
X60000000Y-10000000D01*
D10*
D11*
X110000000Y-12000000D02*
X110000000Y-10000000D01*
D10*
D11*
X160000000Y-12000000D02*
X160000000Y-10000000D01*
D10*
D11*
X210000000Y-12000000D02*
X210000000Y-10000000D01*
D10*
D11*
X260000000Y-12000000D02*
X260000000Y-10000000D01*
D10*
D11*
X36065476Y-11588095D02*
X35322619Y-11588095D01*
X35694047Y-11588095D02*
X35694047Y-10288095D01*
X35570238Y-10473809D01*
X35446428Y-10597619D01*
X35322619Y-10659523D01*
D10*
D11*
X85322619Y-10411904D02*
X85384523Y-10350000D01*
X85508333Y-10288095D01*
X85817857Y-10288095D01*
X85941666Y-10350000D01*
X86003571Y-10411904D01*
X86065476Y-10535714D01*
X86065476Y-10659523D01*
X86003571Y-10845238D01*
X85260714Y-11588095D01*
X86065476Y-11588095D01*
D10*
D11*
X135260714Y-10288095D02*
X136065476Y-10288095D01*
X135632142Y-10783333D01*
X135817857Y-10783333D01*
X135941666Y-10845238D01*
X136003571Y-10907142D01*
X136065476Y-11030952D01*
X136065476Y-11340476D01*
X136003571Y-11464285D01*
X135941666Y-11526190D01*
X135817857Y-11588095D01*
X135446428Y-11588095D01*
X135322619Y-11526190D01*
X135260714Y-11464285D01*
D10*
D11*
X185941666Y-10721428D02*
X185941666Y-11588095D01*
X185632142Y-10226190D02*
X185322619Y-11154761D01*
X186127380Y-11154761D01*
D10*
D11*
X236003571Y-10288095D02*
X235384523Y-10288095D01*
X235322619Y-10907142D01*
X235384523Y-10845238D01*
X235508333Y-10783333D01*
X235817857Y-10783333D01*
X235941666Y-10845238D01*
X236003571Y-10907142D01*
X236065476Y-11030952D01*
X236065476Y-11340476D01*
X236003571Y-11464285D01*
X235941666Y-11526190D01*
X235817857Y-11588095D01*
X235508333Y-11588095D01*
X235384523Y-11526190D01*
X235322619Y-11464285D01*
D10*
D11*
X285941666Y-10288095D02*
X285694047Y-10288095D01*
X285570238Y-10350000D01*
X285508333Y-10411904D01*
X285384523Y-10597619D01*
X285322619Y-10845238D01*
X285322619Y-11340476D01*
X285384523Y-11464285D01*
X285446428Y-11526190D01*
X285570238Y-11588095D01*
X285817857Y-11588095D01*
X285941666Y-11526190D01*
X286003571Y-11464285D01*
X286065476Y-11340476D01*
X286065476Y-11030952D01*
X286003571Y-10907142D01*
X285941666Y-10845238D01*
X285817857Y-10783333D01*
X285570238Y-10783333D01*
X285446428Y-10845238D01*
X285384523Y-10907142D01*
X285322619Y-11030952D01*
D10*
D11*
X60000000Y-198007200D02*
X60000000Y-200007200D01*
D10*
D11*
X110000000Y-198007200D02*
X110000000Y-200007200D01*
D10*
D11*
X160000000Y-198007200D02*
X160000000Y-200007200D01*
D10*
D11*
X210000000Y-198007200D02*
X210000000Y-200007200D01*
D10*
D11*
X260000000Y-198007200D02*
X260000000Y-200007200D01*
D10*
D11*
X36065476Y-199595295D02*
X35322619Y-199595295D01*
X35694047Y-199595295D02*
X35694047Y-198295295D01*
X35570238Y-198481009D01*
X35446428Y-198604819D01*
X35322619Y-198666723D01*
D10*
D11*
X85322619Y-198419104D02*
X85384523Y-198357200D01*
X85508333Y-198295295D01*
X85817857Y-198295295D01*
X85941666Y-198357200D01*
X86003571Y-198419104D01*
X86065476Y-198542914D01*
X86065476Y-198666723D01*
X86003571Y-198852438D01*
X85260714Y-199595295D01*
X86065476Y-199595295D01*
D10*
D11*
X135260714Y-198295295D02*
X136065476Y-198295295D01*
X135632142Y-198790533D01*
X135817857Y-198790533D01*
X135941666Y-198852438D01*
X136003571Y-198914342D01*
X136065476Y-199038152D01*
X136065476Y-199347676D01*
X136003571Y-199471485D01*
X135941666Y-199533390D01*
X135817857Y-199595295D01*
X135446428Y-199595295D01*
X135322619Y-199533390D01*
X135260714Y-199471485D01*
D10*
D11*
X185941666Y-198728628D02*
X185941666Y-199595295D01*
X185632142Y-198233390D02*
X185322619Y-199161961D01*
X186127380Y-199161961D01*
D10*
D11*
X236003571Y-198295295D02*
X235384523Y-198295295D01*
X235322619Y-198914342D01*
X235384523Y-198852438D01*
X235508333Y-198790533D01*
X235817857Y-198790533D01*
X235941666Y-198852438D01*
X236003571Y-198914342D01*
X236065476Y-199038152D01*
X236065476Y-199347676D01*
X236003571Y-199471485D01*
X235941666Y-199533390D01*
X235817857Y-199595295D01*
X235508333Y-199595295D01*
X235384523Y-199533390D01*
X235322619Y-199471485D01*
D10*
D11*
X285941666Y-198295295D02*
X285694047Y-198295295D01*
X285570238Y-198357200D01*
X285508333Y-198419104D01*
X285384523Y-198604819D01*
X285322619Y-198852438D01*
X285322619Y-199347676D01*
X285384523Y-199471485D01*
X285446428Y-199533390D01*
X285570238Y-199595295D01*
X285817857Y-199595295D01*
X285941666Y-199533390D01*
X286003571Y-199471485D01*
X286065476Y-199347676D01*
X286065476Y-199038152D01*
X286003571Y-198914342D01*
X285941666Y-198852438D01*
X285817857Y-198790533D01*
X285570238Y-198790533D01*
X285446428Y-198852438D01*
X285384523Y-198914342D01*
X285322619Y-199038152D01*
D10*
D11*
X10000000Y-60000000D02*
X12000000Y-60000000D01*
D10*
D11*
X10000000Y-110000000D02*
X12000000Y-110000000D01*
D10*
D11*
X10000000Y-160000000D02*
X12000000Y-160000000D01*
D10*
D11*
X10690476Y-35216666D02*
X11309523Y-35216666D01*
X10566666Y-35588095D02*
X11000000Y-34288095D01*
X11433333Y-35588095D01*
D10*
D11*
X11092857Y-84907142D02*
X11278571Y-84969047D01*
X11340476Y-85030952D01*
X11402380Y-85154761D01*
X11402380Y-85340476D01*
X11340476Y-85464285D01*
X11278571Y-85526190D01*
X11154761Y-85588095D01*
X10659523Y-85588095D01*
X10659523Y-84288095D01*
X11092857Y-84288095D01*
X11216666Y-84350000D01*
X11278571Y-84411904D01*
X11340476Y-84535714D01*
X11340476Y-84659523D01*
X11278571Y-84783333D01*
X11216666Y-84845238D01*
X11092857Y-84907142D01*
X10659523Y-84907142D01*
D10*
D11*
X11402380Y-135464285D02*
X11340476Y-135526190D01*
X11154761Y-135588095D01*
X11030952Y-135588095D01*
X10845238Y-135526190D01*
X10721428Y-135402380D01*
X10659523Y-135278571D01*
X10597619Y-135030952D01*
X10597619Y-134845238D01*
X10659523Y-134597619D01*
X10721428Y-134473809D01*
X10845238Y-134350000D01*
X11030952Y-134288095D01*
X11154761Y-134288095D01*
X11340476Y-134350000D01*
X11402380Y-134411904D01*
D10*
D11*
X10659523Y-185588095D02*
X10659523Y-184288095D01*
X10969047Y-184288095D01*
X11154761Y-184350000D01*
X11278571Y-184473809D01*
X11340476Y-184597619D01*
X11402380Y-184845238D01*
X11402380Y-185030952D01*
X11340476Y-185278571D01*
X11278571Y-185402380D01*
X11154761Y-185526190D01*
X10969047Y-185588095D01*
X10659523Y-185588095D01*
D10*
D11*
X287002200Y-60000000D02*
X285002200Y-60000000D01*
D10*
D11*
X287002200Y-110000000D02*
X285002200Y-110000000D01*
D10*
D11*
X287002200Y-160000000D02*
X285002200Y-160000000D01*
D10*
D11*
X285692676Y-35216666D02*
X286311723Y-35216666D01*
X285568866Y-35588095D02*
X286002200Y-34288095D01*
X286435533Y-35588095D01*
D10*
D11*
X286095057Y-84907142D02*
X286280771Y-84969047D01*
X286342676Y-85030952D01*
X286404580Y-85154761D01*
X286404580Y-85340476D01*
X286342676Y-85464285D01*
X286280771Y-85526190D01*
X286156961Y-85588095D01*
X285661723Y-85588095D01*
X285661723Y-84288095D01*
X286095057Y-84288095D01*
X286218866Y-84350000D01*
X286280771Y-84411904D01*
X286342676Y-84535714D01*
X286342676Y-84659523D01*
X286280771Y-84783333D01*
X286218866Y-84845238D01*
X286095057Y-84907142D01*
X285661723Y-84907142D01*
D10*
D11*
X286404580Y-135464285D02*
X286342676Y-135526190D01*
X286156961Y-135588095D01*
X286033152Y-135588095D01*
X285847438Y-135526190D01*
X285723628Y-135402380D01*
X285661723Y-135278571D01*
X285599819Y-135030952D01*
X285599819Y-134845238D01*
X285661723Y-134597619D01*
X285723628Y-134473809D01*
X285847438Y-134350000D01*
X286033152Y-134288095D01*
X286156961Y-134288095D01*
X286342676Y-134350000D01*
X286404580Y-134411904D01*
D10*
D11*
X285661723Y-185588095D02*
X285661723Y-184288095D01*
X285971247Y-184288095D01*
X286156961Y-184350000D01*
X286280771Y-184473809D01*
X286342676Y-184597619D01*
X286404580Y-184845238D01*
X286404580Y-185030952D01*
X286342676Y-185278571D01*
X286280771Y-185402380D01*
X286156961Y-185526190D01*
X285971247Y-185588095D01*
X285661723Y-185588095D01*
D10*
D11*
X200434342Y-193785771D02*
X200434342Y-192285771D01*
X200791485Y-192285771D01*
X201005771Y-192357200D01*
X201148628Y-192500057D01*
X201220057Y-192642914D01*
X201291485Y-192928628D01*
X201291485Y-193142914D01*
X201220057Y-193428628D01*
X201148628Y-193571485D01*
X201005771Y-193714342D01*
X200791485Y-193785771D01*
X200434342Y-193785771D01*
X202577200Y-193785771D02*
X202577200Y-193000057D01*
X202505771Y-192857200D01*
X202362914Y-192785771D01*
X202077200Y-192785771D01*
X201934342Y-192857200D01*
X202577200Y-193714342D02*
X202434342Y-193785771D01*
X202077200Y-193785771D01*
X201934342Y-193714342D01*
X201862914Y-193571485D01*
X201862914Y-193428628D01*
X201934342Y-193285771D01*
X202077200Y-193214342D01*
X202434342Y-193214342D01*
X202577200Y-193142914D01*
X203077200Y-192785771D02*
X203648628Y-192785771D01*
X203291485Y-192285771D02*
X203291485Y-193571485D01*
X203362914Y-193714342D01*
X203505771Y-193785771D01*
X203648628Y-193785771D01*
X204720057Y-193714342D02*
X204577200Y-193785771D01*
X204291485Y-193785771D01*
X204148628Y-193714342D01*
X204077200Y-193571485D01*
X204077200Y-193000057D01*
X204148628Y-192857200D01*
X204291485Y-192785771D01*
X204577200Y-192785771D01*
X204720057Y-192857200D01*
X204791485Y-193000057D01*
X204791485Y-193142914D01*
X204077200Y-193285771D01*
X205434342Y-193642914D02*
X205505771Y-193714342D01*
X205434342Y-193785771D01*
X205362914Y-193714342D01*
X205434342Y-193642914D01*
X205434342Y-193785771D01*
X205434342Y-192857200D02*
X205505771Y-192928628D01*
X205434342Y-193000057D01*
X205362914Y-192928628D01*
X205434342Y-192857200D01*
X205434342Y-193000057D01*
D10*
D11*
X177002200Y-194507200D02*
X285002200Y-194507200D01*
D10*
D11*
X178434342Y-196585771D02*
X178434342Y-195085771D01*
X179291485Y-196585771D02*
X178648628Y-195728628D01*
X179291485Y-195085771D02*
X178434342Y-195942914D01*
X179934342Y-196585771D02*
X179934342Y-195585771D01*
X179934342Y-195085771D02*
X179862914Y-195157200D01*
X179934342Y-195228628D01*
X180005771Y-195157200D01*
X179934342Y-195085771D01*
X179934342Y-195228628D01*
X181505771Y-196442914D02*
X181434342Y-196514342D01*
X181220057Y-196585771D01*
X181077200Y-196585771D01*
X180862914Y-196514342D01*
X180720057Y-196371485D01*
X180648628Y-196228628D01*
X180577200Y-195942914D01*
X180577200Y-195728628D01*
X180648628Y-195442914D01*
X180720057Y-195300057D01*
X180862914Y-195157200D01*
X181077200Y-195085771D01*
X181220057Y-195085771D01*
X181434342Y-195157200D01*
X181505771Y-195228628D01*
X182791485Y-196585771D02*
X182791485Y-195800057D01*
X182720057Y-195657200D01*
X182577200Y-195585771D01*
X182291485Y-195585771D01*
X182148628Y-195657200D01*
X182791485Y-196514342D02*
X182648628Y-196585771D01*
X182291485Y-196585771D01*
X182148628Y-196514342D01*
X182077200Y-196371485D01*
X182077200Y-196228628D01*
X182148628Y-196085771D01*
X182291485Y-196014342D01*
X182648628Y-196014342D01*
X182791485Y-195942914D01*
X184148628Y-196585771D02*
X184148628Y-195085771D01*
X184148628Y-196514342D02*
X184005771Y-196585771D01*
X183720057Y-196585771D01*
X183577200Y-196514342D01*
X183505771Y-196442914D01*
X183434342Y-196300057D01*
X183434342Y-195871485D01*
X183505771Y-195728628D01*
X183577200Y-195657200D01*
X183720057Y-195585771D01*
X184005771Y-195585771D01*
X184148628Y-195657200D01*
X186005771Y-195800057D02*
X186505771Y-195800057D01*
X186720057Y-196585771D02*
X186005771Y-196585771D01*
X186005771Y-195085771D01*
X186720057Y-195085771D01*
X187362914Y-196442914D02*
X187434342Y-196514342D01*
X187362914Y-196585771D01*
X187291485Y-196514342D01*
X187362914Y-196442914D01*
X187362914Y-196585771D01*
X188077200Y-196585771D02*
X188077200Y-195085771D01*
X188434342Y-195085771D01*
X188648628Y-195157200D01*
X188791485Y-195300057D01*
X188862914Y-195442914D01*
X188934342Y-195728628D01*
X188934342Y-195942914D01*
X188862914Y-196228628D01*
X188791485Y-196371485D01*
X188648628Y-196514342D01*
X188434342Y-196585771D01*
X188077200Y-196585771D01*
X189577200Y-196442914D02*
X189648628Y-196514342D01*
X189577200Y-196585771D01*
X189505771Y-196514342D01*
X189577200Y-196442914D01*
X189577200Y-196585771D01*
X190220057Y-196157200D02*
X190934342Y-196157200D01*
X190077200Y-196585771D02*
X190577200Y-195085771D01*
X191077200Y-196585771D01*
X191577200Y-196442914D02*
X191648628Y-196514342D01*
X191577200Y-196585771D01*
X191505771Y-196514342D01*
X191577200Y-196442914D01*
X191577200Y-196585771D01*
X194577200Y-196585771D02*
X194577200Y-195085771D01*
X194720057Y-196014342D02*
X195148628Y-196585771D01*
X195148628Y-195585771D02*
X194577200Y-196157200D01*
X195791485Y-196585771D02*
X195791485Y-195585771D01*
X195791485Y-195085771D02*
X195720057Y-195157200D01*
X195791485Y-195228628D01*
X195862914Y-195157200D01*
X195791485Y-195085771D01*
X195791485Y-195228628D01*
X197148628Y-196514342D02*
X197005771Y-196585771D01*
X196720057Y-196585771D01*
X196577200Y-196514342D01*
X196505771Y-196442914D01*
X196434342Y-196300057D01*
X196434342Y-195871485D01*
X196505771Y-195728628D01*
X196577200Y-195657200D01*
X196720057Y-195585771D01*
X197005771Y-195585771D01*
X197148628Y-195657200D01*
X198434342Y-196585771D02*
X198434342Y-195800057D01*
X198362914Y-195657200D01*
X198220057Y-195585771D01*
X197934342Y-195585771D01*
X197791485Y-195657200D01*
X198434342Y-196514342D02*
X198291485Y-196585771D01*
X197934342Y-196585771D01*
X197791485Y-196514342D01*
X197720057Y-196371485D01*
X197720057Y-196228628D01*
X197791485Y-196085771D01*
X197934342Y-196014342D01*
X198291485Y-196014342D01*
X198434342Y-195942914D01*
X199791485Y-196585771D02*
X199791485Y-195085771D01*
X199791485Y-196514342D02*
X199648628Y-196585771D01*
X199362914Y-196585771D01*
X199220057Y-196514342D01*
X199148628Y-196442914D01*
X199077200Y-196300057D01*
X199077200Y-195871485D01*
X199148628Y-195728628D01*
X199220057Y-195657200D01*
X199362914Y-195585771D01*
X199648628Y-195585771D01*
X199791485Y-195657200D01*
X202291485Y-195085771D02*
X202005771Y-195085771D01*
X201862914Y-195157200D01*
X201791485Y-195228628D01*
X201648628Y-195442914D01*
X201577200Y-195728628D01*
X201577200Y-196300057D01*
X201648628Y-196442914D01*
X201720057Y-196514342D01*
X201862914Y-196585771D01*
X202148628Y-196585771D01*
X202291485Y-196514342D01*
X202362914Y-196442914D01*
X202434342Y-196300057D01*
X202434342Y-195942914D01*
X202362914Y-195800057D01*
X202291485Y-195728628D01*
X202148628Y-195657200D01*
X201862914Y-195657200D01*
X201720057Y-195728628D01*
X201648628Y-195800057D01*
X201577200Y-195942914D01*
X203077200Y-196442914D02*
X203148628Y-196514342D01*
X203077200Y-196585771D01*
X203005771Y-196514342D01*
X203077200Y-196442914D01*
X203077200Y-196585771D01*
X204077200Y-195085771D02*
X204220057Y-195085771D01*
X204362914Y-195157200D01*
X204434342Y-195228628D01*
X204505771Y-195371485D01*
X204577200Y-195657200D01*
X204577200Y-196014342D01*
X204505771Y-196300057D01*
X204434342Y-196442914D01*
X204362914Y-196514342D01*
X204220057Y-196585771D01*
X204077200Y-196585771D01*
X203934342Y-196514342D01*
X203862914Y-196442914D01*
X203791485Y-196300057D01*
X203720057Y-196014342D01*
X203720057Y-195657200D01*
X203791485Y-195371485D01*
X203862914Y-195228628D01*
X203934342Y-195157200D01*
X204077200Y-195085771D01*
X205220057Y-196442914D02*
X205291485Y-196514342D01*
X205220057Y-196585771D01*
X205148628Y-196514342D01*
X205220057Y-196442914D01*
X205220057Y-196585771D01*
X205862914Y-195228628D02*
X205934342Y-195157200D01*
X206077200Y-195085771D01*
X206434342Y-195085771D01*
X206577200Y-195157200D01*
X206648628Y-195228628D01*
X206720057Y-195371485D01*
X206720057Y-195514342D01*
X206648628Y-195728628D01*
X205791485Y-196585771D01*
X206720057Y-196585771D01*
X207362914Y-196014342D02*
X208505771Y-196014342D01*
X207934342Y-196585771D02*
X207934342Y-195442914D01*
X209862914Y-196585771D02*
X209862914Y-195085771D01*
X209862914Y-196514342D02*
X209720057Y-196585771D01*
X209434342Y-196585771D01*
X209291485Y-196514342D01*
X209220057Y-196442914D01*
X209148628Y-196300057D01*
X209148628Y-195871485D01*
X209220057Y-195728628D01*
X209291485Y-195657200D01*
X209434342Y-195585771D01*
X209720057Y-195585771D01*
X209862914Y-195657200D01*
X210362914Y-195585771D02*
X210934342Y-195585771D01*
X210577200Y-196585771D02*
X210577200Y-195300057D01*
X210648628Y-195157200D01*
X210791485Y-195085771D01*
X210934342Y-195085771D01*
X211362914Y-196514342D02*
X211505771Y-196585771D01*
X211791485Y-196585771D01*
X211934342Y-196514342D01*
X212005771Y-196371485D01*
X212005771Y-196300057D01*
X211934342Y-196157200D01*
X211791485Y-196085771D01*
X211577200Y-196085771D01*
X211434342Y-196014342D01*
X211362914Y-195871485D01*
X211362914Y-195800057D01*
X211434342Y-195657200D01*
X211577200Y-195585771D01*
X211791485Y-195585771D01*
X211934342Y-195657200D01*
X213291485Y-195585771D02*
X213291485Y-196800057D01*
X213220057Y-196942914D01*
X213148628Y-197014342D01*
X213005771Y-197085771D01*
X212791485Y-197085771D01*
X212648628Y-197014342D01*
X213291485Y-196514342D02*
X213148628Y-196585771D01*
X212862914Y-196585771D01*
X212720057Y-196514342D01*
X212648628Y-196442914D01*
X212577200Y-196300057D01*
X212577200Y-195871485D01*
X212648628Y-195728628D01*
X212720057Y-195657200D01*
X212862914Y-195585771D01*
X213148628Y-195585771D01*
X213291485Y-195657200D01*
X214005771Y-196014342D02*
X215148628Y-196014342D01*
X216648628Y-196585771D02*
X215791485Y-196585771D01*
X216220057Y-196585771D02*
X216220057Y-195085771D01*
X216077200Y-195300057D01*
X215934342Y-195442914D01*
X215791485Y-195514342D01*
D10*
D11*
X177002200Y-191507200D02*
X285002200Y-191507200D01*
D10*
D12*
X264411485Y-193785771D02*
X263911485Y-193071485D01*
X263554342Y-193785771D02*
X263554342Y-192285771D01*
X264125771Y-192285771D01*
X264268628Y-192357200D01*
X264340057Y-192428628D01*
X264411485Y-192571485D01*
X264411485Y-192785771D01*
X264340057Y-192928628D01*
X264268628Y-193000057D01*
X264125771Y-193071485D01*
X263554342Y-193071485D01*
X265625771Y-193714342D02*
X265482914Y-193785771D01*
X265197200Y-193785771D01*
X265054342Y-193714342D01*
X264982914Y-193571485D01*
X264982914Y-193000057D01*
X265054342Y-192857200D01*
X265197200Y-192785771D01*
X265482914Y-192785771D01*
X265625771Y-192857200D01*
X265697200Y-193000057D01*
X265697200Y-193142914D01*
X264982914Y-193285771D01*
X266197200Y-192785771D02*
X266554342Y-193785771D01*
X266911485Y-192785771D01*
X267482914Y-193642914D02*
X267554342Y-193714342D01*
X267482914Y-193785771D01*
X267411485Y-193714342D01*
X267482914Y-193642914D01*
X267482914Y-193785771D01*
X267482914Y-192857200D02*
X267554342Y-192928628D01*
X267482914Y-193000057D01*
X267411485Y-192928628D01*
X267482914Y-192857200D01*
X267482914Y-193000057D01*
D10*
D11*
X178362914Y-193714342D02*
X178577200Y-193785771D01*
X178934342Y-193785771D01*
X179077200Y-193714342D01*
X179148628Y-193642914D01*
X179220057Y-193500057D01*
X179220057Y-193357200D01*
X179148628Y-193214342D01*
X179077200Y-193142914D01*
X178934342Y-193071485D01*
X178648628Y-193000057D01*
X178505771Y-192928628D01*
X178434342Y-192857200D01*
X178362914Y-192714342D01*
X178362914Y-192571485D01*
X178434342Y-192428628D01*
X178505771Y-192357200D01*
X178648628Y-192285771D01*
X179005771Y-192285771D01*
X179220057Y-192357200D01*
X179862914Y-193785771D02*
X179862914Y-192785771D01*
X179862914Y-192285771D02*
X179791485Y-192357200D01*
X179862914Y-192428628D01*
X179934342Y-192357200D01*
X179862914Y-192285771D01*
X179862914Y-192428628D01*
X180434342Y-192785771D02*
X181220057Y-192785771D01*
X180434342Y-193785771D01*
X181220057Y-193785771D01*
X182362914Y-193714342D02*
X182220057Y-193785771D01*
X181934342Y-193785771D01*
X181791485Y-193714342D01*
X181720057Y-193571485D01*
X181720057Y-193000057D01*
X181791485Y-192857200D01*
X181934342Y-192785771D01*
X182220057Y-192785771D01*
X182362914Y-192857200D01*
X182434342Y-193000057D01*
X182434342Y-193142914D01*
X181720057Y-193285771D01*
X183077200Y-193642914D02*
X183148628Y-193714342D01*
X183077200Y-193785771D01*
X183005771Y-193714342D01*
X183077200Y-193642914D01*
X183077200Y-193785771D01*
X183077200Y-192857200D02*
X183148628Y-192928628D01*
X183077200Y-193000057D01*
X183005771Y-192928628D01*
X183077200Y-192857200D01*
X183077200Y-193000057D01*
X184862914Y-193357200D02*
X185577200Y-193357200D01*
X184720057Y-193785771D02*
X185220057Y-192285771D01*
X185720057Y-193785771D01*
X186862914Y-192785771D02*
X186862914Y-193785771D01*
X186505771Y-192214342D02*
X186148628Y-193285771D01*
X187077200Y-193285771D01*
D10*
D11*
X263434342Y-196585771D02*
X263434342Y-195085771D01*
X264791485Y-196585771D02*
X264791485Y-195085771D01*
X264791485Y-196514342D02*
X264648628Y-196585771D01*
X264362914Y-196585771D01*
X264220057Y-196514342D01*
X264148628Y-196442914D01*
X264077200Y-196300057D01*
X264077200Y-195871485D01*
X264148628Y-195728628D01*
X264220057Y-195657200D01*
X264362914Y-195585771D01*
X264648628Y-195585771D01*
X264791485Y-195657200D01*
X265505771Y-196442914D02*
X265577200Y-196514342D01*
X265505771Y-196585771D01*
X265434342Y-196514342D01*
X265505771Y-196442914D01*
X265505771Y-196585771D01*
X265505771Y-195657200D02*
X265577200Y-195728628D01*
X265505771Y-195800057D01*
X265434342Y-195728628D01*
X265505771Y-195657200D01*
X265505771Y-195800057D01*
X268148628Y-196585771D02*
X267291485Y-196585771D01*
X267720057Y-196585771D02*
X267720057Y-195085771D01*
X267577200Y-195300057D01*
X267434342Y-195442914D01*
X267291485Y-195514342D01*
X269862914Y-195014342D02*
X268577200Y-196942914D01*
X271148628Y-196585771D02*
X270291485Y-196585771D01*
X270720057Y-196585771D02*
X270720057Y-195085771D01*
X270577200Y-195300057D01*
X270434342Y-195442914D01*
X270291485Y-195514342D01*
D10*
D11*
X177002200Y-187507200D02*
X285002200Y-187507200D01*
D10*
D13*
X178714580Y-188211961D02*
X179857438Y-188211961D01*
X179036009Y-190211961D02*
X179286009Y-188211961D01*
X180274104Y-190211961D02*
X180440771Y-188878628D01*
X180524104Y-188211961D02*
X180416961Y-188307200D01*
X180500295Y-188402438D01*
X180607438Y-188307200D01*
X180524104Y-188211961D01*
X180500295Y-188402438D01*
X181107438Y-188878628D02*
X181869342Y-188878628D01*
X181476485Y-188211961D02*
X181262200Y-189926247D01*
X181333628Y-190116723D01*
X181512200Y-190211961D01*
X181702676Y-190211961D01*
X182655057Y-190211961D02*
X182476485Y-190116723D01*
X182405057Y-189926247D01*
X182619342Y-188211961D01*
X184190771Y-190116723D02*
X183988390Y-190211961D01*
X183607438Y-190211961D01*
X183428866Y-190116723D01*
X183357438Y-189926247D01*
X183452676Y-189164342D01*
X183571723Y-188973866D01*
X183774104Y-188878628D01*
X184155057Y-188878628D01*
X184333628Y-188973866D01*
X184405057Y-189164342D01*
X184381247Y-189354819D01*
X183405057Y-189545295D01*
X185155057Y-190021485D02*
X185238390Y-190116723D01*
X185131247Y-190211961D01*
X185047914Y-190116723D01*
X185155057Y-190021485D01*
X185131247Y-190211961D01*
X185286009Y-188973866D02*
X185369342Y-189069104D01*
X185262200Y-189164342D01*
X185178866Y-189069104D01*
X185286009Y-188973866D01*
X185262200Y-189164342D01*
D10*
D11*
X178934342Y-185600057D02*
X178434342Y-185600057D01*
X178434342Y-186385771D02*
X178434342Y-184885771D01*
X179148628Y-184885771D01*
X179720057Y-186385771D02*
X179720057Y-185385771D01*
X179720057Y-184885771D02*
X179648628Y-184957200D01*
X179720057Y-185028628D01*
X179791485Y-184957200D01*
X179720057Y-184885771D01*
X179720057Y-185028628D01*
X180648628Y-186385771D02*
X180505771Y-186314342D01*
X180434342Y-186171485D01*
X180434342Y-184885771D01*
X181791485Y-186314342D02*
X181648628Y-186385771D01*
X181362914Y-186385771D01*
X181220057Y-186314342D01*
X181148628Y-186171485D01*
X181148628Y-185600057D01*
X181220057Y-185457200D01*
X181362914Y-185385771D01*
X181648628Y-185385771D01*
X181791485Y-185457200D01*
X181862914Y-185600057D01*
X181862914Y-185742914D01*
X181148628Y-185885771D01*
X182505771Y-186242914D02*
X182577200Y-186314342D01*
X182505771Y-186385771D01*
X182434342Y-186314342D01*
X182505771Y-186242914D01*
X182505771Y-186385771D01*
X182505771Y-185457200D02*
X182577200Y-185528628D01*
X182505771Y-185600057D01*
X182434342Y-185528628D01*
X182505771Y-185457200D01*
X182505771Y-185600057D01*
X185005771Y-186385771D02*
X185005771Y-185600057D01*
X184934342Y-185457200D01*
X184791485Y-185385771D01*
X184505771Y-185385771D01*
X184362914Y-185457200D01*
X185005771Y-186314342D02*
X184862914Y-186385771D01*
X184505771Y-186385771D01*
X184362914Y-186314342D01*
X184291485Y-186171485D01*
X184291485Y-186028628D01*
X184362914Y-185885771D01*
X184505771Y-185814342D01*
X184862914Y-185814342D01*
X185005771Y-185742914D01*
X186362914Y-186385771D02*
X186362914Y-184885771D01*
X186362914Y-186314342D02*
X186220057Y-186385771D01*
X185934342Y-186385771D01*
X185791485Y-186314342D01*
X185720057Y-186242914D01*
X185648628Y-186100057D01*
X185648628Y-185671485D01*
X185720057Y-185528628D01*
X185791485Y-185457200D01*
X185934342Y-185385771D01*
X186220057Y-185385771D01*
X186362914Y-185457200D01*
X187720057Y-186385771D02*
X187720057Y-185600057D01*
X187648628Y-185457200D01*
X187505771Y-185385771D01*
X187220057Y-185385771D01*
X187077200Y-185457200D01*
X187720057Y-186314342D02*
X187577200Y-186385771D01*
X187220057Y-186385771D01*
X187077200Y-186314342D01*
X187005771Y-186171485D01*
X187005771Y-186028628D01*
X187077200Y-185885771D01*
X187220057Y-185814342D01*
X187577200Y-185814342D01*
X187720057Y-185742914D01*
X188434342Y-186385771D02*
X188434342Y-185385771D01*
X188434342Y-185528628D02*
X188505771Y-185457200D01*
X188648628Y-185385771D01*
X188862914Y-185385771D01*
X189005771Y-185457200D01*
X189077200Y-185600057D01*
X189077200Y-186385771D01*
X189077200Y-185600057D02*
X189148628Y-185457200D01*
X189291485Y-185385771D01*
X189505771Y-185385771D01*
X189648628Y-185457200D01*
X189720057Y-185600057D01*
X189720057Y-186385771D01*
X190434342Y-185385771D02*
X190434342Y-186885771D01*
X190434342Y-185457200D02*
X190577200Y-185385771D01*
X190862914Y-185385771D01*
X191005771Y-185457200D01*
X191077200Y-185528628D01*
X191148628Y-185671485D01*
X191148628Y-186100057D01*
X191077200Y-186242914D01*
X191005771Y-186314342D01*
X190862914Y-186385771D01*
X190577200Y-186385771D01*
X190434342Y-186314342D01*
X191720057Y-186314342D02*
X191862914Y-186385771D01*
X192148628Y-186385771D01*
X192291485Y-186314342D01*
X192362914Y-186171485D01*
X192362914Y-186100057D01*
X192291485Y-185957200D01*
X192148628Y-185885771D01*
X191934342Y-185885771D01*
X191791485Y-185814342D01*
X191720057Y-185671485D01*
X191720057Y-185600057D01*
X191791485Y-185457200D01*
X191934342Y-185385771D01*
X192148628Y-185385771D01*
X192291485Y-185457200D01*
X193648628Y-185385771D02*
X193648628Y-186385771D01*
X193005771Y-185385771D02*
X193005771Y-186171485D01*
X193077200Y-186314342D01*
X193220057Y-186385771D01*
X193434342Y-186385771D01*
X193577200Y-186314342D01*
X193648628Y-186242914D01*
X194362914Y-186242914D02*
X194434342Y-186314342D01*
X194362914Y-186385771D01*
X194291485Y-186314342D01*
X194362914Y-186242914D01*
X194362914Y-186385771D01*
X195077200Y-186385771D02*
X195077200Y-184885771D01*
X195220057Y-185814342D02*
X195648628Y-186385771D01*
X195648628Y-185385771D02*
X195077200Y-185957200D01*
X196291485Y-186385771D02*
X196291485Y-185385771D01*
X196291485Y-184885771D02*
X196220057Y-184957200D01*
X196291485Y-185028628D01*
X196362914Y-184957200D01*
X196291485Y-184885771D01*
X196291485Y-185028628D01*
X197648628Y-186314342D02*
X197505771Y-186385771D01*
X197220057Y-186385771D01*
X197077200Y-186314342D01*
X197005771Y-186242914D01*
X196934342Y-186100057D01*
X196934342Y-185671485D01*
X197005771Y-185528628D01*
X197077200Y-185457200D01*
X197220057Y-185385771D01*
X197505771Y-185385771D01*
X197648628Y-185457200D01*
X198934342Y-186385771D02*
X198934342Y-185600057D01*
X198862914Y-185457200D01*
X198720057Y-185385771D01*
X198434342Y-185385771D01*
X198291485Y-185457200D01*
X198934342Y-186314342D02*
X198791485Y-186385771D01*
X198434342Y-186385771D01*
X198291485Y-186314342D01*
X198220057Y-186171485D01*
X198220057Y-186028628D01*
X198291485Y-185885771D01*
X198434342Y-185814342D01*
X198791485Y-185814342D01*
X198934342Y-185742914D01*
X200291485Y-186385771D02*
X200291485Y-184885771D01*
X200291485Y-186314342D02*
X200148628Y-186385771D01*
X199862914Y-186385771D01*
X199720057Y-186314342D01*
X199648628Y-186242914D01*
X199577200Y-186100057D01*
X199577200Y-185671485D01*
X199648628Y-185528628D01*
X199720057Y-185457200D01*
X199862914Y-185385771D01*
X200148628Y-185385771D01*
X200291485Y-185457200D01*
X200648628Y-186528628D02*
X201791485Y-186528628D01*
X202148628Y-185385771D02*
X202148628Y-186885771D01*
X202148628Y-185457200D02*
X202291485Y-185385771D01*
X202577200Y-185385771D01*
X202720057Y-185457200D01*
X202791485Y-185528628D01*
X202862914Y-185671485D01*
X202862914Y-186100057D01*
X202791485Y-186242914D01*
X202720057Y-186314342D01*
X202577200Y-186385771D01*
X202291485Y-186385771D01*
X202148628Y-186314342D01*
X204148628Y-186314342D02*
X204005771Y-186385771D01*
X203720057Y-186385771D01*
X203577200Y-186314342D01*
X203505771Y-186242914D01*
X203434342Y-186100057D01*
X203434342Y-185671485D01*
X203505771Y-185528628D01*
X203577200Y-185457200D01*
X203720057Y-185385771D01*
X204005771Y-185385771D01*
X204148628Y-185457200D01*
X204791485Y-186385771D02*
X204791485Y-184885771D01*
X204791485Y-185457200D02*
X204934342Y-185385771D01*
X205220057Y-185385771D01*
X205362914Y-185457200D01*
X205434342Y-185528628D01*
X205505771Y-185671485D01*
X205505771Y-186100057D01*
X205434342Y-186242914D01*
X205362914Y-186314342D01*
X205220057Y-186385771D01*
X204934342Y-186385771D01*
X204791485Y-186314342D01*
D10*
D11*
X177002200Y-181507200D02*
X285002200Y-181507200D01*
D10*
D11*
X178362914Y-183614342D02*
X178577200Y-183685771D01*
X178934342Y-183685771D01*
X179077200Y-183614342D01*
X179148628Y-183542914D01*
X179220057Y-183400057D01*
X179220057Y-183257200D01*
X179148628Y-183114342D01*
X179077200Y-183042914D01*
X178934342Y-182971485D01*
X178648628Y-182900057D01*
X178505771Y-182828628D01*
X178434342Y-182757200D01*
X178362914Y-182614342D01*
X178362914Y-182471485D01*
X178434342Y-182328628D01*
X178505771Y-182257200D01*
X178648628Y-182185771D01*
X179005771Y-182185771D01*
X179220057Y-182257200D01*
X179862914Y-183685771D02*
X179862914Y-182185771D01*
X180505771Y-183685771D02*
X180505771Y-182900057D01*
X180434342Y-182757200D01*
X180291485Y-182685771D01*
X180077200Y-182685771D01*
X179934342Y-182757200D01*
X179862914Y-182828628D01*
X181791485Y-183614342D02*
X181648628Y-183685771D01*
X181362914Y-183685771D01*
X181220057Y-183614342D01*
X181148628Y-183471485D01*
X181148628Y-182900057D01*
X181220057Y-182757200D01*
X181362914Y-182685771D01*
X181648628Y-182685771D01*
X181791485Y-182757200D01*
X181862914Y-182900057D01*
X181862914Y-183042914D01*
X181148628Y-183185771D01*
X183077200Y-183614342D02*
X182934342Y-183685771D01*
X182648628Y-183685771D01*
X182505771Y-183614342D01*
X182434342Y-183471485D01*
X182434342Y-182900057D01*
X182505771Y-182757200D01*
X182648628Y-182685771D01*
X182934342Y-182685771D01*
X183077200Y-182757200D01*
X183148628Y-182900057D01*
X183148628Y-183042914D01*
X182434342Y-183185771D01*
X183577200Y-182685771D02*
X184148628Y-182685771D01*
X183791485Y-182185771D02*
X183791485Y-183471485D01*
X183862914Y-183614342D01*
X184005771Y-183685771D01*
X184148628Y-183685771D01*
X184648628Y-183542914D02*
X184720057Y-183614342D01*
X184648628Y-183685771D01*
X184577200Y-183614342D01*
X184648628Y-183542914D01*
X184648628Y-183685771D01*
X184648628Y-182757200D02*
X184720057Y-182828628D01*
X184648628Y-182900057D01*
X184577200Y-182828628D01*
X184648628Y-182757200D01*
X184648628Y-182900057D01*
D10*
D12*
D10*
D11*
D10*
D11*
D10*
D11*
D10*
D11*
D10*
D11*
X197002200Y-191507200D02*
X197002200Y-194507200D01*
D10*
D11*
X261002200Y-191507200D02*
X261002200Y-198007200D01*
D14*
X132080000Y-85090000D03*
D15*
X146685000Y-79520000D03*
X146685000Y-77470000D03*
D16*
X142764000Y-85738000D03*
X142764000Y-95238000D03*
D17*
X140335000Y-76200000D03*
X140335000Y-77950000D03*
D18*
X175275000Y-77010000D03*
X165775000Y-77010000D03*
D14*
X134620000Y-62230000D03*
X148590000Y-62230000D03*
D17*
X178145000Y-83755000D03*
X178145000Y-85505000D03*
D19*
X157825000Y-82985000D03*
X157825000Y-80010000D03*
D20*
X182590000Y-75585000D03*
X182590000Y-73835000D03*
D14*
X129032000Y-62230000D03*
D21*
X181320000Y-91775000D03*
X182590000Y-91775000D03*
X183860000Y-91775000D03*
X185130000Y-91775000D03*
X185130000Y-86375000D03*
X183860000Y-86375000D03*
X182590000Y-86375000D03*
X181320000Y-86375000D03*
D22*
X183225000Y-89075000D03*
D23*
X128400000Y-98360000D03*
D24*
X130940000Y-98360000D03*
X128400000Y-100900000D03*
X130940000Y-100900000D03*
X128400000Y-103440000D03*
X130940000Y-103440000D03*
X128400000Y-105980000D03*
X130940000Y-105980000D03*
X128400000Y-108520000D03*
X130940000Y-108520000D03*
D25*
X183150000Y-93980000D03*
X184900000Y-93980000D03*
D14*
X140208000Y-62230000D03*
D25*
X187430000Y-93980000D03*
X189180000Y-93980000D03*
D14*
X154940000Y-71374000D03*
D25*
X144937000Y-81674000D03*
X146687000Y-81674000D03*
D14*
X145796000Y-62230000D03*
D26*
X144145000Y-72390000D03*
X144145000Y-74140000D03*
D14*
X143002000Y-62230000D03*
D27*
X186400000Y-81455000D03*
X184650000Y-81455000D03*
D28*
X145415000Y-99060000D03*
X148390000Y-99060000D03*
D29*
X179900000Y-97360000D03*
X173500000Y-97360000D03*
D30*
X183137500Y-98860000D03*
X185187500Y-98860000D03*
D14*
X131826000Y-62230000D03*
D31*
X157825000Y-71320000D03*
X157825000Y-74295000D03*
D19*
X161000000Y-74295000D03*
X161000000Y-71320000D03*
D25*
X187430000Y-92075000D03*
X189180000Y-92075000D03*
D27*
X186400000Y-79550000D03*
X184650000Y-79550000D03*
D14*
X152400000Y-71374000D03*
D15*
X149110000Y-79520000D03*
X149110000Y-77470000D03*
D26*
X182880000Y-81435000D03*
X182880000Y-83185000D03*
D14*
X129540000Y-85090000D03*
D27*
X180400000Y-93853000D03*
X178650000Y-93853000D03*
D30*
X183137500Y-96360000D03*
X185187500Y-96360000D03*
D31*
X161000000Y-80010000D03*
X161000000Y-82985000D03*
D26*
X184495000Y-73835000D03*
X184495000Y-75585000D03*
D25*
X182745000Y-71930000D03*
X184495000Y-71930000D03*
D32*
X142703000Y-79214000D03*
X143653000Y-79214000D03*
X144603000Y-79214000D03*
X144603000Y-76514000D03*
X143653000Y-76514000D03*
X142703000Y-76514000D03*
D14*
X137414000Y-62230000D03*
D25*
X140349000Y-74422000D03*
X142099000Y-74422000D03*
D33*
X157200000Y-116090000D03*
D34*
X160500000Y-109790000D03*
D35*
X157200000Y-111990000D03*
D34*
X153900000Y-109790000D03*
D36*
X160900000Y-117190000D03*
X153500000Y-117190000D03*
D20*
X147320000Y-74535000D03*
X147320000Y-72785000D03*
D37*
X129900000Y-77470000D03*
X129900000Y-73070000D03*
D38*
X174970000Y-83995000D03*
X174970000Y-88395000D03*
D39*
X120480000Y-90820000D03*
X120480000Y-65820000D03*
D40*
X121900000Y-83860000D03*
D41*
X121900000Y-81090000D03*
X121900000Y-78320000D03*
X121900000Y-75550000D03*
X121900000Y-72780000D03*
X119060000Y-82475000D03*
X119060000Y-79705000D03*
X119060000Y-76935000D03*
X119060000Y-74165000D03*
D27*
X155130000Y-77010000D03*
X153380000Y-77010000D03*
D42*
X167155000Y-103386600D03*
X167155000Y-105875800D03*
X167155000Y-108365000D03*
D43*
X169466400Y-111463800D03*
X165961200Y-100287800D03*
D19*
X135255000Y-86995000D03*
X135255000Y-84020000D03*
D25*
X155575000Y-103505000D03*
X157325000Y-103505000D03*
D44*
X127875000Y-119680000D03*
D45*
X142875000Y-106680000D03*
X182875000Y-106680000D03*
D44*
X197875000Y-119680000D03*
D46*
X139917500Y-99060000D03*
X136942500Y-99060000D03*
D31*
X135255000Y-75765000D03*
X135255000Y-78740000D03*
D47*
X153035000Y-99730000D03*
X154305000Y-99730000D03*
X155575000Y-99730000D03*
X156845000Y-99730000D03*
X156845000Y-94580000D03*
X155575000Y-94580000D03*
X154305000Y-94580000D03*
X153035000Y-94580000D03*
G36*
X144027267Y-78417301D02*
G01*
X144078946Y-78460489D01*
X144147661Y-78469120D01*
X144210291Y-78439156D01*
X144228348Y-78418318D01*
X144230238Y-78417664D01*
X144231749Y-78418974D01*
X144231821Y-78420018D01*
X144229000Y-78434199D01*
X144229000Y-79993801D01*
X144231978Y-80008774D01*
X144231335Y-80010668D01*
X144229373Y-80011058D01*
X144228733Y-80010699D01*
X144177054Y-79967511D01*
X144108339Y-79958880D01*
X144045709Y-79988844D01*
X144027652Y-80009682D01*
X144025762Y-80010336D01*
X144024251Y-80009026D01*
X144024179Y-80007982D01*
X144027000Y-79993801D01*
X144027000Y-78434199D01*
X144024022Y-78419226D01*
X144024665Y-78417332D01*
X144026627Y-78416942D01*
X144027267Y-78417301D01*
G37*
G36*
X143077267Y-78417301D02*
G01*
X143128946Y-78460489D01*
X143197661Y-78469120D01*
X143260291Y-78439156D01*
X143278348Y-78418318D01*
X143280238Y-78417664D01*
X143281749Y-78418974D01*
X143281821Y-78420018D01*
X143279000Y-78434199D01*
X143279000Y-79993801D01*
X143281978Y-80008774D01*
X143281335Y-80010668D01*
X143279373Y-80011058D01*
X143278733Y-80010699D01*
X143227054Y-79967511D01*
X143158339Y-79958880D01*
X143095709Y-79988844D01*
X143077652Y-80009682D01*
X143075762Y-80010336D01*
X143074251Y-80009026D01*
X143074179Y-80007982D01*
X143077000Y-79993801D01*
X143077000Y-78434199D01*
X143074022Y-78419226D01*
X143074665Y-78417332D01*
X143076627Y-78416942D01*
X143077267Y-78417301D01*
G37*
G36*
X143077267Y-75717301D02*
G01*
X143128946Y-75760489D01*
X143197661Y-75769120D01*
X143260291Y-75739156D01*
X143278348Y-75718318D01*
X143280238Y-75717664D01*
X143281749Y-75718974D01*
X143281821Y-75720018D01*
X143279000Y-75734199D01*
X143279000Y-77293801D01*
X143281978Y-77308774D01*
X143281335Y-77310668D01*
X143279373Y-77311058D01*
X143278733Y-77310699D01*
X143227054Y-77267511D01*
X143158339Y-77258880D01*
X143095709Y-77288844D01*
X143077652Y-77309682D01*
X143075762Y-77310336D01*
X143074251Y-77309026D01*
X143074179Y-77307982D01*
X143077000Y-77293801D01*
X143077000Y-75734199D01*
X143074022Y-75719226D01*
X143074665Y-75717332D01*
X143076627Y-75716942D01*
X143077267Y-75717301D01*
G37*
G36*
X144027267Y-75717301D02*
G01*
X144078946Y-75760489D01*
X144147661Y-75769120D01*
X144210291Y-75739156D01*
X144228348Y-75718318D01*
X144230238Y-75717664D01*
X144231749Y-75718974D01*
X144231821Y-75720018D01*
X144229000Y-75734199D01*
X144229000Y-77293801D01*
X144231978Y-77308774D01*
X144231335Y-77310668D01*
X144229373Y-77311058D01*
X144228733Y-77310699D01*
X144177054Y-77267511D01*
X144108339Y-77258880D01*
X144045709Y-77288844D01*
X144027652Y-77309682D01*
X144025762Y-77310336D01*
X144024251Y-77309026D01*
X144024179Y-77307982D01*
X144027000Y-77293801D01*
X144027000Y-75734199D01*
X144024022Y-75719226D01*
X144024665Y-75717332D01*
X144026627Y-75716942D01*
X144027267Y-75717301D01*
G37*
M02*
