M48
; DRILL file {KiCad 6.0.2+dfsg-1} date Sun Jul 16 14:07:38 2023
; FORMAT={-:-/ absolute / inch / decimal}
; #@! TF.CreationDate,2023-07-16T14:07:38-07:00
; #@! TF.GenerationSoftware,Kicad,Pcbnew,6.0.2+dfsg-1
; #@! TF.FileFunction,Plated,1,2,PTH
FMAT,2
INCH
; #@! TA.AperFunction,Plated,PTH,ComponentDrill
T1C0.0118
; #@! TA.AperFunction,Plated,PTH,ViaDrill
T2C0.0157
; #@! TA.AperFunction,Plated,PTH,ViaDrill
T3C0.0240
; #@! TA.AperFunction,Plated,PTH,ComponentDrill
T4C0.0394
; #@! TA.AperFunction,Plated,PTH,ComponentDrill
T5C0.0400
; #@! TA.AperFunction,Plated,PTH,ComponentDrill
T6C0.0600
; #@! TA.AperFunction,Plated,PTH,ComponentDrill
T7C0.1260
%
G90
G05
T1
X7.1427Y-3.4833
X7.1427Y-3.5305
X7.19Y-3.4833
X7.19Y-3.5305
X7.2411Y-3.4833
X7.2411Y-3.5305
X7.2844Y-3.4833
X7.2844Y-3.5305
T2
X4.95Y-3.45
X7.0Y-3.425
X7.0Y-3.6
T3
X5.1142Y-3.05
X5.41Y-2.64
X5.425Y-2.85
X5.575Y-2.825
X5.725Y-2.875
X5.775Y-3.0
X5.875Y-3.0
X5.925Y-3.25
X5.925Y-3.425
X5.925Y-3.65
X5.95Y-3.05
X6.0484Y-3.1516
X6.05Y-3.65
X6.2Y-3.025
X6.3Y-3.0
X6.3Y-3.075
X6.4115Y-2.9385
X6.425Y-3.125
X7.05Y-3.75
X7.1Y-2.35
X7.1Y-2.525
X7.1Y-2.725
X7.25Y-2.35
X7.3Y-4.025
X7.3695Y-3.5305
X7.4Y-2.75
X7.425Y-2.4
X7.425Y-3.35
X7.425Y-3.475
X7.425Y-3.875
X7.45Y-3.05
X7.475Y-3.175
X7.5Y-3.5
X7.5Y-3.925
X7.525Y-4.1
T4
X4.6874Y-2.9199
X4.6874Y-3.0289
X4.6874Y-3.138
X4.6874Y-3.247
X4.7992Y-2.8654
X4.7992Y-2.9744
X4.7992Y-3.0835
X4.7992Y-3.1925
X4.7992Y-3.3016
X5.0551Y-3.8724
X5.0551Y-3.9724
X5.0551Y-4.0724
X5.0551Y-4.1724
X5.0551Y-4.2724
X5.08Y-2.45
X5.1Y-3.35
X5.1551Y-3.8724
X5.1551Y-3.9724
X5.1551Y-4.0724
X5.1551Y-4.1724
X5.1551Y-4.2724
X5.19Y-2.45
X5.2Y-3.35
X5.3Y-2.45
X5.41Y-2.45
X5.52Y-2.45
X5.63Y-2.45
X5.74Y-2.45
X5.85Y-2.45
X6.0Y-2.81
X6.1Y-2.81
T5
X6.5809Y-4.0703
X6.5809Y-4.1683
X6.5809Y-4.2663
T6
X6.5339Y-3.9483
X6.6719Y-4.3883
T7
X4.7433Y-2.5913
X4.7433Y-3.5756
T4
G00X6.0433Y-4.5843
M15
G01X6.0433Y-4.6433
M16
G05
G00X6.0591Y-4.352
M15
G01X6.0591Y-4.2929
M16
G05
G00X6.2185Y-4.4091
M15
G01X6.1594Y-4.4091
M16
G05
G00X6.3189Y-4.352
M15
G01X6.3189Y-4.2929
M16
G05
G00X6.3346Y-4.5843
M15
G01X6.3346Y-4.6433
M16
G05
T0
M30
