G04 #@! TF.GenerationSoftware,KiCad,Pcbnew,6.0.2+dfsg-1*
G04 #@! TF.CreationDate,2023-07-16T14:07:34-07:00*
G04 #@! TF.ProjectId,adampsu,6164616d-7073-4752-9e6b-696361645f70,rev?*
G04 #@! TF.SameCoordinates,Original*
G04 #@! TF.FileFunction,Copper,L2,Bot*
G04 #@! TF.FilePolarity,Positive*
%FSLAX46Y46*%
G04 Gerber Fmt 4.6, Leading zero omitted, Abs format (unit mm)*
G04 Created by KiCad (PCBNEW 6.0.2+dfsg-1) date 2023-07-16 14:07:34*
%MOMM*%
%LPD*%
G01*
G04 APERTURE LIST*
%ADD10C,0.100000*%
%ADD11C,0.150000*%
%ADD12C,0.300000*%
%ADD13C,0.400000*%
G04 #@! TA.AperFunction,ComponentPad*
%ADD14O,1.700000X2.500000*%
G04 #@! TD*
G04 #@! TA.AperFunction,ComponentPad*
%ADD15C,0.600000*%
G04 #@! TD*
G04 #@! TA.AperFunction,SMDPad,CuDef*
%ADD16R,4.500000X2.950000*%
G04 #@! TD*
G04 #@! TA.AperFunction,ComponentPad*
%ADD17R,1.700000X1.700000*%
G04 #@! TD*
G04 #@! TA.AperFunction,ComponentPad*
%ADD18O,1.700000X1.700000*%
G04 #@! TD*
G04 #@! TA.AperFunction,ComponentPad*
%ADD19O,2.000000X3.500000*%
G04 #@! TD*
G04 #@! TA.AperFunction,ComponentPad*
%ADD20O,3.500000X2.000000*%
G04 #@! TD*
G04 #@! TA.AperFunction,ComponentPad*
%ADD21R,2.000000X3.500000*%
G04 #@! TD*
G04 #@! TA.AperFunction,ComponentPad*
%ADD22C,4.000000*%
G04 #@! TD*
G04 #@! TA.AperFunction,ComponentPad*
%ADD23R,1.600000X1.600000*%
G04 #@! TD*
G04 #@! TA.AperFunction,ComponentPad*
%ADD24C,1.600000*%
G04 #@! TD*
G04 #@! TA.AperFunction,ComponentPad*
%ADD25C,1.778000*%
G04 #@! TD*
G04 #@! TA.AperFunction,ComponentPad*
%ADD26C,2.286000*%
G04 #@! TD*
G04 #@! TA.AperFunction,ViaPad*
%ADD27C,1.000000*%
G04 #@! TD*
G04 #@! TA.AperFunction,ViaPad*
%ADD28C,0.800000*%
G04 #@! TD*
G04 #@! TA.AperFunction,Conductor*
%ADD29C,0.457200*%
G04 #@! TD*
G04 #@! TA.AperFunction,Conductor*
%ADD30C,1.000000*%
G04 #@! TD*
G04 #@! TA.AperFunction,Conductor*
%ADD31C,0.304800*%
G04 #@! TD*
G04 APERTURE END LIST*
D10*
D11*
X177002200Y-166007200D02*
X177002200Y-198007200D01*
X285002200Y-198007200D01*
X285002200Y-166007200D01*
X177002200Y-166007200D01*
D10*
D11*
X10000000Y-10000000D02*
X10000000Y-200007200D01*
X287002200Y-200007200D01*
X287002200Y-10000000D01*
X10000000Y-10000000D01*
D10*
D11*
X12000000Y-12000000D02*
X12000000Y-198007200D01*
X285002200Y-198007200D01*
X285002200Y-12000000D01*
X12000000Y-12000000D01*
D10*
D11*
X60000000Y-12000000D02*
X60000000Y-10000000D01*
D10*
D11*
X110000000Y-12000000D02*
X110000000Y-10000000D01*
D10*
D11*
X160000000Y-12000000D02*
X160000000Y-10000000D01*
D10*
D11*
X210000000Y-12000000D02*
X210000000Y-10000000D01*
D10*
D11*
X260000000Y-12000000D02*
X260000000Y-10000000D01*
D10*
D11*
X36065476Y-11588095D02*
X35322619Y-11588095D01*
X35694047Y-11588095D02*
X35694047Y-10288095D01*
X35570238Y-10473809D01*
X35446428Y-10597619D01*
X35322619Y-10659523D01*
D10*
D11*
X85322619Y-10411904D02*
X85384523Y-10350000D01*
X85508333Y-10288095D01*
X85817857Y-10288095D01*
X85941666Y-10350000D01*
X86003571Y-10411904D01*
X86065476Y-10535714D01*
X86065476Y-10659523D01*
X86003571Y-10845238D01*
X85260714Y-11588095D01*
X86065476Y-11588095D01*
D10*
D11*
X135260714Y-10288095D02*
X136065476Y-10288095D01*
X135632142Y-10783333D01*
X135817857Y-10783333D01*
X135941666Y-10845238D01*
X136003571Y-10907142D01*
X136065476Y-11030952D01*
X136065476Y-11340476D01*
X136003571Y-11464285D01*
X135941666Y-11526190D01*
X135817857Y-11588095D01*
X135446428Y-11588095D01*
X135322619Y-11526190D01*
X135260714Y-11464285D01*
D10*
D11*
X185941666Y-10721428D02*
X185941666Y-11588095D01*
X185632142Y-10226190D02*
X185322619Y-11154761D01*
X186127380Y-11154761D01*
D10*
D11*
X236003571Y-10288095D02*
X235384523Y-10288095D01*
X235322619Y-10907142D01*
X235384523Y-10845238D01*
X235508333Y-10783333D01*
X235817857Y-10783333D01*
X235941666Y-10845238D01*
X236003571Y-10907142D01*
X236065476Y-11030952D01*
X236065476Y-11340476D01*
X236003571Y-11464285D01*
X235941666Y-11526190D01*
X235817857Y-11588095D01*
X235508333Y-11588095D01*
X235384523Y-11526190D01*
X235322619Y-11464285D01*
D10*
D11*
X285941666Y-10288095D02*
X285694047Y-10288095D01*
X285570238Y-10350000D01*
X285508333Y-10411904D01*
X285384523Y-10597619D01*
X285322619Y-10845238D01*
X285322619Y-11340476D01*
X285384523Y-11464285D01*
X285446428Y-11526190D01*
X285570238Y-11588095D01*
X285817857Y-11588095D01*
X285941666Y-11526190D01*
X286003571Y-11464285D01*
X286065476Y-11340476D01*
X286065476Y-11030952D01*
X286003571Y-10907142D01*
X285941666Y-10845238D01*
X285817857Y-10783333D01*
X285570238Y-10783333D01*
X285446428Y-10845238D01*
X285384523Y-10907142D01*
X285322619Y-11030952D01*
D10*
D11*
X60000000Y-198007200D02*
X60000000Y-200007200D01*
D10*
D11*
X110000000Y-198007200D02*
X110000000Y-200007200D01*
D10*
D11*
X160000000Y-198007200D02*
X160000000Y-200007200D01*
D10*
D11*
X210000000Y-198007200D02*
X210000000Y-200007200D01*
D10*
D11*
X260000000Y-198007200D02*
X260000000Y-200007200D01*
D10*
D11*
X36065476Y-199595295D02*
X35322619Y-199595295D01*
X35694047Y-199595295D02*
X35694047Y-198295295D01*
X35570238Y-198481009D01*
X35446428Y-198604819D01*
X35322619Y-198666723D01*
D10*
D11*
X85322619Y-198419104D02*
X85384523Y-198357200D01*
X85508333Y-198295295D01*
X85817857Y-198295295D01*
X85941666Y-198357200D01*
X86003571Y-198419104D01*
X86065476Y-198542914D01*
X86065476Y-198666723D01*
X86003571Y-198852438D01*
X85260714Y-199595295D01*
X86065476Y-199595295D01*
D10*
D11*
X135260714Y-198295295D02*
X136065476Y-198295295D01*
X135632142Y-198790533D01*
X135817857Y-198790533D01*
X135941666Y-198852438D01*
X136003571Y-198914342D01*
X136065476Y-199038152D01*
X136065476Y-199347676D01*
X136003571Y-199471485D01*
X135941666Y-199533390D01*
X135817857Y-199595295D01*
X135446428Y-199595295D01*
X135322619Y-199533390D01*
X135260714Y-199471485D01*
D10*
D11*
X185941666Y-198728628D02*
X185941666Y-199595295D01*
X185632142Y-198233390D02*
X185322619Y-199161961D01*
X186127380Y-199161961D01*
D10*
D11*
X236003571Y-198295295D02*
X235384523Y-198295295D01*
X235322619Y-198914342D01*
X235384523Y-198852438D01*
X235508333Y-198790533D01*
X235817857Y-198790533D01*
X235941666Y-198852438D01*
X236003571Y-198914342D01*
X236065476Y-199038152D01*
X236065476Y-199347676D01*
X236003571Y-199471485D01*
X235941666Y-199533390D01*
X235817857Y-199595295D01*
X235508333Y-199595295D01*
X235384523Y-199533390D01*
X235322619Y-199471485D01*
D10*
D11*
X285941666Y-198295295D02*
X285694047Y-198295295D01*
X285570238Y-198357200D01*
X285508333Y-198419104D01*
X285384523Y-198604819D01*
X285322619Y-198852438D01*
X285322619Y-199347676D01*
X285384523Y-199471485D01*
X285446428Y-199533390D01*
X285570238Y-199595295D01*
X285817857Y-199595295D01*
X285941666Y-199533390D01*
X286003571Y-199471485D01*
X286065476Y-199347676D01*
X286065476Y-199038152D01*
X286003571Y-198914342D01*
X285941666Y-198852438D01*
X285817857Y-198790533D01*
X285570238Y-198790533D01*
X285446428Y-198852438D01*
X285384523Y-198914342D01*
X285322619Y-199038152D01*
D10*
D11*
X10000000Y-60000000D02*
X12000000Y-60000000D01*
D10*
D11*
X10000000Y-110000000D02*
X12000000Y-110000000D01*
D10*
D11*
X10000000Y-160000000D02*
X12000000Y-160000000D01*
D10*
D11*
X10690476Y-35216666D02*
X11309523Y-35216666D01*
X10566666Y-35588095D02*
X11000000Y-34288095D01*
X11433333Y-35588095D01*
D10*
D11*
X11092857Y-84907142D02*
X11278571Y-84969047D01*
X11340476Y-85030952D01*
X11402380Y-85154761D01*
X11402380Y-85340476D01*
X11340476Y-85464285D01*
X11278571Y-85526190D01*
X11154761Y-85588095D01*
X10659523Y-85588095D01*
X10659523Y-84288095D01*
X11092857Y-84288095D01*
X11216666Y-84350000D01*
X11278571Y-84411904D01*
X11340476Y-84535714D01*
X11340476Y-84659523D01*
X11278571Y-84783333D01*
X11216666Y-84845238D01*
X11092857Y-84907142D01*
X10659523Y-84907142D01*
D10*
D11*
X11402380Y-135464285D02*
X11340476Y-135526190D01*
X11154761Y-135588095D01*
X11030952Y-135588095D01*
X10845238Y-135526190D01*
X10721428Y-135402380D01*
X10659523Y-135278571D01*
X10597619Y-135030952D01*
X10597619Y-134845238D01*
X10659523Y-134597619D01*
X10721428Y-134473809D01*
X10845238Y-134350000D01*
X11030952Y-134288095D01*
X11154761Y-134288095D01*
X11340476Y-134350000D01*
X11402380Y-134411904D01*
D10*
D11*
X10659523Y-185588095D02*
X10659523Y-184288095D01*
X10969047Y-184288095D01*
X11154761Y-184350000D01*
X11278571Y-184473809D01*
X11340476Y-184597619D01*
X11402380Y-184845238D01*
X11402380Y-185030952D01*
X11340476Y-185278571D01*
X11278571Y-185402380D01*
X11154761Y-185526190D01*
X10969047Y-185588095D01*
X10659523Y-185588095D01*
D10*
D11*
X287002200Y-60000000D02*
X285002200Y-60000000D01*
D10*
D11*
X287002200Y-110000000D02*
X285002200Y-110000000D01*
D10*
D11*
X287002200Y-160000000D02*
X285002200Y-160000000D01*
D10*
D11*
X285692676Y-35216666D02*
X286311723Y-35216666D01*
X285568866Y-35588095D02*
X286002200Y-34288095D01*
X286435533Y-35588095D01*
D10*
D11*
X286095057Y-84907142D02*
X286280771Y-84969047D01*
X286342676Y-85030952D01*
X286404580Y-85154761D01*
X286404580Y-85340476D01*
X286342676Y-85464285D01*
X286280771Y-85526190D01*
X286156961Y-85588095D01*
X285661723Y-85588095D01*
X285661723Y-84288095D01*
X286095057Y-84288095D01*
X286218866Y-84350000D01*
X286280771Y-84411904D01*
X286342676Y-84535714D01*
X286342676Y-84659523D01*
X286280771Y-84783333D01*
X286218866Y-84845238D01*
X286095057Y-84907142D01*
X285661723Y-84907142D01*
D10*
D11*
X286404580Y-135464285D02*
X286342676Y-135526190D01*
X286156961Y-135588095D01*
X286033152Y-135588095D01*
X285847438Y-135526190D01*
X285723628Y-135402380D01*
X285661723Y-135278571D01*
X285599819Y-135030952D01*
X285599819Y-134845238D01*
X285661723Y-134597619D01*
X285723628Y-134473809D01*
X285847438Y-134350000D01*
X286033152Y-134288095D01*
X286156961Y-134288095D01*
X286342676Y-134350000D01*
X286404580Y-134411904D01*
D10*
D11*
X285661723Y-185588095D02*
X285661723Y-184288095D01*
X285971247Y-184288095D01*
X286156961Y-184350000D01*
X286280771Y-184473809D01*
X286342676Y-184597619D01*
X286404580Y-184845238D01*
X286404580Y-185030952D01*
X286342676Y-185278571D01*
X286280771Y-185402380D01*
X286156961Y-185526190D01*
X285971247Y-185588095D01*
X285661723Y-185588095D01*
D10*
D11*
X200434342Y-193785771D02*
X200434342Y-192285771D01*
X200791485Y-192285771D01*
X201005771Y-192357200D01*
X201148628Y-192500057D01*
X201220057Y-192642914D01*
X201291485Y-192928628D01*
X201291485Y-193142914D01*
X201220057Y-193428628D01*
X201148628Y-193571485D01*
X201005771Y-193714342D01*
X200791485Y-193785771D01*
X200434342Y-193785771D01*
X202577200Y-193785771D02*
X202577200Y-193000057D01*
X202505771Y-192857200D01*
X202362914Y-192785771D01*
X202077200Y-192785771D01*
X201934342Y-192857200D01*
X202577200Y-193714342D02*
X202434342Y-193785771D01*
X202077200Y-193785771D01*
X201934342Y-193714342D01*
X201862914Y-193571485D01*
X201862914Y-193428628D01*
X201934342Y-193285771D01*
X202077200Y-193214342D01*
X202434342Y-193214342D01*
X202577200Y-193142914D01*
X203077200Y-192785771D02*
X203648628Y-192785771D01*
X203291485Y-192285771D02*
X203291485Y-193571485D01*
X203362914Y-193714342D01*
X203505771Y-193785771D01*
X203648628Y-193785771D01*
X204720057Y-193714342D02*
X204577200Y-193785771D01*
X204291485Y-193785771D01*
X204148628Y-193714342D01*
X204077200Y-193571485D01*
X204077200Y-193000057D01*
X204148628Y-192857200D01*
X204291485Y-192785771D01*
X204577200Y-192785771D01*
X204720057Y-192857200D01*
X204791485Y-193000057D01*
X204791485Y-193142914D01*
X204077200Y-193285771D01*
X205434342Y-193642914D02*
X205505771Y-193714342D01*
X205434342Y-193785771D01*
X205362914Y-193714342D01*
X205434342Y-193642914D01*
X205434342Y-193785771D01*
X205434342Y-192857200D02*
X205505771Y-192928628D01*
X205434342Y-193000057D01*
X205362914Y-192928628D01*
X205434342Y-192857200D01*
X205434342Y-193000057D01*
D10*
D11*
X177002200Y-194507200D02*
X285002200Y-194507200D01*
D10*
D11*
X178434342Y-196585771D02*
X178434342Y-195085771D01*
X179291485Y-196585771D02*
X178648628Y-195728628D01*
X179291485Y-195085771D02*
X178434342Y-195942914D01*
X179934342Y-196585771D02*
X179934342Y-195585771D01*
X179934342Y-195085771D02*
X179862914Y-195157200D01*
X179934342Y-195228628D01*
X180005771Y-195157200D01*
X179934342Y-195085771D01*
X179934342Y-195228628D01*
X181505771Y-196442914D02*
X181434342Y-196514342D01*
X181220057Y-196585771D01*
X181077200Y-196585771D01*
X180862914Y-196514342D01*
X180720057Y-196371485D01*
X180648628Y-196228628D01*
X180577200Y-195942914D01*
X180577200Y-195728628D01*
X180648628Y-195442914D01*
X180720057Y-195300057D01*
X180862914Y-195157200D01*
X181077200Y-195085771D01*
X181220057Y-195085771D01*
X181434342Y-195157200D01*
X181505771Y-195228628D01*
X182791485Y-196585771D02*
X182791485Y-195800057D01*
X182720057Y-195657200D01*
X182577200Y-195585771D01*
X182291485Y-195585771D01*
X182148628Y-195657200D01*
X182791485Y-196514342D02*
X182648628Y-196585771D01*
X182291485Y-196585771D01*
X182148628Y-196514342D01*
X182077200Y-196371485D01*
X182077200Y-196228628D01*
X182148628Y-196085771D01*
X182291485Y-196014342D01*
X182648628Y-196014342D01*
X182791485Y-195942914D01*
X184148628Y-196585771D02*
X184148628Y-195085771D01*
X184148628Y-196514342D02*
X184005771Y-196585771D01*
X183720057Y-196585771D01*
X183577200Y-196514342D01*
X183505771Y-196442914D01*
X183434342Y-196300057D01*
X183434342Y-195871485D01*
X183505771Y-195728628D01*
X183577200Y-195657200D01*
X183720057Y-195585771D01*
X184005771Y-195585771D01*
X184148628Y-195657200D01*
X186005771Y-195800057D02*
X186505771Y-195800057D01*
X186720057Y-196585771D02*
X186005771Y-196585771D01*
X186005771Y-195085771D01*
X186720057Y-195085771D01*
X187362914Y-196442914D02*
X187434342Y-196514342D01*
X187362914Y-196585771D01*
X187291485Y-196514342D01*
X187362914Y-196442914D01*
X187362914Y-196585771D01*
X188077200Y-196585771D02*
X188077200Y-195085771D01*
X188434342Y-195085771D01*
X188648628Y-195157200D01*
X188791485Y-195300057D01*
X188862914Y-195442914D01*
X188934342Y-195728628D01*
X188934342Y-195942914D01*
X188862914Y-196228628D01*
X188791485Y-196371485D01*
X188648628Y-196514342D01*
X188434342Y-196585771D01*
X188077200Y-196585771D01*
X189577200Y-196442914D02*
X189648628Y-196514342D01*
X189577200Y-196585771D01*
X189505771Y-196514342D01*
X189577200Y-196442914D01*
X189577200Y-196585771D01*
X190220057Y-196157200D02*
X190934342Y-196157200D01*
X190077200Y-196585771D02*
X190577200Y-195085771D01*
X191077200Y-196585771D01*
X191577200Y-196442914D02*
X191648628Y-196514342D01*
X191577200Y-196585771D01*
X191505771Y-196514342D01*
X191577200Y-196442914D01*
X191577200Y-196585771D01*
X194577200Y-196585771D02*
X194577200Y-195085771D01*
X194720057Y-196014342D02*
X195148628Y-196585771D01*
X195148628Y-195585771D02*
X194577200Y-196157200D01*
X195791485Y-196585771D02*
X195791485Y-195585771D01*
X195791485Y-195085771D02*
X195720057Y-195157200D01*
X195791485Y-195228628D01*
X195862914Y-195157200D01*
X195791485Y-195085771D01*
X195791485Y-195228628D01*
X197148628Y-196514342D02*
X197005771Y-196585771D01*
X196720057Y-196585771D01*
X196577200Y-196514342D01*
X196505771Y-196442914D01*
X196434342Y-196300057D01*
X196434342Y-195871485D01*
X196505771Y-195728628D01*
X196577200Y-195657200D01*
X196720057Y-195585771D01*
X197005771Y-195585771D01*
X197148628Y-195657200D01*
X198434342Y-196585771D02*
X198434342Y-195800057D01*
X198362914Y-195657200D01*
X198220057Y-195585771D01*
X197934342Y-195585771D01*
X197791485Y-195657200D01*
X198434342Y-196514342D02*
X198291485Y-196585771D01*
X197934342Y-196585771D01*
X197791485Y-196514342D01*
X197720057Y-196371485D01*
X197720057Y-196228628D01*
X197791485Y-196085771D01*
X197934342Y-196014342D01*
X198291485Y-196014342D01*
X198434342Y-195942914D01*
X199791485Y-196585771D02*
X199791485Y-195085771D01*
X199791485Y-196514342D02*
X199648628Y-196585771D01*
X199362914Y-196585771D01*
X199220057Y-196514342D01*
X199148628Y-196442914D01*
X199077200Y-196300057D01*
X199077200Y-195871485D01*
X199148628Y-195728628D01*
X199220057Y-195657200D01*
X199362914Y-195585771D01*
X199648628Y-195585771D01*
X199791485Y-195657200D01*
X202291485Y-195085771D02*
X202005771Y-195085771D01*
X201862914Y-195157200D01*
X201791485Y-195228628D01*
X201648628Y-195442914D01*
X201577200Y-195728628D01*
X201577200Y-196300057D01*
X201648628Y-196442914D01*
X201720057Y-196514342D01*
X201862914Y-196585771D01*
X202148628Y-196585771D01*
X202291485Y-196514342D01*
X202362914Y-196442914D01*
X202434342Y-196300057D01*
X202434342Y-195942914D01*
X202362914Y-195800057D01*
X202291485Y-195728628D01*
X202148628Y-195657200D01*
X201862914Y-195657200D01*
X201720057Y-195728628D01*
X201648628Y-195800057D01*
X201577200Y-195942914D01*
X203077200Y-196442914D02*
X203148628Y-196514342D01*
X203077200Y-196585771D01*
X203005771Y-196514342D01*
X203077200Y-196442914D01*
X203077200Y-196585771D01*
X204077200Y-195085771D02*
X204220057Y-195085771D01*
X204362914Y-195157200D01*
X204434342Y-195228628D01*
X204505771Y-195371485D01*
X204577200Y-195657200D01*
X204577200Y-196014342D01*
X204505771Y-196300057D01*
X204434342Y-196442914D01*
X204362914Y-196514342D01*
X204220057Y-196585771D01*
X204077200Y-196585771D01*
X203934342Y-196514342D01*
X203862914Y-196442914D01*
X203791485Y-196300057D01*
X203720057Y-196014342D01*
X203720057Y-195657200D01*
X203791485Y-195371485D01*
X203862914Y-195228628D01*
X203934342Y-195157200D01*
X204077200Y-195085771D01*
X205220057Y-196442914D02*
X205291485Y-196514342D01*
X205220057Y-196585771D01*
X205148628Y-196514342D01*
X205220057Y-196442914D01*
X205220057Y-196585771D01*
X205862914Y-195228628D02*
X205934342Y-195157200D01*
X206077200Y-195085771D01*
X206434342Y-195085771D01*
X206577200Y-195157200D01*
X206648628Y-195228628D01*
X206720057Y-195371485D01*
X206720057Y-195514342D01*
X206648628Y-195728628D01*
X205791485Y-196585771D01*
X206720057Y-196585771D01*
X207362914Y-196014342D02*
X208505771Y-196014342D01*
X207934342Y-196585771D02*
X207934342Y-195442914D01*
X209862914Y-196585771D02*
X209862914Y-195085771D01*
X209862914Y-196514342D02*
X209720057Y-196585771D01*
X209434342Y-196585771D01*
X209291485Y-196514342D01*
X209220057Y-196442914D01*
X209148628Y-196300057D01*
X209148628Y-195871485D01*
X209220057Y-195728628D01*
X209291485Y-195657200D01*
X209434342Y-195585771D01*
X209720057Y-195585771D01*
X209862914Y-195657200D01*
X210362914Y-195585771D02*
X210934342Y-195585771D01*
X210577200Y-196585771D02*
X210577200Y-195300057D01*
X210648628Y-195157200D01*
X210791485Y-195085771D01*
X210934342Y-195085771D01*
X211362914Y-196514342D02*
X211505771Y-196585771D01*
X211791485Y-196585771D01*
X211934342Y-196514342D01*
X212005771Y-196371485D01*
X212005771Y-196300057D01*
X211934342Y-196157200D01*
X211791485Y-196085771D01*
X211577200Y-196085771D01*
X211434342Y-196014342D01*
X211362914Y-195871485D01*
X211362914Y-195800057D01*
X211434342Y-195657200D01*
X211577200Y-195585771D01*
X211791485Y-195585771D01*
X211934342Y-195657200D01*
X213291485Y-195585771D02*
X213291485Y-196800057D01*
X213220057Y-196942914D01*
X213148628Y-197014342D01*
X213005771Y-197085771D01*
X212791485Y-197085771D01*
X212648628Y-197014342D01*
X213291485Y-196514342D02*
X213148628Y-196585771D01*
X212862914Y-196585771D01*
X212720057Y-196514342D01*
X212648628Y-196442914D01*
X212577200Y-196300057D01*
X212577200Y-195871485D01*
X212648628Y-195728628D01*
X212720057Y-195657200D01*
X212862914Y-195585771D01*
X213148628Y-195585771D01*
X213291485Y-195657200D01*
X214005771Y-196014342D02*
X215148628Y-196014342D01*
X216648628Y-196585771D02*
X215791485Y-196585771D01*
X216220057Y-196585771D02*
X216220057Y-195085771D01*
X216077200Y-195300057D01*
X215934342Y-195442914D01*
X215791485Y-195514342D01*
D10*
D11*
X177002200Y-191507200D02*
X285002200Y-191507200D01*
D10*
D12*
X264411485Y-193785771D02*
X263911485Y-193071485D01*
X263554342Y-193785771D02*
X263554342Y-192285771D01*
X264125771Y-192285771D01*
X264268628Y-192357200D01*
X264340057Y-192428628D01*
X264411485Y-192571485D01*
X264411485Y-192785771D01*
X264340057Y-192928628D01*
X264268628Y-193000057D01*
X264125771Y-193071485D01*
X263554342Y-193071485D01*
X265625771Y-193714342D02*
X265482914Y-193785771D01*
X265197200Y-193785771D01*
X265054342Y-193714342D01*
X264982914Y-193571485D01*
X264982914Y-193000057D01*
X265054342Y-192857200D01*
X265197200Y-192785771D01*
X265482914Y-192785771D01*
X265625771Y-192857200D01*
X265697200Y-193000057D01*
X265697200Y-193142914D01*
X264982914Y-193285771D01*
X266197200Y-192785771D02*
X266554342Y-193785771D01*
X266911485Y-192785771D01*
X267482914Y-193642914D02*
X267554342Y-193714342D01*
X267482914Y-193785771D01*
X267411485Y-193714342D01*
X267482914Y-193642914D01*
X267482914Y-193785771D01*
X267482914Y-192857200D02*
X267554342Y-192928628D01*
X267482914Y-193000057D01*
X267411485Y-192928628D01*
X267482914Y-192857200D01*
X267482914Y-193000057D01*
D10*
D11*
X178362914Y-193714342D02*
X178577200Y-193785771D01*
X178934342Y-193785771D01*
X179077200Y-193714342D01*
X179148628Y-193642914D01*
X179220057Y-193500057D01*
X179220057Y-193357200D01*
X179148628Y-193214342D01*
X179077200Y-193142914D01*
X178934342Y-193071485D01*
X178648628Y-193000057D01*
X178505771Y-192928628D01*
X178434342Y-192857200D01*
X178362914Y-192714342D01*
X178362914Y-192571485D01*
X178434342Y-192428628D01*
X178505771Y-192357200D01*
X178648628Y-192285771D01*
X179005771Y-192285771D01*
X179220057Y-192357200D01*
X179862914Y-193785771D02*
X179862914Y-192785771D01*
X179862914Y-192285771D02*
X179791485Y-192357200D01*
X179862914Y-192428628D01*
X179934342Y-192357200D01*
X179862914Y-192285771D01*
X179862914Y-192428628D01*
X180434342Y-192785771D02*
X181220057Y-192785771D01*
X180434342Y-193785771D01*
X181220057Y-193785771D01*
X182362914Y-193714342D02*
X182220057Y-193785771D01*
X181934342Y-193785771D01*
X181791485Y-193714342D01*
X181720057Y-193571485D01*
X181720057Y-193000057D01*
X181791485Y-192857200D01*
X181934342Y-192785771D01*
X182220057Y-192785771D01*
X182362914Y-192857200D01*
X182434342Y-193000057D01*
X182434342Y-193142914D01*
X181720057Y-193285771D01*
X183077200Y-193642914D02*
X183148628Y-193714342D01*
X183077200Y-193785771D01*
X183005771Y-193714342D01*
X183077200Y-193642914D01*
X183077200Y-193785771D01*
X183077200Y-192857200D02*
X183148628Y-192928628D01*
X183077200Y-193000057D01*
X183005771Y-192928628D01*
X183077200Y-192857200D01*
X183077200Y-193000057D01*
X184862914Y-193357200D02*
X185577200Y-193357200D01*
X184720057Y-193785771D02*
X185220057Y-192285771D01*
X185720057Y-193785771D01*
X186862914Y-192785771D02*
X186862914Y-193785771D01*
X186505771Y-192214342D02*
X186148628Y-193285771D01*
X187077200Y-193285771D01*
D10*
D11*
X263434342Y-196585771D02*
X263434342Y-195085771D01*
X264791485Y-196585771D02*
X264791485Y-195085771D01*
X264791485Y-196514342D02*
X264648628Y-196585771D01*
X264362914Y-196585771D01*
X264220057Y-196514342D01*
X264148628Y-196442914D01*
X264077200Y-196300057D01*
X264077200Y-195871485D01*
X264148628Y-195728628D01*
X264220057Y-195657200D01*
X264362914Y-195585771D01*
X264648628Y-195585771D01*
X264791485Y-195657200D01*
X265505771Y-196442914D02*
X265577200Y-196514342D01*
X265505771Y-196585771D01*
X265434342Y-196514342D01*
X265505771Y-196442914D01*
X265505771Y-196585771D01*
X265505771Y-195657200D02*
X265577200Y-195728628D01*
X265505771Y-195800057D01*
X265434342Y-195728628D01*
X265505771Y-195657200D01*
X265505771Y-195800057D01*
X268148628Y-196585771D02*
X267291485Y-196585771D01*
X267720057Y-196585771D02*
X267720057Y-195085771D01*
X267577200Y-195300057D01*
X267434342Y-195442914D01*
X267291485Y-195514342D01*
X269862914Y-195014342D02*
X268577200Y-196942914D01*
X271148628Y-196585771D02*
X270291485Y-196585771D01*
X270720057Y-196585771D02*
X270720057Y-195085771D01*
X270577200Y-195300057D01*
X270434342Y-195442914D01*
X270291485Y-195514342D01*
D10*
D11*
X177002200Y-187507200D02*
X285002200Y-187507200D01*
D10*
D13*
X178714580Y-188211961D02*
X179857438Y-188211961D01*
X179036009Y-190211961D02*
X179286009Y-188211961D01*
X180274104Y-190211961D02*
X180440771Y-188878628D01*
X180524104Y-188211961D02*
X180416961Y-188307200D01*
X180500295Y-188402438D01*
X180607438Y-188307200D01*
X180524104Y-188211961D01*
X180500295Y-188402438D01*
X181107438Y-188878628D02*
X181869342Y-188878628D01*
X181476485Y-188211961D02*
X181262200Y-189926247D01*
X181333628Y-190116723D01*
X181512200Y-190211961D01*
X181702676Y-190211961D01*
X182655057Y-190211961D02*
X182476485Y-190116723D01*
X182405057Y-189926247D01*
X182619342Y-188211961D01*
X184190771Y-190116723D02*
X183988390Y-190211961D01*
X183607438Y-190211961D01*
X183428866Y-190116723D01*
X183357438Y-189926247D01*
X183452676Y-189164342D01*
X183571723Y-188973866D01*
X183774104Y-188878628D01*
X184155057Y-188878628D01*
X184333628Y-188973866D01*
X184405057Y-189164342D01*
X184381247Y-189354819D01*
X183405057Y-189545295D01*
X185155057Y-190021485D02*
X185238390Y-190116723D01*
X185131247Y-190211961D01*
X185047914Y-190116723D01*
X185155057Y-190021485D01*
X185131247Y-190211961D01*
X185286009Y-188973866D02*
X185369342Y-189069104D01*
X185262200Y-189164342D01*
X185178866Y-189069104D01*
X185286009Y-188973866D01*
X185262200Y-189164342D01*
D10*
D11*
X178934342Y-185600057D02*
X178434342Y-185600057D01*
X178434342Y-186385771D02*
X178434342Y-184885771D01*
X179148628Y-184885771D01*
X179720057Y-186385771D02*
X179720057Y-185385771D01*
X179720057Y-184885771D02*
X179648628Y-184957200D01*
X179720057Y-185028628D01*
X179791485Y-184957200D01*
X179720057Y-184885771D01*
X179720057Y-185028628D01*
X180648628Y-186385771D02*
X180505771Y-186314342D01*
X180434342Y-186171485D01*
X180434342Y-184885771D01*
X181791485Y-186314342D02*
X181648628Y-186385771D01*
X181362914Y-186385771D01*
X181220057Y-186314342D01*
X181148628Y-186171485D01*
X181148628Y-185600057D01*
X181220057Y-185457200D01*
X181362914Y-185385771D01*
X181648628Y-185385771D01*
X181791485Y-185457200D01*
X181862914Y-185600057D01*
X181862914Y-185742914D01*
X181148628Y-185885771D01*
X182505771Y-186242914D02*
X182577200Y-186314342D01*
X182505771Y-186385771D01*
X182434342Y-186314342D01*
X182505771Y-186242914D01*
X182505771Y-186385771D01*
X182505771Y-185457200D02*
X182577200Y-185528628D01*
X182505771Y-185600057D01*
X182434342Y-185528628D01*
X182505771Y-185457200D01*
X182505771Y-185600057D01*
X185005771Y-186385771D02*
X185005771Y-185600057D01*
X184934342Y-185457200D01*
X184791485Y-185385771D01*
X184505771Y-185385771D01*
X184362914Y-185457200D01*
X185005771Y-186314342D02*
X184862914Y-186385771D01*
X184505771Y-186385771D01*
X184362914Y-186314342D01*
X184291485Y-186171485D01*
X184291485Y-186028628D01*
X184362914Y-185885771D01*
X184505771Y-185814342D01*
X184862914Y-185814342D01*
X185005771Y-185742914D01*
X186362914Y-186385771D02*
X186362914Y-184885771D01*
X186362914Y-186314342D02*
X186220057Y-186385771D01*
X185934342Y-186385771D01*
X185791485Y-186314342D01*
X185720057Y-186242914D01*
X185648628Y-186100057D01*
X185648628Y-185671485D01*
X185720057Y-185528628D01*
X185791485Y-185457200D01*
X185934342Y-185385771D01*
X186220057Y-185385771D01*
X186362914Y-185457200D01*
X187720057Y-186385771D02*
X187720057Y-185600057D01*
X187648628Y-185457200D01*
X187505771Y-185385771D01*
X187220057Y-185385771D01*
X187077200Y-185457200D01*
X187720057Y-186314342D02*
X187577200Y-186385771D01*
X187220057Y-186385771D01*
X187077200Y-186314342D01*
X187005771Y-186171485D01*
X187005771Y-186028628D01*
X187077200Y-185885771D01*
X187220057Y-185814342D01*
X187577200Y-185814342D01*
X187720057Y-185742914D01*
X188434342Y-186385771D02*
X188434342Y-185385771D01*
X188434342Y-185528628D02*
X188505771Y-185457200D01*
X188648628Y-185385771D01*
X188862914Y-185385771D01*
X189005771Y-185457200D01*
X189077200Y-185600057D01*
X189077200Y-186385771D01*
X189077200Y-185600057D02*
X189148628Y-185457200D01*
X189291485Y-185385771D01*
X189505771Y-185385771D01*
X189648628Y-185457200D01*
X189720057Y-185600057D01*
X189720057Y-186385771D01*
X190434342Y-185385771D02*
X190434342Y-186885771D01*
X190434342Y-185457200D02*
X190577200Y-185385771D01*
X190862914Y-185385771D01*
X191005771Y-185457200D01*
X191077200Y-185528628D01*
X191148628Y-185671485D01*
X191148628Y-186100057D01*
X191077200Y-186242914D01*
X191005771Y-186314342D01*
X190862914Y-186385771D01*
X190577200Y-186385771D01*
X190434342Y-186314342D01*
X191720057Y-186314342D02*
X191862914Y-186385771D01*
X192148628Y-186385771D01*
X192291485Y-186314342D01*
X192362914Y-186171485D01*
X192362914Y-186100057D01*
X192291485Y-185957200D01*
X192148628Y-185885771D01*
X191934342Y-185885771D01*
X191791485Y-185814342D01*
X191720057Y-185671485D01*
X191720057Y-185600057D01*
X191791485Y-185457200D01*
X191934342Y-185385771D01*
X192148628Y-185385771D01*
X192291485Y-185457200D01*
X193648628Y-185385771D02*
X193648628Y-186385771D01*
X193005771Y-185385771D02*
X193005771Y-186171485D01*
X193077200Y-186314342D01*
X193220057Y-186385771D01*
X193434342Y-186385771D01*
X193577200Y-186314342D01*
X193648628Y-186242914D01*
X194362914Y-186242914D02*
X194434342Y-186314342D01*
X194362914Y-186385771D01*
X194291485Y-186314342D01*
X194362914Y-186242914D01*
X194362914Y-186385771D01*
X195077200Y-186385771D02*
X195077200Y-184885771D01*
X195220057Y-185814342D02*
X195648628Y-186385771D01*
X195648628Y-185385771D02*
X195077200Y-185957200D01*
X196291485Y-186385771D02*
X196291485Y-185385771D01*
X196291485Y-184885771D02*
X196220057Y-184957200D01*
X196291485Y-185028628D01*
X196362914Y-184957200D01*
X196291485Y-184885771D01*
X196291485Y-185028628D01*
X197648628Y-186314342D02*
X197505771Y-186385771D01*
X197220057Y-186385771D01*
X197077200Y-186314342D01*
X197005771Y-186242914D01*
X196934342Y-186100057D01*
X196934342Y-185671485D01*
X197005771Y-185528628D01*
X197077200Y-185457200D01*
X197220057Y-185385771D01*
X197505771Y-185385771D01*
X197648628Y-185457200D01*
X198934342Y-186385771D02*
X198934342Y-185600057D01*
X198862914Y-185457200D01*
X198720057Y-185385771D01*
X198434342Y-185385771D01*
X198291485Y-185457200D01*
X198934342Y-186314342D02*
X198791485Y-186385771D01*
X198434342Y-186385771D01*
X198291485Y-186314342D01*
X198220057Y-186171485D01*
X198220057Y-186028628D01*
X198291485Y-185885771D01*
X198434342Y-185814342D01*
X198791485Y-185814342D01*
X198934342Y-185742914D01*
X200291485Y-186385771D02*
X200291485Y-184885771D01*
X200291485Y-186314342D02*
X200148628Y-186385771D01*
X199862914Y-186385771D01*
X199720057Y-186314342D01*
X199648628Y-186242914D01*
X199577200Y-186100057D01*
X199577200Y-185671485D01*
X199648628Y-185528628D01*
X199720057Y-185457200D01*
X199862914Y-185385771D01*
X200148628Y-185385771D01*
X200291485Y-185457200D01*
X200648628Y-186528628D02*
X201791485Y-186528628D01*
X202148628Y-185385771D02*
X202148628Y-186885771D01*
X202148628Y-185457200D02*
X202291485Y-185385771D01*
X202577200Y-185385771D01*
X202720057Y-185457200D01*
X202791485Y-185528628D01*
X202862914Y-185671485D01*
X202862914Y-186100057D01*
X202791485Y-186242914D01*
X202720057Y-186314342D01*
X202577200Y-186385771D01*
X202291485Y-186385771D01*
X202148628Y-186314342D01*
X204148628Y-186314342D02*
X204005771Y-186385771D01*
X203720057Y-186385771D01*
X203577200Y-186314342D01*
X203505771Y-186242914D01*
X203434342Y-186100057D01*
X203434342Y-185671485D01*
X203505771Y-185528628D01*
X203577200Y-185457200D01*
X203720057Y-185385771D01*
X204005771Y-185385771D01*
X204148628Y-185457200D01*
X204791485Y-186385771D02*
X204791485Y-184885771D01*
X204791485Y-185457200D02*
X204934342Y-185385771D01*
X205220057Y-185385771D01*
X205362914Y-185457200D01*
X205434342Y-185528628D01*
X205505771Y-185671485D01*
X205505771Y-186100057D01*
X205434342Y-186242914D01*
X205362914Y-186314342D01*
X205220057Y-186385771D01*
X204934342Y-186385771D01*
X204791485Y-186314342D01*
D10*
D11*
X177002200Y-181507200D02*
X285002200Y-181507200D01*
D10*
D11*
X178362914Y-183614342D02*
X178577200Y-183685771D01*
X178934342Y-183685771D01*
X179077200Y-183614342D01*
X179148628Y-183542914D01*
X179220057Y-183400057D01*
X179220057Y-183257200D01*
X179148628Y-183114342D01*
X179077200Y-183042914D01*
X178934342Y-182971485D01*
X178648628Y-182900057D01*
X178505771Y-182828628D01*
X178434342Y-182757200D01*
X178362914Y-182614342D01*
X178362914Y-182471485D01*
X178434342Y-182328628D01*
X178505771Y-182257200D01*
X178648628Y-182185771D01*
X179005771Y-182185771D01*
X179220057Y-182257200D01*
X179862914Y-183685771D02*
X179862914Y-182185771D01*
X180505771Y-183685771D02*
X180505771Y-182900057D01*
X180434342Y-182757200D01*
X180291485Y-182685771D01*
X180077200Y-182685771D01*
X179934342Y-182757200D01*
X179862914Y-182828628D01*
X181791485Y-183614342D02*
X181648628Y-183685771D01*
X181362914Y-183685771D01*
X181220057Y-183614342D01*
X181148628Y-183471485D01*
X181148628Y-182900057D01*
X181220057Y-182757200D01*
X181362914Y-182685771D01*
X181648628Y-182685771D01*
X181791485Y-182757200D01*
X181862914Y-182900057D01*
X181862914Y-183042914D01*
X181148628Y-183185771D01*
X183077200Y-183614342D02*
X182934342Y-183685771D01*
X182648628Y-183685771D01*
X182505771Y-183614342D01*
X182434342Y-183471485D01*
X182434342Y-182900057D01*
X182505771Y-182757200D01*
X182648628Y-182685771D01*
X182934342Y-182685771D01*
X183077200Y-182757200D01*
X183148628Y-182900057D01*
X183148628Y-183042914D01*
X182434342Y-183185771D01*
X183577200Y-182685771D02*
X184148628Y-182685771D01*
X183791485Y-182185771D02*
X183791485Y-183471485D01*
X183862914Y-183614342D01*
X184005771Y-183685771D01*
X184148628Y-183685771D01*
X184648628Y-183542914D02*
X184720057Y-183614342D01*
X184648628Y-183685771D01*
X184577200Y-183614342D01*
X184648628Y-183542914D01*
X184648628Y-183685771D01*
X184648628Y-182757200D02*
X184720057Y-182828628D01*
X184648628Y-182900057D01*
X184577200Y-182828628D01*
X184648628Y-182757200D01*
X184648628Y-182900057D01*
D10*
D12*
D10*
D11*
D10*
D11*
D10*
D11*
D10*
D11*
D10*
D11*
X197002200Y-191507200D02*
X197002200Y-194507200D01*
D10*
D11*
X261002200Y-191507200D02*
X261002200Y-198007200D01*
D14*
X132080000Y-85090000D03*
X134620000Y-62230000D03*
X148590000Y-62230000D03*
X129032000Y-62230000D03*
D15*
X183925000Y-88475000D03*
X182625000Y-88475000D03*
X182625000Y-89675000D03*
X181425000Y-89675000D03*
D16*
X183225000Y-89075000D03*
D15*
X181425000Y-88475000D03*
X185025000Y-88475000D03*
X183925000Y-89675000D03*
X185025000Y-89675000D03*
D17*
X128400000Y-98360000D03*
D18*
X130940000Y-98360000D03*
X128400000Y-100900000D03*
X130940000Y-100900000D03*
X128400000Y-103440000D03*
X130940000Y-103440000D03*
X128400000Y-105980000D03*
X130940000Y-105980000D03*
X128400000Y-108520000D03*
X130940000Y-108520000D03*
D14*
X140208000Y-62230000D03*
X154940000Y-71374000D03*
X145796000Y-62230000D03*
X143002000Y-62230000D03*
X131826000Y-62230000D03*
X152400000Y-71374000D03*
X129540000Y-85090000D03*
X137414000Y-62230000D03*
D19*
X160500000Y-109790000D03*
D20*
X157200000Y-111990000D03*
D19*
X153900000Y-109790000D03*
D21*
X160900000Y-117190000D03*
X153500000Y-117190000D03*
D22*
X120480000Y-90820000D03*
X120480000Y-65820000D03*
D23*
X121900000Y-83860000D03*
D24*
X121900000Y-81090000D03*
X121900000Y-78320000D03*
X121900000Y-75550000D03*
X121900000Y-72780000D03*
X119060000Y-82475000D03*
X119060000Y-79705000D03*
X119060000Y-76935000D03*
X119060000Y-74165000D03*
D25*
X167155000Y-103386600D03*
X167155000Y-105875800D03*
X167155000Y-108365000D03*
D26*
X169466400Y-111463800D03*
X165961200Y-100287800D03*
D27*
X180340000Y-69215000D03*
X188595000Y-88265000D03*
X187185000Y-89675000D03*
X189865000Y-80645000D03*
X188595000Y-85090000D03*
X190500000Y-88900000D03*
X188595000Y-98425000D03*
X191135000Y-104140000D03*
X185420000Y-102235000D03*
X190500000Y-99695000D03*
X188595000Y-60960000D03*
X184150000Y-59690000D03*
X187960000Y-69850000D03*
X189230000Y-77470000D03*
X180340000Y-59690000D03*
X180340000Y-64135000D03*
X151130000Y-77470000D03*
X141605000Y-71755000D03*
X150495000Y-92710000D03*
X146685000Y-76200000D03*
X150495000Y-82550000D03*
X137795000Y-72390000D03*
X149225000Y-76200000D03*
X150495000Y-86995000D03*
X157480000Y-76835000D03*
X163195000Y-79375000D03*
X162852500Y-74637500D03*
X160020000Y-78105000D03*
X160020000Y-76200000D03*
X179070000Y-95250000D03*
X153670000Y-92710000D03*
X137414000Y-67056000D03*
X129900000Y-77470000D03*
X145415000Y-73025000D03*
X153628510Y-80051490D03*
D28*
X177800000Y-91440000D03*
X177800000Y-86995000D03*
X125730000Y-87630000D03*
D29*
X131826000Y-62230000D02*
X129032000Y-62230000D01*
X137795000Y-72390000D02*
X140970000Y-72390000D01*
X140970000Y-72390000D02*
X141605000Y-71755000D01*
D30*
X157480000Y-76835000D02*
X154940000Y-74295000D01*
X154940000Y-74295000D02*
X154940000Y-71374000D01*
X148736000Y-64770000D02*
X136760000Y-64770000D01*
X134620000Y-67040000D02*
X123340000Y-78320000D01*
D29*
X134620000Y-62230000D02*
X134620000Y-62630000D01*
D30*
X136760000Y-64770000D02*
X134620000Y-62630000D01*
X134620000Y-62230000D02*
X134620000Y-67040000D01*
X123340000Y-78320000D02*
X121900000Y-78320000D01*
X154940000Y-70974000D02*
X148736000Y-64770000D01*
X145415000Y-68580000D02*
X153670000Y-76835000D01*
X122880000Y-83860000D02*
X121900000Y-83860000D01*
X137414000Y-67056000D02*
X138938000Y-68580000D01*
X129900000Y-77470000D02*
X129270000Y-77470000D01*
X153670000Y-82550000D02*
X153670000Y-92710000D01*
X153670000Y-76835000D02*
X153670000Y-80010000D01*
X145415000Y-68580000D02*
X145415000Y-73025000D01*
X172720000Y-92710000D02*
X175260000Y-95250000D01*
X175260000Y-95250000D02*
X179070000Y-95250000D01*
X138938000Y-68580000D02*
X145415000Y-68580000D01*
X153670000Y-80010000D02*
X153628510Y-80051490D01*
X153670000Y-92710000D02*
X172720000Y-92710000D01*
X129270000Y-77470000D02*
X122880000Y-83860000D01*
X153670000Y-80010000D02*
X153670000Y-82550000D01*
D31*
X177800000Y-86995000D02*
X177800000Y-91440000D01*
X148590000Y-62230000D02*
X148590000Y-61425200D01*
X119859999Y-83274999D02*
X119859999Y-85458117D01*
X119859999Y-85458117D02*
X132171001Y-97769119D01*
X132171001Y-97769119D02*
X132171001Y-102208999D01*
X130940000Y-103440000D02*
X132171001Y-102208999D01*
X148590000Y-61830000D02*
X145180000Y-58420000D01*
X117565589Y-80980589D02*
X119859999Y-83274999D01*
X123070646Y-58420000D02*
X117565589Y-63925056D01*
X145180000Y-58420000D02*
X123070646Y-58420000D01*
X117565589Y-63925056D02*
X117565589Y-80980589D01*
X145796000Y-62230000D02*
X145796000Y-61425200D01*
X120650000Y-81280000D02*
X120650000Y-84895802D01*
X120650000Y-74007118D02*
X118098999Y-71456117D01*
X120635000Y-81280000D02*
X120650000Y-81280000D01*
X143021000Y-59055000D02*
X145796000Y-61830000D01*
X118098999Y-71456117D02*
X118098999Y-64146001D01*
X118098999Y-64146001D02*
X123190000Y-59055000D01*
X119060000Y-79705000D02*
X120650000Y-78115000D01*
X119060000Y-79705000D02*
X120635000Y-81280000D01*
X123190000Y-59055000D02*
X143021000Y-59055000D01*
X120650000Y-78115000D02*
X120650000Y-74007118D01*
X120650000Y-84895802D02*
X123384198Y-87630000D01*
X123384198Y-87630000D02*
X125730000Y-87630000D01*
G04 #@! TA.AperFunction,Conductor*
G36*
X122201924Y-58138002D02*
G01*
X122248417Y-58191658D01*
X122258521Y-58261932D01*
X122229027Y-58326512D01*
X122222899Y-58333094D01*
X119584170Y-60971822D01*
X117117550Y-63438442D01*
X117111285Y-63444295D01*
X117070837Y-63479580D01*
X117036698Y-63528155D01*
X117032766Y-63533449D01*
X116996126Y-63580177D01*
X116993000Y-63587101D01*
X116989287Y-63593232D01*
X116986651Y-63597852D01*
X116983229Y-63604234D01*
X116978858Y-63610453D01*
X116976098Y-63617532D01*
X116957291Y-63665769D01*
X116954735Y-63671848D01*
X116930300Y-63725968D01*
X116928914Y-63733444D01*
X116926759Y-63740322D01*
X116925299Y-63745447D01*
X116923511Y-63752411D01*
X116920751Y-63759490D01*
X116919759Y-63767022D01*
X116919759Y-63767024D01*
X116913003Y-63818348D01*
X116911973Y-63824854D01*
X116901149Y-63883253D01*
X116901586Y-63890833D01*
X116901586Y-63890834D01*
X116904480Y-63941023D01*
X116904689Y-63948276D01*
X116904689Y-80953326D01*
X116904397Y-80961897D01*
X116900747Y-81015432D01*
X116902052Y-81022909D01*
X116902052Y-81022910D01*
X116910957Y-81073932D01*
X116911919Y-81080454D01*
X116919052Y-81139394D01*
X116921738Y-81146502D01*
X116923449Y-81153468D01*
X116924868Y-81158657D01*
X116926945Y-81165536D01*
X116928250Y-81173013D01*
X116952118Y-81227384D01*
X116954601Y-81233470D01*
X116975595Y-81289030D01*
X116979898Y-81295291D01*
X116983204Y-81301615D01*
X116985860Y-81306387D01*
X116989495Y-81312533D01*
X116992547Y-81319485D01*
X117017991Y-81352645D01*
X117028691Y-81366590D01*
X117032562Y-81371917D01*
X117066200Y-81420860D01*
X117071876Y-81425917D01*
X117109408Y-81459357D01*
X117114684Y-81464338D01*
X117742659Y-82092313D01*
X117776685Y-82154625D01*
X117775270Y-82214020D01*
X117767882Y-82241591D01*
X117767880Y-82241602D01*
X117766457Y-82246913D01*
X117746502Y-82475000D01*
X117766457Y-82703087D01*
X117825716Y-82924243D01*
X117828039Y-82929224D01*
X117828039Y-82929225D01*
X117920151Y-83126762D01*
X117920154Y-83126767D01*
X117922477Y-83131749D01*
X118053802Y-83319300D01*
X118215700Y-83481198D01*
X118220208Y-83484355D01*
X118220211Y-83484357D01*
X118283722Y-83528828D01*
X118403251Y-83612523D01*
X118408233Y-83614846D01*
X118408238Y-83614849D01*
X118605775Y-83706961D01*
X118610757Y-83709284D01*
X118616065Y-83710706D01*
X118616067Y-83710707D01*
X118826598Y-83767119D01*
X118826600Y-83767119D01*
X118831913Y-83768543D01*
X118973115Y-83780897D01*
X119054522Y-83788019D01*
X119054525Y-83788019D01*
X119060000Y-83788498D01*
X119065482Y-83788018D01*
X119070976Y-83788018D01*
X119070976Y-83790090D01*
X119131733Y-83802307D01*
X119182721Y-83851712D01*
X119199099Y-83913833D01*
X119199099Y-85430854D01*
X119198807Y-85439425D01*
X119195157Y-85492960D01*
X119196462Y-85500437D01*
X119196462Y-85500438D01*
X119205367Y-85551460D01*
X119206329Y-85557982D01*
X119213462Y-85616922D01*
X119216148Y-85624030D01*
X119217859Y-85630996D01*
X119219278Y-85636185D01*
X119221355Y-85643064D01*
X119222660Y-85650541D01*
X119246528Y-85704912D01*
X119249011Y-85710998D01*
X119270005Y-85766558D01*
X119274308Y-85772819D01*
X119277614Y-85779143D01*
X119280270Y-85783915D01*
X119283905Y-85790061D01*
X119286957Y-85797013D01*
X119291579Y-85803036D01*
X119323101Y-85844118D01*
X119326972Y-85849445D01*
X119360610Y-85898388D01*
X119366286Y-85903445D01*
X119403818Y-85936885D01*
X119409094Y-85941866D01*
X121952055Y-88484827D01*
X121986081Y-88547139D01*
X121981016Y-88617954D01*
X121938469Y-88674790D01*
X121871949Y-88699601D01*
X121802259Y-88684336D01*
X121553648Y-88547660D01*
X121553647Y-88547659D01*
X121550179Y-88545753D01*
X121546510Y-88544300D01*
X121546505Y-88544298D01*
X121260372Y-88431010D01*
X121260371Y-88431010D01*
X121256702Y-88429557D01*
X120950975Y-88351060D01*
X120637821Y-88311500D01*
X120322179Y-88311500D01*
X120009025Y-88351060D01*
X119703298Y-88429557D01*
X119699629Y-88431010D01*
X119699628Y-88431010D01*
X119413495Y-88544298D01*
X119413490Y-88544300D01*
X119409821Y-88545753D01*
X119406353Y-88547659D01*
X119406352Y-88547660D01*
X119157741Y-88684336D01*
X119133221Y-88697816D01*
X118877860Y-88883346D01*
X118647767Y-89099418D01*
X118446568Y-89342625D01*
X118277438Y-89609131D01*
X118275754Y-89612710D01*
X118275750Y-89612717D01*
X118144733Y-89891144D01*
X118143044Y-89894734D01*
X118045505Y-90194928D01*
X117986359Y-90504980D01*
X117966540Y-90820000D01*
X117986359Y-91135020D01*
X118045505Y-91445072D01*
X118046732Y-91448848D01*
X118122325Y-91681498D01*
X118143044Y-91745266D01*
X118144731Y-91748852D01*
X118144733Y-91748856D01*
X118275750Y-92027283D01*
X118275754Y-92027290D01*
X118277438Y-92030869D01*
X118446568Y-92297375D01*
X118647767Y-92540582D01*
X118877860Y-92756654D01*
X118881062Y-92758981D01*
X118881064Y-92758982D01*
X118933631Y-92797174D01*
X119133221Y-92942184D01*
X119136690Y-92944091D01*
X119136693Y-92944093D01*
X119401403Y-93089619D01*
X119409821Y-93094247D01*
X119413490Y-93095700D01*
X119413495Y-93095702D01*
X119621639Y-93178112D01*
X119703298Y-93210443D01*
X120009025Y-93288940D01*
X120322179Y-93328500D01*
X120637821Y-93328500D01*
X120950975Y-93288940D01*
X121256702Y-93210443D01*
X121338361Y-93178112D01*
X121546505Y-93095702D01*
X121546510Y-93095700D01*
X121550179Y-93094247D01*
X121558597Y-93089619D01*
X121823307Y-92944093D01*
X121823310Y-92944091D01*
X121826779Y-92942184D01*
X122026369Y-92797174D01*
X122078936Y-92758982D01*
X122078938Y-92758981D01*
X122082140Y-92756654D01*
X122312233Y-92540582D01*
X122513432Y-92297375D01*
X122682562Y-92030869D01*
X122684246Y-92027290D01*
X122684250Y-92027283D01*
X122815267Y-91748856D01*
X122815269Y-91748852D01*
X122816956Y-91745266D01*
X122837676Y-91681498D01*
X122913268Y-91448848D01*
X122914495Y-91445072D01*
X122973641Y-91135020D01*
X122993460Y-90820000D01*
X122973641Y-90504980D01*
X122914495Y-90194928D01*
X122816956Y-89894734D01*
X122815267Y-89891144D01*
X122684250Y-89612717D01*
X122684246Y-89612710D01*
X122682562Y-89609131D01*
X122610120Y-89494981D01*
X122590507Y-89426747D01*
X122610898Y-89358742D01*
X122664818Y-89312556D01*
X122735149Y-89302854D01*
X122799560Y-89332715D01*
X122805600Y-89338372D01*
X130394700Y-96927471D01*
X130428726Y-96989783D01*
X130423661Y-97060598D01*
X130381114Y-97117434D01*
X130363785Y-97128329D01*
X130213607Y-97206507D01*
X130209474Y-97209610D01*
X130209471Y-97209612D01*
X130039100Y-97337530D01*
X130034965Y-97340635D01*
X129955109Y-97424200D01*
X129954283Y-97425064D01*
X129892759Y-97460494D01*
X129821846Y-97457037D01*
X129764060Y-97415791D01*
X129745207Y-97382243D01*
X129703767Y-97271703D01*
X129700615Y-97263295D01*
X129613261Y-97146739D01*
X129496705Y-97059385D01*
X129360316Y-97008255D01*
X129298134Y-97001500D01*
X127501866Y-97001500D01*
X127439684Y-97008255D01*
X127303295Y-97059385D01*
X127186739Y-97146739D01*
X127099385Y-97263295D01*
X127048255Y-97399684D01*
X127041500Y-97461866D01*
X127041500Y-99258134D01*
X127048255Y-99320316D01*
X127099385Y-99456705D01*
X127186739Y-99573261D01*
X127303295Y-99660615D01*
X127311704Y-99663767D01*
X127311705Y-99663768D01*
X127420451Y-99704535D01*
X127477216Y-99747176D01*
X127501916Y-99813738D01*
X127486709Y-99883087D01*
X127467316Y-99909568D01*
X127340629Y-100042138D01*
X127214743Y-100226680D01*
X127120688Y-100429305D01*
X127060989Y-100644570D01*
X127037251Y-100866695D01*
X127050110Y-101089715D01*
X127051247Y-101094761D01*
X127051248Y-101094767D01*
X127075304Y-101201508D01*
X127099222Y-101307639D01*
X127183266Y-101514616D01*
X127234942Y-101598944D01*
X127297291Y-101700688D01*
X127299987Y-101705088D01*
X127446250Y-101873938D01*
X127618126Y-102016632D01*
X127688595Y-102057811D01*
X127691445Y-102059476D01*
X127740169Y-102111114D01*
X127753240Y-102180897D01*
X127726509Y-102246669D01*
X127686055Y-102280027D01*
X127673607Y-102286507D01*
X127669474Y-102289610D01*
X127669471Y-102289612D01*
X127530795Y-102393733D01*
X127494965Y-102420635D01*
X127491393Y-102424373D01*
X127380111Y-102540823D01*
X127340629Y-102582138D01*
X127214743Y-102766680D01*
X127120688Y-102969305D01*
X127060989Y-103184570D01*
X127037251Y-103406695D01*
X127037548Y-103411848D01*
X127037548Y-103411851D01*
X127043011Y-103506590D01*
X127050110Y-103629715D01*
X127051247Y-103634761D01*
X127051248Y-103634767D01*
X127071119Y-103722939D01*
X127099222Y-103847639D01*
X127183266Y-104054616D01*
X127234019Y-104137438D01*
X127297291Y-104240688D01*
X127299987Y-104245088D01*
X127446250Y-104413938D01*
X127618126Y-104556632D01*
X127660640Y-104581475D01*
X127691445Y-104599476D01*
X127740169Y-104651114D01*
X127753240Y-104720897D01*
X127726509Y-104786669D01*
X127686055Y-104820027D01*
X127673607Y-104826507D01*
X127669474Y-104829610D01*
X127669471Y-104829612D01*
X127636920Y-104854052D01*
X127494965Y-104960635D01*
X127340629Y-105122138D01*
X127214743Y-105306680D01*
X127199003Y-105340590D01*
X127128228Y-105493062D01*
X127120688Y-105509305D01*
X127060989Y-105724570D01*
X127037251Y-105946695D01*
X127037548Y-105951848D01*
X127037548Y-105951851D01*
X127044416Y-106070961D01*
X127050110Y-106169715D01*
X127051247Y-106174761D01*
X127051248Y-106174767D01*
X127061142Y-106218669D01*
X127099222Y-106387639D01*
X127183266Y-106594616D01*
X127185965Y-106599020D01*
X127291950Y-106771972D01*
X127299987Y-106785088D01*
X127446250Y-106953938D01*
X127618126Y-107096632D01*
X127658335Y-107120128D01*
X127691445Y-107139476D01*
X127740169Y-107191114D01*
X127753240Y-107260897D01*
X127726509Y-107326669D01*
X127686055Y-107360027D01*
X127673607Y-107366507D01*
X127669474Y-107369610D01*
X127669471Y-107369612D01*
X127645247Y-107387800D01*
X127494965Y-107500635D01*
X127340629Y-107662138D01*
X127337720Y-107666403D01*
X127337714Y-107666411D01*
X127325404Y-107684457D01*
X127214743Y-107846680D01*
X127120688Y-108049305D01*
X127060989Y-108264570D01*
X127037251Y-108486695D01*
X127037548Y-108491848D01*
X127037548Y-108491851D01*
X127043011Y-108586590D01*
X127050110Y-108709715D01*
X127051247Y-108714761D01*
X127051248Y-108714767D01*
X127068907Y-108793124D01*
X127099222Y-108927639D01*
X127183266Y-109134616D01*
X127221558Y-109197103D01*
X127297291Y-109320688D01*
X127299987Y-109325088D01*
X127446250Y-109493938D01*
X127618126Y-109636632D01*
X127811000Y-109749338D01*
X128019692Y-109829030D01*
X128024760Y-109830061D01*
X128024763Y-109830062D01*
X128132017Y-109851883D01*
X128238597Y-109873567D01*
X128243772Y-109873757D01*
X128243774Y-109873757D01*
X128456673Y-109881564D01*
X128456677Y-109881564D01*
X128461837Y-109881753D01*
X128466957Y-109881097D01*
X128466959Y-109881097D01*
X128678288Y-109854025D01*
X128678289Y-109854025D01*
X128683416Y-109853368D01*
X128688366Y-109851883D01*
X128892429Y-109790661D01*
X128892434Y-109790659D01*
X128897384Y-109789174D01*
X129097994Y-109690896D01*
X129279860Y-109561173D01*
X129438096Y-109403489D01*
X129497594Y-109320689D01*
X129568453Y-109222077D01*
X129569776Y-109223028D01*
X129616645Y-109179857D01*
X129686580Y-109167625D01*
X129752026Y-109195144D01*
X129779875Y-109226994D01*
X129839987Y-109325088D01*
X129986250Y-109493938D01*
X130158126Y-109636632D01*
X130351000Y-109749338D01*
X130559692Y-109829030D01*
X130564760Y-109830061D01*
X130564763Y-109830062D01*
X130672017Y-109851883D01*
X130778597Y-109873567D01*
X130783772Y-109873757D01*
X130783774Y-109873757D01*
X130996673Y-109881564D01*
X130996677Y-109881564D01*
X131001837Y-109881753D01*
X131006957Y-109881097D01*
X131006959Y-109881097D01*
X131218288Y-109854025D01*
X131218289Y-109854025D01*
X131223416Y-109853368D01*
X131228366Y-109851883D01*
X131432429Y-109790661D01*
X131432434Y-109790659D01*
X131437384Y-109789174D01*
X131637994Y-109690896D01*
X131819860Y-109561173D01*
X131978096Y-109403489D01*
X132037594Y-109320689D01*
X132105435Y-109226277D01*
X132108453Y-109222077D01*
X132129320Y-109179857D01*
X132205136Y-109026453D01*
X132205137Y-109026451D01*
X132207430Y-109021811D01*
X132242374Y-108906798D01*
X132270865Y-108813023D01*
X132270865Y-108813021D01*
X132272370Y-108808069D01*
X132301529Y-108586590D01*
X132302175Y-108560161D01*
X132303074Y-108523365D01*
X132303074Y-108523361D01*
X132303156Y-108520000D01*
X132284852Y-108297361D01*
X132230431Y-108080702D01*
X132141354Y-107875840D01*
X132045027Y-107726941D01*
X132022822Y-107692617D01*
X132022820Y-107692614D01*
X132020014Y-107688277D01*
X131869670Y-107523051D01*
X131865619Y-107519852D01*
X131865615Y-107519848D01*
X131698414Y-107387800D01*
X131698410Y-107387798D01*
X131694359Y-107384598D01*
X131498789Y-107276638D01*
X131493920Y-107274914D01*
X131493916Y-107274912D01*
X131293087Y-107203795D01*
X131293083Y-107203794D01*
X131288212Y-107202069D01*
X131283119Y-107201162D01*
X131283116Y-107201161D01*
X131073373Y-107163800D01*
X131073367Y-107163799D01*
X131068284Y-107162894D01*
X130994452Y-107161992D01*
X130850081Y-107160228D01*
X130850079Y-107160228D01*
X130844911Y-107160165D01*
X130624091Y-107193955D01*
X130411756Y-107263357D01*
X130381443Y-107279137D01*
X130302739Y-107320108D01*
X130213607Y-107366507D01*
X130209474Y-107369610D01*
X130209471Y-107369612D01*
X130185247Y-107387800D01*
X130034965Y-107500635D01*
X129880629Y-107662138D01*
X129773201Y-107819621D01*
X129718293Y-107864621D01*
X129647768Y-107872792D01*
X129584021Y-107841538D01*
X129563324Y-107817054D01*
X129482822Y-107692617D01*
X129482820Y-107692614D01*
X129480014Y-107688277D01*
X129329670Y-107523051D01*
X129325619Y-107519852D01*
X129325615Y-107519848D01*
X129158414Y-107387800D01*
X129158410Y-107387798D01*
X129154359Y-107384598D01*
X129113053Y-107361796D01*
X129063084Y-107311364D01*
X129048312Y-107241921D01*
X129073428Y-107175516D01*
X129100780Y-107148909D01*
X129144603Y-107117650D01*
X129279860Y-107021173D01*
X129284542Y-107016508D01*
X129434435Y-106867137D01*
X129438096Y-106863489D01*
X129492125Y-106788300D01*
X129503858Y-106771972D01*
X136362724Y-106771972D01*
X136362990Y-106775313D01*
X136362990Y-106775318D01*
X136391970Y-107139476D01*
X136392384Y-107144680D01*
X136393004Y-107147975D01*
X136393004Y-107147978D01*
X136460250Y-107505574D01*
X136461482Y-107512126D01*
X136569234Y-107870149D01*
X136585333Y-107908353D01*
X136681983Y-108137712D01*
X136714422Y-108214694D01*
X136895400Y-108541861D01*
X136897321Y-108544599D01*
X136897327Y-108544609D01*
X137061964Y-108779297D01*
X137110120Y-108847943D01*
X137356149Y-109129476D01*
X137358610Y-109131751D01*
X137358613Y-109131754D01*
X137451306Y-109217438D01*
X137630702Y-109383270D01*
X137930670Y-109606452D01*
X137933557Y-109608156D01*
X138249764Y-109794789D01*
X138249769Y-109794792D01*
X138252655Y-109796495D01*
X138593013Y-109951246D01*
X138774521Y-110011450D01*
X138944696Y-110067895D01*
X138944703Y-110067897D01*
X138947887Y-110068953D01*
X138951172Y-110069666D01*
X138951171Y-110069666D01*
X139309981Y-110147572D01*
X139309984Y-110147572D01*
X139313261Y-110148284D01*
X139508587Y-110169331D01*
X139682477Y-110188068D01*
X139682485Y-110188069D01*
X139684995Y-110188339D01*
X139687515Y-110188407D01*
X139687527Y-110188408D01*
X139689515Y-110188461D01*
X139690945Y-110188500D01*
X145968461Y-110188500D01*
X145970127Y-110188411D01*
X145970136Y-110188411D01*
X146245022Y-110173764D01*
X146245028Y-110173763D01*
X146248357Y-110173586D01*
X146251649Y-110173056D01*
X146251656Y-110173055D01*
X146614170Y-110114665D01*
X146614171Y-110114665D01*
X146617485Y-110114131D01*
X146620725Y-110113248D01*
X146620728Y-110113247D01*
X146974960Y-110016672D01*
X146974961Y-110016672D01*
X146978206Y-110015787D01*
X147304423Y-109888273D01*
X147323303Y-109880893D01*
X147323305Y-109880892D01*
X147326434Y-109879669D01*
X147338181Y-109873567D01*
X147655256Y-109708860D01*
X147655259Y-109708858D01*
X147658226Y-109707317D01*
X147946276Y-109516299D01*
X147967036Y-109502532D01*
X147967038Y-109502531D01*
X147969824Y-109500683D01*
X148257700Y-109262108D01*
X148518595Y-108994292D01*
X148566475Y-108933339D01*
X148747481Y-108702907D01*
X148747482Y-108702905D01*
X148749553Y-108700269D01*
X148918670Y-108430150D01*
X148946178Y-108386214D01*
X148946180Y-108386211D01*
X148947959Y-108383369D01*
X149068356Y-108135970D01*
X149110099Y-108050194D01*
X149110101Y-108050190D01*
X149111566Y-108047179D01*
X149238523Y-107695507D01*
X149327390Y-107332336D01*
X149328151Y-107326669D01*
X149376719Y-106965086D01*
X149376720Y-106965077D01*
X149377163Y-106961777D01*
X149387276Y-106588028D01*
X149381263Y-106512464D01*
X149357883Y-106218669D01*
X149357882Y-106218660D01*
X149357616Y-106215320D01*
X149349040Y-106169715D01*
X149289136Y-105851158D01*
X149289134Y-105851150D01*
X149288518Y-105847874D01*
X149180766Y-105489851D01*
X149104897Y-105309806D01*
X149036878Y-105148390D01*
X149036875Y-105148383D01*
X149035578Y-105145306D01*
X148854600Y-104818139D01*
X148852679Y-104815401D01*
X148852673Y-104815391D01*
X148641803Y-104514798D01*
X148641802Y-104514796D01*
X148639880Y-104512057D01*
X148393851Y-104230524D01*
X148119298Y-103976730D01*
X147819330Y-103753548D01*
X147645823Y-103651140D01*
X147500236Y-103565211D01*
X147500231Y-103565208D01*
X147497345Y-103563505D01*
X147156987Y-103408754D01*
X146959735Y-103343328D01*
X146805304Y-103292105D01*
X146805297Y-103292103D01*
X146802113Y-103291047D01*
X146591578Y-103245335D01*
X146440019Y-103212428D01*
X146440016Y-103212428D01*
X146436739Y-103211716D01*
X146200270Y-103186236D01*
X146067523Y-103171932D01*
X146067515Y-103171931D01*
X146065005Y-103171661D01*
X146062485Y-103171593D01*
X146062473Y-103171592D01*
X146060485Y-103171539D01*
X146059055Y-103171500D01*
X139781539Y-103171500D01*
X139779873Y-103171589D01*
X139779864Y-103171589D01*
X139504978Y-103186236D01*
X139504972Y-103186237D01*
X139501643Y-103186414D01*
X139498351Y-103186944D01*
X139498344Y-103186945D01*
X139135830Y-103245335D01*
X139132515Y-103245869D01*
X139129275Y-103246752D01*
X139129272Y-103246753D01*
X138775040Y-103343328D01*
X138771794Y-103344213D01*
X138423566Y-103480331D01*
X138420584Y-103481880D01*
X138126264Y-103634767D01*
X138091774Y-103652683D01*
X137780176Y-103859317D01*
X137492300Y-104097892D01*
X137231405Y-104365708D01*
X137229338Y-104368340D01*
X137229334Y-104368344D01*
X137047778Y-104599476D01*
X137000447Y-104659731D01*
X136911940Y-104801097D01*
X136809716Y-104964373D01*
X136802041Y-104976631D01*
X136798917Y-104983051D01*
X136641423Y-105306680D01*
X136638434Y-105312821D01*
X136511477Y-105664493D01*
X136422610Y-106027664D01*
X136422164Y-106030983D01*
X136422164Y-106030984D01*
X136373616Y-106392425D01*
X136372837Y-106398223D01*
X136362724Y-106771972D01*
X129503858Y-106771972D01*
X129565435Y-106686277D01*
X129568453Y-106682077D01*
X129613277Y-106591383D01*
X129665136Y-106486453D01*
X129665137Y-106486451D01*
X129667430Y-106481811D01*
X129732370Y-106268069D01*
X129761529Y-106046590D01*
X129761910Y-106030984D01*
X129763074Y-105983365D01*
X129763074Y-105983361D01*
X129763156Y-105980000D01*
X129744852Y-105757361D01*
X129690431Y-105540702D01*
X129601354Y-105335840D01*
X129505612Y-105187845D01*
X129482822Y-105152617D01*
X129482820Y-105152614D01*
X129480014Y-105148277D01*
X129329670Y-104983051D01*
X129325619Y-104979852D01*
X129325615Y-104979848D01*
X129158414Y-104847800D01*
X129158410Y-104847798D01*
X129154359Y-104844598D01*
X129113053Y-104821796D01*
X129063084Y-104771364D01*
X129048312Y-104701921D01*
X129073428Y-104635516D01*
X129100780Y-104608909D01*
X129144603Y-104577650D01*
X129279860Y-104481173D01*
X129438096Y-104323489D01*
X129497594Y-104240689D01*
X129568453Y-104142077D01*
X129569776Y-104143028D01*
X129616645Y-104099857D01*
X129686580Y-104087625D01*
X129752026Y-104115144D01*
X129779875Y-104146994D01*
X129839987Y-104245088D01*
X129986250Y-104413938D01*
X130158126Y-104556632D01*
X130351000Y-104669338D01*
X130559692Y-104749030D01*
X130564760Y-104750061D01*
X130564763Y-104750062D01*
X130669466Y-104771364D01*
X130778597Y-104793567D01*
X130783772Y-104793757D01*
X130783774Y-104793757D01*
X130996673Y-104801564D01*
X130996677Y-104801564D01*
X131001837Y-104801753D01*
X131006957Y-104801097D01*
X131006959Y-104801097D01*
X131218288Y-104774025D01*
X131218289Y-104774025D01*
X131223416Y-104773368D01*
X131230096Y-104771364D01*
X131432429Y-104710661D01*
X131432434Y-104710659D01*
X131437384Y-104709174D01*
X131637994Y-104610896D01*
X131819860Y-104481173D01*
X131978096Y-104323489D01*
X132037594Y-104240689D01*
X132105435Y-104146277D01*
X132108453Y-104142077D01*
X132129107Y-104100288D01*
X132205136Y-103946453D01*
X132205137Y-103946451D01*
X132207430Y-103941811D01*
X132272370Y-103728069D01*
X132301529Y-103506590D01*
X132302171Y-103480331D01*
X132303074Y-103443365D01*
X132303074Y-103443361D01*
X132303156Y-103440000D01*
X132284852Y-103217361D01*
X132264600Y-103136735D01*
X132267404Y-103065795D01*
X132297709Y-103016945D01*
X132619048Y-102695606D01*
X132625314Y-102689752D01*
X132660026Y-102659471D01*
X132665753Y-102654475D01*
X132699883Y-102605912D01*
X132703815Y-102600617D01*
X132714954Y-102586411D01*
X132740464Y-102553878D01*
X132743590Y-102546954D01*
X132747303Y-102540823D01*
X132749939Y-102536203D01*
X132753361Y-102529821D01*
X132757732Y-102523602D01*
X132779300Y-102468285D01*
X132781855Y-102462206D01*
X132788779Y-102446870D01*
X132806290Y-102408087D01*
X132807676Y-102400611D01*
X132809831Y-102393733D01*
X132811291Y-102388608D01*
X132813079Y-102381644D01*
X132815839Y-102374565D01*
X132823588Y-102315699D01*
X132824619Y-102309188D01*
X132835441Y-102250802D01*
X132832110Y-102193031D01*
X132831901Y-102185779D01*
X132831901Y-100330000D01*
X135890000Y-100330000D01*
X149860000Y-100330000D01*
X149860000Y-100287800D01*
X164304593Y-100287800D01*
X164324989Y-100546950D01*
X164385673Y-100799720D01*
X164387566Y-100804291D01*
X164387567Y-100804293D01*
X164415551Y-100871851D01*
X164485152Y-101039884D01*
X164620977Y-101261529D01*
X164624194Y-101265296D01*
X164624195Y-101265297D01*
X164664446Y-101312425D01*
X164789802Y-101459198D01*
X164793564Y-101462411D01*
X164958206Y-101603028D01*
X164987471Y-101628023D01*
X165209116Y-101763848D01*
X165213686Y-101765741D01*
X165213688Y-101765742D01*
X165444707Y-101861433D01*
X165449280Y-101863327D01*
X165535743Y-101884085D01*
X165697237Y-101922856D01*
X165697243Y-101922857D01*
X165702050Y-101924011D01*
X165961200Y-101944407D01*
X166220350Y-101924011D01*
X166225157Y-101922857D01*
X166225163Y-101922856D01*
X166386657Y-101884085D01*
X166473120Y-101863327D01*
X166477693Y-101861433D01*
X166708712Y-101765742D01*
X166708714Y-101765741D01*
X166713284Y-101763848D01*
X166934929Y-101628023D01*
X166964195Y-101603028D01*
X167128836Y-101462411D01*
X167132598Y-101459198D01*
X167257954Y-101312425D01*
X167298205Y-101265297D01*
X167298206Y-101265296D01*
X167301423Y-101261529D01*
X167437248Y-101039884D01*
X167506850Y-100871851D01*
X167534833Y-100804293D01*
X167534834Y-100804291D01*
X167536727Y-100799720D01*
X167597411Y-100546950D01*
X167617807Y-100287800D01*
X167597411Y-100028650D01*
X167536727Y-99775880D01*
X167532054Y-99764598D01*
X167439142Y-99540288D01*
X167439141Y-99540286D01*
X167437248Y-99535716D01*
X167301423Y-99314071D01*
X167132598Y-99116402D01*
X166934929Y-98947577D01*
X166713284Y-98811752D01*
X166708714Y-98809859D01*
X166708712Y-98809858D01*
X166477693Y-98714167D01*
X166477691Y-98714166D01*
X166473120Y-98712273D01*
X166386657Y-98691515D01*
X166225163Y-98652744D01*
X166225157Y-98652743D01*
X166220350Y-98651589D01*
X165961200Y-98631193D01*
X165702050Y-98651589D01*
X165697243Y-98652743D01*
X165697237Y-98652744D01*
X165535743Y-98691515D01*
X165449280Y-98712273D01*
X165444709Y-98714166D01*
X165444707Y-98714167D01*
X165213688Y-98809858D01*
X165213686Y-98809859D01*
X165209116Y-98811752D01*
X164987471Y-98947577D01*
X164789802Y-99116402D01*
X164620977Y-99314071D01*
X164485152Y-99535716D01*
X164483259Y-99540286D01*
X164483258Y-99540288D01*
X164390346Y-99764598D01*
X164385673Y-99775880D01*
X164324989Y-100028650D01*
X164304593Y-100287800D01*
X149860000Y-100287800D01*
X149860000Y-81280000D01*
X135890000Y-81280000D01*
X135890000Y-100330000D01*
X132831901Y-100330000D01*
X132831901Y-97796382D01*
X132832193Y-97787811D01*
X132835326Y-97741852D01*
X132835843Y-97734276D01*
X132825632Y-97675772D01*
X132824670Y-97669250D01*
X132818451Y-97617857D01*
X132818451Y-97617855D01*
X132817538Y-97610314D01*
X132814852Y-97603206D01*
X132813141Y-97596240D01*
X132811722Y-97591051D01*
X132809645Y-97584172D01*
X132808340Y-97576695D01*
X132784472Y-97522324D01*
X132781987Y-97516233D01*
X132763680Y-97467783D01*
X132763679Y-97467781D01*
X132760995Y-97460678D01*
X132756692Y-97454417D01*
X132753386Y-97448093D01*
X132750730Y-97443321D01*
X132747095Y-97437175D01*
X132744043Y-97430223D01*
X132707899Y-97383118D01*
X132704024Y-97377785D01*
X132681060Y-97344373D01*
X132670390Y-97328848D01*
X132627181Y-97290350D01*
X132621906Y-97285370D01*
X128232565Y-92896029D01*
X123842530Y-88505995D01*
X123808504Y-88443683D01*
X123813569Y-88372868D01*
X123856116Y-88316032D01*
X123922636Y-88291221D01*
X123931625Y-88290900D01*
X125053079Y-88290900D01*
X125121200Y-88310902D01*
X125127140Y-88314964D01*
X125178178Y-88352045D01*
X125273248Y-88421118D01*
X125279276Y-88423802D01*
X125279278Y-88423803D01*
X125323930Y-88443683D01*
X125447712Y-88498794D01*
X125541113Y-88518647D01*
X125628056Y-88537128D01*
X125628061Y-88537128D01*
X125634513Y-88538500D01*
X125825487Y-88538500D01*
X125831939Y-88537128D01*
X125831944Y-88537128D01*
X125918887Y-88518647D01*
X126012288Y-88498794D01*
X126136070Y-88443683D01*
X126180722Y-88423803D01*
X126180724Y-88423802D01*
X126186752Y-88421118D01*
X126341253Y-88308866D01*
X126469040Y-88166944D01*
X126564527Y-88001556D01*
X126623542Y-87819928D01*
X126643504Y-87630000D01*
X126623542Y-87440072D01*
X126564527Y-87258444D01*
X126469040Y-87093056D01*
X126341253Y-86951134D01*
X126204392Y-86851698D01*
X126192094Y-86842763D01*
X126192093Y-86842762D01*
X126186752Y-86838882D01*
X126180724Y-86836198D01*
X126180722Y-86836197D01*
X126018319Y-86763891D01*
X126018318Y-86763891D01*
X126012288Y-86761206D01*
X125918887Y-86741353D01*
X125831944Y-86722872D01*
X125831939Y-86722872D01*
X125825487Y-86721500D01*
X125634513Y-86721500D01*
X125628061Y-86722872D01*
X125628056Y-86722872D01*
X125541113Y-86741353D01*
X125447712Y-86761206D01*
X125441682Y-86763891D01*
X125441681Y-86763891D01*
X125279278Y-86836197D01*
X125279276Y-86836198D01*
X125273248Y-86838882D01*
X125267907Y-86842762D01*
X125267906Y-86842763D01*
X125127140Y-86945036D01*
X125060272Y-86968894D01*
X125053079Y-86969100D01*
X123710142Y-86969100D01*
X123642021Y-86949098D01*
X123621047Y-86932195D01*
X122890049Y-86201197D01*
X122236741Y-85547890D01*
X130721500Y-85547890D01*
X130736080Y-85719720D01*
X130737418Y-85724875D01*
X130737419Y-85724881D01*
X130792445Y-85936885D01*
X130793999Y-85942872D01*
X130888688Y-86153075D01*
X131017441Y-86344319D01*
X131176576Y-86511135D01*
X131361542Y-86648754D01*
X131366293Y-86651170D01*
X131366297Y-86651172D01*
X131464296Y-86700997D01*
X131567051Y-86753240D01*
X131572145Y-86754822D01*
X131572148Y-86754823D01*
X131733976Y-86805072D01*
X131787227Y-86821607D01*
X131792516Y-86822308D01*
X132010489Y-86851198D01*
X132010494Y-86851198D01*
X132015774Y-86851898D01*
X132021103Y-86851698D01*
X132021105Y-86851698D01*
X132130966Y-86847574D01*
X132246158Y-86843249D01*
X132471791Y-86795907D01*
X132476750Y-86793949D01*
X132476752Y-86793948D01*
X132681256Y-86713185D01*
X132681258Y-86713184D01*
X132686221Y-86711224D01*
X132785184Y-86651172D01*
X132878757Y-86594390D01*
X132878756Y-86594390D01*
X132883317Y-86591623D01*
X132887347Y-86588126D01*
X133053412Y-86444023D01*
X133053414Y-86444021D01*
X133057445Y-86440523D01*
X133091516Y-86398970D01*
X133200240Y-86266373D01*
X133200244Y-86266367D01*
X133203624Y-86262245D01*
X133317675Y-86061886D01*
X133396337Y-85845175D01*
X133407944Y-85780988D01*
X133436623Y-85622392D01*
X133436624Y-85622385D01*
X133437361Y-85618308D01*
X133438500Y-85594156D01*
X133438500Y-84632110D01*
X133431002Y-84543738D01*
X133424371Y-84465591D01*
X133424370Y-84465587D01*
X133423920Y-84460280D01*
X133422582Y-84455125D01*
X133422581Y-84455119D01*
X133367343Y-84242297D01*
X133367342Y-84242293D01*
X133366001Y-84237128D01*
X133271312Y-84026925D01*
X133142559Y-83835681D01*
X132983424Y-83668865D01*
X132798458Y-83531246D01*
X132793707Y-83528830D01*
X132793703Y-83528828D01*
X132671731Y-83466815D01*
X132592949Y-83426760D01*
X132587855Y-83425178D01*
X132587852Y-83425177D01*
X132377871Y-83359976D01*
X132372773Y-83358393D01*
X132367484Y-83357692D01*
X132149511Y-83328802D01*
X132149506Y-83328802D01*
X132144226Y-83328102D01*
X132138897Y-83328302D01*
X132138895Y-83328302D01*
X132029034Y-83332427D01*
X131913842Y-83336751D01*
X131688209Y-83384093D01*
X131683250Y-83386051D01*
X131683248Y-83386052D01*
X131478744Y-83466815D01*
X131478742Y-83466816D01*
X131473779Y-83468776D01*
X131469220Y-83471543D01*
X131469217Y-83471544D01*
X131370832Y-83531246D01*
X131276683Y-83588377D01*
X131272653Y-83591874D01*
X131135710Y-83710707D01*
X131102555Y-83739477D01*
X131099168Y-83743608D01*
X130959760Y-83913627D01*
X130959756Y-83913633D01*
X130956376Y-83917755D01*
X130842325Y-84118114D01*
X130763663Y-84334825D01*
X130762714Y-84340074D01*
X130762713Y-84340077D01*
X130723377Y-84557608D01*
X130723376Y-84557615D01*
X130722639Y-84561692D01*
X130721500Y-84585844D01*
X130721500Y-85547890D01*
X122236741Y-85547890D01*
X122072446Y-85383595D01*
X122038421Y-85321283D01*
X122043485Y-85250468D01*
X122086032Y-85193632D01*
X122152552Y-85168821D01*
X122161541Y-85168500D01*
X122748134Y-85168500D01*
X122810316Y-85161745D01*
X122946705Y-85110615D01*
X123063261Y-85023261D01*
X123150615Y-84906705D01*
X123153768Y-84898295D01*
X123160031Y-84881590D01*
X123202673Y-84824826D01*
X123242854Y-84804826D01*
X123250420Y-84802628D01*
X123250422Y-84802627D01*
X123256336Y-84800909D01*
X123261068Y-84798456D01*
X123266169Y-84796916D01*
X123271612Y-84794022D01*
X123348260Y-84753269D01*
X123349426Y-84752657D01*
X123426453Y-84712729D01*
X123431926Y-84709892D01*
X123436089Y-84706569D01*
X123440796Y-84704066D01*
X123512918Y-84645245D01*
X123513774Y-84644554D01*
X123552973Y-84613262D01*
X123555477Y-84610758D01*
X123556195Y-84610116D01*
X123560528Y-84606415D01*
X123594062Y-84579065D01*
X123623288Y-84543737D01*
X123631277Y-84534958D01*
X129650829Y-78515405D01*
X129713141Y-78481379D01*
X129739924Y-78478500D01*
X129832226Y-78478500D01*
X129847145Y-78479386D01*
X129878777Y-78483158D01*
X129884912Y-78482686D01*
X129884914Y-78482686D01*
X129934489Y-78478871D01*
X129944156Y-78478500D01*
X129949769Y-78478500D01*
X129986591Y-78474890D01*
X129989212Y-78474660D01*
X129995818Y-78474152D01*
X130069831Y-78468457D01*
X130069835Y-78468456D01*
X130075972Y-78467984D01*
X130081903Y-78466328D01*
X130086345Y-78465545D01*
X130090708Y-78464681D01*
X130096833Y-78464080D01*
X130155254Y-78446442D01*
X130180131Y-78438931D01*
X130182665Y-78438195D01*
X130260525Y-78416456D01*
X130260526Y-78416456D01*
X130266463Y-78414798D01*
X130271967Y-78412018D01*
X130276164Y-78410390D01*
X130280273Y-78408696D01*
X130286169Y-78406916D01*
X130362994Y-78366068D01*
X130365336Y-78364854D01*
X130437502Y-78328400D01*
X130442996Y-78325625D01*
X130447849Y-78321833D01*
X130451608Y-78319448D01*
X130455351Y-78316961D01*
X130460796Y-78314066D01*
X130528248Y-78259053D01*
X130530289Y-78257424D01*
X130593987Y-78207659D01*
X130593993Y-78207653D01*
X130598847Y-78203861D01*
X130602873Y-78199197D01*
X130606094Y-78196129D01*
X130609283Y-78192963D01*
X130614062Y-78189065D01*
X130669541Y-78122003D01*
X130671175Y-78120069D01*
X130728078Y-78054145D01*
X130731121Y-78048788D01*
X130733708Y-78045121D01*
X130736204Y-78041421D01*
X130740130Y-78036675D01*
X130781537Y-77960095D01*
X130782808Y-77957803D01*
X130822725Y-77887537D01*
X130825769Y-77882179D01*
X130827713Y-77876335D01*
X130829547Y-77872216D01*
X130831272Y-77868113D01*
X130834198Y-77862701D01*
X130859932Y-77779568D01*
X130860735Y-77777067D01*
X130886249Y-77700369D01*
X130888197Y-77694513D01*
X130888970Y-77688392D01*
X130889969Y-77683995D01*
X130890860Y-77679652D01*
X130892682Y-77673768D01*
X130901780Y-77587205D01*
X130902082Y-77584597D01*
X130912543Y-77501796D01*
X130912543Y-77501791D01*
X130912985Y-77498295D01*
X130913270Y-77477884D01*
X130913355Y-77477075D01*
X130913291Y-77476372D01*
X130913380Y-77470000D01*
X130904105Y-77375403D01*
X130904023Y-77374528D01*
X130895988Y-77286245D01*
X130895430Y-77280112D01*
X130894427Y-77276703D01*
X130894080Y-77273167D01*
X130866639Y-77182279D01*
X130866414Y-77181525D01*
X130866010Y-77180151D01*
X130839590Y-77090381D01*
X130837942Y-77087228D01*
X130836916Y-77083831D01*
X130792289Y-76999899D01*
X130791922Y-76999201D01*
X130778718Y-76973943D01*
X130747960Y-76915110D01*
X130745735Y-76912342D01*
X130744066Y-76909204D01*
X130695980Y-76850245D01*
X130684059Y-76835628D01*
X130683506Y-76834944D01*
X130627898Y-76765782D01*
X130627892Y-76765776D01*
X130624032Y-76760975D01*
X130621311Y-76758692D01*
X130619065Y-76755938D01*
X130613018Y-76750935D01*
X130569012Y-76714531D01*
X130545864Y-76695381D01*
X130545329Y-76694935D01*
X130497400Y-76654718D01*
X130477247Y-76637807D01*
X130477244Y-76637805D01*
X130472526Y-76633846D01*
X130469411Y-76632134D01*
X130466675Y-76629870D01*
X130383101Y-76584682D01*
X130382363Y-76584279D01*
X130369747Y-76577343D01*
X130299213Y-76538567D01*
X130295830Y-76537494D01*
X130292701Y-76535802D01*
X130201974Y-76507718D01*
X130201158Y-76507462D01*
X130116565Y-76480627D01*
X130116561Y-76480626D01*
X130110694Y-76478765D01*
X130107163Y-76478369D01*
X130103768Y-76477318D01*
X130009293Y-76467389D01*
X130008579Y-76467311D01*
X129956773Y-76461500D01*
X129954200Y-76461500D01*
X129950224Y-76461180D01*
X129913204Y-76457289D01*
X129913202Y-76457289D01*
X129907075Y-76456645D01*
X129859430Y-76460981D01*
X129848010Y-76461500D01*
X129331850Y-76461500D01*
X129318242Y-76460763D01*
X129317662Y-76460700D01*
X129280612Y-76456675D01*
X129230570Y-76461053D01*
X129225788Y-76461379D01*
X129223310Y-76461500D01*
X129220231Y-76461500D01*
X129217177Y-76461799D01*
X129217166Y-76461800D01*
X129177529Y-76465687D01*
X129176215Y-76465809D01*
X129140688Y-76468917D01*
X129083587Y-76473913D01*
X129078468Y-76475400D01*
X129073167Y-76475920D01*
X128984166Y-76502791D01*
X128983033Y-76503126D01*
X128899586Y-76527370D01*
X128899582Y-76527372D01*
X128893664Y-76529091D01*
X128888932Y-76531544D01*
X128883831Y-76533084D01*
X128878388Y-76535978D01*
X128801740Y-76576731D01*
X128800574Y-76577343D01*
X128723547Y-76617271D01*
X128718074Y-76620108D01*
X128713911Y-76623431D01*
X128709204Y-76625934D01*
X128704429Y-76629828D01*
X128704428Y-76629829D01*
X128637102Y-76684739D01*
X128636075Y-76685567D01*
X128599792Y-76714531D01*
X128599787Y-76714536D01*
X128597028Y-76716738D01*
X128594527Y-76719239D01*
X128593809Y-76719881D01*
X128589461Y-76723594D01*
X128555938Y-76750935D01*
X128552015Y-76755677D01*
X128552013Y-76755679D01*
X128526703Y-76786273D01*
X128518713Y-76795053D01*
X122799171Y-82514595D01*
X122736859Y-82548621D01*
X122710076Y-82551500D01*
X122430327Y-82551500D01*
X122362206Y-82531498D01*
X122315713Y-82477842D01*
X122305609Y-82407568D01*
X122335103Y-82342988D01*
X122377077Y-82311305D01*
X122551762Y-82229849D01*
X122551767Y-82229846D01*
X122556749Y-82227523D01*
X122676385Y-82143753D01*
X122739789Y-82099357D01*
X122739792Y-82099355D01*
X122744300Y-82096198D01*
X122906198Y-81934300D01*
X123037523Y-81746749D01*
X123039846Y-81741767D01*
X123039849Y-81741762D01*
X123131961Y-81544225D01*
X123131961Y-81544224D01*
X123134284Y-81539243D01*
X123188348Y-81337477D01*
X123192119Y-81323402D01*
X123192119Y-81323400D01*
X123193543Y-81318087D01*
X123213498Y-81090000D01*
X123193543Y-80861913D01*
X123192119Y-80856598D01*
X123135707Y-80646067D01*
X123135706Y-80646065D01*
X123134284Y-80640757D01*
X123050108Y-80460239D01*
X123039849Y-80438238D01*
X123039846Y-80438233D01*
X123037523Y-80433251D01*
X122958452Y-80320326D01*
X122909357Y-80250211D01*
X122909355Y-80250208D01*
X122906198Y-80245700D01*
X122744300Y-80083802D01*
X122739792Y-80080645D01*
X122739789Y-80080643D01*
X122643951Y-80013537D01*
X122556749Y-79952477D01*
X122551767Y-79950154D01*
X122551762Y-79950151D01*
X122354225Y-79858039D01*
X122354224Y-79858039D01*
X122349243Y-79855716D01*
X122343935Y-79854294D01*
X122343933Y-79854293D01*
X122240981Y-79826707D01*
X122180358Y-79789755D01*
X122149337Y-79725894D01*
X122157765Y-79655400D01*
X122202968Y-79600653D01*
X122240981Y-79583293D01*
X122343933Y-79555707D01*
X122343935Y-79555706D01*
X122349243Y-79554284D01*
X122354225Y-79551961D01*
X122551762Y-79459849D01*
X122551767Y-79459846D01*
X122556749Y-79457523D01*
X122708469Y-79351287D01*
X122780740Y-79328500D01*
X123278157Y-79328500D01*
X123291764Y-79329237D01*
X123323262Y-79332659D01*
X123323267Y-79332659D01*
X123329388Y-79333324D01*
X123355638Y-79331027D01*
X123379388Y-79328950D01*
X123384214Y-79328621D01*
X123386686Y-79328500D01*
X123389769Y-79328500D01*
X123401738Y-79327326D01*
X123432506Y-79324310D01*
X123433819Y-79324188D01*
X123478084Y-79320315D01*
X123526413Y-79316087D01*
X123531532Y-79314600D01*
X123536833Y-79314080D01*
X123625834Y-79287209D01*
X123626967Y-79286874D01*
X123710414Y-79262630D01*
X123710418Y-79262628D01*
X123716336Y-79260909D01*
X123721068Y-79258456D01*
X123726169Y-79256916D01*
X123731612Y-79254022D01*
X123808260Y-79213269D01*
X123809426Y-79212657D01*
X123886453Y-79172729D01*
X123891926Y-79169892D01*
X123896089Y-79166569D01*
X123900796Y-79164066D01*
X123972918Y-79105245D01*
X123973774Y-79104554D01*
X124012973Y-79073262D01*
X124015477Y-79070758D01*
X124016195Y-79070116D01*
X124020528Y-79066415D01*
X124054062Y-79039065D01*
X124083288Y-79003737D01*
X124091277Y-78994958D01*
X135289379Y-67796855D01*
X135299522Y-67787753D01*
X135324218Y-67767897D01*
X135329025Y-67764032D01*
X135361292Y-67725578D01*
X135364472Y-67721931D01*
X135366115Y-67720119D01*
X135368309Y-67717925D01*
X135395642Y-67684651D01*
X135396348Y-67683800D01*
X135396380Y-67683763D01*
X135456154Y-67612526D01*
X135458722Y-67607856D01*
X135462103Y-67603739D01*
X135505977Y-67521914D01*
X135506606Y-67520755D01*
X135548462Y-67444619D01*
X135548465Y-67444611D01*
X135551433Y-67439213D01*
X135553045Y-67434131D01*
X135555562Y-67429437D01*
X135582762Y-67340469D01*
X135583108Y-67339358D01*
X135584290Y-67335634D01*
X135611235Y-67250694D01*
X135611829Y-67245398D01*
X135613387Y-67240302D01*
X135622790Y-67147743D01*
X135622911Y-67146607D01*
X135628500Y-67096773D01*
X135628500Y-67093246D01*
X135628555Y-67092261D01*
X135629002Y-67086581D01*
X135633186Y-67045388D01*
X136400676Y-67045388D01*
X136401190Y-67051264D01*
X136401190Y-67051265D01*
X136405171Y-67096773D01*
X136409134Y-67142071D01*
X136417268Y-67238934D01*
X136417758Y-67240644D01*
X136417913Y-67242413D01*
X136444996Y-67335634D01*
X136471783Y-67429050D01*
X136472596Y-67430632D01*
X136473091Y-67432336D01*
X136517788Y-67518565D01*
X136562187Y-67604956D01*
X136563290Y-67606347D01*
X136564108Y-67607926D01*
X136624726Y-67683861D01*
X136685035Y-67759953D01*
X136689728Y-67763947D01*
X136689729Y-67763948D01*
X136726060Y-67794868D01*
X136733492Y-67801727D01*
X138181149Y-69249384D01*
X138190251Y-69259527D01*
X138213968Y-69289025D01*
X138252446Y-69321312D01*
X138256062Y-69324467D01*
X138257888Y-69326123D01*
X138260074Y-69328309D01*
X138262454Y-69330264D01*
X138262464Y-69330273D01*
X138293268Y-69355576D01*
X138294283Y-69356418D01*
X138365474Y-69416154D01*
X138370148Y-69418723D01*
X138374261Y-69422102D01*
X138379698Y-69425017D01*
X138379699Y-69425018D01*
X138456047Y-69465955D01*
X138457177Y-69466568D01*
X138538787Y-69511433D01*
X138543869Y-69513045D01*
X138548563Y-69515562D01*
X138637531Y-69542762D01*
X138638559Y-69543082D01*
X138727306Y-69571235D01*
X138732602Y-69571829D01*
X138737698Y-69573387D01*
X138830222Y-69582785D01*
X138831342Y-69582905D01*
X138864664Y-69586642D01*
X138877730Y-69588108D01*
X138877734Y-69588108D01*
X138881227Y-69588500D01*
X138884754Y-69588500D01*
X138885757Y-69588556D01*
X138891441Y-69589003D01*
X138916857Y-69591585D01*
X138928336Y-69592751D01*
X138928338Y-69592751D01*
X138934462Y-69593373D01*
X138980101Y-69589059D01*
X138991957Y-69588500D01*
X144280500Y-69588500D01*
X144348621Y-69608502D01*
X144395114Y-69662158D01*
X144406500Y-69714500D01*
X144406500Y-72961181D01*
X144405715Y-72975225D01*
X144401719Y-73010851D01*
X144402235Y-73016995D01*
X144406058Y-73062524D01*
X144406314Y-73068619D01*
X144406350Y-73068617D01*
X144406500Y-73071684D01*
X144406500Y-73074769D01*
X144406801Y-73077837D01*
X144410498Y-73115549D01*
X144410657Y-73117299D01*
X144418268Y-73207934D01*
X144419925Y-73213714D01*
X144419963Y-73213904D01*
X144420295Y-73215645D01*
X144420334Y-73215858D01*
X144420920Y-73221833D01*
X144422702Y-73227735D01*
X144447191Y-73308848D01*
X144447688Y-73310535D01*
X144472783Y-73398050D01*
X144475533Y-73403399D01*
X144475600Y-73403563D01*
X144476240Y-73405148D01*
X144476351Y-73405429D01*
X144478084Y-73411169D01*
X144480975Y-73416606D01*
X144480979Y-73416616D01*
X144520824Y-73491553D01*
X144521568Y-73492975D01*
X144563187Y-73573956D01*
X144566914Y-73578659D01*
X144567060Y-73578878D01*
X144568017Y-73580340D01*
X144568109Y-73580482D01*
X144570934Y-73585796D01*
X144597606Y-73618499D01*
X144628439Y-73656304D01*
X144629531Y-73657663D01*
X144686035Y-73728953D01*
X144690613Y-73732849D01*
X144690743Y-73732980D01*
X144691983Y-73734246D01*
X144692138Y-73734407D01*
X144695935Y-73739062D01*
X144700682Y-73742989D01*
X144700685Y-73742992D01*
X144766011Y-73797034D01*
X144767359Y-73798165D01*
X144831960Y-73853145D01*
X144831963Y-73853147D01*
X144836650Y-73857136D01*
X144841898Y-73860069D01*
X144842074Y-73860188D01*
X144843548Y-73861198D01*
X144843695Y-73861300D01*
X144848325Y-73865130D01*
X144853745Y-73868060D01*
X144853747Y-73868062D01*
X144928335Y-73908392D01*
X144929876Y-73909239D01*
X145003917Y-73950619D01*
X145009294Y-73953624D01*
X145015009Y-73955481D01*
X145015183Y-73955554D01*
X145016785Y-73956241D01*
X145017022Y-73956345D01*
X145022299Y-73959198D01*
X145028188Y-73961021D01*
X145109234Y-73986109D01*
X145110897Y-73986637D01*
X145197392Y-74014740D01*
X145203354Y-74015451D01*
X145203574Y-74015496D01*
X145205291Y-74015861D01*
X145205493Y-74015905D01*
X145211232Y-74017682D01*
X145217359Y-74018326D01*
X145301676Y-74027188D01*
X145303424Y-74027384D01*
X145359824Y-74034109D01*
X145393777Y-74038158D01*
X145399772Y-74037697D01*
X145399920Y-74037698D01*
X145401668Y-74037722D01*
X145401957Y-74037728D01*
X145407925Y-74038355D01*
X145498512Y-74030111D01*
X145500148Y-74029973D01*
X145590972Y-74022984D01*
X145596760Y-74021368D01*
X145596949Y-74021332D01*
X145598685Y-74021013D01*
X145598900Y-74020975D01*
X145604888Y-74020430D01*
X145610794Y-74018692D01*
X145610798Y-74018691D01*
X145692171Y-73994742D01*
X145693861Y-73994258D01*
X145775521Y-73971458D01*
X145775530Y-73971455D01*
X145781463Y-73969798D01*
X145786819Y-73967093D01*
X145787063Y-73966994D01*
X145788699Y-73966346D01*
X145788845Y-73966290D01*
X145794619Y-73964590D01*
X145808122Y-73957531D01*
X145875251Y-73922437D01*
X145876815Y-73921633D01*
X145952503Y-73883400D01*
X145952505Y-73883399D01*
X145957996Y-73880625D01*
X145962721Y-73876934D01*
X145962921Y-73876803D01*
X145964398Y-73875851D01*
X145964571Y-73875741D01*
X145969890Y-73872960D01*
X145979629Y-73865130D01*
X146040741Y-73815994D01*
X146042120Y-73814900D01*
X146064266Y-73797598D01*
X146113847Y-73758861D01*
X146117771Y-73754315D01*
X146117923Y-73754166D01*
X146119161Y-73752971D01*
X146119352Y-73752789D01*
X146124025Y-73749032D01*
X146182565Y-73679266D01*
X146183563Y-73678093D01*
X146243078Y-73609145D01*
X146246040Y-73603931D01*
X146246177Y-73603731D01*
X146247181Y-73602286D01*
X146247292Y-73602128D01*
X146251154Y-73597526D01*
X146294984Y-73517798D01*
X146295835Y-73516277D01*
X146337724Y-73442539D01*
X146340769Y-73437179D01*
X146342667Y-73431472D01*
X146342722Y-73431344D01*
X146343418Y-73429750D01*
X146343543Y-73429469D01*
X146346433Y-73424213D01*
X146373947Y-73337478D01*
X146374457Y-73335909D01*
X146403197Y-73249513D01*
X146403950Y-73243559D01*
X146403997Y-73243336D01*
X146404374Y-73241620D01*
X146404420Y-73241416D01*
X146406235Y-73235694D01*
X146416384Y-73145218D01*
X146416587Y-73143518D01*
X146427985Y-73053295D01*
X146428380Y-73025000D01*
X146424101Y-72981360D01*
X146423500Y-72969064D01*
X146423500Y-71318925D01*
X146443502Y-71250804D01*
X146497158Y-71204311D01*
X146567432Y-71194207D01*
X146632012Y-71223701D01*
X146638595Y-71229830D01*
X152624595Y-77215829D01*
X152658621Y-77278141D01*
X152661500Y-77304924D01*
X152661500Y-79744923D01*
X152655602Y-79783022D01*
X152637275Y-79840796D01*
X152636681Y-79846092D01*
X152635123Y-79851188D01*
X152626804Y-79933087D01*
X152625729Y-79943668D01*
X152625596Y-79944917D01*
X152615229Y-80037341D01*
X152615675Y-80042649D01*
X152615136Y-80047952D01*
X152622270Y-80123417D01*
X152623885Y-80140506D01*
X152624002Y-80141821D01*
X152631778Y-80234424D01*
X152633248Y-80239550D01*
X152633749Y-80244852D01*
X152635508Y-80250752D01*
X152656249Y-80320326D01*
X152661500Y-80356323D01*
X152661500Y-92646181D01*
X152660715Y-92660225D01*
X152656719Y-92695851D01*
X152657016Y-92699392D01*
X152656645Y-92702925D01*
X152661218Y-92753173D01*
X152661500Y-92757207D01*
X152661500Y-92759769D01*
X152661800Y-92762825D01*
X152661800Y-92762833D01*
X152665498Y-92800549D01*
X152665657Y-92802299D01*
X152673268Y-92892934D01*
X152674248Y-92896353D01*
X152674570Y-92899888D01*
X152675573Y-92903297D01*
X152675920Y-92906833D01*
X152677700Y-92912728D01*
X152677700Y-92912729D01*
X152702191Y-92993848D01*
X152702688Y-92995535D01*
X152727783Y-93083050D01*
X152729406Y-93086208D01*
X152730410Y-93089619D01*
X152732058Y-93092772D01*
X152733084Y-93096169D01*
X152735974Y-93101605D01*
X152735976Y-93101609D01*
X152775824Y-93176553D01*
X152776568Y-93177975D01*
X152818187Y-93258956D01*
X152820393Y-93261739D01*
X152822040Y-93264890D01*
X152824265Y-93267658D01*
X152825934Y-93270796D01*
X152829831Y-93275574D01*
X152883439Y-93341304D01*
X152884531Y-93342663D01*
X152941035Y-93413953D01*
X152943743Y-93416258D01*
X152945968Y-93419025D01*
X152948689Y-93421308D01*
X152950935Y-93424062D01*
X152955682Y-93427989D01*
X152955684Y-93427991D01*
X153021011Y-93482034D01*
X153022359Y-93483165D01*
X153091650Y-93542136D01*
X153094751Y-93543869D01*
X153097474Y-93546154D01*
X153100589Y-93547866D01*
X153103325Y-93550130D01*
X153147201Y-93573854D01*
X153183335Y-93593392D01*
X153184876Y-93594239D01*
X153258909Y-93635615D01*
X153258914Y-93635617D01*
X153264294Y-93638624D01*
X153267677Y-93639723D01*
X153270787Y-93641433D01*
X153274170Y-93642506D01*
X153277299Y-93644198D01*
X153364234Y-93671109D01*
X153365897Y-93671637D01*
X153452392Y-93699740D01*
X153455919Y-93700161D01*
X153459306Y-93701235D01*
X153462837Y-93701631D01*
X153466232Y-93702682D01*
X153518411Y-93708166D01*
X153556676Y-93712188D01*
X153558424Y-93712384D01*
X153609715Y-93718500D01*
X153648777Y-93723158D01*
X153654772Y-93722697D01*
X153654920Y-93722698D01*
X153656668Y-93722722D01*
X153656957Y-93722728D01*
X153662925Y-93723355D01*
X153669067Y-93722796D01*
X153669068Y-93722796D01*
X153710570Y-93719019D01*
X153721990Y-93718500D01*
X172250075Y-93718500D01*
X172318196Y-93738502D01*
X172339170Y-93755405D01*
X174503149Y-95919384D01*
X174512251Y-95929527D01*
X174535968Y-95959025D01*
X174574446Y-95991312D01*
X174578062Y-95994467D01*
X174579888Y-95996123D01*
X174582074Y-95998309D01*
X174584454Y-96000264D01*
X174584464Y-96000273D01*
X174615268Y-96025576D01*
X174616283Y-96026418D01*
X174687474Y-96086154D01*
X174692148Y-96088723D01*
X174696261Y-96092102D01*
X174701698Y-96095017D01*
X174701699Y-96095018D01*
X174778047Y-96135955D01*
X174779177Y-96136568D01*
X174860787Y-96181433D01*
X174865869Y-96183045D01*
X174870563Y-96185562D01*
X174959531Y-96212762D01*
X174960559Y-96213082D01*
X175049306Y-96241235D01*
X175054602Y-96241829D01*
X175059698Y-96243387D01*
X175152257Y-96252790D01*
X175153393Y-96252911D01*
X175187008Y-96256681D01*
X175199730Y-96258108D01*
X175199734Y-96258108D01*
X175203227Y-96258500D01*
X175206754Y-96258500D01*
X175207739Y-96258555D01*
X175213419Y-96259002D01*
X175242825Y-96261989D01*
X175250337Y-96262752D01*
X175250339Y-96262752D01*
X175256462Y-96263374D01*
X175302108Y-96259059D01*
X175313967Y-96258500D01*
X179002226Y-96258500D01*
X179017145Y-96259386D01*
X179048777Y-96263158D01*
X179054912Y-96262686D01*
X179054914Y-96262686D01*
X179104489Y-96258871D01*
X179114156Y-96258500D01*
X179119769Y-96258500D01*
X179156591Y-96254890D01*
X179159212Y-96254660D01*
X179165818Y-96254152D01*
X179239831Y-96248457D01*
X179239835Y-96248456D01*
X179245972Y-96247984D01*
X179251903Y-96246328D01*
X179256345Y-96245545D01*
X179260708Y-96244681D01*
X179266833Y-96244080D01*
X179350131Y-96218931D01*
X179352665Y-96218195D01*
X179430525Y-96196456D01*
X179430526Y-96196456D01*
X179436463Y-96194798D01*
X179441967Y-96192018D01*
X179446164Y-96190390D01*
X179450273Y-96188696D01*
X179456169Y-96186916D01*
X179532994Y-96146068D01*
X179535336Y-96144854D01*
X179607502Y-96108400D01*
X179612996Y-96105625D01*
X179617849Y-96101833D01*
X179621608Y-96099448D01*
X179625351Y-96096961D01*
X179630796Y-96094066D01*
X179698248Y-96039053D01*
X179700289Y-96037424D01*
X179763987Y-95987659D01*
X179763993Y-95987653D01*
X179768847Y-95983861D01*
X179772873Y-95979197D01*
X179776094Y-95976129D01*
X179779283Y-95972963D01*
X179784062Y-95969065D01*
X179839541Y-95902003D01*
X179841175Y-95900069D01*
X179898078Y-95834145D01*
X179901121Y-95828788D01*
X179903708Y-95825121D01*
X179906204Y-95821421D01*
X179910130Y-95816675D01*
X179951537Y-95740095D01*
X179952808Y-95737803D01*
X179992725Y-95667537D01*
X179995769Y-95662179D01*
X179997713Y-95656335D01*
X179999547Y-95652216D01*
X180001272Y-95648113D01*
X180004198Y-95642701D01*
X180029932Y-95559568D01*
X180030735Y-95557067D01*
X180056249Y-95480369D01*
X180058197Y-95474513D01*
X180058970Y-95468392D01*
X180059969Y-95463995D01*
X180060860Y-95459652D01*
X180062682Y-95453768D01*
X180071780Y-95367205D01*
X180072082Y-95364597D01*
X180082543Y-95281796D01*
X180082543Y-95281791D01*
X180082985Y-95278295D01*
X180083270Y-95257884D01*
X180083355Y-95257075D01*
X180083291Y-95256372D01*
X180083380Y-95250000D01*
X180074105Y-95155403D01*
X180074023Y-95154528D01*
X180065988Y-95066245D01*
X180065430Y-95060112D01*
X180064427Y-95056703D01*
X180064080Y-95053167D01*
X180036639Y-94962279D01*
X180036414Y-94961525D01*
X180011329Y-94876291D01*
X180009590Y-94870381D01*
X180007942Y-94867228D01*
X180006916Y-94863831D01*
X179962289Y-94779899D01*
X179961922Y-94779201D01*
X179920814Y-94700569D01*
X179917960Y-94695110D01*
X179915735Y-94692342D01*
X179914066Y-94689204D01*
X179899310Y-94671111D01*
X179854059Y-94615628D01*
X179853506Y-94614944D01*
X179797898Y-94545782D01*
X179797892Y-94545776D01*
X179794032Y-94540975D01*
X179791311Y-94538692D01*
X179789065Y-94535938D01*
X179715864Y-94475381D01*
X179715329Y-94474935D01*
X179642526Y-94413846D01*
X179639411Y-94412134D01*
X179636675Y-94409870D01*
X179553101Y-94364682D01*
X179552363Y-94364279D01*
X179474612Y-94321535D01*
X179474611Y-94321535D01*
X179469213Y-94318567D01*
X179465830Y-94317494D01*
X179462701Y-94315802D01*
X179371974Y-94287718D01*
X179371158Y-94287462D01*
X179286565Y-94260627D01*
X179286561Y-94260626D01*
X179280694Y-94258765D01*
X179277163Y-94258369D01*
X179273768Y-94257318D01*
X179179293Y-94247389D01*
X179178579Y-94247311D01*
X179126773Y-94241500D01*
X179124200Y-94241500D01*
X179120224Y-94241180D01*
X179083204Y-94237289D01*
X179083202Y-94237289D01*
X179077075Y-94236645D01*
X179029430Y-94240981D01*
X179018010Y-94241500D01*
X175729924Y-94241500D01*
X175661803Y-94221498D01*
X175640829Y-94204595D01*
X173476855Y-92040621D01*
X173467753Y-92030478D01*
X173447897Y-92005782D01*
X173444032Y-92000975D01*
X173405578Y-91968708D01*
X173401931Y-91965528D01*
X173400119Y-91963885D01*
X173397925Y-91961691D01*
X173364651Y-91934358D01*
X173363853Y-91933696D01*
X173292526Y-91873846D01*
X173287856Y-91871278D01*
X173283739Y-91867897D01*
X173201914Y-91824023D01*
X173200755Y-91823394D01*
X173124619Y-91781538D01*
X173124611Y-91781535D01*
X173119213Y-91778567D01*
X173114131Y-91776955D01*
X173109437Y-91774438D01*
X173020469Y-91747238D01*
X173019441Y-91746918D01*
X172930694Y-91718765D01*
X172925398Y-91718171D01*
X172920302Y-91716613D01*
X172827743Y-91707210D01*
X172826607Y-91707089D01*
X172792992Y-91703319D01*
X172780270Y-91701892D01*
X172780266Y-91701892D01*
X172776773Y-91701500D01*
X172773246Y-91701500D01*
X172772261Y-91701445D01*
X172766581Y-91700998D01*
X172737175Y-91698011D01*
X172729663Y-91697248D01*
X172729661Y-91697248D01*
X172723538Y-91696626D01*
X172681259Y-91700623D01*
X172677891Y-91700941D01*
X172666033Y-91701500D01*
X154804500Y-91701500D01*
X154736379Y-91681498D01*
X154689886Y-91627842D01*
X154678500Y-91575500D01*
X154678500Y-91440000D01*
X176886496Y-91440000D01*
X176906458Y-91629928D01*
X176965473Y-91811556D01*
X177060960Y-91976944D01*
X177065378Y-91981851D01*
X177065379Y-91981852D01*
X177086926Y-92005782D01*
X177188747Y-92118866D01*
X177343248Y-92231118D01*
X177349276Y-92233802D01*
X177349278Y-92233803D01*
X177492064Y-92297375D01*
X177517712Y-92308794D01*
X177611112Y-92328647D01*
X177698056Y-92347128D01*
X177698061Y-92347128D01*
X177704513Y-92348500D01*
X177895487Y-92348500D01*
X177901939Y-92347128D01*
X177901944Y-92347128D01*
X177988888Y-92328647D01*
X178082288Y-92308794D01*
X178107936Y-92297375D01*
X178250722Y-92233803D01*
X178250724Y-92233802D01*
X178256752Y-92231118D01*
X178411253Y-92118866D01*
X178513074Y-92005782D01*
X178534621Y-91981852D01*
X178534622Y-91981851D01*
X178539040Y-91976944D01*
X178634527Y-91811556D01*
X178693542Y-91629928D01*
X178713504Y-91440000D01*
X178693542Y-91250072D01*
X178634527Y-91068444D01*
X178539040Y-90903056D01*
X178493264Y-90852216D01*
X178462547Y-90788209D01*
X178460900Y-90767906D01*
X178460900Y-87667094D01*
X178480902Y-87598973D01*
X178493264Y-87582783D01*
X178534621Y-87536852D01*
X178534622Y-87536851D01*
X178539040Y-87531944D01*
X178588293Y-87446635D01*
X178631223Y-87372279D01*
X178631224Y-87372278D01*
X178634527Y-87366556D01*
X178693542Y-87184928D01*
X178713504Y-86995000D01*
X178697555Y-86843249D01*
X178694232Y-86811635D01*
X178694232Y-86811633D01*
X178693542Y-86805072D01*
X178634527Y-86623444D01*
X178539040Y-86458056D01*
X178411253Y-86316134D01*
X178256752Y-86203882D01*
X178250724Y-86201198D01*
X178250722Y-86201197D01*
X178088319Y-86128891D01*
X178088318Y-86128891D01*
X178082288Y-86126206D01*
X177988888Y-86106353D01*
X177901944Y-86087872D01*
X177901939Y-86087872D01*
X177895487Y-86086500D01*
X177704513Y-86086500D01*
X177698061Y-86087872D01*
X177698056Y-86087872D01*
X177611112Y-86106353D01*
X177517712Y-86126206D01*
X177511682Y-86128891D01*
X177511681Y-86128891D01*
X177349278Y-86201197D01*
X177349276Y-86201198D01*
X177343248Y-86203882D01*
X177188747Y-86316134D01*
X177060960Y-86458056D01*
X176965473Y-86623444D01*
X176906458Y-86805072D01*
X176905768Y-86811633D01*
X176905768Y-86811635D01*
X176902445Y-86843249D01*
X176886496Y-86995000D01*
X176906458Y-87184928D01*
X176965473Y-87366556D01*
X176968776Y-87372278D01*
X176968777Y-87372279D01*
X177011707Y-87446635D01*
X177060960Y-87531944D01*
X177065378Y-87536851D01*
X177065379Y-87536852D01*
X177106736Y-87582783D01*
X177137453Y-87646791D01*
X177139100Y-87667094D01*
X177139100Y-90767906D01*
X177119098Y-90836027D01*
X177106737Y-90852215D01*
X177060960Y-90903056D01*
X176965473Y-91068444D01*
X176906458Y-91250072D01*
X176886496Y-91440000D01*
X154678500Y-91440000D01*
X154678500Y-80067905D01*
X154679145Y-80055172D01*
X154682752Y-80019665D01*
X154682752Y-80019660D01*
X154683374Y-80013537D01*
X154679059Y-79967888D01*
X154678500Y-79956031D01*
X154678500Y-76896843D01*
X154679237Y-76883236D01*
X154682659Y-76851738D01*
X154682659Y-76851733D01*
X154683324Y-76845612D01*
X154678950Y-76795612D01*
X154678621Y-76790786D01*
X154678500Y-76788314D01*
X154678500Y-76785231D01*
X154675628Y-76755938D01*
X154674310Y-76742494D01*
X154674188Y-76741181D01*
X154666623Y-76654718D01*
X154666087Y-76648587D01*
X154664600Y-76643468D01*
X154664080Y-76638167D01*
X154637209Y-76549166D01*
X154636874Y-76548033D01*
X154612630Y-76464586D01*
X154612628Y-76464582D01*
X154610909Y-76458664D01*
X154608456Y-76453932D01*
X154606916Y-76448831D01*
X154563269Y-76366740D01*
X154562657Y-76365574D01*
X154522729Y-76288547D01*
X154519892Y-76283074D01*
X154516569Y-76278911D01*
X154514066Y-76274204D01*
X154455245Y-76202082D01*
X154454554Y-76201226D01*
X154423262Y-76162027D01*
X154420758Y-76159523D01*
X154420116Y-76158805D01*
X154416415Y-76154472D01*
X154389065Y-76120938D01*
X154353737Y-76091712D01*
X154344958Y-76083723D01*
X146171855Y-67910621D01*
X146162753Y-67900478D01*
X146142892Y-67875776D01*
X146139032Y-67870975D01*
X146136311Y-67868692D01*
X146134065Y-67865938D01*
X146129316Y-67862009D01*
X146095234Y-67833813D01*
X146093836Y-67832602D01*
X146092925Y-67831691D01*
X146059651Y-67804358D01*
X146058853Y-67803696D01*
X145987526Y-67743846D01*
X145984411Y-67742134D01*
X145981675Y-67739870D01*
X145980112Y-67739025D01*
X145978739Y-67737897D01*
X145948962Y-67721931D01*
X145896914Y-67694023D01*
X145895755Y-67693394D01*
X145819616Y-67651537D01*
X145819613Y-67651536D01*
X145814213Y-67648567D01*
X145810830Y-67647494D01*
X145807701Y-67645802D01*
X145805997Y-67645275D01*
X145804437Y-67644438D01*
X145715469Y-67617238D01*
X145714441Y-67616918D01*
X145625694Y-67588765D01*
X145622163Y-67588369D01*
X145618768Y-67587318D01*
X145617000Y-67587132D01*
X145615302Y-67586613D01*
X145522743Y-67577210D01*
X145521607Y-67577089D01*
X145471773Y-67571500D01*
X145469199Y-67571500D01*
X145465224Y-67571180D01*
X145457462Y-67570364D01*
X145422075Y-67566645D01*
X145420308Y-67566806D01*
X145418538Y-67566626D01*
X145412656Y-67567182D01*
X145372891Y-67570941D01*
X145361033Y-67571500D01*
X139407924Y-67571500D01*
X139339803Y-67551498D01*
X139318829Y-67534595D01*
X138168068Y-66383834D01*
X138159520Y-66374375D01*
X138136954Y-66346706D01*
X138136952Y-66346704D01*
X138133065Y-66341938D01*
X138128323Y-66338015D01*
X138128321Y-66338013D01*
X138094244Y-66309822D01*
X138092838Y-66308604D01*
X138091925Y-66307691D01*
X138055560Y-66277820D01*
X137980675Y-66215870D01*
X137979112Y-66215025D01*
X137977739Y-66213897D01*
X137970438Y-66209982D01*
X137892289Y-66168080D01*
X137891901Y-66167870D01*
X137811917Y-66124622D01*
X137811914Y-66124621D01*
X137806701Y-66121802D01*
X137804997Y-66121275D01*
X137803437Y-66120438D01*
X137797799Y-66118714D01*
X137797796Y-66118713D01*
X137711004Y-66092178D01*
X137710584Y-66092049D01*
X137623386Y-66065057D01*
X137617768Y-66063318D01*
X137616000Y-66063132D01*
X137614302Y-66062613D01*
X137517804Y-66052811D01*
X137517540Y-66052784D01*
X137421075Y-66042645D01*
X137419308Y-66042806D01*
X137417538Y-66042626D01*
X137411656Y-66043182D01*
X137411655Y-66043182D01*
X137320822Y-66051768D01*
X137320385Y-66051808D01*
X137275269Y-66055914D01*
X137224112Y-66060570D01*
X137222407Y-66061072D01*
X137220638Y-66061239D01*
X137214989Y-66062923D01*
X137214984Y-66062924D01*
X137127728Y-66088936D01*
X137127307Y-66089061D01*
X137034381Y-66116410D01*
X137032805Y-66117234D01*
X137031104Y-66117741D01*
X137023402Y-66121802D01*
X136990939Y-66138918D01*
X136945252Y-66163006D01*
X136859110Y-66208040D01*
X136857725Y-66209154D01*
X136856154Y-66209982D01*
X136851572Y-66213692D01*
X136851568Y-66213695D01*
X136780918Y-66270907D01*
X136780576Y-66271183D01*
X136709591Y-66328256D01*
X136709588Y-66328259D01*
X136704975Y-66331968D01*
X136703832Y-66333331D01*
X136702453Y-66334447D01*
X136698663Y-66338996D01*
X136640525Y-66408775D01*
X136640243Y-66409112D01*
X136577846Y-66483474D01*
X136576988Y-66485035D01*
X136575854Y-66486396D01*
X136573037Y-66491563D01*
X136573034Y-66491567D01*
X136530229Y-66570075D01*
X136529375Y-66571642D01*
X136482567Y-66656787D01*
X136482031Y-66658476D01*
X136481178Y-66660041D01*
X136452074Y-66752914D01*
X136422765Y-66845306D01*
X136422567Y-66847070D01*
X136422035Y-66848768D01*
X136421400Y-66854615D01*
X136421399Y-66854619D01*
X136411589Y-66944935D01*
X136411541Y-66945373D01*
X136401951Y-67030869D01*
X136400719Y-67041851D01*
X136400868Y-67043623D01*
X136400676Y-67045388D01*
X135633186Y-67045388D01*
X135633374Y-67043538D01*
X135629059Y-66997891D01*
X135628500Y-66986033D01*
X135628500Y-65368924D01*
X135648502Y-65300803D01*
X135702158Y-65254310D01*
X135772432Y-65244206D01*
X135837012Y-65273700D01*
X135843595Y-65279829D01*
X136003145Y-65439379D01*
X136012247Y-65449522D01*
X136035968Y-65479025D01*
X136066900Y-65504980D01*
X136074421Y-65511291D01*
X136078069Y-65514472D01*
X136079881Y-65516115D01*
X136082075Y-65518309D01*
X136115349Y-65545642D01*
X136116147Y-65546304D01*
X136187474Y-65606154D01*
X136192144Y-65608722D01*
X136196261Y-65612103D01*
X136254145Y-65643140D01*
X136278086Y-65655977D01*
X136279245Y-65656606D01*
X136355381Y-65698462D01*
X136355389Y-65698465D01*
X136360787Y-65701433D01*
X136365869Y-65703045D01*
X136370563Y-65705562D01*
X136459531Y-65732762D01*
X136460559Y-65733082D01*
X136549306Y-65761235D01*
X136554602Y-65761829D01*
X136559698Y-65763387D01*
X136652257Y-65772790D01*
X136653393Y-65772911D01*
X136687008Y-65776681D01*
X136699730Y-65778108D01*
X136699734Y-65778108D01*
X136703227Y-65778500D01*
X136706754Y-65778500D01*
X136707739Y-65778555D01*
X136713419Y-65779002D01*
X136742825Y-65781989D01*
X136750337Y-65782752D01*
X136750339Y-65782752D01*
X136756462Y-65783374D01*
X136802108Y-65779059D01*
X136813967Y-65778500D01*
X148266075Y-65778500D01*
X148334196Y-65798502D01*
X148355170Y-65815405D01*
X153544595Y-71004829D01*
X153578621Y-71067141D01*
X153581500Y-71093924D01*
X153581500Y-71831890D01*
X153596080Y-72003720D01*
X153597418Y-72008875D01*
X153597419Y-72008881D01*
X153652657Y-72221703D01*
X153653999Y-72226872D01*
X153748688Y-72437075D01*
X153803346Y-72518261D01*
X153874458Y-72623889D01*
X153874461Y-72623893D01*
X153877441Y-72628319D01*
X153881128Y-72632184D01*
X153896669Y-72648475D01*
X153929217Y-72711571D01*
X153931500Y-72735447D01*
X153931500Y-74233157D01*
X153930763Y-74246764D01*
X153926676Y-74284388D01*
X153927213Y-74290523D01*
X153931050Y-74334388D01*
X153931379Y-74339214D01*
X153931500Y-74341686D01*
X153931500Y-74344769D01*
X153931801Y-74347837D01*
X153935690Y-74387506D01*
X153935812Y-74388819D01*
X153937882Y-74412477D01*
X153943913Y-74481413D01*
X153945400Y-74486532D01*
X153945920Y-74491833D01*
X153972791Y-74580834D01*
X153973126Y-74581967D01*
X153999091Y-74671336D01*
X154001544Y-74676068D01*
X154003084Y-74681169D01*
X154005978Y-74686612D01*
X154046731Y-74763260D01*
X154047343Y-74764426D01*
X154090108Y-74846926D01*
X154093431Y-74851089D01*
X154095934Y-74855796D01*
X154154755Y-74927918D01*
X154155446Y-74928774D01*
X154186738Y-74967973D01*
X154189242Y-74970477D01*
X154189884Y-74971195D01*
X154193585Y-74975528D01*
X154220935Y-75009062D01*
X154225682Y-75012989D01*
X154225684Y-75012991D01*
X154256262Y-75038287D01*
X154265042Y-75046277D01*
X155665095Y-76446330D01*
X155699121Y-76508642D01*
X155702000Y-76535425D01*
X155702000Y-82424000D01*
X155713609Y-82531980D01*
X155724995Y-82584322D01*
X155759293Y-82687372D01*
X155837465Y-82809010D01*
X155883958Y-82862666D01*
X155993234Y-82957355D01*
X156124760Y-83017421D01*
X156148514Y-83024396D01*
X156188558Y-83036154D01*
X156188562Y-83036155D01*
X156192881Y-83037423D01*
X156197329Y-83038063D01*
X156197336Y-83038064D01*
X156331552Y-83057361D01*
X156331559Y-83057362D01*
X156336000Y-83058000D01*
X163704000Y-83058000D01*
X163772121Y-83078002D01*
X163818614Y-83131658D01*
X163830000Y-83184000D01*
X163830000Y-85090000D01*
X180340000Y-85090000D01*
X180340000Y-69850000D01*
X163830000Y-69850000D01*
X163830000Y-71756000D01*
X163809998Y-71824121D01*
X163756342Y-71870614D01*
X163704000Y-71882000D01*
X156424500Y-71882000D01*
X156356379Y-71861998D01*
X156309886Y-71808342D01*
X156298500Y-71756000D01*
X156298500Y-70916110D01*
X156283920Y-70744280D01*
X156282582Y-70739125D01*
X156282581Y-70739119D01*
X156227343Y-70526297D01*
X156227342Y-70526293D01*
X156226001Y-70521128D01*
X156131312Y-70310925D01*
X156002559Y-70119681D01*
X155843424Y-69952865D01*
X155658458Y-69815246D01*
X155653707Y-69812830D01*
X155653703Y-69812828D01*
X155555704Y-69763003D01*
X155452949Y-69710760D01*
X155447855Y-69709178D01*
X155447852Y-69709177D01*
X155237871Y-69643976D01*
X155232773Y-69642393D01*
X155227484Y-69641692D01*
X155046692Y-69617730D01*
X154981790Y-69588951D01*
X154974152Y-69581917D01*
X149492855Y-64100621D01*
X149483753Y-64090478D01*
X149463897Y-64065782D01*
X149460032Y-64060975D01*
X149421578Y-64028708D01*
X149417931Y-64025528D01*
X149416119Y-64023885D01*
X149413925Y-64021691D01*
X149380651Y-63994358D01*
X149379853Y-63993696D01*
X149338949Y-63959373D01*
X149299622Y-63900264D01*
X149298496Y-63829276D01*
X149335927Y-63768949D01*
X149354574Y-63755133D01*
X149377044Y-63741498D01*
X149393317Y-63731623D01*
X149462201Y-63671849D01*
X149563412Y-63584023D01*
X149563414Y-63584021D01*
X149567445Y-63580523D01*
X149629801Y-63504475D01*
X149710240Y-63406373D01*
X149710244Y-63406367D01*
X149713624Y-63402245D01*
X149787585Y-63272315D01*
X149825032Y-63206529D01*
X149827675Y-63201886D01*
X149906337Y-62985175D01*
X149929023Y-62859720D01*
X149946623Y-62762392D01*
X149946624Y-62762385D01*
X149947361Y-62758308D01*
X149948500Y-62734156D01*
X149948500Y-61772110D01*
X149933920Y-61600280D01*
X149932582Y-61595125D01*
X149932581Y-61595119D01*
X149877343Y-61382297D01*
X149877342Y-61382293D01*
X149876001Y-61377128D01*
X149781312Y-61166925D01*
X149652559Y-60975681D01*
X149493424Y-60808865D01*
X149308458Y-60671246D01*
X149303707Y-60668830D01*
X149303703Y-60668828D01*
X149181731Y-60606815D01*
X149102949Y-60566760D01*
X149097855Y-60565178D01*
X149097852Y-60565177D01*
X148887871Y-60499976D01*
X148882773Y-60498393D01*
X148877484Y-60497692D01*
X148659511Y-60468802D01*
X148659506Y-60468802D01*
X148654226Y-60468102D01*
X148648897Y-60468302D01*
X148648895Y-60468302D01*
X148542217Y-60472307D01*
X148423842Y-60476751D01*
X148281929Y-60506527D01*
X148211154Y-60500940D01*
X148166961Y-60472307D01*
X146027748Y-58333095D01*
X145993723Y-58270783D01*
X145998787Y-58199968D01*
X146041334Y-58143132D01*
X146107854Y-58118321D01*
X146116843Y-58118000D01*
X191771000Y-58118000D01*
X191839121Y-58138002D01*
X191885614Y-58191658D01*
X191897000Y-58244000D01*
X191897000Y-119226000D01*
X191876998Y-119294121D01*
X191823342Y-119340614D01*
X191771000Y-119352000D01*
X162470447Y-119352000D01*
X162402326Y-119331998D01*
X162355833Y-119278342D01*
X162345729Y-119208068D01*
X162352465Y-119181770D01*
X162398971Y-119057715D01*
X162401745Y-119050316D01*
X162408500Y-118988134D01*
X162408500Y-115391866D01*
X162401745Y-115329684D01*
X162350615Y-115193295D01*
X162263261Y-115076739D01*
X162146705Y-114989385D01*
X162010316Y-114938255D01*
X161948134Y-114931500D01*
X159851866Y-114931500D01*
X159789684Y-114938255D01*
X159653295Y-114989385D01*
X159536739Y-115076739D01*
X159449385Y-115193295D01*
X159398255Y-115329684D01*
X159391500Y-115391866D01*
X159391500Y-118988134D01*
X159398255Y-119050316D01*
X159401029Y-119057715D01*
X159447535Y-119181770D01*
X159452718Y-119252578D01*
X159418797Y-119314947D01*
X159356542Y-119349076D01*
X159329553Y-119352000D01*
X155070447Y-119352000D01*
X155002326Y-119331998D01*
X154955833Y-119278342D01*
X154945729Y-119208068D01*
X154952465Y-119181770D01*
X154998971Y-119057715D01*
X155001745Y-119050316D01*
X155008500Y-118988134D01*
X155008500Y-116197655D01*
X155439858Y-116197655D01*
X155475104Y-116456638D01*
X155476412Y-116461124D01*
X155476412Y-116461126D01*
X155496098Y-116528664D01*
X155548243Y-116707567D01*
X155657668Y-116944928D01*
X155668529Y-116961494D01*
X155798410Y-117159596D01*
X155798414Y-117159601D01*
X155800976Y-117163509D01*
X155975018Y-117358506D01*
X156175970Y-117525637D01*
X156179973Y-117528066D01*
X156395422Y-117658804D01*
X156395426Y-117658806D01*
X156399419Y-117661229D01*
X156640455Y-117762303D01*
X156893783Y-117826641D01*
X156898434Y-117827109D01*
X156898438Y-117827110D01*
X157091308Y-117846531D01*
X157110867Y-117848500D01*
X157266354Y-117848500D01*
X157268679Y-117848327D01*
X157268685Y-117848327D01*
X157456000Y-117834407D01*
X157456004Y-117834406D01*
X157460652Y-117834061D01*
X157465200Y-117833032D01*
X157465206Y-117833031D01*
X157651601Y-117790853D01*
X157715577Y-117776377D01*
X157751769Y-117762303D01*
X157954824Y-117683340D01*
X157954827Y-117683339D01*
X157959177Y-117681647D01*
X157978499Y-117670604D01*
X158043196Y-117633626D01*
X158186098Y-117551951D01*
X158391357Y-117390138D01*
X158570443Y-117199763D01*
X158719424Y-116985009D01*
X158729917Y-116963731D01*
X158832960Y-116754781D01*
X158832961Y-116754778D01*
X158835025Y-116750593D01*
X158872670Y-116632991D01*
X158913280Y-116506123D01*
X158914707Y-116501665D01*
X158956721Y-116243693D01*
X158958210Y-116129942D01*
X158960081Y-115987022D01*
X158960081Y-115987019D01*
X158960142Y-115982345D01*
X158924896Y-115723362D01*
X158910473Y-115673877D01*
X158853068Y-115476932D01*
X158851757Y-115472433D01*
X158742332Y-115235072D01*
X158643232Y-115083919D01*
X158601590Y-115020404D01*
X158601586Y-115020399D01*
X158599024Y-115016491D01*
X158424982Y-114821494D01*
X158224030Y-114654363D01*
X158176844Y-114625730D01*
X158004578Y-114521196D01*
X158004574Y-114521194D01*
X158000581Y-114518771D01*
X157759545Y-114417697D01*
X157506217Y-114353359D01*
X157501566Y-114352891D01*
X157501562Y-114352890D01*
X157292271Y-114331816D01*
X157289133Y-114331500D01*
X157133646Y-114331500D01*
X157131321Y-114331673D01*
X157131315Y-114331673D01*
X156944000Y-114345593D01*
X156943996Y-114345594D01*
X156939348Y-114345939D01*
X156934800Y-114346968D01*
X156934794Y-114346969D01*
X156748399Y-114389147D01*
X156684423Y-114403623D01*
X156680071Y-114405315D01*
X156680069Y-114405316D01*
X156445176Y-114496660D01*
X156445173Y-114496661D01*
X156440823Y-114498353D01*
X156213902Y-114628049D01*
X156008643Y-114789862D01*
X155829557Y-114980237D01*
X155766344Y-115071358D01*
X155686738Y-115186109D01*
X155680576Y-115194991D01*
X155678510Y-115199181D01*
X155678508Y-115199184D01*
X155608994Y-115340146D01*
X155564975Y-115429407D01*
X155563553Y-115433850D01*
X155563552Y-115433852D01*
X155552564Y-115468179D01*
X155485293Y-115678335D01*
X155443279Y-115936307D01*
X155439858Y-116197655D01*
X155008500Y-116197655D01*
X155008500Y-115391866D01*
X155001745Y-115329684D01*
X154950615Y-115193295D01*
X154863261Y-115076739D01*
X154746705Y-114989385D01*
X154610316Y-114938255D01*
X154548134Y-114931500D01*
X152451866Y-114931500D01*
X152389684Y-114938255D01*
X152253295Y-114989385D01*
X152136739Y-115076739D01*
X152049385Y-115193295D01*
X151998255Y-115329684D01*
X151991500Y-115391866D01*
X151991500Y-118988134D01*
X151998255Y-119050316D01*
X152001029Y-119057715D01*
X152047535Y-119181770D01*
X152052718Y-119252578D01*
X152018797Y-119314947D01*
X151956542Y-119349076D01*
X151929553Y-119352000D01*
X133491547Y-119352000D01*
X133423426Y-119331998D01*
X133376933Y-119278342D01*
X133366789Y-119243644D01*
X133309985Y-118842001D01*
X133213617Y-118435922D01*
X133212686Y-118433164D01*
X133212683Y-118433153D01*
X133085109Y-118055168D01*
X133080152Y-118040480D01*
X132920764Y-117681647D01*
X132911918Y-117661731D01*
X132911916Y-117661727D01*
X132910730Y-117659057D01*
X132849129Y-117549059D01*
X132708223Y-117297453D01*
X132708222Y-117297451D01*
X132706801Y-117294914D01*
X132470107Y-116951165D01*
X132468244Y-116948933D01*
X132468238Y-116948925D01*
X132212383Y-116642384D01*
X132202673Y-116630750D01*
X132022992Y-116452007D01*
X131908856Y-116338467D01*
X131908854Y-116338465D01*
X131906785Y-116336407D01*
X131904543Y-116334556D01*
X131904538Y-116334551D01*
X131596455Y-116080136D01*
X131584973Y-116070654D01*
X131387658Y-115936307D01*
X131242408Y-115837410D01*
X131242403Y-115837407D01*
X131239990Y-115835764D01*
X131237442Y-115834354D01*
X131237433Y-115834349D01*
X130963756Y-115682959D01*
X130874785Y-115633743D01*
X130492480Y-115466321D01*
X130489723Y-115465407D01*
X130489719Y-115465405D01*
X130099107Y-115335844D01*
X130099105Y-115335843D01*
X130096345Y-115334928D01*
X129942560Y-115299283D01*
X129692597Y-115241345D01*
X129692593Y-115241344D01*
X129689766Y-115240689D01*
X129554106Y-115222226D01*
X129279066Y-115184794D01*
X129279062Y-115184794D01*
X129276221Y-115184407D01*
X129273355Y-115184279D01*
X129273351Y-115184279D01*
X128987821Y-115171563D01*
X128987804Y-115171563D01*
X128986398Y-115171500D01*
X126767812Y-115171500D01*
X126766373Y-115171567D01*
X126766356Y-115171567D01*
X126620525Y-115178317D01*
X126458089Y-115185835D01*
X126044743Y-115243560D01*
X126041921Y-115244225D01*
X126041913Y-115244226D01*
X125641336Y-115338549D01*
X125641330Y-115338551D01*
X125638496Y-115339218D01*
X125242822Y-115471993D01*
X125240160Y-115473170D01*
X124863783Y-115639564D01*
X124863772Y-115639570D01*
X124861104Y-115640749D01*
X124858551Y-115642173D01*
X124499144Y-115842626D01*
X124499136Y-115842631D01*
X124496606Y-115844042D01*
X124368836Y-115931692D01*
X124154850Y-116078485D01*
X124154843Y-116078490D01*
X124152444Y-116080136D01*
X124150197Y-116082005D01*
X123846544Y-116334551D01*
X123831562Y-116347011D01*
X123829506Y-116349071D01*
X123546081Y-116632991D01*
X123536704Y-116642384D01*
X123270390Y-116963731D01*
X123268747Y-116966135D01*
X123036540Y-117305899D01*
X123036534Y-117305909D01*
X123034897Y-117308304D01*
X123033491Y-117310835D01*
X123033485Y-117310845D01*
X122833657Y-117670604D01*
X122833653Y-117670613D01*
X122832240Y-117673156D01*
X122831067Y-117675823D01*
X122831062Y-117675832D01*
X122669401Y-118043236D01*
X122664151Y-118055168D01*
X122532067Y-118451074D01*
X122437117Y-118857487D01*
X122436718Y-118860383D01*
X122436717Y-118860387D01*
X122383937Y-119243209D01*
X122354819Y-119307960D01*
X122295316Y-119346688D01*
X122259118Y-119352000D01*
X114299000Y-119352000D01*
X114230879Y-119331998D01*
X114184386Y-119278342D01*
X114173000Y-119226000D01*
X114173000Y-110601001D01*
X152391500Y-110601001D01*
X152391702Y-110603509D01*
X152391702Y-110603514D01*
X152400776Y-110716288D01*
X152406060Y-110781965D01*
X152407266Y-110786873D01*
X152407266Y-110786876D01*
X152447795Y-110951880D01*
X152463963Y-111017706D01*
X152558812Y-111241156D01*
X152688167Y-111446567D01*
X152703360Y-111463800D01*
X152845350Y-111624858D01*
X152845353Y-111624861D01*
X152848698Y-111628655D01*
X152852606Y-111631865D01*
X152852607Y-111631866D01*
X152969355Y-111727763D01*
X153036278Y-111782734D01*
X153246078Y-111904841D01*
X153250801Y-111906654D01*
X153467978Y-111990020D01*
X153467982Y-111990021D01*
X153472702Y-111991833D01*
X153477652Y-111992867D01*
X153477655Y-111992868D01*
X153705369Y-112040440D01*
X153705373Y-112040440D01*
X153710320Y-112041474D01*
X153952817Y-112052486D01*
X153957837Y-112051905D01*
X153957841Y-112051905D01*
X154188929Y-112025167D01*
X154188933Y-112025166D01*
X154193956Y-112024585D01*
X154198820Y-112023209D01*
X154198823Y-112023208D01*
X154422669Y-111959866D01*
X154422668Y-111959866D01*
X154427532Y-111958490D01*
X154432108Y-111956356D01*
X154432114Y-111956354D01*
X154642954Y-111858038D01*
X154642958Y-111858036D01*
X154647536Y-111855901D01*
X154848307Y-111719456D01*
X155024681Y-111552668D01*
X155102901Y-111450361D01*
X155169047Y-111363846D01*
X155169050Y-111363842D01*
X155172120Y-111359826D01*
X155286831Y-111145891D01*
X155365862Y-110916369D01*
X155389948Y-110776924D01*
X155406504Y-110681074D01*
X155406505Y-110681068D01*
X155407179Y-110677164D01*
X155408500Y-110648075D01*
X155408500Y-110601001D01*
X158991500Y-110601001D01*
X158991702Y-110603509D01*
X158991702Y-110603514D01*
X159000776Y-110716288D01*
X159006060Y-110781965D01*
X159007266Y-110786873D01*
X159007266Y-110786876D01*
X159047795Y-110951880D01*
X159063963Y-111017706D01*
X159158812Y-111241156D01*
X159288167Y-111446567D01*
X159303360Y-111463800D01*
X159445350Y-111624858D01*
X159445353Y-111624861D01*
X159448698Y-111628655D01*
X159452606Y-111631865D01*
X159452607Y-111631866D01*
X159569355Y-111727763D01*
X159636278Y-111782734D01*
X159846078Y-111904841D01*
X159850801Y-111906654D01*
X160067978Y-111990020D01*
X160067982Y-111990021D01*
X160072702Y-111991833D01*
X160077652Y-111992867D01*
X160077655Y-111992868D01*
X160305369Y-112040440D01*
X160305373Y-112040440D01*
X160310320Y-112041474D01*
X160552817Y-112052486D01*
X160557837Y-112051905D01*
X160557841Y-112051905D01*
X160788929Y-112025167D01*
X160788933Y-112025166D01*
X160793956Y-112024585D01*
X160798820Y-112023209D01*
X160798823Y-112023208D01*
X161022669Y-111959866D01*
X161022668Y-111959866D01*
X161027532Y-111958490D01*
X161032108Y-111956356D01*
X161032114Y-111956354D01*
X161242954Y-111858038D01*
X161242958Y-111858036D01*
X161247536Y-111855901D01*
X161448307Y-111719456D01*
X161624681Y-111552668D01*
X161692626Y-111463800D01*
X167809793Y-111463800D01*
X167830189Y-111722950D01*
X167831343Y-111727757D01*
X167831344Y-111727763D01*
X167845152Y-111785276D01*
X167890873Y-111975720D01*
X167892766Y-111980291D01*
X167892767Y-111980293D01*
X167911355Y-112025167D01*
X167990352Y-112215884D01*
X168126177Y-112437529D01*
X168295002Y-112635198D01*
X168492671Y-112804023D01*
X168714316Y-112939848D01*
X168718886Y-112941741D01*
X168718888Y-112941742D01*
X168949907Y-113037433D01*
X168954480Y-113039327D01*
X169040943Y-113060085D01*
X169202437Y-113098856D01*
X169202443Y-113098857D01*
X169207250Y-113100011D01*
X169466400Y-113120407D01*
X169725550Y-113100011D01*
X169730357Y-113098857D01*
X169730363Y-113098856D01*
X169891857Y-113060085D01*
X169978320Y-113039327D01*
X169982893Y-113037433D01*
X170213912Y-112941742D01*
X170213914Y-112941741D01*
X170218484Y-112939848D01*
X170440129Y-112804023D01*
X170637798Y-112635198D01*
X170806623Y-112437529D01*
X170942448Y-112215884D01*
X171021446Y-112025167D01*
X171040033Y-111980293D01*
X171040034Y-111980291D01*
X171041927Y-111975720D01*
X171087648Y-111785276D01*
X171101456Y-111727763D01*
X171101457Y-111727757D01*
X171102611Y-111722950D01*
X171123007Y-111463800D01*
X171102611Y-111204650D01*
X171089576Y-111150352D01*
X171057730Y-111017706D01*
X171041927Y-110951880D01*
X170942448Y-110711716D01*
X170806623Y-110490071D01*
X170637798Y-110292402D01*
X170516040Y-110188411D01*
X170443897Y-110126795D01*
X170443896Y-110126794D01*
X170440129Y-110123577D01*
X170218484Y-109987752D01*
X170213914Y-109985859D01*
X170213912Y-109985858D01*
X169982893Y-109890167D01*
X169982891Y-109890166D01*
X169978320Y-109888273D01*
X169891857Y-109867515D01*
X169730363Y-109828744D01*
X169730357Y-109828743D01*
X169725550Y-109827589D01*
X169466400Y-109807193D01*
X169207250Y-109827589D01*
X169202443Y-109828743D01*
X169202437Y-109828744D01*
X169040943Y-109867515D01*
X168954480Y-109888273D01*
X168949909Y-109890166D01*
X168949907Y-109890167D01*
X168718888Y-109985858D01*
X168718886Y-109985859D01*
X168714316Y-109987752D01*
X168492671Y-110123577D01*
X168488904Y-110126794D01*
X168488903Y-110126795D01*
X168416760Y-110188411D01*
X168295002Y-110292402D01*
X168126177Y-110490071D01*
X167990352Y-110711716D01*
X167890873Y-110951880D01*
X167875070Y-111017706D01*
X167843225Y-111150352D01*
X167830189Y-111204650D01*
X167809793Y-111463800D01*
X161692626Y-111463800D01*
X161702901Y-111450361D01*
X161769047Y-111363846D01*
X161769050Y-111363842D01*
X161772120Y-111359826D01*
X161886831Y-111145891D01*
X161965862Y-110916369D01*
X161989948Y-110776924D01*
X162006504Y-110681074D01*
X162006505Y-110681068D01*
X162007179Y-110677164D01*
X162008500Y-110648075D01*
X162008500Y-108978999D01*
X162008298Y-108976486D01*
X161994346Y-108803076D01*
X161994345Y-108803071D01*
X161993940Y-108798035D01*
X161970978Y-108704547D01*
X161937244Y-108567208D01*
X161936037Y-108562294D01*
X161918085Y-108520000D01*
X161853719Y-108368365D01*
X161841188Y-108338844D01*
X161836084Y-108330739D01*
X165753129Y-108330739D01*
X165753426Y-108335892D01*
X165753426Y-108335895D01*
X165758270Y-108419898D01*
X165766357Y-108560161D01*
X165767492Y-108565198D01*
X165767493Y-108565204D01*
X165800060Y-108709715D01*
X165816878Y-108784342D01*
X165903336Y-108997261D01*
X165906033Y-109001662D01*
X165906034Y-109001664D01*
X166015231Y-109179857D01*
X166023408Y-109193200D01*
X166173869Y-109366898D01*
X166177844Y-109370198D01*
X166177847Y-109370201D01*
X166217943Y-109403489D01*
X166350679Y-109513689D01*
X166549090Y-109629631D01*
X166553910Y-109631471D01*
X166553915Y-109631474D01*
X166660296Y-109672096D01*
X166763774Y-109711610D01*
X166768842Y-109712641D01*
X166768845Y-109712642D01*
X166879534Y-109735162D01*
X166988963Y-109757426D01*
X166994136Y-109757616D01*
X166994139Y-109757616D01*
X167213448Y-109765657D01*
X167213452Y-109765657D01*
X167218612Y-109765846D01*
X167223732Y-109765190D01*
X167223734Y-109765190D01*
X167441425Y-109737304D01*
X167441428Y-109737303D01*
X167446552Y-109736647D01*
X167666663Y-109670610D01*
X167873033Y-109569511D01*
X167880520Y-109564171D01*
X168055916Y-109439062D01*
X168060119Y-109436064D01*
X168222898Y-109273852D01*
X168229804Y-109264242D01*
X168353979Y-109091433D01*
X168356997Y-109087233D01*
X168389331Y-109021811D01*
X168433056Y-108933339D01*
X168458816Y-108881217D01*
X168485581Y-108793124D01*
X168524117Y-108666291D01*
X168524118Y-108666285D01*
X168525621Y-108661339D01*
X168555616Y-108433502D01*
X168557290Y-108365000D01*
X168549033Y-108264570D01*
X168538884Y-108141121D01*
X168538883Y-108141115D01*
X168538460Y-108135970D01*
X168482477Y-107913090D01*
X168390843Y-107702347D01*
X168386418Y-107695507D01*
X168268830Y-107513743D01*
X168268828Y-107513740D01*
X168266020Y-107509400D01*
X168258045Y-107500635D01*
X168114837Y-107343252D01*
X168114835Y-107343251D01*
X168111359Y-107339430D01*
X168107308Y-107336231D01*
X168107304Y-107336227D01*
X167957561Y-107217968D01*
X167916498Y-107160051D01*
X167913266Y-107089128D01*
X167948891Y-107027716D01*
X167962484Y-107016508D01*
X168055908Y-106949869D01*
X168055918Y-106949860D01*
X168060119Y-106946864D01*
X168222898Y-106784652D01*
X168232010Y-106771972D01*
X176362724Y-106771972D01*
X176362990Y-106775313D01*
X176362990Y-106775318D01*
X176391970Y-107139476D01*
X176392384Y-107144680D01*
X176393004Y-107147975D01*
X176393004Y-107147978D01*
X176460250Y-107505574D01*
X176461482Y-107512126D01*
X176569234Y-107870149D01*
X176585333Y-107908353D01*
X176681983Y-108137712D01*
X176714422Y-108214694D01*
X176895400Y-108541861D01*
X176897321Y-108544599D01*
X176897327Y-108544609D01*
X177061964Y-108779297D01*
X177110120Y-108847943D01*
X177356149Y-109129476D01*
X177358610Y-109131751D01*
X177358613Y-109131754D01*
X177451306Y-109217438D01*
X177630702Y-109383270D01*
X177930670Y-109606452D01*
X177933557Y-109608156D01*
X178249764Y-109794789D01*
X178249769Y-109794792D01*
X178252655Y-109796495D01*
X178593013Y-109951246D01*
X178774521Y-110011450D01*
X178944696Y-110067895D01*
X178944703Y-110067897D01*
X178947887Y-110068953D01*
X178951172Y-110069666D01*
X178951171Y-110069666D01*
X179309981Y-110147572D01*
X179309984Y-110147572D01*
X179313261Y-110148284D01*
X179508587Y-110169331D01*
X179682477Y-110188068D01*
X179682485Y-110188069D01*
X179684995Y-110188339D01*
X179687515Y-110188407D01*
X179687527Y-110188408D01*
X179689515Y-110188461D01*
X179690945Y-110188500D01*
X185968461Y-110188500D01*
X185970127Y-110188411D01*
X185970136Y-110188411D01*
X186245022Y-110173764D01*
X186245028Y-110173763D01*
X186248357Y-110173586D01*
X186251649Y-110173056D01*
X186251656Y-110173055D01*
X186614170Y-110114665D01*
X186614171Y-110114665D01*
X186617485Y-110114131D01*
X186620725Y-110113248D01*
X186620728Y-110113247D01*
X186974960Y-110016672D01*
X186974961Y-110016672D01*
X186978206Y-110015787D01*
X187304423Y-109888273D01*
X187323303Y-109880893D01*
X187323305Y-109880892D01*
X187326434Y-109879669D01*
X187338181Y-109873567D01*
X187655256Y-109708860D01*
X187655259Y-109708858D01*
X187658226Y-109707317D01*
X187946276Y-109516299D01*
X187967036Y-109502532D01*
X187967038Y-109502531D01*
X187969824Y-109500683D01*
X188257700Y-109262108D01*
X188518595Y-108994292D01*
X188566475Y-108933339D01*
X188747481Y-108702907D01*
X188747482Y-108702905D01*
X188749553Y-108700269D01*
X188918670Y-108430150D01*
X188946178Y-108386214D01*
X188946180Y-108386211D01*
X188947959Y-108383369D01*
X189068356Y-108135970D01*
X189110099Y-108050194D01*
X189110101Y-108050190D01*
X189111566Y-108047179D01*
X189238523Y-107695507D01*
X189327390Y-107332336D01*
X189328151Y-107326669D01*
X189376719Y-106965086D01*
X189376720Y-106965077D01*
X189377163Y-106961777D01*
X189387276Y-106588028D01*
X189381263Y-106512464D01*
X189357883Y-106218669D01*
X189357882Y-106218660D01*
X189357616Y-106215320D01*
X189349040Y-106169715D01*
X189289136Y-105851158D01*
X189289134Y-105851150D01*
X189288518Y-105847874D01*
X189180766Y-105489851D01*
X189104897Y-105309806D01*
X189036878Y-105148390D01*
X189036875Y-105148383D01*
X189035578Y-105145306D01*
X188854600Y-104818139D01*
X188852679Y-104815401D01*
X188852673Y-104815391D01*
X188641803Y-104514798D01*
X188641802Y-104514796D01*
X188639880Y-104512057D01*
X188393851Y-104230524D01*
X188119298Y-103976730D01*
X187819330Y-103753548D01*
X187645823Y-103651140D01*
X187500236Y-103565211D01*
X187500231Y-103565208D01*
X187497345Y-103563505D01*
X187156987Y-103408754D01*
X186959735Y-103343328D01*
X186805304Y-103292105D01*
X186805297Y-103292103D01*
X186802113Y-103291047D01*
X186591578Y-103245335D01*
X186440019Y-103212428D01*
X186440016Y-103212428D01*
X186436739Y-103211716D01*
X186200270Y-103186236D01*
X186067523Y-103171932D01*
X186067515Y-103171931D01*
X186065005Y-103171661D01*
X186062485Y-103171593D01*
X186062473Y-103171592D01*
X186060485Y-103171539D01*
X186059055Y-103171500D01*
X179781539Y-103171500D01*
X179779873Y-103171589D01*
X179779864Y-103171589D01*
X179504978Y-103186236D01*
X179504972Y-103186237D01*
X179501643Y-103186414D01*
X179498351Y-103186944D01*
X179498344Y-103186945D01*
X179135830Y-103245335D01*
X179132515Y-103245869D01*
X179129275Y-103246752D01*
X179129272Y-103246753D01*
X178775040Y-103343328D01*
X178771794Y-103344213D01*
X178423566Y-103480331D01*
X178420584Y-103481880D01*
X178126264Y-103634767D01*
X178091774Y-103652683D01*
X177780176Y-103859317D01*
X177492300Y-104097892D01*
X177231405Y-104365708D01*
X177229338Y-104368340D01*
X177229334Y-104368344D01*
X177047778Y-104599476D01*
X177000447Y-104659731D01*
X176911940Y-104801097D01*
X176809716Y-104964373D01*
X176802041Y-104976631D01*
X176798917Y-104983051D01*
X176641423Y-105306680D01*
X176638434Y-105312821D01*
X176511477Y-105664493D01*
X176422610Y-106027664D01*
X176422164Y-106030983D01*
X176422164Y-106030984D01*
X176373616Y-106392425D01*
X176372837Y-106398223D01*
X176362724Y-106771972D01*
X168232010Y-106771972D01*
X168353979Y-106602233D01*
X168356997Y-106598033D01*
X168363596Y-106584682D01*
X168416886Y-106476857D01*
X168458816Y-106392017D01*
X168474739Y-106339608D01*
X168524117Y-106177091D01*
X168524118Y-106177085D01*
X168525621Y-106172139D01*
X168544641Y-106027664D01*
X168555179Y-105947623D01*
X168555179Y-105947619D01*
X168555616Y-105944302D01*
X168557290Y-105875800D01*
X168547977Y-105762522D01*
X168538884Y-105651921D01*
X168538883Y-105651915D01*
X168538460Y-105646770D01*
X168482477Y-105423890D01*
X168390843Y-105213147D01*
X168388037Y-105208809D01*
X168268830Y-105024543D01*
X168268828Y-105024540D01*
X168266020Y-105020200D01*
X168229303Y-104979848D01*
X168114837Y-104854052D01*
X168114835Y-104854051D01*
X168111359Y-104850230D01*
X168107308Y-104847031D01*
X168107304Y-104847027D01*
X167935073Y-104711008D01*
X167931015Y-104707803D01*
X167729831Y-104596743D01*
X167607228Y-104553327D01*
X167518084Y-104521759D01*
X167518080Y-104521758D01*
X167513209Y-104520033D01*
X167508116Y-104519126D01*
X167508113Y-104519125D01*
X167292056Y-104480639D01*
X167292050Y-104480638D01*
X167286967Y-104479733D01*
X167213784Y-104478839D01*
X167062351Y-104476989D01*
X167062349Y-104476989D01*
X167057181Y-104476926D01*
X166905610Y-104500119D01*
X166835131Y-104510904D01*
X166835128Y-104510905D01*
X166830022Y-104511686D01*
X166825110Y-104513291D01*
X166825112Y-104513291D01*
X166616504Y-104581475D01*
X166616502Y-104581476D01*
X166611591Y-104583081D01*
X166407753Y-104689192D01*
X166403620Y-104692295D01*
X166403617Y-104692297D01*
X166232095Y-104821079D01*
X166223983Y-104827170D01*
X166205007Y-104847027D01*
X166078081Y-104979848D01*
X166065216Y-104993310D01*
X165935716Y-105183150D01*
X165838961Y-105391592D01*
X165777548Y-105613037D01*
X165753129Y-105841539D01*
X165753426Y-105846692D01*
X165753426Y-105846695D01*
X165754911Y-105872446D01*
X165766357Y-106070961D01*
X165767492Y-106075998D01*
X165767493Y-106076004D01*
X165790274Y-106177091D01*
X165816878Y-106295142D01*
X165903336Y-106508061D01*
X165906033Y-106512462D01*
X165906034Y-106512464D01*
X166012547Y-106686277D01*
X166023408Y-106704000D01*
X166173869Y-106877698D01*
X166177844Y-106880998D01*
X166177847Y-106881001D01*
X166350679Y-107024489D01*
X166349463Y-107025953D01*
X166388646Y-107074988D01*
X166395945Y-107145608D01*
X166363904Y-107208964D01*
X166347693Y-107223486D01*
X166273573Y-107279137D01*
X166223983Y-107316370D01*
X166065216Y-107482510D01*
X166062302Y-107486782D01*
X166062301Y-107486783D01*
X166046873Y-107509400D01*
X165935716Y-107672350D01*
X165912687Y-107721962D01*
X165841260Y-107875840D01*
X165838961Y-107880792D01*
X165777548Y-108102237D01*
X165753129Y-108330739D01*
X161836084Y-108330739D01*
X161766457Y-108220174D01*
X161714528Y-108137712D01*
X161714526Y-108137709D01*
X161711833Y-108133433D01*
X161642066Y-108054297D01*
X161554650Y-107955142D01*
X161554647Y-107955139D01*
X161551302Y-107951345D01*
X161547393Y-107948134D01*
X161367628Y-107800474D01*
X161367625Y-107800472D01*
X161363722Y-107797266D01*
X161208769Y-107707081D01*
X161158290Y-107677701D01*
X161158288Y-107677700D01*
X161153922Y-107675159D01*
X161135457Y-107668071D01*
X160932022Y-107589980D01*
X160932018Y-107589979D01*
X160927298Y-107588167D01*
X160922348Y-107587133D01*
X160922345Y-107587132D01*
X160694631Y-107539560D01*
X160694627Y-107539560D01*
X160689680Y-107538526D01*
X160447183Y-107527514D01*
X160442163Y-107528095D01*
X160442159Y-107528095D01*
X160211071Y-107554833D01*
X160211067Y-107554834D01*
X160206044Y-107555415D01*
X160201180Y-107556791D01*
X160201177Y-107556792D01*
X160093958Y-107587132D01*
X159972468Y-107621510D01*
X159967892Y-107623644D01*
X159967886Y-107623646D01*
X159757046Y-107721962D01*
X159757042Y-107721964D01*
X159752464Y-107724099D01*
X159551693Y-107860544D01*
X159375319Y-108027332D01*
X159372241Y-108031358D01*
X159372240Y-108031359D01*
X159230953Y-108216154D01*
X159230950Y-108216158D01*
X159227880Y-108220174D01*
X159113169Y-108434109D01*
X159034138Y-108663631D01*
X159016978Y-108762978D01*
X158995754Y-108885858D01*
X158992821Y-108902836D01*
X158992641Y-108906797D01*
X158992641Y-108906798D01*
X158991695Y-108927639D01*
X158991500Y-108931925D01*
X158991500Y-110601001D01*
X155408500Y-110601001D01*
X155408500Y-108978999D01*
X155408298Y-108976486D01*
X155394346Y-108803076D01*
X155394345Y-108803071D01*
X155393940Y-108798035D01*
X155370978Y-108704547D01*
X155337244Y-108567208D01*
X155336037Y-108562294D01*
X155318085Y-108520000D01*
X155253719Y-108368365D01*
X155241188Y-108338844D01*
X155166457Y-108220174D01*
X155114528Y-108137712D01*
X155114526Y-108137709D01*
X155111833Y-108133433D01*
X155042066Y-108054297D01*
X154954650Y-107955142D01*
X154954647Y-107955139D01*
X154951302Y-107951345D01*
X154947393Y-107948134D01*
X154767628Y-107800474D01*
X154767625Y-107800472D01*
X154763722Y-107797266D01*
X154608769Y-107707081D01*
X154558290Y-107677701D01*
X154558288Y-107677700D01*
X154553922Y-107675159D01*
X154535457Y-107668071D01*
X154332022Y-107589980D01*
X154332018Y-107589979D01*
X154327298Y-107588167D01*
X154322348Y-107587133D01*
X154322345Y-107587132D01*
X154094631Y-107539560D01*
X154094627Y-107539560D01*
X154089680Y-107538526D01*
X153847183Y-107527514D01*
X153842163Y-107528095D01*
X153842159Y-107528095D01*
X153611071Y-107554833D01*
X153611067Y-107554834D01*
X153606044Y-107555415D01*
X153601180Y-107556791D01*
X153601177Y-107556792D01*
X153493958Y-107587132D01*
X153372468Y-107621510D01*
X153367892Y-107623644D01*
X153367886Y-107623646D01*
X153157046Y-107721962D01*
X153157042Y-107721964D01*
X153152464Y-107724099D01*
X152951693Y-107860544D01*
X152775319Y-108027332D01*
X152772241Y-108031358D01*
X152772240Y-108031359D01*
X152630953Y-108216154D01*
X152630950Y-108216158D01*
X152627880Y-108220174D01*
X152513169Y-108434109D01*
X152434138Y-108663631D01*
X152416978Y-108762978D01*
X152395754Y-108885858D01*
X152392821Y-108902836D01*
X152392641Y-108906797D01*
X152392641Y-108906798D01*
X152391695Y-108927639D01*
X152391500Y-108931925D01*
X152391500Y-110601001D01*
X114173000Y-110601001D01*
X114173000Y-58244000D01*
X114193002Y-58175879D01*
X114246658Y-58129386D01*
X114299000Y-58118000D01*
X122133803Y-58118000D01*
X122201924Y-58138002D01*
G37*
G04 #@! TD.AperFunction*
G04 #@! TA.AperFunction,Conductor*
G36*
X119926963Y-75245248D02*
G01*
X119975547Y-75297017D01*
X119989100Y-75353864D01*
X119989100Y-77789057D01*
X119969098Y-77857178D01*
X119952195Y-77878152D01*
X119442688Y-78387659D01*
X119380376Y-78421685D01*
X119320982Y-78420271D01*
X119293402Y-78412881D01*
X119293400Y-78412881D01*
X119288087Y-78411457D01*
X119060000Y-78391502D01*
X118831913Y-78411457D01*
X118826600Y-78412881D01*
X118826598Y-78412881D01*
X118616067Y-78469293D01*
X118616065Y-78469294D01*
X118610757Y-78470716D01*
X118605776Y-78473039D01*
X118605775Y-78473039D01*
X118518072Y-78513936D01*
X118514921Y-78515405D01*
X118405739Y-78566317D01*
X118335547Y-78576978D01*
X118270734Y-78547998D01*
X118231878Y-78488578D01*
X118226489Y-78452122D01*
X118226489Y-75417878D01*
X118246491Y-75349757D01*
X118300147Y-75303264D01*
X118370421Y-75293160D01*
X118405738Y-75303683D01*
X118610757Y-75399284D01*
X118616065Y-75400706D01*
X118616067Y-75400707D01*
X118826598Y-75457119D01*
X118826600Y-75457119D01*
X118831913Y-75458543D01*
X119060000Y-75478498D01*
X119288087Y-75458543D01*
X119293400Y-75457119D01*
X119293402Y-75457119D01*
X119503933Y-75400707D01*
X119503935Y-75400706D01*
X119509243Y-75399284D01*
X119514225Y-75396961D01*
X119711762Y-75304849D01*
X119711767Y-75304846D01*
X119716749Y-75302523D01*
X119790830Y-75250651D01*
X119858103Y-75227963D01*
X119926963Y-75245248D01*
G37*
G04 #@! TD.AperFunction*
G04 #@! TA.AperFunction,Conductor*
G36*
X142763177Y-59735902D02*
G01*
X142784151Y-59752805D01*
X143302797Y-60271451D01*
X143336823Y-60333763D01*
X143331758Y-60404578D01*
X143289211Y-60461414D01*
X143222691Y-60486225D01*
X143197148Y-60485454D01*
X143177447Y-60482843D01*
X143071511Y-60468802D01*
X143071506Y-60468802D01*
X143066226Y-60468102D01*
X143060897Y-60468302D01*
X143060895Y-60468302D01*
X142954217Y-60472307D01*
X142835842Y-60476751D01*
X142610209Y-60524093D01*
X142605250Y-60526051D01*
X142605248Y-60526052D01*
X142400744Y-60606815D01*
X142400742Y-60606816D01*
X142395779Y-60608776D01*
X142391220Y-60611543D01*
X142391217Y-60611544D01*
X142292832Y-60671246D01*
X142198683Y-60728377D01*
X142194653Y-60731874D01*
X142101484Y-60812722D01*
X142024555Y-60879477D01*
X142021168Y-60883608D01*
X141881760Y-61053627D01*
X141881756Y-61053633D01*
X141878376Y-61057755D01*
X141764325Y-61258114D01*
X141734913Y-61339143D01*
X141725651Y-61364659D01*
X141683606Y-61421867D01*
X141617307Y-61447263D01*
X141547803Y-61432783D01*
X141497160Y-61383025D01*
X141492330Y-61373418D01*
X141401507Y-61171798D01*
X141399312Y-61166925D01*
X141270559Y-60975681D01*
X141111424Y-60808865D01*
X140926458Y-60671246D01*
X140921707Y-60668830D01*
X140921703Y-60668828D01*
X140799731Y-60606815D01*
X140720949Y-60566760D01*
X140715855Y-60565178D01*
X140715852Y-60565177D01*
X140505871Y-60499976D01*
X140500773Y-60498393D01*
X140495484Y-60497692D01*
X140277511Y-60468802D01*
X140277506Y-60468802D01*
X140272226Y-60468102D01*
X140266897Y-60468302D01*
X140266895Y-60468302D01*
X140160217Y-60472307D01*
X140041842Y-60476751D01*
X139816209Y-60524093D01*
X139811250Y-60526051D01*
X139811248Y-60526052D01*
X139606744Y-60606815D01*
X139606742Y-60606816D01*
X139601779Y-60608776D01*
X139597220Y-60611543D01*
X139597217Y-60611544D01*
X139498832Y-60671246D01*
X139404683Y-60728377D01*
X139400653Y-60731874D01*
X139307484Y-60812722D01*
X139230555Y-60879477D01*
X139227168Y-60883608D01*
X139087760Y-61053627D01*
X139087756Y-61053633D01*
X139084376Y-61057755D01*
X138970325Y-61258114D01*
X138940913Y-61339143D01*
X138931651Y-61364659D01*
X138889606Y-61421867D01*
X138823307Y-61447263D01*
X138753803Y-61432783D01*
X138703160Y-61383025D01*
X138698330Y-61373418D01*
X138607507Y-61171798D01*
X138605312Y-61166925D01*
X138476559Y-60975681D01*
X138317424Y-60808865D01*
X138132458Y-60671246D01*
X138127707Y-60668830D01*
X138127703Y-60668828D01*
X138005731Y-60606815D01*
X137926949Y-60566760D01*
X137921855Y-60565178D01*
X137921852Y-60565177D01*
X137711871Y-60499976D01*
X137706773Y-60498393D01*
X137701484Y-60497692D01*
X137483511Y-60468802D01*
X137483506Y-60468802D01*
X137478226Y-60468102D01*
X137472897Y-60468302D01*
X137472895Y-60468302D01*
X137366217Y-60472307D01*
X137247842Y-60476751D01*
X137022209Y-60524093D01*
X137017250Y-60526051D01*
X137017248Y-60526052D01*
X136812744Y-60606815D01*
X136812742Y-60606816D01*
X136807779Y-60608776D01*
X136803220Y-60611543D01*
X136803217Y-60611544D01*
X136704832Y-60671246D01*
X136610683Y-60728377D01*
X136606653Y-60731874D01*
X136513484Y-60812722D01*
X136436555Y-60879477D01*
X136433168Y-60883608D01*
X136293760Y-61053627D01*
X136293756Y-61053633D01*
X136290376Y-61057755D01*
X136176325Y-61258114D01*
X136146913Y-61339143D01*
X136137651Y-61364659D01*
X136095606Y-61421867D01*
X136029307Y-61447263D01*
X135959803Y-61432783D01*
X135909160Y-61383025D01*
X135904330Y-61373418D01*
X135813507Y-61171798D01*
X135811312Y-61166925D01*
X135682559Y-60975681D01*
X135523424Y-60808865D01*
X135338458Y-60671246D01*
X135333707Y-60668830D01*
X135333703Y-60668828D01*
X135211731Y-60606815D01*
X135132949Y-60566760D01*
X135127855Y-60565178D01*
X135127852Y-60565177D01*
X134917871Y-60499976D01*
X134912773Y-60498393D01*
X134907484Y-60497692D01*
X134689511Y-60468802D01*
X134689506Y-60468802D01*
X134684226Y-60468102D01*
X134678897Y-60468302D01*
X134678895Y-60468302D01*
X134572217Y-60472307D01*
X134453842Y-60476751D01*
X134228209Y-60524093D01*
X134223250Y-60526051D01*
X134223248Y-60526052D01*
X134018744Y-60606815D01*
X134018742Y-60606816D01*
X134013779Y-60608776D01*
X134009220Y-60611543D01*
X134009217Y-60611544D01*
X133910832Y-60671246D01*
X133816683Y-60728377D01*
X133812653Y-60731874D01*
X133719484Y-60812722D01*
X133642555Y-60879477D01*
X133639168Y-60883608D01*
X133499760Y-61053627D01*
X133499756Y-61053633D01*
X133496376Y-61057755D01*
X133382325Y-61258114D01*
X133303663Y-61474825D01*
X133302714Y-61480074D01*
X133302713Y-61480077D01*
X133263377Y-61697608D01*
X133263376Y-61697615D01*
X133262639Y-61701692D01*
X133261500Y-61725844D01*
X133261500Y-62687890D01*
X133276080Y-62859720D01*
X133277418Y-62864875D01*
X133277419Y-62864881D01*
X133322387Y-63038133D01*
X133333999Y-63082872D01*
X133336191Y-63087738D01*
X133336192Y-63087741D01*
X133357973Y-63136093D01*
X133428688Y-63293075D01*
X133454238Y-63331026D01*
X133554458Y-63479889D01*
X133554461Y-63479893D01*
X133557441Y-63484319D01*
X133561128Y-63488184D01*
X133576669Y-63504475D01*
X133609217Y-63567571D01*
X133611500Y-63591447D01*
X133611500Y-66570075D01*
X133591498Y-66638196D01*
X133574595Y-66659170D01*
X122959171Y-77274595D01*
X122896859Y-77308621D01*
X122870076Y-77311500D01*
X122780740Y-77311500D01*
X122708469Y-77288713D01*
X122604380Y-77215829D01*
X122556749Y-77182477D01*
X122551767Y-77180154D01*
X122551762Y-77180151D01*
X122354225Y-77088039D01*
X122354224Y-77088039D01*
X122349243Y-77085716D01*
X122343935Y-77084294D01*
X122343933Y-77084293D01*
X122240981Y-77056707D01*
X122180358Y-77019755D01*
X122149337Y-76955894D01*
X122157765Y-76885400D01*
X122202968Y-76830653D01*
X122240981Y-76813293D01*
X122343933Y-76785707D01*
X122343935Y-76785706D01*
X122349243Y-76784284D01*
X122390686Y-76764959D01*
X122551762Y-76689849D01*
X122551767Y-76689846D01*
X122556749Y-76687523D01*
X122703595Y-76584700D01*
X122739789Y-76559357D01*
X122739792Y-76559355D01*
X122744300Y-76556198D01*
X122906198Y-76394300D01*
X123037523Y-76206749D01*
X123039846Y-76201767D01*
X123039849Y-76201762D01*
X123131961Y-76004225D01*
X123131961Y-76004224D01*
X123134284Y-75999243D01*
X123193543Y-75778087D01*
X123213498Y-75550000D01*
X123193543Y-75321913D01*
X123188546Y-75303264D01*
X123135707Y-75106067D01*
X123135706Y-75106065D01*
X123134284Y-75100757D01*
X123108880Y-75046277D01*
X123039849Y-74898238D01*
X123039846Y-74898233D01*
X123037523Y-74893251D01*
X122947319Y-74764426D01*
X122909357Y-74710211D01*
X122909355Y-74710208D01*
X122906198Y-74705700D01*
X122744300Y-74543802D01*
X122739792Y-74540645D01*
X122739789Y-74540643D01*
X122661611Y-74485902D01*
X122556749Y-74412477D01*
X122551767Y-74410154D01*
X122551762Y-74410151D01*
X122354225Y-74318039D01*
X122354224Y-74318039D01*
X122349243Y-74315716D01*
X122343935Y-74314294D01*
X122343933Y-74314293D01*
X122133402Y-74257881D01*
X122133400Y-74257881D01*
X122128087Y-74256457D01*
X121900000Y-74236502D01*
X121671913Y-74256457D01*
X121469511Y-74310691D01*
X121398535Y-74309001D01*
X121339739Y-74269207D01*
X121311791Y-74203943D01*
X121310900Y-74188984D01*
X121310900Y-74034370D01*
X121311192Y-74025800D01*
X121314325Y-73979850D01*
X121314325Y-73979846D01*
X121314841Y-73972274D01*
X121313002Y-73961733D01*
X121304633Y-73913784D01*
X121303670Y-73907258D01*
X121297450Y-73855855D01*
X121297449Y-73855852D01*
X121296537Y-73848313D01*
X121293851Y-73841205D01*
X121292140Y-73834239D01*
X121290721Y-73829050D01*
X121288644Y-73822171D01*
X121287339Y-73814694D01*
X121263476Y-73760333D01*
X121260985Y-73754229D01*
X121242679Y-73705782D01*
X121242678Y-73705780D01*
X121239994Y-73698677D01*
X121235694Y-73692420D01*
X121232360Y-73686043D01*
X121229760Y-73681373D01*
X121226095Y-73675176D01*
X121223042Y-73668221D01*
X121214951Y-73657676D01*
X121186894Y-73621113D01*
X121183016Y-73615775D01*
X121153691Y-73573106D01*
X121153689Y-73573104D01*
X121149389Y-73566847D01*
X121106180Y-73528349D01*
X121100905Y-73523369D01*
X118796804Y-71219269D01*
X118762779Y-71156957D01*
X118759899Y-71130174D01*
X118759899Y-67918239D01*
X118779901Y-67850118D01*
X118833557Y-67803625D01*
X118903831Y-67793521D01*
X118959960Y-67816303D01*
X119133221Y-67942184D01*
X119409821Y-68094247D01*
X119413490Y-68095700D01*
X119413495Y-68095702D01*
X119699628Y-68208990D01*
X119703298Y-68210443D01*
X120009025Y-68288940D01*
X120322179Y-68328500D01*
X120637821Y-68328500D01*
X120950975Y-68288940D01*
X121256702Y-68210443D01*
X121260372Y-68208990D01*
X121546505Y-68095702D01*
X121546510Y-68095700D01*
X121550179Y-68094247D01*
X121826779Y-67942184D01*
X122072101Y-67763948D01*
X122078936Y-67758982D01*
X122078938Y-67758981D01*
X122082140Y-67756654D01*
X122279309Y-67571500D01*
X122309342Y-67543297D01*
X122309343Y-67543296D01*
X122312233Y-67540582D01*
X122328636Y-67520755D01*
X122412833Y-67418978D01*
X122513432Y-67297375D01*
X122673348Y-67045388D01*
X122680438Y-67034216D01*
X122680438Y-67034215D01*
X122682562Y-67030869D01*
X122684246Y-67027290D01*
X122684250Y-67027283D01*
X122815267Y-66748856D01*
X122815269Y-66748852D01*
X122816956Y-66745266D01*
X122914495Y-66445072D01*
X122973641Y-66135020D01*
X122993460Y-65820000D01*
X122973641Y-65504980D01*
X122914495Y-65194928D01*
X122816956Y-64894734D01*
X122815267Y-64891144D01*
X122684250Y-64612717D01*
X122684246Y-64612710D01*
X122682562Y-64609131D01*
X122513432Y-64342625D01*
X122312233Y-64099418D01*
X122082140Y-63883346D01*
X121826779Y-63697816D01*
X121808637Y-63687842D01*
X121553648Y-63547660D01*
X121553647Y-63547659D01*
X121550179Y-63545753D01*
X121546510Y-63544300D01*
X121546505Y-63544298D01*
X121260372Y-63431010D01*
X121260371Y-63431010D01*
X121256702Y-63429557D01*
X120950975Y-63351060D01*
X120637821Y-63311500D01*
X120322179Y-63311500D01*
X120167615Y-63331026D01*
X120097526Y-63319720D01*
X120044674Y-63272315D01*
X120025842Y-63203861D01*
X120047009Y-63136093D01*
X120062729Y-63116925D01*
X123426849Y-59752805D01*
X123489161Y-59718779D01*
X123515944Y-59715900D01*
X142695056Y-59715900D01*
X142763177Y-59735902D01*
G37*
G04 #@! TD.AperFunction*
G04 #@! TA.AperFunction,Conductor*
G36*
X163772121Y-72410002D02*
G01*
X163818614Y-72463658D01*
X163830000Y-72516000D01*
X163830000Y-82424000D01*
X163809998Y-82492121D01*
X163756342Y-82538614D01*
X163704000Y-82550000D01*
X156336000Y-82550000D01*
X156267879Y-82529998D01*
X156221386Y-82476342D01*
X156210000Y-82424000D01*
X156210000Y-72516000D01*
X156230002Y-72447879D01*
X156283658Y-72401386D01*
X156336000Y-72390000D01*
X163704000Y-72390000D01*
X163772121Y-72410002D01*
G37*
G04 #@! TD.AperFunction*
G04 #@! TA.AperFunction,Conductor*
G36*
X144406500Y-72961181D02*
G01*
X144405715Y-72975225D01*
X144401719Y-73010851D01*
X144402235Y-73016995D01*
X144406058Y-73062524D01*
X144406314Y-73068619D01*
X144406350Y-73068617D01*
X144406500Y-73071684D01*
X144406500Y-73074769D01*
X144406801Y-73077837D01*
X144410498Y-73115549D01*
X144410657Y-73117299D01*
X144418268Y-73207934D01*
X144419925Y-73213714D01*
X144419963Y-73213904D01*
X144420295Y-73215645D01*
X144420334Y-73215858D01*
X144420920Y-73221833D01*
X144422702Y-73227735D01*
X144447191Y-73308848D01*
X144447688Y-73310535D01*
X144472783Y-73398050D01*
X144475533Y-73403399D01*
X144475600Y-73403563D01*
X144476240Y-73405148D01*
X144476351Y-73405429D01*
X144478084Y-73411169D01*
X144480975Y-73416606D01*
X144480979Y-73416616D01*
X144520824Y-73491553D01*
X144521568Y-73492975D01*
X144563187Y-73573956D01*
X144566914Y-73578659D01*
X144567060Y-73578878D01*
X144568017Y-73580340D01*
X144568109Y-73580482D01*
X144570934Y-73585796D01*
X144628439Y-73656304D01*
X144629531Y-73657663D01*
X144686035Y-73728953D01*
X144690613Y-73732849D01*
X144690743Y-73732980D01*
X144691983Y-73734246D01*
X144692138Y-73734407D01*
X144695935Y-73739062D01*
X144700682Y-73742989D01*
X144700685Y-73742992D01*
X144766011Y-73797034D01*
X144767359Y-73798165D01*
X144831960Y-73853145D01*
X144831963Y-73853147D01*
X144836650Y-73857136D01*
X144841898Y-73860069D01*
X144842074Y-73860188D01*
X144843548Y-73861198D01*
X144843695Y-73861300D01*
X144848325Y-73865130D01*
X144853745Y-73868060D01*
X144853747Y-73868062D01*
X144928335Y-73908392D01*
X144929876Y-73909239D01*
X145003917Y-73950619D01*
X145009294Y-73953624D01*
X145015009Y-73955481D01*
X145015183Y-73955554D01*
X145016785Y-73956241D01*
X145017022Y-73956345D01*
X145022299Y-73959198D01*
X145028188Y-73961021D01*
X145109234Y-73986109D01*
X145110897Y-73986637D01*
X145197392Y-74014740D01*
X145203354Y-74015451D01*
X145203574Y-74015496D01*
X145205291Y-74015861D01*
X145205493Y-74015905D01*
X145211232Y-74017682D01*
X145217359Y-74018326D01*
X145301676Y-74027188D01*
X145303424Y-74027384D01*
X145359824Y-74034109D01*
X145393777Y-74038158D01*
X145399772Y-74037697D01*
X145399920Y-74037698D01*
X145401668Y-74037722D01*
X145401957Y-74037728D01*
X145407925Y-74038355D01*
X145498512Y-74030111D01*
X145500148Y-74029973D01*
X145590972Y-74022984D01*
X145596760Y-74021368D01*
X145596949Y-74021332D01*
X145598685Y-74021013D01*
X145598900Y-74020975D01*
X145604888Y-74020430D01*
X145610794Y-74018692D01*
X145610798Y-74018691D01*
X145692171Y-73994742D01*
X145693861Y-73994258D01*
X145775521Y-73971458D01*
X145775530Y-73971455D01*
X145781463Y-73969798D01*
X145786819Y-73967093D01*
X145787063Y-73966994D01*
X145788699Y-73966346D01*
X145788845Y-73966290D01*
X145794619Y-73964590D01*
X145808122Y-73957531D01*
X145875251Y-73922437D01*
X145876815Y-73921633D01*
X145952503Y-73883400D01*
X145952505Y-73883399D01*
X145957996Y-73880625D01*
X145962721Y-73876934D01*
X145962921Y-73876803D01*
X145964398Y-73875851D01*
X145964571Y-73875741D01*
X145969890Y-73872960D01*
X145979629Y-73865130D01*
X146040741Y-73815994D01*
X146042120Y-73814900D01*
X146064266Y-73797598D01*
X146113847Y-73758861D01*
X146117771Y-73754315D01*
X146117923Y-73754166D01*
X146119161Y-73752971D01*
X146119352Y-73752789D01*
X146124025Y-73749032D01*
X146182565Y-73679266D01*
X146183563Y-73678093D01*
X146243078Y-73609145D01*
X146246040Y-73603931D01*
X146246177Y-73603731D01*
X146247181Y-73602286D01*
X146247292Y-73602128D01*
X146251154Y-73597526D01*
X146294984Y-73517798D01*
X146295835Y-73516277D01*
X146337724Y-73442539D01*
X146340769Y-73437179D01*
X146342667Y-73431472D01*
X146342722Y-73431344D01*
X146343418Y-73429750D01*
X146343543Y-73429469D01*
X146346433Y-73424213D01*
X146373947Y-73337478D01*
X146374457Y-73335909D01*
X146403197Y-73249513D01*
X146403950Y-73243559D01*
X146403997Y-73243336D01*
X146404374Y-73241620D01*
X146404420Y-73241416D01*
X146406235Y-73235694D01*
X146416384Y-73145218D01*
X146416587Y-73143518D01*
X146427985Y-73053295D01*
X146428380Y-73025000D01*
X146424101Y-72981360D01*
X146423500Y-72969064D01*
X146423500Y-71318925D01*
X146443502Y-71250804D01*
X146497158Y-71204311D01*
X146567432Y-71194207D01*
X146632012Y-71223701D01*
X146638595Y-71229830D01*
X149447121Y-74038355D01*
X151765000Y-76356234D01*
X151765000Y-102235000D01*
X137160000Y-102235000D01*
X137160000Y-100330000D01*
X149860000Y-100330000D01*
X149860000Y-81280000D01*
X137160000Y-81280000D01*
X137160000Y-71120000D01*
X144406500Y-71120000D01*
X144406500Y-72961181D01*
G37*
G04 #@! TD.AperFunction*
G04 #@! TA.AperFunction,Conductor*
G36*
X151765000Y-71628000D02*
G01*
X151060115Y-71628000D01*
X151044876Y-71632475D01*
X151043671Y-71633865D01*
X151042000Y-71641548D01*
X151042000Y-71829206D01*
X151042225Y-71834515D01*
X151056124Y-71998325D01*
X151057914Y-72008797D01*
X151113130Y-72221535D01*
X151116665Y-72231575D01*
X151206937Y-72431970D01*
X151212106Y-72441256D01*
X151334850Y-72623575D01*
X151341519Y-72631870D01*
X151493228Y-72790900D01*
X151501186Y-72797941D01*
X151677525Y-72929141D01*
X151686562Y-72934745D01*
X151765000Y-72974625D01*
X151765000Y-73503765D01*
X150686407Y-72425173D01*
X149381234Y-71120000D01*
X151765000Y-71120000D01*
X151765000Y-71628000D01*
G37*
G04 #@! TD.AperFunction*
M02*
