  0
SECTION
  2
HEADER
  9
$ACADVER
  1
AC1014
  9
$HANDSEED
  5
FFFF
  9
$MEASUREMENT
 70
     1
  0
ENDSEC
  0
SECTION
  2
TABLES
  0
TABLE
  2
VPORT
  5
8
330
0
100
AcDbSymbolTable
 70
     4
  0
VPORT
  5
2E
330
8
100
AcDbSymbolTableRecord
100
AcDbViewportTableRecord
  2
*ACTIVE
 70
     0
 10
0.0
 20
0.0
 11
1.0
 21
1.0
 12
210.0
 22
148.5
 13
0.0
 23
0.0
 14
10.0
 24
10.0
 15
10.0
 25
10.0
 16
0.0
 26
0.0
 36
1.0
 17
0.0
 27
0.0
 37
0.0
 40
341.0
 41
1.24
 42
50.0
 43
0.0
 44
0.0
 50
0.0
 51
0.0
 71
     0
 72
   100
 73
     1
 74
     3
 75
     0
 76
     0
 77
     0
 78
     0
  0
ENDTAB
  0
TABLE
  2
LTYPE
  5
5
330
0
100
AcDbSymbolTable
 70
     1
  0
LTYPE
  5
14
330
5
100
AcDbSymbolTableRecord
100
AcDbLinetypeTableRecord
  2
BYBLOCK
 70
     0
  3

 72
    65
 73
     0
 40
0.0
  0
LTYPE
  5
15
330
5
100
AcDbSymbolTableRecord
100
AcDbLinetypeTableRecord
  2
BYLAYER
 70
     0
  3

 72
    65
 73
     0
 40
0.0
  0
LTYPE
  5
16
330
5
100
AcDbSymbolTableRecord
100
AcDbLinetypeTableRecord
  2
CONTINUOUS
 70
     0
  3
Solid line
 72
    65
 73
     0
 40
0.0
  0
ENDTAB
  0
TABLE
  2
LAYER
  5
2
100
AcDbSymbolTable
 70
2
  0
LAYER
  5
50
100
AcDbSymbolTableRecord
100
AcDbLayerTableRecord
  2
0
 70
0
  6
CONTINUOUS
  0
LAYER
  5
51
100
AcDbSymbolTableRecord
100
AcDbLayerTableRecord
  2
Layer_1
 70
0
  6
CONTINUOUS
  0
ENDTAB
  0
TABLE
  2
STYLE
  5
3
330
0
100
AcDbSymbolTable
 70
     1
  0
STYLE
  5
11
330
3
100
AcDbSymbolTableRecord
100
AcDbTextStyleTableRecord
  2
STANDARD
 70
     0
 40
0.0
 41
1.0
 50
0.0
 71
     0
 42
2.5
  3
txt
  4

  0
ENDTAB
  0
TABLE
  2
VIEW
  5
6
330
0
100
AcDbSymbolTable
 70
     0
  0
ENDTAB
  0
TABLE
  2
UCS
  5
7
330
0
100
AcDbSymbolTable
 70
     0
  0
ENDTAB
  0
TABLE
  2
APPID
  5
9
330
0
100
AcDbSymbolTable
 70
     2
  0
APPID
  5
12
330
9
100
AcDbSymbolTableRecord
100
AcDbRegAppTableRecord
  2
ACAD
 70
     0
  0
ENDTAB
  0
TABLE
  2
DIMSTYLE
  5
A
330
0
100
AcDbSymbolTable
 70
     1
  0
DIMSTYLE
105
27
330
A
100
AcDbSymbolTableRecord
100
AcDbDimStyleTableRecord
  2
ISO-25
 70
     0
  3

  4

  5

  6

  7

 40
1.0
 41
2.5
 42
0.625
 43
3.75
 44
1.25
 45
0.0
 46
0.0
 47
0.0
 48
0.0
140
2.5
141
2.5
142
0.0
143
0.03937007874016
144
1.0
145
0.0
146
1.0
147
0.625
 71
     0
 72
     0
 73
     0
 74
     0
 75
     0
 76
     0
 77
     1
 78
     8
170
     0
171
     3
172
     1
173
     0
174
     0
175
     0
176
     0
177
     0
178
     0
270
     2
271
     2
272
     2
273
     2
274
     3
340
11
275
     0
280
     0
281
     0
282
     0
283
     0
284
     8
285
     0
286
     0
287
     3
288
     0
  0
ENDTAB
  0
TABLE
  2
BLOCK_RECORD
  5
1
330
0
100
AcDbSymbolTable
 70
     1
  0
BLOCK_RECORD
  5
1F
330
1
100
AcDbSymbolTableRecord
100
AcDbBlockTableRecord
  2
*MODEL_SPACE
  0
BLOCK_RECORD
  5
1B
330
1
100
AcDbSymbolTableRecord
100
AcDbBlockTableRecord
  2
*PAPER_SPACE
  0
ENDTAB
  0
ENDSEC
  0
SECTION
  2
BLOCKS
  0
BLOCK
  5
20
330
1F
100
AcDbEntity
  8
0
100
AcDbBlockBegin
  2
*MODEL_SPACE
 70
     0
 10
0.0
 20
0.0
 30
0.0
  3
*MODEL_SPACE
  1

  0
ENDBLK
  5
21
330
1F
100
AcDbEntity
  8
0
100
AcDbBlockEnd
  0
BLOCK
  5
1C
330
1B
100
AcDbEntity
 67
     1
  8
0
100
AcDbBlockBegin
  2
*PAPER_SPACE
  1

  0
ENDBLK
  5
1D
330
1B
100
AcDbEntity
 67
     1
  8
0
100
AcDbBlockEnd
  0
ENDSEC
  0
SECTION
  2
ENTITIES
  0
SPLINE
  5
100
100
AcDbEntity
  8
Layer_1
 62
7
100
AcDbSpline
 70
8
 71
3
 72
8
 73
4
 74
0
 40
0
 40
0
 40
0
 40
0
 40
1
 40
1
 40
1
 40
1
 10
3.590685
 20
63.086896
 30
0.0
 10
2.720149
 20
54.314575
 30
0.0
 10
1.246932
 20
42.394935
 30
0.0
 10
1.246932
 20
35.698507
 30
0.0
  0
SPLINE
  5
101
100
AcDbEntity
  8
Layer_1
 62
7
100
AcDbSpline
 70
8
 71
3
 72
8
 73
4
 74
0
 40
0
 40
0
 40
0
 40
0
 40
1
 40
1
 40
1
 40
1
 10
1.246932
 20
35.698507
 30
0.0
 10
1.246932
 20
29.002079
 30
0.0
 10
0.644253
 20
15.140466
 30
0.0
 10
6.202293
 20
15.140466
 30
0.0
  0
SPLINE
  5
102
100
AcDbEntity
  8
Layer_1
 62
7
100
AcDbSpline
 70
8
 71
3
 72
8
 73
4
 74
0
 40
0
 40
0
 40
0
 40
0
 40
1
 40
1
 40
1
 40
1
 10
349.126398
 20
15.140466
 30
0.0
 10
357.229063
 20
15.140466
 30
0.0
 10
356.827280
 20
23.377079
 30
0.0
 10
356.827280
 20
33.220828
 30
0.0
  0
SPLINE
  5
103
100
AcDbEntity
  8
Layer_1
 62
7
100
AcDbSpline
 70
8
 71
3
 72
8
 73
4
 74
0
 40
0
 40
0
 40
0
 40
0
 40
1
 40
1
 40
1
 40
1
 10
356.827280
 20
33.220828
 30
0.0
 10
356.827280
 20
40.337796
 30
0.0
 10
356.234726
 20
46.510645
 30
0.0
 10
355.459847
 20
57.514136
 30
0.0
  0
SPLINE
  5
104
100
AcDbEntity
  8
Layer_1
 62
7
100
AcDbSpline
 70
8
 71
3
 72
8
 73
4
 74
0
 40
0
 40
0
 40
0
 40
0
 40
1
 40
1
 40
1
 40
1
 10
355.459847
 20
57.514136
 30
0.0
 10
354.825255
 20
66.525372
 30
0.0
 10
355.139362
 20
75.956961
 30
0.0
 10
345.778172
 20
76.077972
 30
0.0
  0
SPLINE
  5
105
100
AcDbEntity
  8
Layer_1
 62
7
100
AcDbSpline
 70
8
 71
3
 72
8
 73
4
 74
0
 40
0
 40
0
 40
0
 40
0
 40
1
 40
1
 40
1
 40
1
 10
345.778172
 20
76.077972
 30
0.0
 10
331.850962
 20
75.871525
 30
0.0
 10
18.523721
 20
76.144955
 30
0.0
 10
18.523721
 20
76.144955
 30
0.0
  0
SPLINE
  5
106
100
AcDbEntity
  8
Layer_1
 62
7
100
AcDbSpline
 70
8
 71
3
 72
8
 73
4
 74
0
 40
0
 40
0
 40
0
 40
0
 40
1
 40
1
 40
1
 40
1
 10
18.523721
 20
76.144955
 30
0.0
 10
8.241267
 20
76.144955
 30
0.0
 10
5.063899
 20
75.877081
 30
0.0
 10
3.590685
 20
63.086907
 30
0.0
  0
LWPOLYLINE
  5
107
100
AcDbEntity
  8
Layer_1
 62
7
100
AcDbPolyline
 90
2
 70
0
 10
6.202293
 20
15.140466
 30
0.0
 10
349.126398
 20
15.140466
 30
0.0
  0
LWPOLYLINE
  5
108
100
AcDbEntity
  8
Layer_1
 62
7
100
AcDbPolyline
 90
1
 70
1
 10
3.590685
 20
63.086907
 30
0.0
  0
LWPOLYLINE
  5
109
100
AcDbEntity
  8
Layer_1
 62
7
100
AcDbPolyline
 90
4
 70
1
 10
36.871934
 20
65.095829
 30
0.0
 10
103.970149
 20
65.095829
 30
0.0
 10
103.970149
 20
25.319044
 30
0.0
 10
36.871934
 20
25.319044
 30
0.0
  0
LWPOLYLINE
  5
10a
100
AcDbEntity
  8
Layer_1
 62
7
100
AcDbPolyline
 90
4
 70
1
 10
132.095143
 20
65.095829
 30
0.0
 10
199.193357
 20
65.095829
 30
0.0
 10
199.193357
 20
25.319044
 30
0.0
 10
132.095143
 20
25.319044
 30
0.0
  0
LWPOLYLINE
  5
10b
100
AcDbEntity
  8
Layer_1
 62
7
100
AcDbPolyline
 90
4
 70
1
 10
22.005865
 20
71.792257
 30
0.0
 10
212.452285
 20
71.792257
 30
0.0
 10
212.452285
 20
18.756541
 30
0.0
 10
22.005865
 20
18.756541
 30
0.0
  0
LWPOLYLINE
  5
10c
100
AcDbEntity
  8
Layer_1
 62
7
100
AcDbPolyline
 90
2
 70
0
 10
118.641093
 20
76.182778
 30
0.0
 10
118.925192
 20
18.888188
 30
0.0
  0
LWPOLYLINE
  5
10d
100
AcDbEntity
  8
Layer_1
 62
7
100
AcDbPolyline
 90
2
 70
0
 10
22.005865
 20
71.792257
 30
0.0
 10
22.022589
 20
76.061225
 30
0.0
  0
LWPOLYLINE
  5
10e
100
AcDbEntity
  8
Layer_1
 62
7
100
AcDbPolyline
 90
2
 70
0
 10
212.452285
 20
71.792257
 30
0.0
 10
212.452285
 20
75.994265
 30
0.0
  0
LWPOLYLINE
  5
10f
100
AcDbEntity
  8
Layer_1
 62
7
100
AcDbPolyline
 90
4
 70
1
 10
10.965138
 20
15.005415
 30
0.0
 10
20.624726
 20
1.084252
 30
0.0
 10
337.118131
 20
1.084252
 30
0.0
 10
347.156546
 20
15.100118
 30
0.0
  0
LWPOLYLINE
  5
110
100
AcDbEntity
  8
Layer_1
 62
7
100
AcDbPolyline
 90
4
 70
1
 10
219.638169
 20
15.038898
 30
0.0
 10
221.153397
 20
15.038898
 30
0.0
 10
221.153397
 20
4.359588
 30
0.0
 10
219.638169
 20
4.359588
 30
0.0
  0
LWPOLYLINE
  5
111
100
AcDbEntity
  8
Layer_1
 62
7
100
AcDbPolyline
 90
4
 70
1
 10
224.359157
 20
15.038898
 30
0.0
 10
225.874386
 20
15.038898
 30
0.0
 10
225.874386
 20
4.359588
 30
0.0
 10
224.359157
 20
4.359588
 30
0.0
  0
LWPOLYLINE
  5
112
100
AcDbEntity
  8
Layer_1
 62
7
100
AcDbPolyline
 90
4
 70
1
 10
229.046669
 20
15.038898
 30
0.0
 10
230.561898
 20
15.038898
 30
0.0
 10
230.561898
 20
4.359588
 30
0.0
 10
229.046669
 20
4.359588
 30
0.0
  0
LWPOLYLINE
  5
113
100
AcDbEntity
  8
Layer_1
 62
7
100
AcDbPolyline
 90
4
 70
1
 10
233.767630
 20
15.038898
 30
0.0
 10
235.282859
 20
15.038898
 30
0.0
 10
235.282859
 20
4.359588
 30
0.0
 10
233.767630
 20
4.359588
 30
0.0
  0
LWPOLYLINE
  5
114
100
AcDbEntity
  8
Layer_1
 62
7
100
AcDbPolyline
 90
4
 70
1
 10
238.354682
 20
15.038898
 30
0.0
 10
239.869911
 20
15.038898
 30
0.0
 10
239.869911
 20
4.359588
 30
0.0
 10
238.354682
 20
4.359588
 30
0.0
  0
LWPOLYLINE
  5
115
100
AcDbEntity
  8
Layer_1
 62
7
100
AcDbPolyline
 90
4
 70
1
 10
243.075643
 20
15.038898
 30
0.0
 10
244.590871
 20
15.038898
 30
0.0
 10
244.590871
 20
4.359588
 30
0.0
 10
243.075643
 20
4.359588
 30
0.0
  0
LWPOLYLINE
  5
116
100
AcDbEntity
  8
Layer_1
 62
7
100
AcDbPolyline
 90
4
 70
1
 10
247.763183
 20
15.038898
 30
0.0
 10
249.278411
 20
15.038898
 30
0.0
 10
249.278411
 20
4.359588
 30
0.0
 10
247.763183
 20
4.359588
 30
0.0
  0
LWPOLYLINE
  5
117
100
AcDbEntity
  8
Layer_1
 62
7
100
AcDbPolyline
 90
4
 70
1
 10
252.484115
 20
15.038898
 30
0.0
 10
253.999344
 20
15.038898
 30
0.0
 10
253.999344
 20
4.359588
 30
0.0
 10
252.484115
 20
4.359588
 30
0.0
  0
LWPOLYLINE
  5
118
100
AcDbEntity
  8
Layer_1
 62
7
100
AcDbPolyline
 90
4
 70
1
 10
257.272087
 20
15.038898
 30
0.0
 10
258.787315
 20
15.038898
 30
0.0
 10
258.787315
 20
4.359588
 30
0.0
 10
257.272087
 20
4.359588
 30
0.0
  0
LWPOLYLINE
  5
119
100
AcDbEntity
  8
Layer_1
 62
7
100
AcDbPolyline
 90
4
 70
1
 10
261.993076
 20
15.038898
 30
0.0
 10
263.508304
 20
15.038898
 30
0.0
 10
263.508304
 20
4.359588
 30
0.0
 10
261.993076
 20
4.359588
 30
0.0
  0
LWPOLYLINE
  5
11a
100
AcDbEntity
  8
Layer_1
 62
7
100
AcDbPolyline
 90
4
 70
1
 10
266.680616
 20
15.038898
 30
0.0
 10
268.195845
 20
15.038898
 30
0.0
 10
268.195845
 20
4.359588
 30
0.0
 10
266.680616
 20
4.359588
 30
0.0
  0
LWPOLYLINE
  5
11b
100
AcDbEntity
  8
Layer_1
 62
7
100
AcDbPolyline
 90
4
 70
1
 10
271.401548
 20
15.038898
 30
0.0
 10
272.916777
 20
15.038898
 30
0.0
 10
272.916777
 20
4.359588
 30
0.0
 10
271.401548
 20
4.359588
 30
0.0
  0
LWPOLYLINE
  5
11c
100
AcDbEntity
  8
Layer_1
 62
7
100
AcDbPolyline
 90
4
 70
1
 10
275.988600
 20
15.038898
 30
0.0
 10
277.503829
 20
15.038898
 30
0.0
 10
277.503829
 20
4.359588
 30
0.0
 10
275.988600
 20
4.359588
 30
0.0
  0
LWPOLYLINE
  5
11d
100
AcDbEntity
  8
Layer_1
 62
7
100
AcDbPolyline
 90
4
 70
1
 10
280.709561
 20
15.038898
 30
0.0
 10
282.224789
 20
15.038898
 30
0.0
 10
282.224789
 20
4.359588
 30
0.0
 10
280.709561
 20
4.359588
 30
0.0
  0
LWPOLYLINE
  5
11e
100
AcDbEntity
  8
Layer_1
 62
7
100
AcDbPolyline
 90
4
 70
1
 10
285.397129
 20
15.038898
 30
0.0
 10
286.912358
 20
15.038898
 30
0.0
 10
286.912358
 20
4.359588
 30
0.0
 10
285.397129
 20
4.359588
 30
0.0
  0
LWPOLYLINE
  5
11f
100
AcDbEntity
  8
Layer_1
 62
7
100
AcDbPolyline
 90
4
 70
1
 10
290.118061
 20
15.038898
 30
0.0
 10
291.633290
 20
15.038898
 30
0.0
 10
291.633290
 20
4.359588
 30
0.0
 10
290.118061
 20
4.359588
 30
0.0
  0
LWPOLYLINE
  5
120
100
AcDbEntity
  8
Layer_1
 62
7
100
AcDbPolyline
 90
4
 70
1
 10
309.035466
 20
15.038898
 30
0.0
 10
310.550695
 20
15.038898
 30
0.0
 10
310.550695
 20
4.359588
 30
0.0
 10
309.035466
 20
4.359588
 30
0.0
  0
LWPOLYLINE
  5
121
100
AcDbEntity
  8
Layer_1
 62
7
100
AcDbPolyline
 90
4
 70
1
 10
313.756483
 20
15.038898
 30
0.0
 10
315.271712
 20
15.038898
 30
0.0
 10
315.271712
 20
4.359588
 30
0.0
 10
313.756483
 20
4.359588
 30
0.0
  0
LWPOLYLINE
  5
122
100
AcDbEntity
  8
Layer_1
 62
7
100
AcDbPolyline
 90
4
 70
1
 10
318.443995
 20
15.038898
 30
0.0
 10
319.959224
 20
15.038898
 30
0.0
 10
319.959224
 20
4.359588
 30
0.0
 10
318.443995
 20
4.359588
 30
0.0
  0
LWPOLYLINE
  5
123
100
AcDbEntity
  8
Layer_1
 62
7
100
AcDbPolyline
 90
4
 70
1
 10
323.164928
 20
15.038898
 30
0.0
 10
324.680156
 20
15.038898
 30
0.0
 10
324.680156
 20
4.359588
 30
0.0
 10
323.164928
 20
4.359588
 30
0.0
  0
LWPOLYLINE
  5
124
100
AcDbEntity
  8
Layer_1
 62
7
100
AcDbPolyline
 90
4
 70
1
 10
327.751980
 20
15.038898
 30
0.0
 10
329.267208
 20
15.038898
 30
0.0
 10
329.267208
 20
4.359588
 30
0.0
 10
327.751980
 20
4.359588
 30
0.0
  0
LWPOLYLINE
  5
125
100
AcDbEntity
  8
Layer_1
 62
7
100
AcDbPolyline
 90
4
 70
1
 10
332.472940
 20
15.038898
 30
0.0
 10
333.988169
 20
15.038898
 30
0.0
 10
333.988169
 20
4.359588
 30
0.0
 10
332.472940
 20
4.359588
 30
0.0
  0
LWPOLYLINE
  5
126
100
AcDbEntity
  8
Layer_1
 62
7
100
AcDbPolyline
 90
4
 70
1
 10
294.738591
 20
15.038898
 30
0.0
 10
305.494891
 20
15.038898
 30
0.0
 10
305.494891
 20
4.359588
 30
0.0
 10
294.738591
 20
4.359588
 30
0.0
  0
ENDSEC
  0
SECTION
  2
OBJECTS
  0
DICTIONARY
  5
C
330
0
100
AcDbDictionary
  3
ACAD_GROUP
350
D
  3
ACAD_MLINESTYLE
350
17
  0
DICTIONARY
  5
D
330
C
100
AcDbDictionary
  0
DICTIONARY
  5
1A
330
C
100
AcDbDictionary
  0
DICTIONARY
  5
17
330
C
100
AcDbDictionary
  3
STANDARD
350
18
  0
DICTIONARY
  5
19
330
C
100
AcDbDictionary
  0
ENDSEC
  0
EOF
