G04 #@! TF.GenerationSoftware,KiCad,Pcbnew,5.1.4-3.fc30*
G04 #@! TF.CreationDate,2019-11-02T10:54:17-07:00*
G04 #@! TF.ProjectId,adampsu,6164616d-7073-4752-9e6b-696361645f70,rev?*
G04 #@! TF.SameCoordinates,Original*
G04 #@! TF.FileFunction,Soldermask,Bot*
G04 #@! TF.FilePolarity,Negative*
%FSLAX46Y46*%
G04 Gerber Fmt 4.6, Leading zero omitted, Abs format (unit mm)*
G04 Created by KiCad (PCBNEW 5.1.4-3.fc30) date 2019-11-02 10:54:17*
%MOMM*%
%LPD*%
G04 APERTURE LIST*
%ADD10C,0.300000*%
%ADD11C,0.100000*%
G04 APERTURE END LIST*
D10*
X113318571Y-152292857D02*
X113104285Y-152364285D01*
X113032857Y-152435714D01*
X112961428Y-152578571D01*
X112961428Y-152792857D01*
X113032857Y-152935714D01*
X113104285Y-153007142D01*
X113247142Y-153078571D01*
X113818571Y-153078571D01*
X113818571Y-151578571D01*
X113318571Y-151578571D01*
X113175714Y-151650000D01*
X113104285Y-151721428D01*
X113032857Y-151864285D01*
X113032857Y-152007142D01*
X113104285Y-152150000D01*
X113175714Y-152221428D01*
X113318571Y-152292857D01*
X113818571Y-152292857D01*
X112461428Y-152078571D02*
X112104285Y-153078571D01*
X111747142Y-152078571D02*
X112104285Y-153078571D01*
X112247142Y-153435714D01*
X112318571Y-153507142D01*
X112461428Y-153578571D01*
X110104285Y-153007142D02*
X109890000Y-153078571D01*
X109532857Y-153078571D01*
X109390000Y-153007142D01*
X109318571Y-152935714D01*
X109247142Y-152792857D01*
X109247142Y-152650000D01*
X109318571Y-152507142D01*
X109390000Y-152435714D01*
X109532857Y-152364285D01*
X109818571Y-152292857D01*
X109961428Y-152221428D01*
X110032857Y-152150000D01*
X110104285Y-152007142D01*
X110104285Y-151864285D01*
X110032857Y-151721428D01*
X109961428Y-151650000D01*
X109818571Y-151578571D01*
X109461428Y-151578571D01*
X109247142Y-151650000D01*
X108604285Y-153078571D02*
X108604285Y-151578571D01*
X107961428Y-153078571D02*
X107961428Y-152292857D01*
X108032857Y-152150000D01*
X108175714Y-152078571D01*
X108390000Y-152078571D01*
X108532857Y-152150000D01*
X108604285Y-152221428D01*
X106675714Y-153007142D02*
X106818571Y-153078571D01*
X107104285Y-153078571D01*
X107247142Y-153007142D01*
X107318571Y-152864285D01*
X107318571Y-152292857D01*
X107247142Y-152150000D01*
X107104285Y-152078571D01*
X106818571Y-152078571D01*
X106675714Y-152150000D01*
X106604285Y-152292857D01*
X106604285Y-152435714D01*
X107318571Y-152578571D01*
X105747142Y-153078571D02*
X105890000Y-153007142D01*
X105961428Y-152864285D01*
X105961428Y-151578571D01*
X105175714Y-153078571D02*
X105175714Y-151578571D01*
X105175714Y-152150000D02*
X105032857Y-152078571D01*
X104747142Y-152078571D01*
X104604285Y-152150000D01*
X104532857Y-152221428D01*
X104461428Y-152364285D01*
X104461428Y-152792857D01*
X104532857Y-152935714D01*
X104604285Y-153007142D01*
X104747142Y-153078571D01*
X105032857Y-153078571D01*
X105175714Y-153007142D01*
X103961428Y-152078571D02*
X103604285Y-153078571D01*
X103247142Y-152078571D02*
X103604285Y-153078571D01*
X103747142Y-153435714D01*
X103818571Y-153507142D01*
X103961428Y-153578571D01*
X101104285Y-151578571D02*
X101104285Y-152650000D01*
X101175714Y-152864285D01*
X101318571Y-153007142D01*
X101532857Y-153078571D01*
X101675714Y-153078571D01*
X99747142Y-152078571D02*
X99747142Y-153078571D01*
X100390000Y-152078571D02*
X100390000Y-152864285D01*
X100318571Y-153007142D01*
X100175714Y-153078571D01*
X99961428Y-153078571D01*
X99818571Y-153007142D01*
X99747142Y-152935714D01*
X98461428Y-153007142D02*
X98604285Y-153078571D01*
X98890000Y-153078571D01*
X99032857Y-153007142D01*
X99104285Y-152864285D01*
X99104285Y-152292857D01*
X99032857Y-152150000D01*
X98890000Y-152078571D01*
X98604285Y-152078571D01*
X98461428Y-152150000D01*
X98390000Y-152292857D01*
X98390000Y-152435714D01*
X99104285Y-152578571D01*
X97104285Y-153078571D02*
X97104285Y-151578571D01*
X97104285Y-153007142D02*
X97247142Y-153078571D01*
X97532857Y-153078571D01*
X97675714Y-153007142D01*
X97747142Y-152935714D01*
X97818571Y-152792857D01*
X97818571Y-152364285D01*
X97747142Y-152221428D01*
X97675714Y-152150000D01*
X97532857Y-152078571D01*
X97247142Y-152078571D01*
X97104285Y-152150000D01*
X95818571Y-153007142D02*
X95961428Y-153078571D01*
X96247142Y-153078571D01*
X96390000Y-153007142D01*
X96461428Y-152864285D01*
X96461428Y-152292857D01*
X96390000Y-152150000D01*
X96247142Y-152078571D01*
X95961428Y-152078571D01*
X95818571Y-152150000D01*
X95747142Y-152292857D01*
X95747142Y-152435714D01*
X96461428Y-152578571D01*
X95104285Y-152078571D02*
X95104285Y-153078571D01*
X95104285Y-152221428D02*
X95032857Y-152150000D01*
X94890000Y-152078571D01*
X94675714Y-152078571D01*
X94532857Y-152150000D01*
X94461428Y-152292857D01*
X94461428Y-153078571D01*
D11*
G36*
X173744098Y-156547033D02*
G01*
X174208350Y-156739332D01*
X174208352Y-156739333D01*
X174626168Y-157018509D01*
X174981491Y-157373832D01*
X175260667Y-157791648D01*
X175260668Y-157791650D01*
X175452967Y-158255902D01*
X175551000Y-158748747D01*
X175551000Y-159251253D01*
X175452967Y-159744098D01*
X175260668Y-160208350D01*
X175260667Y-160208352D01*
X174981491Y-160626168D01*
X174626168Y-160981491D01*
X174208352Y-161260667D01*
X174208351Y-161260668D01*
X174208350Y-161260668D01*
X173744098Y-161452967D01*
X173251253Y-161551000D01*
X172748747Y-161551000D01*
X172255902Y-161452967D01*
X171791650Y-161260668D01*
X171791649Y-161260668D01*
X171791648Y-161260667D01*
X171373832Y-160981491D01*
X171018509Y-160626168D01*
X170739333Y-160208352D01*
X170739332Y-160208350D01*
X170547033Y-159744098D01*
X170449000Y-159251253D01*
X170449000Y-158748747D01*
X170547033Y-158255902D01*
X170739332Y-157791650D01*
X170739333Y-157791648D01*
X171018509Y-157373832D01*
X171373832Y-157018509D01*
X171791648Y-156739333D01*
X171791650Y-156739332D01*
X172255902Y-156547033D01*
X172748747Y-156449000D01*
X173251253Y-156449000D01*
X173744098Y-156547033D01*
X173744098Y-156547033D01*
G37*
G36*
X103744098Y-156547033D02*
G01*
X104208350Y-156739332D01*
X104208352Y-156739333D01*
X104626168Y-157018509D01*
X104981491Y-157373832D01*
X105260667Y-157791648D01*
X105260668Y-157791650D01*
X105452967Y-158255902D01*
X105551000Y-158748747D01*
X105551000Y-159251253D01*
X105452967Y-159744098D01*
X105260668Y-160208350D01*
X105260667Y-160208352D01*
X104981491Y-160626168D01*
X104626168Y-160981491D01*
X104208352Y-161260667D01*
X104208351Y-161260668D01*
X104208350Y-161260668D01*
X103744098Y-161452967D01*
X103251253Y-161551000D01*
X102748747Y-161551000D01*
X102255902Y-161452967D01*
X101791650Y-161260668D01*
X101791649Y-161260668D01*
X101791648Y-161260667D01*
X101373832Y-160981491D01*
X101018509Y-160626168D01*
X100739333Y-160208352D01*
X100739332Y-160208350D01*
X100547033Y-159744098D01*
X100449000Y-159251253D01*
X100449000Y-158748747D01*
X100547033Y-158255902D01*
X100739332Y-157791650D01*
X100739333Y-157791648D01*
X101018509Y-157373832D01*
X101373832Y-157018509D01*
X101791648Y-156739333D01*
X101791650Y-156739332D01*
X102255902Y-156547033D01*
X102748747Y-156449000D01*
X103251253Y-156449000D01*
X103744098Y-156547033D01*
X103744098Y-156547033D01*
G37*
G36*
X129151000Y-158131000D02*
G01*
X127049000Y-158131000D01*
X127049000Y-154529000D01*
X129151000Y-154529000D01*
X129151000Y-158131000D01*
X129151000Y-158131000D01*
G37*
G36*
X136551000Y-158131000D02*
G01*
X134449000Y-158131000D01*
X134449000Y-154529000D01*
X136551000Y-154529000D01*
X136551000Y-158131000D01*
X136551000Y-158131000D01*
G37*
G36*
X132179487Y-153978996D02*
G01*
X132416253Y-154077068D01*
X132416255Y-154077069D01*
X132629339Y-154219447D01*
X132810553Y-154400661D01*
X132952932Y-154613747D01*
X133051004Y-154850513D01*
X133101000Y-155101861D01*
X133101000Y-155358139D01*
X133051004Y-155609487D01*
X132952932Y-155846253D01*
X132952931Y-155846255D01*
X132810553Y-156059339D01*
X132629339Y-156240553D01*
X132416255Y-156382931D01*
X132416254Y-156382932D01*
X132416253Y-156382932D01*
X132179487Y-156481004D01*
X131928139Y-156531000D01*
X131671861Y-156531000D01*
X131420513Y-156481004D01*
X131183747Y-156382932D01*
X131183746Y-156382932D01*
X131183745Y-156382931D01*
X130970661Y-156240553D01*
X130789447Y-156059339D01*
X130647069Y-155846255D01*
X130647068Y-155846253D01*
X130548996Y-155609487D01*
X130499000Y-155358139D01*
X130499000Y-155101861D01*
X130548996Y-154850513D01*
X130647068Y-154613747D01*
X130789447Y-154400661D01*
X130970661Y-154219447D01*
X131183745Y-154077069D01*
X131183747Y-154077068D01*
X131420513Y-153978996D01*
X131671861Y-153929000D01*
X131928139Y-153929000D01*
X132179487Y-153978996D01*
X132179487Y-153978996D01*
G37*
G36*
X144414676Y-150955684D02*
G01*
X144631969Y-151045690D01*
X144631971Y-151045691D01*
X144827530Y-151176360D01*
X144993840Y-151342670D01*
X145121783Y-151534149D01*
X145124510Y-151538231D01*
X145214516Y-151755524D01*
X145260400Y-151986200D01*
X145260400Y-152221400D01*
X145214516Y-152452076D01*
X145124510Y-152669369D01*
X145124509Y-152669371D01*
X144993840Y-152864930D01*
X144827530Y-153031240D01*
X144631971Y-153161909D01*
X144631970Y-153161910D01*
X144631969Y-153161910D01*
X144414676Y-153251916D01*
X144184000Y-153297800D01*
X143948800Y-153297800D01*
X143718124Y-153251916D01*
X143500831Y-153161910D01*
X143500830Y-153161910D01*
X143500829Y-153161909D01*
X143305270Y-153031240D01*
X143138960Y-152864930D01*
X143008291Y-152669371D01*
X143008290Y-152669369D01*
X142918284Y-152452076D01*
X142872400Y-152221400D01*
X142872400Y-151986200D01*
X142918284Y-151755524D01*
X143008290Y-151538231D01*
X143011018Y-151534149D01*
X143138960Y-151342670D01*
X143305270Y-151176360D01*
X143500829Y-151045691D01*
X143500831Y-151045690D01*
X143718124Y-150955684D01*
X143948800Y-150909800D01*
X144184000Y-150909800D01*
X144414676Y-150955684D01*
X144414676Y-150955684D01*
G37*
G36*
X132653097Y-150084069D02*
G01*
X132756032Y-150094207D01*
X132954146Y-150154305D01*
X132954149Y-150154306D01*
X133050975Y-150206061D01*
X133136729Y-150251897D01*
X133296765Y-150383235D01*
X133428103Y-150543271D01*
X133473939Y-150629025D01*
X133525694Y-150725851D01*
X133525695Y-150725854D01*
X133585793Y-150923968D01*
X133606085Y-151130000D01*
X133585793Y-151336032D01*
X133583779Y-151342670D01*
X133525694Y-151534149D01*
X133523513Y-151538229D01*
X133428103Y-151716729D01*
X133296765Y-151876765D01*
X133136729Y-152008103D01*
X133050975Y-152053939D01*
X132954149Y-152105694D01*
X132954146Y-152105695D01*
X132756032Y-152165793D01*
X132653097Y-152175931D01*
X132601631Y-152181000D01*
X130998369Y-152181000D01*
X130946903Y-152175931D01*
X130843968Y-152165793D01*
X130645854Y-152105695D01*
X130645851Y-152105694D01*
X130549025Y-152053939D01*
X130463271Y-152008103D01*
X130303235Y-151876765D01*
X130171897Y-151716729D01*
X130076487Y-151538229D01*
X130074306Y-151534149D01*
X130016221Y-151342670D01*
X130014207Y-151336032D01*
X129993915Y-151130000D01*
X130014207Y-150923968D01*
X130074305Y-150725854D01*
X130074306Y-150725851D01*
X130126061Y-150629025D01*
X130171897Y-150543271D01*
X130303235Y-150383235D01*
X130463271Y-150251897D01*
X130549025Y-150206061D01*
X130645851Y-150154306D01*
X130645854Y-150154305D01*
X130843968Y-150094207D01*
X130946903Y-150084069D01*
X130998369Y-150079000D01*
X132601631Y-150079000D01*
X132653097Y-150084069D01*
X132653097Y-150084069D01*
G37*
G36*
X135306031Y-147144207D02*
G01*
X135504145Y-147204305D01*
X135504148Y-147204306D01*
X135570030Y-147239521D01*
X135686729Y-147301897D01*
X135846765Y-147433235D01*
X135978103Y-147593271D01*
X135978104Y-147593273D01*
X136075694Y-147775851D01*
X136075694Y-147775852D01*
X136075695Y-147775854D01*
X136135793Y-147973968D01*
X136151000Y-148128370D01*
X136151000Y-149731630D01*
X136135793Y-149886032D01*
X136082716Y-150061000D01*
X136075694Y-150084149D01*
X136038194Y-150154306D01*
X135978103Y-150266729D01*
X135846765Y-150426765D01*
X135686729Y-150558103D01*
X135600975Y-150603939D01*
X135504149Y-150655694D01*
X135504146Y-150655695D01*
X135306032Y-150715793D01*
X135100000Y-150736085D01*
X134893969Y-150715793D01*
X134695855Y-150655695D01*
X134695852Y-150655694D01*
X134599026Y-150603939D01*
X134513272Y-150558103D01*
X134353236Y-150426765D01*
X134221898Y-150266729D01*
X134161807Y-150154306D01*
X134124305Y-150084146D01*
X134064207Y-149886033D01*
X134049000Y-149731631D01*
X134049000Y-148128370D01*
X134064207Y-147973971D01*
X134064207Y-147973969D01*
X134124305Y-147775855D01*
X134124306Y-147775852D01*
X134159521Y-147709970D01*
X134221897Y-147593271D01*
X134353235Y-147433235D01*
X134513271Y-147301897D01*
X134599025Y-147256061D01*
X134695851Y-147204306D01*
X134695854Y-147204305D01*
X134893968Y-147144207D01*
X135100000Y-147123915D01*
X135306031Y-147144207D01*
X135306031Y-147144207D01*
G37*
G36*
X128706031Y-147144207D02*
G01*
X128904145Y-147204305D01*
X128904148Y-147204306D01*
X128970030Y-147239521D01*
X129086729Y-147301897D01*
X129246765Y-147433235D01*
X129378103Y-147593271D01*
X129378104Y-147593273D01*
X129475694Y-147775851D01*
X129475694Y-147775852D01*
X129475695Y-147775854D01*
X129535793Y-147973968D01*
X129551000Y-148128370D01*
X129551000Y-149731630D01*
X129535793Y-149886032D01*
X129482716Y-150061000D01*
X129475694Y-150084149D01*
X129438194Y-150154306D01*
X129378103Y-150266729D01*
X129246765Y-150426765D01*
X129086729Y-150558103D01*
X129000975Y-150603939D01*
X128904149Y-150655694D01*
X128904146Y-150655695D01*
X128706032Y-150715793D01*
X128500000Y-150736085D01*
X128293969Y-150715793D01*
X128095855Y-150655695D01*
X128095852Y-150655694D01*
X127999026Y-150603939D01*
X127913272Y-150558103D01*
X127753236Y-150426765D01*
X127621898Y-150266729D01*
X127561807Y-150154306D01*
X127524305Y-150084146D01*
X127464207Y-149886033D01*
X127449000Y-149731631D01*
X127449000Y-148128370D01*
X127464207Y-147973971D01*
X127464207Y-147973969D01*
X127524305Y-147775855D01*
X127524306Y-147775852D01*
X127559521Y-147709970D01*
X127621897Y-147593271D01*
X127753235Y-147433235D01*
X127913271Y-147301897D01*
X127999025Y-147256061D01*
X128095851Y-147204306D01*
X128095854Y-147204305D01*
X128293968Y-147144207D01*
X128500000Y-147123915D01*
X128706031Y-147144207D01*
X128706031Y-147144207D01*
G37*
G36*
X121598099Y-144493145D02*
G01*
X122173219Y-144667606D01*
X122703245Y-144950911D01*
X123167822Y-145332178D01*
X123549089Y-145796755D01*
X123832394Y-146326781D01*
X124006855Y-146901901D01*
X124065762Y-147500000D01*
X124006855Y-148098099D01*
X123832394Y-148673219D01*
X123549089Y-149203245D01*
X123167822Y-149667822D01*
X122703245Y-150049089D01*
X122173219Y-150332394D01*
X121598099Y-150506855D01*
X121149884Y-150551000D01*
X114850116Y-150551000D01*
X114401901Y-150506855D01*
X113826781Y-150332394D01*
X113296755Y-150049089D01*
X112832178Y-149667822D01*
X112450911Y-149203245D01*
X112167606Y-148673219D01*
X111993145Y-148098099D01*
X111934238Y-147500000D01*
X111993145Y-146901901D01*
X112167606Y-146326781D01*
X112450911Y-145796755D01*
X112832178Y-145332178D01*
X113296755Y-144950911D01*
X113826781Y-144667606D01*
X114401901Y-144493145D01*
X114850116Y-144449000D01*
X121149884Y-144449000D01*
X121598099Y-144493145D01*
X121598099Y-144493145D01*
G37*
G36*
X161598099Y-144493145D02*
G01*
X162173219Y-144667606D01*
X162703245Y-144950911D01*
X163167822Y-145332178D01*
X163549089Y-145796755D01*
X163832394Y-146326781D01*
X164006855Y-146901901D01*
X164065762Y-147500000D01*
X164006855Y-148098099D01*
X163832394Y-148673219D01*
X163549089Y-149203245D01*
X163167822Y-149667822D01*
X162703245Y-150049089D01*
X162173219Y-150332394D01*
X161598099Y-150506855D01*
X161149884Y-150551000D01*
X154850116Y-150551000D01*
X154401901Y-150506855D01*
X153826781Y-150332394D01*
X153296755Y-150049089D01*
X152832178Y-149667822D01*
X152450911Y-149203245D01*
X152167606Y-148673219D01*
X151993145Y-148098099D01*
X151934238Y-147500000D01*
X151993145Y-146901901D01*
X152167606Y-146326781D01*
X152450911Y-145796755D01*
X152832178Y-145332178D01*
X153296755Y-144950911D01*
X153826781Y-144667606D01*
X154401901Y-144493145D01*
X154850116Y-144449000D01*
X161149884Y-144449000D01*
X161598099Y-144493145D01*
X161598099Y-144493145D01*
G37*
G36*
X103110442Y-148265518D02*
G01*
X103176627Y-148272037D01*
X103346466Y-148323557D01*
X103502991Y-148407222D01*
X103538729Y-148436552D01*
X103640186Y-148519814D01*
X103723448Y-148621271D01*
X103752778Y-148657009D01*
X103836443Y-148813534D01*
X103887963Y-148983373D01*
X103905359Y-149160000D01*
X103887963Y-149336627D01*
X103836443Y-149506466D01*
X103752778Y-149662991D01*
X103748814Y-149667821D01*
X103640186Y-149800186D01*
X103538729Y-149883448D01*
X103502991Y-149912778D01*
X103346466Y-149996443D01*
X103176627Y-150047963D01*
X103110442Y-150054482D01*
X103044260Y-150061000D01*
X102955740Y-150061000D01*
X102889558Y-150054482D01*
X102823373Y-150047963D01*
X102653534Y-149996443D01*
X102497009Y-149912778D01*
X102461271Y-149883448D01*
X102359814Y-149800186D01*
X102251186Y-149667821D01*
X102247222Y-149662991D01*
X102163557Y-149506466D01*
X102112037Y-149336627D01*
X102094641Y-149160000D01*
X102112037Y-148983373D01*
X102163557Y-148813534D01*
X102247222Y-148657009D01*
X102276552Y-148621271D01*
X102359814Y-148519814D01*
X102461271Y-148436552D01*
X102497009Y-148407222D01*
X102653534Y-148323557D01*
X102823373Y-148272037D01*
X102889558Y-148265518D01*
X102955740Y-148259000D01*
X103044260Y-148259000D01*
X103110442Y-148265518D01*
X103110442Y-148265518D01*
G37*
G36*
X105650442Y-148265518D02*
G01*
X105716627Y-148272037D01*
X105886466Y-148323557D01*
X106042991Y-148407222D01*
X106078729Y-148436552D01*
X106180186Y-148519814D01*
X106263448Y-148621271D01*
X106292778Y-148657009D01*
X106376443Y-148813534D01*
X106427963Y-148983373D01*
X106445359Y-149160000D01*
X106427963Y-149336627D01*
X106376443Y-149506466D01*
X106292778Y-149662991D01*
X106288814Y-149667821D01*
X106180186Y-149800186D01*
X106078729Y-149883448D01*
X106042991Y-149912778D01*
X105886466Y-149996443D01*
X105716627Y-150047963D01*
X105650442Y-150054482D01*
X105584260Y-150061000D01*
X105495740Y-150061000D01*
X105429558Y-150054482D01*
X105363373Y-150047963D01*
X105193534Y-149996443D01*
X105037009Y-149912778D01*
X105001271Y-149883448D01*
X104899814Y-149800186D01*
X104791186Y-149667821D01*
X104787222Y-149662991D01*
X104703557Y-149506466D01*
X104652037Y-149336627D01*
X104634641Y-149160000D01*
X104652037Y-148983373D01*
X104703557Y-148813534D01*
X104787222Y-148657009D01*
X104816552Y-148621271D01*
X104899814Y-148519814D01*
X105001271Y-148436552D01*
X105037009Y-148407222D01*
X105193534Y-148323557D01*
X105363373Y-148272037D01*
X105429558Y-148265518D01*
X105495740Y-148259000D01*
X105584260Y-148259000D01*
X105650442Y-148265518D01*
X105650442Y-148265518D01*
G37*
G36*
X142029187Y-148101123D02*
G01*
X142200255Y-148171982D01*
X142200257Y-148171983D01*
X142277758Y-148223768D01*
X142354214Y-148274854D01*
X142485146Y-148405786D01*
X142588018Y-148559745D01*
X142658877Y-148730813D01*
X142695000Y-148912417D01*
X142695000Y-149097583D01*
X142658877Y-149279187D01*
X142635085Y-149336625D01*
X142588017Y-149450257D01*
X142485145Y-149604215D01*
X142354215Y-149735145D01*
X142200257Y-149838017D01*
X142200256Y-149838018D01*
X142200255Y-149838018D01*
X142029187Y-149908877D01*
X141847583Y-149945000D01*
X141662417Y-149945000D01*
X141480813Y-149908877D01*
X141309745Y-149838018D01*
X141309744Y-149838018D01*
X141309743Y-149838017D01*
X141155785Y-149735145D01*
X141024855Y-149604215D01*
X140921983Y-149450257D01*
X140874915Y-149336625D01*
X140851123Y-149279187D01*
X140815000Y-149097583D01*
X140815000Y-148912417D01*
X140851123Y-148730813D01*
X140921982Y-148559745D01*
X141024854Y-148405786D01*
X141155786Y-148274854D01*
X141232242Y-148223768D01*
X141309743Y-148171983D01*
X141309745Y-148171982D01*
X141480813Y-148101123D01*
X141662417Y-148065000D01*
X141847583Y-148065000D01*
X142029187Y-148101123D01*
X142029187Y-148101123D01*
G37*
G36*
X105650442Y-145725518D02*
G01*
X105716627Y-145732037D01*
X105886466Y-145783557D01*
X106042991Y-145867222D01*
X106078729Y-145896552D01*
X106180186Y-145979814D01*
X106254644Y-146070543D01*
X106292778Y-146117009D01*
X106376443Y-146273534D01*
X106427963Y-146443373D01*
X106445359Y-146620000D01*
X106427963Y-146796627D01*
X106376443Y-146966466D01*
X106292778Y-147122991D01*
X106275366Y-147144207D01*
X106180186Y-147260186D01*
X106078729Y-147343448D01*
X106042991Y-147372778D01*
X105886466Y-147456443D01*
X105716627Y-147507963D01*
X105650442Y-147514482D01*
X105584260Y-147521000D01*
X105495740Y-147521000D01*
X105429558Y-147514482D01*
X105363373Y-147507963D01*
X105193534Y-147456443D01*
X105037009Y-147372778D01*
X105001271Y-147343448D01*
X104899814Y-147260186D01*
X104804634Y-147144207D01*
X104787222Y-147122991D01*
X104703557Y-146966466D01*
X104652037Y-146796627D01*
X104634641Y-146620000D01*
X104652037Y-146443373D01*
X104703557Y-146273534D01*
X104787222Y-146117009D01*
X104825356Y-146070543D01*
X104899814Y-145979814D01*
X105001271Y-145896552D01*
X105037009Y-145867222D01*
X105193534Y-145783557D01*
X105363373Y-145732037D01*
X105429558Y-145725518D01*
X105495740Y-145719000D01*
X105584260Y-145719000D01*
X105650442Y-145725518D01*
X105650442Y-145725518D01*
G37*
G36*
X103110442Y-145725518D02*
G01*
X103176627Y-145732037D01*
X103346466Y-145783557D01*
X103502991Y-145867222D01*
X103538729Y-145896552D01*
X103640186Y-145979814D01*
X103714644Y-146070543D01*
X103752778Y-146117009D01*
X103836443Y-146273534D01*
X103887963Y-146443373D01*
X103905359Y-146620000D01*
X103887963Y-146796627D01*
X103836443Y-146966466D01*
X103752778Y-147122991D01*
X103735366Y-147144207D01*
X103640186Y-147260186D01*
X103538729Y-147343448D01*
X103502991Y-147372778D01*
X103346466Y-147456443D01*
X103176627Y-147507963D01*
X103110442Y-147514482D01*
X103044260Y-147521000D01*
X102955740Y-147521000D01*
X102889558Y-147514482D01*
X102823373Y-147507963D01*
X102653534Y-147456443D01*
X102497009Y-147372778D01*
X102461271Y-147343448D01*
X102359814Y-147260186D01*
X102264634Y-147144207D01*
X102247222Y-147122991D01*
X102163557Y-146966466D01*
X102112037Y-146796627D01*
X102094641Y-146620000D01*
X102112037Y-146443373D01*
X102163557Y-146273534D01*
X102247222Y-146117009D01*
X102285356Y-146070543D01*
X102359814Y-145979814D01*
X102461271Y-145896552D01*
X102497009Y-145867222D01*
X102653534Y-145783557D01*
X102823373Y-145732037D01*
X102889558Y-145725518D01*
X102955740Y-145719000D01*
X103044260Y-145719000D01*
X103110442Y-145725518D01*
X103110442Y-145725518D01*
G37*
G36*
X142029187Y-145611923D02*
G01*
X142200255Y-145682782D01*
X142200257Y-145682783D01*
X142254459Y-145719000D01*
X142354214Y-145785654D01*
X142485146Y-145916586D01*
X142588018Y-146070545D01*
X142658877Y-146241613D01*
X142695000Y-146423217D01*
X142695000Y-146608383D01*
X142658877Y-146789987D01*
X142612521Y-146901900D01*
X142588017Y-146961057D01*
X142584401Y-146966468D01*
X142485146Y-147115014D01*
X142354214Y-147245946D01*
X142332902Y-147260186D01*
X142200257Y-147348817D01*
X142200256Y-147348818D01*
X142200255Y-147348818D01*
X142029187Y-147419677D01*
X141847583Y-147455800D01*
X141662417Y-147455800D01*
X141480813Y-147419677D01*
X141309745Y-147348818D01*
X141309744Y-147348818D01*
X141309743Y-147348817D01*
X141177098Y-147260186D01*
X141155786Y-147245946D01*
X141024854Y-147115014D01*
X140925599Y-146966468D01*
X140921983Y-146961057D01*
X140897479Y-146901900D01*
X140851123Y-146789987D01*
X140815000Y-146608383D01*
X140815000Y-146423217D01*
X140851123Y-146241613D01*
X140921982Y-146070545D01*
X141024854Y-145916586D01*
X141155786Y-145785654D01*
X141255541Y-145719000D01*
X141309743Y-145682783D01*
X141309745Y-145682782D01*
X141480813Y-145611923D01*
X141662417Y-145575800D01*
X141847583Y-145575800D01*
X142029187Y-145611923D01*
X142029187Y-145611923D01*
G37*
G36*
X103110443Y-143185519D02*
G01*
X103176627Y-143192037D01*
X103346466Y-143243557D01*
X103502991Y-143327222D01*
X103538729Y-143356552D01*
X103640186Y-143439814D01*
X103723448Y-143541271D01*
X103752778Y-143577009D01*
X103836443Y-143733534D01*
X103887963Y-143903373D01*
X103905359Y-144080000D01*
X103887963Y-144256627D01*
X103836443Y-144426466D01*
X103752778Y-144582991D01*
X103723448Y-144618729D01*
X103640186Y-144720186D01*
X103538729Y-144803448D01*
X103502991Y-144832778D01*
X103346466Y-144916443D01*
X103176627Y-144967963D01*
X103110442Y-144974482D01*
X103044260Y-144981000D01*
X102955740Y-144981000D01*
X102889558Y-144974482D01*
X102823373Y-144967963D01*
X102653534Y-144916443D01*
X102497009Y-144832778D01*
X102461271Y-144803448D01*
X102359814Y-144720186D01*
X102276552Y-144618729D01*
X102247222Y-144582991D01*
X102163557Y-144426466D01*
X102112037Y-144256627D01*
X102094641Y-144080000D01*
X102112037Y-143903373D01*
X102163557Y-143733534D01*
X102247222Y-143577009D01*
X102276552Y-143541271D01*
X102359814Y-143439814D01*
X102461271Y-143356552D01*
X102497009Y-143327222D01*
X102653534Y-143243557D01*
X102823373Y-143192037D01*
X102889557Y-143185519D01*
X102955740Y-143179000D01*
X103044260Y-143179000D01*
X103110443Y-143185519D01*
X103110443Y-143185519D01*
G37*
G36*
X105650443Y-143185519D02*
G01*
X105716627Y-143192037D01*
X105886466Y-143243557D01*
X106042991Y-143327222D01*
X106078729Y-143356552D01*
X106180186Y-143439814D01*
X106263448Y-143541271D01*
X106292778Y-143577009D01*
X106376443Y-143733534D01*
X106427963Y-143903373D01*
X106445359Y-144080000D01*
X106427963Y-144256627D01*
X106376443Y-144426466D01*
X106292778Y-144582991D01*
X106263448Y-144618729D01*
X106180186Y-144720186D01*
X106078729Y-144803448D01*
X106042991Y-144832778D01*
X105886466Y-144916443D01*
X105716627Y-144967963D01*
X105650442Y-144974482D01*
X105584260Y-144981000D01*
X105495740Y-144981000D01*
X105429558Y-144974482D01*
X105363373Y-144967963D01*
X105193534Y-144916443D01*
X105037009Y-144832778D01*
X105001271Y-144803448D01*
X104899814Y-144720186D01*
X104816552Y-144618729D01*
X104787222Y-144582991D01*
X104703557Y-144426466D01*
X104652037Y-144256627D01*
X104634641Y-144080000D01*
X104652037Y-143903373D01*
X104703557Y-143733534D01*
X104787222Y-143577009D01*
X104816552Y-143541271D01*
X104899814Y-143439814D01*
X105001271Y-143356552D01*
X105037009Y-143327222D01*
X105193534Y-143243557D01*
X105363373Y-143192037D01*
X105429557Y-143185519D01*
X105495740Y-143179000D01*
X105584260Y-143179000D01*
X105650443Y-143185519D01*
X105650443Y-143185519D01*
G37*
G36*
X142029187Y-143122723D02*
G01*
X142196525Y-143192037D01*
X142200257Y-143193583D01*
X142275048Y-143243557D01*
X142354214Y-143296454D01*
X142485146Y-143427386D01*
X142588018Y-143581345D01*
X142658877Y-143752413D01*
X142695000Y-143934017D01*
X142695000Y-144119183D01*
X142658877Y-144300787D01*
X142606819Y-144426466D01*
X142588017Y-144471857D01*
X142485145Y-144625815D01*
X142354215Y-144756745D01*
X142200257Y-144859617D01*
X142200256Y-144859618D01*
X142200255Y-144859618D01*
X142029187Y-144930477D01*
X141847583Y-144966600D01*
X141662417Y-144966600D01*
X141480813Y-144930477D01*
X141309745Y-144859618D01*
X141309744Y-144859618D01*
X141309743Y-144859617D01*
X141155785Y-144756745D01*
X141024855Y-144625815D01*
X140921983Y-144471857D01*
X140903181Y-144426466D01*
X140851123Y-144300787D01*
X140815000Y-144119183D01*
X140815000Y-143934017D01*
X140851123Y-143752413D01*
X140921982Y-143581345D01*
X141024854Y-143427386D01*
X141155786Y-143296454D01*
X141234952Y-143243557D01*
X141309743Y-143193583D01*
X141313475Y-143192037D01*
X141480813Y-143122723D01*
X141662417Y-143086600D01*
X141847583Y-143086600D01*
X142029187Y-143122723D01*
X142029187Y-143122723D01*
G37*
G36*
X105650442Y-140645518D02*
G01*
X105716627Y-140652037D01*
X105886466Y-140703557D01*
X106042991Y-140787222D01*
X106070991Y-140810201D01*
X106180186Y-140899814D01*
X106263448Y-141001271D01*
X106292778Y-141037009D01*
X106376443Y-141193534D01*
X106427963Y-141363373D01*
X106445359Y-141540000D01*
X106427963Y-141716627D01*
X106376443Y-141886466D01*
X106292778Y-142042991D01*
X106265758Y-142075915D01*
X106180186Y-142180186D01*
X106078729Y-142263448D01*
X106042991Y-142292778D01*
X105886466Y-142376443D01*
X105716627Y-142427963D01*
X105650442Y-142434482D01*
X105584260Y-142441000D01*
X105495740Y-142441000D01*
X105429558Y-142434482D01*
X105363373Y-142427963D01*
X105193534Y-142376443D01*
X105037009Y-142292778D01*
X105001271Y-142263448D01*
X104899814Y-142180186D01*
X104814242Y-142075915D01*
X104787222Y-142042991D01*
X104703557Y-141886466D01*
X104652037Y-141716627D01*
X104634641Y-141540000D01*
X104652037Y-141363373D01*
X104703557Y-141193534D01*
X104787222Y-141037009D01*
X104816552Y-141001271D01*
X104899814Y-140899814D01*
X105009009Y-140810201D01*
X105037009Y-140787222D01*
X105193534Y-140703557D01*
X105363373Y-140652037D01*
X105429558Y-140645518D01*
X105495740Y-140639000D01*
X105584260Y-140639000D01*
X105650442Y-140645518D01*
X105650442Y-140645518D01*
G37*
G36*
X103110442Y-140645518D02*
G01*
X103176627Y-140652037D01*
X103346466Y-140703557D01*
X103502991Y-140787222D01*
X103530991Y-140810201D01*
X103640186Y-140899814D01*
X103723448Y-141001271D01*
X103752778Y-141037009D01*
X103836443Y-141193534D01*
X103887963Y-141363373D01*
X103905359Y-141540000D01*
X103887963Y-141716627D01*
X103836443Y-141886466D01*
X103752778Y-142042991D01*
X103725758Y-142075915D01*
X103640186Y-142180186D01*
X103538729Y-142263448D01*
X103502991Y-142292778D01*
X103346466Y-142376443D01*
X103176627Y-142427963D01*
X103110442Y-142434482D01*
X103044260Y-142441000D01*
X102955740Y-142441000D01*
X102889558Y-142434482D01*
X102823373Y-142427963D01*
X102653534Y-142376443D01*
X102497009Y-142292778D01*
X102461271Y-142263448D01*
X102359814Y-142180186D01*
X102274242Y-142075915D01*
X102247222Y-142042991D01*
X102163557Y-141886466D01*
X102112037Y-141716627D01*
X102094641Y-141540000D01*
X102112037Y-141363373D01*
X102163557Y-141193534D01*
X102247222Y-141037009D01*
X102276552Y-141001271D01*
X102359814Y-140899814D01*
X102469009Y-140810201D01*
X102497009Y-140787222D01*
X102653534Y-140703557D01*
X102823373Y-140652037D01*
X102889558Y-140645518D01*
X102955740Y-140639000D01*
X103044260Y-140639000D01*
X103110442Y-140645518D01*
X103110442Y-140645518D01*
G37*
G36*
X140909476Y-139779684D02*
G01*
X141126769Y-139869690D01*
X141126771Y-139869691D01*
X141173628Y-139901000D01*
X141322330Y-140000360D01*
X141488640Y-140166670D01*
X141619310Y-140362231D01*
X141709316Y-140579524D01*
X141755200Y-140810200D01*
X141755200Y-141045400D01*
X141709316Y-141276076D01*
X141673156Y-141363373D01*
X141619309Y-141493371D01*
X141488640Y-141688930D01*
X141322330Y-141855240D01*
X141126771Y-141985909D01*
X141126770Y-141985910D01*
X141126769Y-141985910D01*
X140909476Y-142075916D01*
X140678800Y-142121800D01*
X140443600Y-142121800D01*
X140212924Y-142075916D01*
X139995631Y-141985910D01*
X139995630Y-141985910D01*
X139995629Y-141985909D01*
X139800070Y-141855240D01*
X139633760Y-141688930D01*
X139503091Y-141493371D01*
X139449244Y-141363373D01*
X139413084Y-141276076D01*
X139367200Y-141045400D01*
X139367200Y-140810200D01*
X139413084Y-140579524D01*
X139503090Y-140362231D01*
X139633760Y-140166670D01*
X139800070Y-140000360D01*
X139948772Y-139901000D01*
X139995629Y-139869691D01*
X139995631Y-139869690D01*
X140212924Y-139779684D01*
X140443600Y-139733800D01*
X140678800Y-139733800D01*
X140909476Y-139779684D01*
X140909476Y-139779684D01*
G37*
G36*
X105650443Y-138105519D02*
G01*
X105716627Y-138112037D01*
X105886466Y-138163557D01*
X106042991Y-138247222D01*
X106078729Y-138276552D01*
X106180186Y-138359814D01*
X106263448Y-138461271D01*
X106292778Y-138497009D01*
X106376443Y-138653534D01*
X106427963Y-138823373D01*
X106445359Y-139000000D01*
X106427963Y-139176627D01*
X106376443Y-139346466D01*
X106292778Y-139502991D01*
X106263448Y-139538729D01*
X106180186Y-139640186D01*
X106078729Y-139723448D01*
X106042991Y-139752778D01*
X105886466Y-139836443D01*
X105716627Y-139887963D01*
X105650443Y-139894481D01*
X105584260Y-139901000D01*
X105495740Y-139901000D01*
X105429557Y-139894481D01*
X105363373Y-139887963D01*
X105193534Y-139836443D01*
X105037009Y-139752778D01*
X105001271Y-139723448D01*
X104899814Y-139640186D01*
X104816552Y-139538729D01*
X104787222Y-139502991D01*
X104703557Y-139346466D01*
X104652037Y-139176627D01*
X104634641Y-139000000D01*
X104652037Y-138823373D01*
X104703557Y-138653534D01*
X104787222Y-138497009D01*
X104816552Y-138461271D01*
X104899814Y-138359814D01*
X105001271Y-138276552D01*
X105037009Y-138247222D01*
X105193534Y-138163557D01*
X105363373Y-138112037D01*
X105429557Y-138105519D01*
X105495740Y-138099000D01*
X105584260Y-138099000D01*
X105650443Y-138105519D01*
X105650443Y-138105519D01*
G37*
G36*
X103901000Y-139901000D02*
G01*
X102099000Y-139901000D01*
X102099000Y-138099000D01*
X103901000Y-138099000D01*
X103901000Y-139901000D01*
X103901000Y-139901000D01*
G37*
G36*
X95678254Y-129487818D02*
G01*
X96051511Y-129642426D01*
X96051513Y-129642427D01*
X96387436Y-129866884D01*
X96673116Y-130152564D01*
X96897574Y-130488489D01*
X97052182Y-130861746D01*
X97131000Y-131257993D01*
X97131000Y-131662007D01*
X97052182Y-132058254D01*
X96897574Y-132431511D01*
X96897573Y-132431513D01*
X96673116Y-132767436D01*
X96387436Y-133053116D01*
X96051513Y-133277573D01*
X96051512Y-133277574D01*
X96051511Y-133277574D01*
X95678254Y-133432182D01*
X95282007Y-133511000D01*
X94877993Y-133511000D01*
X94481746Y-133432182D01*
X94108489Y-133277574D01*
X94108488Y-133277574D01*
X94108487Y-133277573D01*
X93772564Y-133053116D01*
X93486884Y-132767436D01*
X93262427Y-132431513D01*
X93262426Y-132431511D01*
X93107818Y-132058254D01*
X93029000Y-131662007D01*
X93029000Y-131257993D01*
X93107818Y-130861746D01*
X93262426Y-130488489D01*
X93486884Y-130152564D01*
X93772564Y-129866884D01*
X94108487Y-129642427D01*
X94108489Y-129642426D01*
X94481746Y-129487818D01*
X94877993Y-129409000D01*
X95282007Y-129409000D01*
X95678254Y-129487818D01*
X95678254Y-129487818D01*
G37*
G36*
X97351000Y-125351000D02*
G01*
X95649000Y-125351000D01*
X95649000Y-123649000D01*
X97351000Y-123649000D01*
X97351000Y-125351000D01*
X97351000Y-125351000D01*
G37*
G36*
X93908228Y-122296703D02*
G01*
X94063100Y-122360853D01*
X94202481Y-122453985D01*
X94321015Y-122572519D01*
X94414147Y-122711900D01*
X94478297Y-122866772D01*
X94511000Y-123031184D01*
X94511000Y-123198816D01*
X94478297Y-123363228D01*
X94414147Y-123518100D01*
X94321015Y-123657481D01*
X94202481Y-123776015D01*
X94063100Y-123869147D01*
X93908228Y-123933297D01*
X93743816Y-123966000D01*
X93576184Y-123966000D01*
X93411772Y-123933297D01*
X93256900Y-123869147D01*
X93117519Y-123776015D01*
X92998985Y-123657481D01*
X92905853Y-123518100D01*
X92841703Y-123363228D01*
X92809000Y-123198816D01*
X92809000Y-123031184D01*
X92841703Y-122866772D01*
X92905853Y-122711900D01*
X92998985Y-122572519D01*
X93117519Y-122453985D01*
X93256900Y-122360853D01*
X93411772Y-122296703D01*
X93576184Y-122264000D01*
X93743816Y-122264000D01*
X93908228Y-122296703D01*
X93908228Y-122296703D01*
G37*
G36*
X109771000Y-123741000D02*
G01*
X108669000Y-123741000D01*
X108669000Y-122639000D01*
X109771000Y-122639000D01*
X109771000Y-123741000D01*
X109771000Y-123741000D01*
G37*
G36*
X107231000Y-123741000D02*
G01*
X106129000Y-123741000D01*
X106129000Y-122639000D01*
X107231000Y-122639000D01*
X107231000Y-123741000D01*
X107231000Y-123741000D01*
G37*
G36*
X96748228Y-120911703D02*
G01*
X96903100Y-120975853D01*
X97042481Y-121068985D01*
X97161015Y-121187519D01*
X97254147Y-121326900D01*
X97318297Y-121481772D01*
X97351000Y-121646184D01*
X97351000Y-121813816D01*
X97318297Y-121978228D01*
X97254147Y-122133100D01*
X97161015Y-122272481D01*
X97042481Y-122391015D01*
X96903100Y-122484147D01*
X96748228Y-122548297D01*
X96583816Y-122581000D01*
X96416184Y-122581000D01*
X96251772Y-122548297D01*
X96096900Y-122484147D01*
X95957519Y-122391015D01*
X95838985Y-122272481D01*
X95745853Y-122133100D01*
X95681703Y-121978228D01*
X95649000Y-121813816D01*
X95649000Y-121646184D01*
X95681703Y-121481772D01*
X95745853Y-121326900D01*
X95838985Y-121187519D01*
X95957519Y-121068985D01*
X96096900Y-120975853D01*
X96251772Y-120911703D01*
X96416184Y-120879000D01*
X96583816Y-120879000D01*
X96748228Y-120911703D01*
X96748228Y-120911703D01*
G37*
G36*
X93908228Y-119526703D02*
G01*
X94063100Y-119590853D01*
X94202481Y-119683985D01*
X94321015Y-119802519D01*
X94414147Y-119941900D01*
X94478297Y-120096772D01*
X94511000Y-120261184D01*
X94511000Y-120428816D01*
X94478297Y-120593228D01*
X94414147Y-120748100D01*
X94321015Y-120887481D01*
X94202481Y-121006015D01*
X94063100Y-121099147D01*
X93908228Y-121163297D01*
X93743816Y-121196000D01*
X93576184Y-121196000D01*
X93411772Y-121163297D01*
X93256900Y-121099147D01*
X93117519Y-121006015D01*
X92998985Y-120887481D01*
X92905853Y-120748100D01*
X92841703Y-120593228D01*
X92809000Y-120428816D01*
X92809000Y-120261184D01*
X92841703Y-120096772D01*
X92905853Y-119941900D01*
X92998985Y-119802519D01*
X93117519Y-119683985D01*
X93256900Y-119590853D01*
X93411772Y-119526703D01*
X93576184Y-119494000D01*
X93743816Y-119494000D01*
X93908228Y-119526703D01*
X93908228Y-119526703D01*
G37*
G36*
X96748228Y-118141703D02*
G01*
X96903100Y-118205853D01*
X97042481Y-118298985D01*
X97161015Y-118417519D01*
X97254147Y-118556900D01*
X97318297Y-118711772D01*
X97351000Y-118876184D01*
X97351000Y-119043816D01*
X97318297Y-119208228D01*
X97254147Y-119363100D01*
X97161015Y-119502481D01*
X97042481Y-119621015D01*
X96903100Y-119714147D01*
X96748228Y-119778297D01*
X96583816Y-119811000D01*
X96416184Y-119811000D01*
X96251772Y-119778297D01*
X96096900Y-119714147D01*
X95957519Y-119621015D01*
X95838985Y-119502481D01*
X95745853Y-119363100D01*
X95681703Y-119208228D01*
X95649000Y-119043816D01*
X95649000Y-118876184D01*
X95681703Y-118711772D01*
X95745853Y-118556900D01*
X95838985Y-118417519D01*
X95957519Y-118298985D01*
X96096900Y-118205853D01*
X96251772Y-118141703D01*
X96416184Y-118109000D01*
X96583816Y-118109000D01*
X96748228Y-118141703D01*
X96748228Y-118141703D01*
G37*
G36*
X93908228Y-116756703D02*
G01*
X94063100Y-116820853D01*
X94202481Y-116913985D01*
X94321015Y-117032519D01*
X94414147Y-117171900D01*
X94478297Y-117326772D01*
X94511000Y-117491184D01*
X94511000Y-117658816D01*
X94478297Y-117823228D01*
X94414147Y-117978100D01*
X94321015Y-118117481D01*
X94202481Y-118236015D01*
X94063100Y-118329147D01*
X93908228Y-118393297D01*
X93743816Y-118426000D01*
X93576184Y-118426000D01*
X93411772Y-118393297D01*
X93256900Y-118329147D01*
X93117519Y-118236015D01*
X92998985Y-118117481D01*
X92905853Y-117978100D01*
X92841703Y-117823228D01*
X92809000Y-117658816D01*
X92809000Y-117491184D01*
X92841703Y-117326772D01*
X92905853Y-117171900D01*
X92998985Y-117032519D01*
X93117519Y-116913985D01*
X93256900Y-116820853D01*
X93411772Y-116756703D01*
X93576184Y-116724000D01*
X93743816Y-116724000D01*
X93908228Y-116756703D01*
X93908228Y-116756703D01*
G37*
G36*
X96748228Y-115371703D02*
G01*
X96903100Y-115435853D01*
X97042481Y-115528985D01*
X97161015Y-115647519D01*
X97254147Y-115786900D01*
X97318297Y-115941772D01*
X97351000Y-116106184D01*
X97351000Y-116273816D01*
X97318297Y-116438228D01*
X97254147Y-116593100D01*
X97161015Y-116732481D01*
X97042481Y-116851015D01*
X96903100Y-116944147D01*
X96748228Y-117008297D01*
X96583816Y-117041000D01*
X96416184Y-117041000D01*
X96251772Y-117008297D01*
X96096900Y-116944147D01*
X95957519Y-116851015D01*
X95838985Y-116732481D01*
X95745853Y-116593100D01*
X95681703Y-116438228D01*
X95649000Y-116273816D01*
X95649000Y-116106184D01*
X95681703Y-115941772D01*
X95745853Y-115786900D01*
X95838985Y-115647519D01*
X95957519Y-115528985D01*
X96096900Y-115435853D01*
X96251772Y-115371703D01*
X96416184Y-115339000D01*
X96583816Y-115339000D01*
X96748228Y-115371703D01*
X96748228Y-115371703D01*
G37*
G36*
X93908228Y-113986703D02*
G01*
X94063100Y-114050853D01*
X94202481Y-114143985D01*
X94321015Y-114262519D01*
X94414147Y-114401900D01*
X94478297Y-114556772D01*
X94511000Y-114721184D01*
X94511000Y-114888816D01*
X94478297Y-115053228D01*
X94414147Y-115208100D01*
X94321015Y-115347481D01*
X94202481Y-115466015D01*
X94063100Y-115559147D01*
X93908228Y-115623297D01*
X93743816Y-115656000D01*
X93576184Y-115656000D01*
X93411772Y-115623297D01*
X93256900Y-115559147D01*
X93117519Y-115466015D01*
X92998985Y-115347481D01*
X92905853Y-115208100D01*
X92841703Y-115053228D01*
X92809000Y-114888816D01*
X92809000Y-114721184D01*
X92841703Y-114556772D01*
X92905853Y-114401900D01*
X92998985Y-114262519D01*
X93117519Y-114143985D01*
X93256900Y-114050853D01*
X93411772Y-113986703D01*
X93576184Y-113954000D01*
X93743816Y-113954000D01*
X93908228Y-113986703D01*
X93908228Y-113986703D01*
G37*
G36*
X96748228Y-112601703D02*
G01*
X96903100Y-112665853D01*
X97042481Y-112758985D01*
X97161015Y-112877519D01*
X97254147Y-113016900D01*
X97318297Y-113171772D01*
X97351000Y-113336184D01*
X97351000Y-113503816D01*
X97318297Y-113668228D01*
X97254147Y-113823100D01*
X97161015Y-113962481D01*
X97042481Y-114081015D01*
X96903100Y-114174147D01*
X96748228Y-114238297D01*
X96583816Y-114271000D01*
X96416184Y-114271000D01*
X96251772Y-114238297D01*
X96096900Y-114174147D01*
X95957519Y-114081015D01*
X95838985Y-113962481D01*
X95745853Y-113823100D01*
X95681703Y-113668228D01*
X95649000Y-113503816D01*
X95649000Y-113336184D01*
X95681703Y-113171772D01*
X95745853Y-113016900D01*
X95838985Y-112877519D01*
X95957519Y-112758985D01*
X96096900Y-112665853D01*
X96251772Y-112601703D01*
X96416184Y-112569000D01*
X96583816Y-112569000D01*
X96748228Y-112601703D01*
X96748228Y-112601703D01*
G37*
G36*
X127551000Y-112565000D02*
G01*
X126449000Y-112565000D01*
X126449000Y-111463000D01*
X127551000Y-111463000D01*
X127551000Y-112565000D01*
X127551000Y-112565000D01*
G37*
G36*
X130091000Y-112565000D02*
G01*
X128989000Y-112565000D01*
X128989000Y-111463000D01*
X130091000Y-111463000D01*
X130091000Y-112565000D01*
X130091000Y-112565000D01*
G37*
G36*
X95678254Y-104487818D02*
G01*
X96051511Y-104642426D01*
X96051513Y-104642427D01*
X96387436Y-104866884D01*
X96673116Y-105152564D01*
X96897574Y-105488489D01*
X97052182Y-105861746D01*
X97131000Y-106257993D01*
X97131000Y-106662007D01*
X97052182Y-107058254D01*
X96897574Y-107431511D01*
X96897573Y-107431513D01*
X96673116Y-107767436D01*
X96387436Y-108053116D01*
X96051513Y-108277573D01*
X96051512Y-108277574D01*
X96051511Y-108277574D01*
X95678254Y-108432182D01*
X95282007Y-108511000D01*
X94877993Y-108511000D01*
X94481746Y-108432182D01*
X94108489Y-108277574D01*
X94108488Y-108277574D01*
X94108487Y-108277573D01*
X93772564Y-108053116D01*
X93486884Y-107767436D01*
X93262427Y-107431513D01*
X93262426Y-107431511D01*
X93107818Y-107058254D01*
X93029000Y-106662007D01*
X93029000Y-106257993D01*
X93107818Y-105861746D01*
X93262426Y-105488489D01*
X93486884Y-105152564D01*
X93772564Y-104866884D01*
X94108487Y-104642427D01*
X94108489Y-104642426D01*
X94481746Y-104487818D01*
X94877993Y-104409000D01*
X95282007Y-104409000D01*
X95678254Y-104487818D01*
X95678254Y-104487818D01*
G37*
G36*
X104183000Y-103421000D02*
G01*
X103081000Y-103421000D01*
X103081000Y-102319000D01*
X104183000Y-102319000D01*
X104183000Y-103421000D01*
X104183000Y-103421000D01*
G37*
G36*
X106977000Y-103421000D02*
G01*
X105875000Y-103421000D01*
X105875000Y-102319000D01*
X106977000Y-102319000D01*
X106977000Y-103421000D01*
X106977000Y-103421000D01*
G37*
G36*
X109771000Y-103421000D02*
G01*
X108669000Y-103421000D01*
X108669000Y-102319000D01*
X109771000Y-102319000D01*
X109771000Y-103421000D01*
X109771000Y-103421000D01*
G37*
G36*
X118153000Y-103421000D02*
G01*
X117051000Y-103421000D01*
X117051000Y-102319000D01*
X118153000Y-102319000D01*
X118153000Y-103421000D01*
X118153000Y-103421000D01*
G37*
G36*
X120947000Y-103421000D02*
G01*
X119845000Y-103421000D01*
X119845000Y-102319000D01*
X120947000Y-102319000D01*
X120947000Y-103421000D01*
X120947000Y-103421000D01*
G37*
G36*
X123741000Y-103421000D02*
G01*
X122639000Y-103421000D01*
X122639000Y-102319000D01*
X123741000Y-102319000D01*
X123741000Y-103421000D01*
X123741000Y-103421000D01*
G37*
G36*
X115359000Y-103421000D02*
G01*
X114257000Y-103421000D01*
X114257000Y-102319000D01*
X115359000Y-102319000D01*
X115359000Y-103421000D01*
X115359000Y-103421000D01*
G37*
G36*
X112565000Y-103421000D02*
G01*
X111463000Y-103421000D01*
X111463000Y-102319000D01*
X112565000Y-102319000D01*
X112565000Y-103421000D01*
X112565000Y-103421000D01*
G37*
M02*
