G04 #@! TF.GenerationSoftware,KiCad,Pcbnew,5.1.4-3.fc30*
G04 #@! TF.CreationDate,2019-11-02T10:54:17-07:00*
G04 #@! TF.ProjectId,adampsu,6164616d-7073-4752-9e6b-696361645f70,rev?*
G04 #@! TF.SameCoordinates,Original*
G04 #@! TF.FileFunction,Legend,Top*
G04 #@! TF.FilePolarity,Positive*
%FSLAX46Y46*%
G04 Gerber Fmt 4.6, Leading zero omitted, Abs format (unit mm)*
G04 Created by KiCad (PCBNEW 5.1.4-3.fc30) date 2019-11-02 10:54:17*
%MOMM*%
%LPD*%
G04 APERTURE LIST*
%ADD10C,0.300000*%
%ADD11C,0.150000*%
%ADD12C,0.100000*%
%ADD13C,0.020000*%
%ADD14C,0.200000*%
%ADD15C,0.120000*%
G04 APERTURE END LIST*
D10*
X152351428Y-156876428D02*
X152280000Y-156805000D01*
X152208571Y-156662142D01*
X152208571Y-156305000D01*
X152280000Y-156162142D01*
X152351428Y-156090714D01*
X152494285Y-156019285D01*
X152637142Y-156019285D01*
X152851428Y-156090714D01*
X153708571Y-156947857D01*
X153708571Y-156019285D01*
X152208571Y-155090714D02*
X152208571Y-154947857D01*
X152280000Y-154805000D01*
X152351428Y-154733571D01*
X152494285Y-154662142D01*
X152780000Y-154590714D01*
X153137142Y-154590714D01*
X153422857Y-154662142D01*
X153565714Y-154733571D01*
X153637142Y-154805000D01*
X153708571Y-154947857D01*
X153708571Y-155090714D01*
X153637142Y-155233571D01*
X153565714Y-155305000D01*
X153422857Y-155376428D01*
X153137142Y-155447857D01*
X152780000Y-155447857D01*
X152494285Y-155376428D01*
X152351428Y-155305000D01*
X152280000Y-155233571D01*
X152208571Y-155090714D01*
X153708571Y-153162142D02*
X153708571Y-154019285D01*
X153708571Y-153590714D02*
X152208571Y-153590714D01*
X152422857Y-153733571D01*
X152565714Y-153876428D01*
X152637142Y-154019285D01*
X153708571Y-152447857D02*
X153708571Y-152162142D01*
X153637142Y-152019285D01*
X153565714Y-151947857D01*
X153351428Y-151805000D01*
X153065714Y-151733571D01*
X152494285Y-151733571D01*
X152351428Y-151805000D01*
X152280000Y-151876428D01*
X152208571Y-152019285D01*
X152208571Y-152305000D01*
X152280000Y-152447857D01*
X152351428Y-152519285D01*
X152494285Y-152590714D01*
X152851428Y-152590714D01*
X152994285Y-152519285D01*
X153065714Y-152447857D01*
X153137142Y-152305000D01*
X153137142Y-152019285D01*
X153065714Y-151876428D01*
X152994285Y-151805000D01*
X152851428Y-151733571D01*
X155258571Y-156447857D02*
X156258571Y-156090714D01*
X155258571Y-155733571D01*
X154758571Y-154876428D02*
X154758571Y-154733571D01*
X154830000Y-154590714D01*
X154901428Y-154519285D01*
X155044285Y-154447857D01*
X155330000Y-154376428D01*
X155687142Y-154376428D01*
X155972857Y-154447857D01*
X156115714Y-154519285D01*
X156187142Y-154590714D01*
X156258571Y-154733571D01*
X156258571Y-154876428D01*
X156187142Y-155019285D01*
X156115714Y-155090714D01*
X155972857Y-155162142D01*
X155687142Y-155233571D01*
X155330000Y-155233571D01*
X155044285Y-155162142D01*
X154901428Y-155090714D01*
X154830000Y-155019285D01*
X154758571Y-154876428D01*
X156115714Y-153733571D02*
X156187142Y-153662142D01*
X156258571Y-153733571D01*
X156187142Y-153805000D01*
X156115714Y-153733571D01*
X156258571Y-153733571D01*
X156258571Y-152233571D02*
X156258571Y-153090714D01*
X156258571Y-152662142D02*
X154758571Y-152662142D01*
X154972857Y-152805000D01*
X155115714Y-152947857D01*
X155187142Y-153090714D01*
D11*
X91592380Y-155683928D02*
X91592380Y-155493452D01*
X91640000Y-155398214D01*
X91735238Y-155302976D01*
X91925714Y-155255357D01*
X92259047Y-155255357D01*
X92449523Y-155302976D01*
X92544761Y-155398214D01*
X92592380Y-155493452D01*
X92592380Y-155683928D01*
X92544761Y-155779166D01*
X92449523Y-155874404D01*
X92259047Y-155922023D01*
X91925714Y-155922023D01*
X91735238Y-155874404D01*
X91640000Y-155779166D01*
X91592380Y-155683928D01*
X91925714Y-154398214D02*
X92592380Y-154398214D01*
X91925714Y-154826785D02*
X92449523Y-154826785D01*
X92544761Y-154779166D01*
X92592380Y-154683928D01*
X92592380Y-154541071D01*
X92544761Y-154445833D01*
X92497142Y-154398214D01*
X91925714Y-154064880D02*
X91925714Y-153683928D01*
X91592380Y-153922023D02*
X92449523Y-153922023D01*
X92544761Y-153874404D01*
X92592380Y-153779166D01*
X92592380Y-153683928D01*
X91925714Y-153350595D02*
X92925714Y-153350595D01*
X91973333Y-153350595D02*
X91925714Y-153255357D01*
X91925714Y-153064880D01*
X91973333Y-152969642D01*
X92020952Y-152922023D01*
X92116190Y-152874404D01*
X92401904Y-152874404D01*
X92497142Y-152922023D01*
X92544761Y-152969642D01*
X92592380Y-153064880D01*
X92592380Y-153255357D01*
X92544761Y-153350595D01*
X91925714Y-152017261D02*
X92592380Y-152017261D01*
X91925714Y-152445833D02*
X92449523Y-152445833D01*
X92544761Y-152398214D01*
X92592380Y-152302976D01*
X92592380Y-152160119D01*
X92544761Y-152064880D01*
X92497142Y-152017261D01*
X91925714Y-151683928D02*
X91925714Y-151302976D01*
X91592380Y-151541071D02*
X92449523Y-151541071D01*
X92544761Y-151493452D01*
X92592380Y-151398214D01*
X92592380Y-151302976D01*
X92592380Y-149636309D02*
X92116190Y-149969642D01*
X92592380Y-150207738D02*
X91592380Y-150207738D01*
X91592380Y-149826785D01*
X91640000Y-149731547D01*
X91687619Y-149683928D01*
X91782857Y-149636309D01*
X91925714Y-149636309D01*
X92020952Y-149683928D01*
X92068571Y-149731547D01*
X92116190Y-149826785D01*
X92116190Y-150207738D01*
X92592380Y-148779166D02*
X92068571Y-148779166D01*
X91973333Y-148826785D01*
X91925714Y-148922023D01*
X91925714Y-149112500D01*
X91973333Y-149207738D01*
X92544761Y-148779166D02*
X92592380Y-148874404D01*
X92592380Y-149112500D01*
X92544761Y-149207738D01*
X92449523Y-149255357D01*
X92354285Y-149255357D01*
X92259047Y-149207738D01*
X92211428Y-149112500D01*
X92211428Y-148874404D01*
X92163809Y-148779166D01*
X91925714Y-148445833D02*
X91925714Y-148064880D01*
X91592380Y-148302976D02*
X92449523Y-148302976D01*
X92544761Y-148255357D01*
X92592380Y-148160119D01*
X92592380Y-148064880D01*
X92592380Y-147731547D02*
X91925714Y-147731547D01*
X91592380Y-147731547D02*
X91640000Y-147779166D01*
X91687619Y-147731547D01*
X91640000Y-147683928D01*
X91592380Y-147731547D01*
X91687619Y-147731547D01*
X91925714Y-147255357D02*
X92592380Y-147255357D01*
X92020952Y-147255357D02*
X91973333Y-147207738D01*
X91925714Y-147112500D01*
X91925714Y-146969642D01*
X91973333Y-146874404D01*
X92068571Y-146826785D01*
X92592380Y-146826785D01*
X91925714Y-145922023D02*
X92735238Y-145922023D01*
X92830476Y-145969642D01*
X92878095Y-146017261D01*
X92925714Y-146112500D01*
X92925714Y-146255357D01*
X92878095Y-146350595D01*
X92544761Y-145922023D02*
X92592380Y-146017261D01*
X92592380Y-146207738D01*
X92544761Y-146302976D01*
X92497142Y-146350595D01*
X92401904Y-146398214D01*
X92116190Y-146398214D01*
X92020952Y-146350595D01*
X91973333Y-146302976D01*
X91925714Y-146207738D01*
X91925714Y-146017261D01*
X91973333Y-145922023D01*
X92544761Y-145493452D02*
X92592380Y-145398214D01*
X92592380Y-145207738D01*
X92544761Y-145112500D01*
X92449523Y-145064880D01*
X92401904Y-145064880D01*
X92306666Y-145112500D01*
X92259047Y-145207738D01*
X92259047Y-145350595D01*
X92211428Y-145445833D01*
X92116190Y-145493452D01*
X92068571Y-145493452D01*
X91973333Y-145445833D01*
X91925714Y-145350595D01*
X91925714Y-145207738D01*
X91973333Y-145112500D01*
X92497142Y-144636309D02*
X92544761Y-144588690D01*
X92592380Y-144636309D01*
X92544761Y-144683928D01*
X92497142Y-144636309D01*
X92592380Y-144636309D01*
X91973333Y-144636309D02*
X92020952Y-144588690D01*
X92068571Y-144636309D01*
X92020952Y-144683928D01*
X91973333Y-144636309D01*
X92068571Y-144636309D01*
X94242380Y-155350595D02*
X94242380Y-155922023D01*
X94242380Y-155636309D02*
X93242380Y-155636309D01*
X93385238Y-155731547D01*
X93480476Y-155826785D01*
X93528095Y-155922023D01*
X93337619Y-154969642D02*
X93290000Y-154922023D01*
X93242380Y-154826785D01*
X93242380Y-154588690D01*
X93290000Y-154493452D01*
X93337619Y-154445833D01*
X93432857Y-154398214D01*
X93528095Y-154398214D01*
X93670952Y-154445833D01*
X94242380Y-155017261D01*
X94242380Y-154398214D01*
X93242380Y-154112500D02*
X94242380Y-153779166D01*
X93242380Y-153445833D01*
X93861428Y-152350595D02*
X93861428Y-151588690D01*
X93242380Y-150350595D02*
X94051904Y-150350595D01*
X94147142Y-150302976D01*
X94194761Y-150255357D01*
X94242380Y-150160119D01*
X94242380Y-149969642D01*
X94194761Y-149874404D01*
X94147142Y-149826785D01*
X94051904Y-149779166D01*
X93242380Y-149779166D01*
X93575714Y-149302976D02*
X94242380Y-149302976D01*
X93670952Y-149302976D02*
X93623333Y-149255357D01*
X93575714Y-149160119D01*
X93575714Y-149017261D01*
X93623333Y-148922023D01*
X93718571Y-148874404D01*
X94242380Y-148874404D01*
X94242380Y-148398214D02*
X93575714Y-148398214D01*
X93766190Y-148398214D02*
X93670952Y-148350595D01*
X93623333Y-148302976D01*
X93575714Y-148207738D01*
X93575714Y-148112500D01*
X94194761Y-147398214D02*
X94242380Y-147493452D01*
X94242380Y-147683928D01*
X94194761Y-147779166D01*
X94099523Y-147826785D01*
X93718571Y-147826785D01*
X93623333Y-147779166D01*
X93575714Y-147683928D01*
X93575714Y-147493452D01*
X93623333Y-147398214D01*
X93718571Y-147350595D01*
X93813809Y-147350595D01*
X93909047Y-147826785D01*
X93575714Y-146493452D02*
X94385238Y-146493452D01*
X94480476Y-146541071D01*
X94528095Y-146588690D01*
X94575714Y-146683928D01*
X94575714Y-146826785D01*
X94528095Y-146922023D01*
X94194761Y-146493452D02*
X94242380Y-146588690D01*
X94242380Y-146779166D01*
X94194761Y-146874404D01*
X94147142Y-146922023D01*
X94051904Y-146969642D01*
X93766190Y-146969642D01*
X93670952Y-146922023D01*
X93623333Y-146874404D01*
X93575714Y-146779166D01*
X93575714Y-146588690D01*
X93623333Y-146493452D01*
X93575714Y-145588690D02*
X94242380Y-145588690D01*
X93575714Y-146017261D02*
X94099523Y-146017261D01*
X94194761Y-145969642D01*
X94242380Y-145874404D01*
X94242380Y-145731547D01*
X94194761Y-145636309D01*
X94147142Y-145588690D01*
X94242380Y-144969642D02*
X94194761Y-145064880D01*
X94099523Y-145112500D01*
X93242380Y-145112500D01*
X94242380Y-144160119D02*
X93718571Y-144160119D01*
X93623333Y-144207738D01*
X93575714Y-144302976D01*
X93575714Y-144493452D01*
X93623333Y-144588690D01*
X94194761Y-144160119D02*
X94242380Y-144255357D01*
X94242380Y-144493452D01*
X94194761Y-144588690D01*
X94099523Y-144636309D01*
X94004285Y-144636309D01*
X93909047Y-144588690D01*
X93861428Y-144493452D01*
X93861428Y-144255357D01*
X93813809Y-144160119D01*
X93575714Y-143826785D02*
X93575714Y-143445833D01*
X93242380Y-143683928D02*
X94099523Y-143683928D01*
X94194761Y-143636309D01*
X94242380Y-143541071D01*
X94242380Y-143445833D01*
X94194761Y-142731547D02*
X94242380Y-142826785D01*
X94242380Y-143017261D01*
X94194761Y-143112500D01*
X94099523Y-143160119D01*
X93718571Y-143160119D01*
X93623333Y-143112500D01*
X93575714Y-143017261D01*
X93575714Y-142826785D01*
X93623333Y-142731547D01*
X93718571Y-142683928D01*
X93813809Y-142683928D01*
X93909047Y-143160119D01*
X94242380Y-141826785D02*
X93242380Y-141826785D01*
X94194761Y-141826785D02*
X94242380Y-141922023D01*
X94242380Y-142112500D01*
X94194761Y-142207738D01*
X94147142Y-142255357D01*
X94051904Y-142302976D01*
X93766190Y-142302976D01*
X93670952Y-142255357D01*
X93623333Y-142207738D01*
X93575714Y-142112500D01*
X93575714Y-141922023D01*
X93623333Y-141826785D01*
X95511428Y-155874404D02*
X95511428Y-155112500D01*
X95892380Y-155493452D02*
X95130476Y-155493452D01*
X94892380Y-154160119D02*
X94892380Y-154636309D01*
X95368571Y-154683928D01*
X95320952Y-154636309D01*
X95273333Y-154541071D01*
X95273333Y-154302976D01*
X95320952Y-154207738D01*
X95368571Y-154160119D01*
X95463809Y-154112500D01*
X95701904Y-154112500D01*
X95797142Y-154160119D01*
X95844761Y-154207738D01*
X95892380Y-154302976D01*
X95892380Y-154541071D01*
X95844761Y-154636309D01*
X95797142Y-154683928D01*
X94892380Y-153826785D02*
X95892380Y-153493452D01*
X94892380Y-153160119D01*
X95511428Y-152064880D02*
X95511428Y-151302976D01*
X94892380Y-149588690D02*
X94892380Y-150064880D01*
X95368571Y-150112500D01*
X95320952Y-150064880D01*
X95273333Y-149969642D01*
X95273333Y-149731547D01*
X95320952Y-149636309D01*
X95368571Y-149588690D01*
X95463809Y-149541071D01*
X95701904Y-149541071D01*
X95797142Y-149588690D01*
X95844761Y-149636309D01*
X95892380Y-149731547D01*
X95892380Y-149969642D01*
X95844761Y-150064880D01*
X95797142Y-150112500D01*
X95606666Y-149160119D02*
X95606666Y-148683928D01*
X95892380Y-149255357D02*
X94892380Y-148922023D01*
X95892380Y-148588690D01*
X97161428Y-155874404D02*
X97161428Y-155112500D01*
X96542380Y-154160119D02*
X96542380Y-154636309D01*
X97018571Y-154683928D01*
X96970952Y-154636309D01*
X96923333Y-154541071D01*
X96923333Y-154302976D01*
X96970952Y-154207738D01*
X97018571Y-154160119D01*
X97113809Y-154112500D01*
X97351904Y-154112500D01*
X97447142Y-154160119D01*
X97494761Y-154207738D01*
X97542380Y-154302976D01*
X97542380Y-154541071D01*
X97494761Y-154636309D01*
X97447142Y-154683928D01*
X96542380Y-153826785D02*
X97542380Y-153493452D01*
X96542380Y-153160119D01*
X97161428Y-152064880D02*
X97161428Y-151302976D01*
X97542380Y-149541071D02*
X97542380Y-150112500D01*
X97542380Y-149826785D02*
X96542380Y-149826785D01*
X96685238Y-149922023D01*
X96780476Y-150017261D01*
X96828095Y-150112500D01*
X97256666Y-149160119D02*
X97256666Y-148683928D01*
X97542380Y-149255357D02*
X96542380Y-148922023D01*
X97542380Y-148588690D01*
D12*
G36*
X160199150Y-106680000D02*
G01*
X159123520Y-106680000D01*
X159123520Y-105612069D01*
X160199150Y-105612069D01*
X160199150Y-106680000D01*
G37*
X160199150Y-106680000D02*
X159123520Y-106680000D01*
X159123520Y-105612069D01*
X160199150Y-105612069D01*
X160199150Y-106680000D01*
G36*
X163048478Y-106680000D02*
G01*
X162896955Y-106680000D01*
X162896955Y-105612069D01*
X163048478Y-105612069D01*
X163048478Y-106680000D01*
G37*
X163048478Y-106680000D02*
X162896955Y-106680000D01*
X162896955Y-105612069D01*
X163048478Y-105612069D01*
X163048478Y-106680000D01*
G36*
X162576382Y-106680000D02*
G01*
X162424859Y-106680000D01*
X162424859Y-105612069D01*
X162576382Y-105612069D01*
X162576382Y-106680000D01*
G37*
X162576382Y-106680000D02*
X162424859Y-106680000D01*
X162424859Y-105612069D01*
X162576382Y-105612069D01*
X162576382Y-106680000D01*
G36*
X162117676Y-106680000D02*
G01*
X161966153Y-106680000D01*
X161966153Y-105612069D01*
X162117676Y-105612069D01*
X162117676Y-106680000D01*
G37*
X162117676Y-106680000D02*
X161966153Y-106680000D01*
X161966153Y-105612069D01*
X162117676Y-105612069D01*
X162117676Y-106680000D01*
G36*
X161645583Y-106680000D02*
G01*
X161494060Y-106680000D01*
X161494060Y-105612069D01*
X161645583Y-105612069D01*
X161645583Y-106680000D01*
G37*
X161645583Y-106680000D02*
X161494060Y-106680000D01*
X161494060Y-105612069D01*
X161645583Y-105612069D01*
X161645583Y-106680000D01*
G36*
X161176832Y-106680000D02*
G01*
X161025309Y-106680000D01*
X161025309Y-105612069D01*
X161176832Y-105612069D01*
X161176832Y-106680000D01*
G37*
X161176832Y-106680000D02*
X161025309Y-106680000D01*
X161025309Y-105612069D01*
X161176832Y-105612069D01*
X161176832Y-106680000D01*
G36*
X160704730Y-106680000D02*
G01*
X160553207Y-106680000D01*
X160553207Y-105612069D01*
X160704730Y-105612069D01*
X160704730Y-106680000D01*
G37*
X160704730Y-106680000D02*
X160553207Y-106680000D01*
X160553207Y-105612069D01*
X160704730Y-105612069D01*
X160704730Y-106680000D01*
G36*
X158812990Y-106680000D02*
G01*
X158661467Y-106680000D01*
X158661467Y-105612069D01*
X158812990Y-105612069D01*
X158812990Y-106680000D01*
G37*
X158812990Y-106680000D02*
X158661467Y-106680000D01*
X158661467Y-105612069D01*
X158812990Y-105612069D01*
X158812990Y-106680000D01*
G36*
X158340896Y-106680000D02*
G01*
X158189373Y-106680000D01*
X158189373Y-105612069D01*
X158340896Y-105612069D01*
X158340896Y-106680000D01*
G37*
X158340896Y-106680000D02*
X158189373Y-106680000D01*
X158189373Y-105612069D01*
X158340896Y-105612069D01*
X158340896Y-106680000D01*
G36*
X157872140Y-106680000D02*
G01*
X157720617Y-106680000D01*
X157720617Y-105612069D01*
X157872140Y-105612069D01*
X157872140Y-106680000D01*
G37*
X157872140Y-106680000D02*
X157720617Y-106680000D01*
X157720617Y-105612069D01*
X157872140Y-105612069D01*
X157872140Y-106680000D01*
G36*
X157400044Y-106680000D02*
G01*
X157248521Y-106680000D01*
X157248521Y-105612069D01*
X157400044Y-105612069D01*
X157400044Y-106680000D01*
G37*
X157400044Y-106680000D02*
X157248521Y-106680000D01*
X157248521Y-105612069D01*
X157400044Y-105612069D01*
X157400044Y-106680000D01*
G36*
X156941338Y-106680000D02*
G01*
X156789815Y-106680000D01*
X156789815Y-105612069D01*
X156941338Y-105612069D01*
X156941338Y-106680000D01*
G37*
X156941338Y-106680000D02*
X156789815Y-106680000D01*
X156789815Y-105612069D01*
X156941338Y-105612069D01*
X156941338Y-106680000D01*
G36*
X156469245Y-106680000D02*
G01*
X156317722Y-106680000D01*
X156317722Y-105612069D01*
X156469245Y-105612069D01*
X156469245Y-106680000D01*
G37*
X156469245Y-106680000D02*
X156317722Y-106680000D01*
X156317722Y-105612069D01*
X156469245Y-105612069D01*
X156469245Y-106680000D01*
G36*
X156000491Y-106680000D02*
G01*
X155848968Y-106680000D01*
X155848968Y-105612069D01*
X156000491Y-105612069D01*
X156000491Y-106680000D01*
G37*
X156000491Y-106680000D02*
X155848968Y-106680000D01*
X155848968Y-105612069D01*
X156000491Y-105612069D01*
X156000491Y-106680000D01*
G36*
X155528392Y-106680000D02*
G01*
X155376869Y-106680000D01*
X155376869Y-105612069D01*
X155528392Y-105612069D01*
X155528392Y-106680000D01*
G37*
X155528392Y-106680000D02*
X155376869Y-106680000D01*
X155376869Y-105612069D01*
X155528392Y-105612069D01*
X155528392Y-106680000D01*
G36*
X155049595Y-106680000D02*
G01*
X154898072Y-106680000D01*
X154898072Y-105612069D01*
X155049595Y-105612069D01*
X155049595Y-106680000D01*
G37*
X155049595Y-106680000D02*
X154898072Y-106680000D01*
X154898072Y-105612069D01*
X155049595Y-105612069D01*
X155049595Y-106680000D01*
G36*
X154577502Y-106680000D02*
G01*
X154425979Y-106680000D01*
X154425979Y-105612069D01*
X154577502Y-105612069D01*
X154577502Y-106680000D01*
G37*
X154577502Y-106680000D02*
X154425979Y-106680000D01*
X154425979Y-105612069D01*
X154577502Y-105612069D01*
X154577502Y-106680000D01*
G36*
X154108748Y-106680000D02*
G01*
X153957225Y-106680000D01*
X153957225Y-105612069D01*
X154108748Y-105612069D01*
X154108748Y-106680000D01*
G37*
X154108748Y-106680000D02*
X153957225Y-106680000D01*
X153957225Y-105612069D01*
X154108748Y-105612069D01*
X154108748Y-106680000D01*
G36*
X153636652Y-106680000D02*
G01*
X153485129Y-106680000D01*
X153485129Y-105612069D01*
X153636652Y-105612069D01*
X153636652Y-106680000D01*
G37*
X153636652Y-106680000D02*
X153485129Y-106680000D01*
X153485129Y-105612069D01*
X153636652Y-105612069D01*
X153636652Y-106680000D01*
G36*
X153186523Y-106680000D02*
G01*
X153035000Y-106680000D01*
X153035000Y-105612069D01*
X153186523Y-105612069D01*
X153186523Y-106680000D01*
G37*
X153186523Y-106680000D02*
X153035000Y-106680000D01*
X153035000Y-105612069D01*
X153186523Y-105612069D01*
X153186523Y-106680000D01*
G36*
X152705850Y-106680000D02*
G01*
X152554327Y-106680000D01*
X152554327Y-105612069D01*
X152705850Y-105612069D01*
X152705850Y-106680000D01*
G37*
X152705850Y-106680000D02*
X152554327Y-106680000D01*
X152554327Y-105612069D01*
X152705850Y-105612069D01*
X152705850Y-106680000D01*
G36*
X152237099Y-106680000D02*
G01*
X152085576Y-106680000D01*
X152085576Y-105612069D01*
X152237099Y-105612069D01*
X152237099Y-106680000D01*
G37*
X152237099Y-106680000D02*
X152085576Y-106680000D01*
X152085576Y-105612069D01*
X152237099Y-105612069D01*
X152237099Y-106680000D01*
G36*
X151765000Y-106680000D02*
G01*
X151613477Y-106680000D01*
X151613477Y-105612069D01*
X151765000Y-105612069D01*
X151765000Y-106680000D01*
G37*
X151765000Y-106680000D02*
X151613477Y-106680000D01*
X151613477Y-105612069D01*
X151765000Y-105612069D01*
X151765000Y-106680000D01*
D13*
X155049595Y-106680000D02*
X154898072Y-106680000D01*
X154108748Y-106680000D02*
X153957225Y-106680000D01*
X154425979Y-106680000D02*
X154425979Y-105612069D01*
X153026424Y-105612069D02*
X153177946Y-105612069D01*
D14*
X131712133Y-107007533D02*
X163361474Y-107007533D01*
X165195645Y-101364545D02*
X165182969Y-101168890D01*
X165182969Y-101168890D02*
X165171118Y-100978047D01*
X165171118Y-100978047D02*
X165157655Y-100791410D01*
X165157655Y-100791410D02*
X165139722Y-100604727D01*
X165139722Y-100604727D02*
X165115348Y-100426028D01*
X165115348Y-100426028D02*
X165082362Y-100257962D01*
X165082362Y-100257962D02*
X165038377Y-100101686D01*
X165038377Y-100101686D02*
X164981017Y-99959025D01*
X164981017Y-99959025D02*
X164907689Y-99831705D01*
X164907689Y-99831705D02*
X164814488Y-99720696D01*
X164814488Y-99720696D02*
X164701945Y-99631758D01*
X164701945Y-99631758D02*
X164567452Y-99565606D01*
X164567452Y-99565606D02*
X164406820Y-99523480D01*
X164406820Y-99523480D02*
X164227478Y-99508161D01*
D13*
X155376869Y-106680000D02*
X155376869Y-105612069D01*
X156789815Y-106680000D02*
X156789815Y-105612069D01*
X151765000Y-105612069D02*
X151765000Y-106680000D01*
X161645583Y-106680000D02*
X161494060Y-106680000D01*
X158812990Y-106680000D02*
X158661467Y-106680000D01*
X152705850Y-105612069D02*
X152705850Y-106680000D01*
X156469245Y-105612069D02*
X156469245Y-106680000D01*
X160199150Y-106680000D02*
X159123520Y-106680000D01*
D14*
X150894889Y-99936733D02*
X150894889Y-105240304D01*
D13*
X156941338Y-105612069D02*
X156941338Y-106680000D01*
X158189373Y-105612069D02*
X158340896Y-105612069D01*
X159123520Y-105612069D02*
X160199150Y-105612069D01*
X155528392Y-105612069D02*
X155528392Y-106680000D01*
X156941338Y-106680000D02*
X156789815Y-106680000D01*
X152085576Y-105612069D02*
X152237099Y-105612069D01*
D14*
X131850247Y-99936733D02*
X131851919Y-99509836D01*
D13*
X153177946Y-105612069D02*
X153177946Y-106680000D01*
X158812990Y-105612069D02*
X158812990Y-106680000D01*
D14*
X163361474Y-107007533D02*
X164365315Y-105605947D01*
X140046675Y-104584054D02*
X133336854Y-104584054D01*
D13*
X156317722Y-105612069D02*
X156469245Y-105612069D01*
X151613477Y-105612069D02*
X151765000Y-105612069D01*
X161966153Y-105612069D02*
X162117676Y-105612069D01*
X156317722Y-106680000D02*
X156317722Y-105612069D01*
X152554327Y-106680000D02*
X152554327Y-105612069D01*
X153177946Y-106680000D02*
X153026424Y-106680000D01*
X156000491Y-106680000D02*
X155848968Y-106680000D01*
D14*
X131502033Y-99501463D02*
X131302315Y-99502213D01*
X131302315Y-99502213D02*
X131105817Y-99506572D01*
X131105817Y-99506572D02*
X130917608Y-99518704D01*
X130917608Y-99518704D02*
X130742388Y-99544059D01*
X130742388Y-99544059D02*
X130586247Y-99588216D01*
X130586247Y-99588216D02*
X130452410Y-99655706D01*
X130452410Y-99655706D02*
X130341373Y-99748989D01*
X130341373Y-99748989D02*
X130254440Y-99863354D01*
X130254440Y-99863354D02*
X130185903Y-99997007D01*
X130185903Y-99997007D02*
X130132722Y-100143853D01*
X130132722Y-100143853D02*
X130090607Y-100302182D01*
X130090607Y-100302182D02*
X130056855Y-100469538D01*
X130056855Y-100469538D02*
X130029420Y-100644079D01*
X130029420Y-100644079D02*
X130008729Y-100807268D01*
X130269890Y-105601912D02*
X164562300Y-105601912D01*
D13*
X160199150Y-105612069D02*
X160199150Y-106680000D01*
X162576381Y-105612069D02*
X162576381Y-106680000D01*
D14*
X150894889Y-105240304D02*
X131850247Y-105240304D01*
D13*
X153485129Y-105612069D02*
X153636652Y-105612069D01*
D14*
X130746174Y-105615417D02*
X131712133Y-107007533D01*
D13*
X160704730Y-105612069D02*
X160704730Y-106680000D01*
D14*
X142859175Y-100606376D02*
X149568996Y-100606376D01*
D13*
X162576381Y-106680000D02*
X162424859Y-106680000D01*
X157248521Y-106680000D02*
X157248521Y-105612069D01*
D14*
X131850247Y-105240304D02*
X131850247Y-99936733D01*
X142859175Y-104584054D02*
X142859175Y-100606376D01*
D13*
X154425979Y-105612069D02*
X154577502Y-105612069D01*
X155049595Y-105612069D02*
X155049595Y-106680000D01*
X155848968Y-106680000D02*
X155848968Y-105612069D01*
X162424859Y-105612069D02*
X162576381Y-105612069D01*
X153957225Y-106680000D02*
X153957225Y-105612069D01*
D14*
X133336854Y-100606376D02*
X140046675Y-100606376D01*
D13*
X154577502Y-105612069D02*
X154577502Y-106680000D01*
X154108748Y-105612069D02*
X154108748Y-106680000D01*
X163048477Y-106680000D02*
X162896955Y-106680000D01*
X155528392Y-106680000D02*
X155376869Y-106680000D01*
X151613477Y-106680000D02*
X151613477Y-105612069D01*
X158340896Y-105612069D02*
X158340896Y-106680000D01*
D14*
X150894889Y-99936733D02*
X150894889Y-99516532D01*
D13*
X153957225Y-105612069D02*
X154108748Y-105612069D01*
D14*
X165332389Y-103793876D02*
X165330762Y-103589578D01*
X165330762Y-103589578D02*
X165326036Y-103387447D01*
X165326036Y-103387447D02*
X165318704Y-103190548D01*
X165318704Y-103190548D02*
X165309325Y-102998359D01*
X165309325Y-102998359D02*
X165298230Y-102806780D01*
X165298230Y-102806780D02*
X165285623Y-102611923D01*
X165285623Y-102611923D02*
X165272622Y-102424291D01*
X165272622Y-102424291D02*
X165259130Y-102236986D01*
X165259130Y-102236986D02*
X165245027Y-102044785D01*
X165245027Y-102044785D02*
X165229643Y-101835849D01*
X165229643Y-101835849D02*
X165214755Y-101631899D01*
X165214755Y-101631899D02*
X165201283Y-101444279D01*
X165201283Y-101444279D02*
X165195645Y-101364545D01*
D13*
X158189373Y-106680000D02*
X158189373Y-105612069D01*
D14*
X130008729Y-100807269D02*
X129990095Y-100991312D01*
X129990095Y-100991312D02*
X129971046Y-101174253D01*
X129971046Y-101174253D02*
X129951163Y-101362402D01*
X129951163Y-101362402D02*
X129931712Y-101545697D01*
X129931712Y-101545697D02*
X129912122Y-101731234D01*
X129912122Y-101731234D02*
X129892096Y-101923619D01*
X129892096Y-101923619D02*
X129873159Y-102109936D01*
X129873159Y-102109936D02*
X129855005Y-102294778D01*
X129855005Y-102294778D02*
X129837680Y-102479734D01*
X129837680Y-102479734D02*
X129821102Y-102668851D01*
X129821102Y-102668851D02*
X129806067Y-102857326D01*
X129806067Y-102857326D02*
X129792849Y-103047965D01*
X129792849Y-103047965D02*
X129782188Y-103241961D01*
X129782188Y-103241961D02*
X129775506Y-103438045D01*
X129775506Y-103438045D02*
X129774354Y-103546108D01*
D13*
X154898072Y-105612069D02*
X155049595Y-105612069D01*
X161176832Y-106680000D02*
X161025309Y-106680000D01*
X164365315Y-105605947D02*
X130746174Y-105615417D01*
X156789815Y-105612069D02*
X156941338Y-105612069D01*
X130008729Y-100807268D02*
X130008729Y-100807268D01*
D14*
X149568996Y-104584054D02*
X142859175Y-104584054D01*
D13*
X159123520Y-106680000D02*
X159123520Y-105612069D01*
X157872139Y-105612069D02*
X157872139Y-106680000D01*
X157400043Y-106680000D02*
X157248521Y-106680000D01*
X160704730Y-106680000D02*
X160553207Y-106680000D01*
X161645583Y-105612069D02*
X161645583Y-106680000D01*
X154577502Y-106680000D02*
X154425979Y-106680000D01*
D14*
X129774354Y-103546108D02*
X129773257Y-103760823D01*
X129773257Y-103760823D02*
X129772436Y-103961771D01*
X129772436Y-103961771D02*
X129773804Y-104162975D01*
X129773804Y-104162975D02*
X129778681Y-104359759D01*
X129778681Y-104359759D02*
X129788645Y-104558102D01*
X129788645Y-104558102D02*
X129804420Y-104744823D01*
X129804420Y-104744823D02*
X129827997Y-104925823D01*
X129827997Y-104925823D02*
X129860451Y-105093540D01*
X129860451Y-105093540D02*
X129904888Y-105249260D01*
X129904888Y-105249260D02*
X129965947Y-105389865D01*
X129965947Y-105389865D02*
X130049953Y-105506438D01*
X130049953Y-105506438D02*
X130170967Y-105585568D01*
X130170967Y-105585568D02*
X130269890Y-105601912D01*
D13*
X156469245Y-106680000D02*
X156317722Y-106680000D01*
X163048477Y-105612069D02*
X163048477Y-106680000D01*
X162117676Y-106680000D02*
X161966153Y-106680000D01*
X157248521Y-105612069D02*
X157400043Y-105612069D01*
D14*
X164562300Y-105601912D02*
X164747494Y-105585164D01*
X164747494Y-105585164D02*
X164900817Y-105536275D01*
X164900817Y-105536275D02*
X165027992Y-105454833D01*
X165027992Y-105454833D02*
X165123357Y-105350104D01*
X165123357Y-105350104D02*
X165197799Y-105218219D01*
X165197799Y-105218219D02*
X165250253Y-105070401D01*
X165250253Y-105070401D02*
X165286689Y-104905738D01*
X165286689Y-104905738D02*
X165310338Y-104726275D01*
X165310338Y-104726275D02*
X165323890Y-104538088D01*
X165323890Y-104538088D02*
X165330427Y-104343382D01*
X165330427Y-104343382D02*
X165332582Y-104140488D01*
X165332582Y-104140488D02*
X165332539Y-103919825D01*
X165332539Y-103919825D02*
X165332389Y-103793876D01*
D13*
X157872139Y-106680000D02*
X157720617Y-106680000D01*
X160553207Y-105612069D02*
X160704730Y-105612069D01*
X152554327Y-105612069D02*
X152705850Y-105612069D01*
X156000491Y-105612069D02*
X156000491Y-106680000D01*
X157720617Y-105612069D02*
X157872139Y-105612069D01*
X158661467Y-106680000D02*
X158661467Y-105612069D01*
X157400043Y-105612069D02*
X157400043Y-106680000D01*
X158340896Y-106680000D02*
X158189373Y-106680000D01*
X162896955Y-106680000D02*
X162896955Y-105612069D01*
D14*
X131850247Y-99936733D02*
X150894889Y-99936733D01*
D13*
X153485129Y-106680000D02*
X153485129Y-105612069D01*
X153636652Y-106680000D02*
X153485129Y-106680000D01*
D14*
X149568996Y-100606376D02*
X149568996Y-104584054D01*
D13*
X155376869Y-105612069D02*
X155528392Y-105612069D01*
X155848968Y-105612069D02*
X156000491Y-105612069D01*
X152705850Y-106680000D02*
X152554327Y-106680000D01*
X161176832Y-105612069D02*
X161176832Y-106680000D01*
X162117676Y-105612069D02*
X162117676Y-106680000D01*
X161025309Y-105612069D02*
X161176832Y-105612069D01*
X161494060Y-106680000D02*
X161494060Y-105612069D01*
X161966153Y-106680000D02*
X161966153Y-105612069D01*
D14*
X140046675Y-100606376D02*
X140046675Y-104584054D01*
D13*
X162424859Y-106680000D02*
X162424859Y-105612069D01*
X161494060Y-105612069D02*
X161645583Y-105612069D01*
X161025309Y-106680000D02*
X161025309Y-105612069D01*
X154898072Y-106680000D02*
X154898072Y-105612069D01*
X158661467Y-105612069D02*
X158812990Y-105612069D01*
X162896955Y-105612069D02*
X163048477Y-105612069D01*
D14*
X164227478Y-99508161D02*
X164028380Y-99509857D01*
X164028380Y-99509857D02*
X163828614Y-99510799D01*
X163828614Y-99510799D02*
X163623256Y-99511507D01*
X163623256Y-99511507D02*
X163398697Y-99512113D01*
X163398697Y-99512113D02*
X163189856Y-99512576D01*
X163189856Y-99512576D02*
X162973226Y-99512983D01*
X162973226Y-99512983D02*
X162754988Y-99513340D01*
X162754988Y-99513340D02*
X162547129Y-99513635D01*
X162547129Y-99513635D02*
X162303854Y-99513938D01*
X162303854Y-99513938D02*
X162078002Y-99514184D01*
X162078002Y-99514184D02*
X161867731Y-99514388D01*
X161867731Y-99514388D02*
X161659399Y-99514569D01*
X161659399Y-99514569D02*
X161422925Y-99514755D01*
X161422925Y-99514755D02*
X161195975Y-99514912D01*
X161195975Y-99514912D02*
X160961894Y-99515057D01*
X160961894Y-99515057D02*
X160758955Y-99515169D01*
X160758955Y-99515169D02*
X160558967Y-99515269D01*
X160558967Y-99515269D02*
X160346650Y-99515363D01*
X160346650Y-99515363D02*
X160137781Y-99515446D01*
X160137781Y-99515446D02*
X159891585Y-99515532D01*
X159891585Y-99515532D02*
X159690681Y-99515595D01*
X159690681Y-99515595D02*
X159490633Y-99515646D01*
X159490633Y-99515646D02*
X159283034Y-99515695D01*
X159283034Y-99515695D02*
X159067753Y-99515741D01*
X159067753Y-99515741D02*
X158853618Y-99515777D01*
X158853618Y-99515777D02*
X158636361Y-99515807D01*
X158636361Y-99515807D02*
X158434517Y-99515829D01*
X158434517Y-99515829D02*
X158192772Y-99515849D01*
X158192772Y-99515849D02*
X157947602Y-99515862D01*
X157947602Y-99515862D02*
X157544667Y-99515868D01*
X157544667Y-99515868D02*
X157232080Y-99515862D01*
X157232080Y-99515862D02*
X156914881Y-99515845D01*
X156914881Y-99515845D02*
X156593249Y-99515819D01*
X156593249Y-99515819D02*
X156267358Y-99515784D01*
X156267358Y-99515784D02*
X155937383Y-99515740D01*
X155937383Y-99515740D02*
X155603499Y-99515687D01*
X155603499Y-99515687D02*
X155265882Y-99515625D01*
X155265882Y-99515625D02*
X154924708Y-99515554D01*
X154924708Y-99515554D02*
X154580152Y-99515476D01*
X154580152Y-99515476D02*
X154232387Y-99515388D01*
X154232387Y-99515388D02*
X153881592Y-99515294D01*
X153881592Y-99515294D02*
X153527940Y-99515192D01*
X153527940Y-99515192D02*
X153171606Y-99515083D01*
X153171606Y-99515083D02*
X152812765Y-99514965D01*
X152812765Y-99514965D02*
X152451595Y-99514842D01*
X152451595Y-99514842D02*
X152088268Y-99514711D01*
X152088268Y-99514711D02*
X151722962Y-99514575D01*
X151722962Y-99514575D02*
X151355852Y-99514430D01*
X151355852Y-99514430D02*
X150987112Y-99514282D01*
X150987112Y-99514282D02*
X150616917Y-99514127D01*
X150616917Y-99514127D02*
X150152430Y-99513925D01*
X150152430Y-99513925D02*
X149872866Y-99513799D01*
X149872866Y-99513799D02*
X149405882Y-99513584D01*
X149405882Y-99513584D02*
X149125103Y-99513451D01*
X149125103Y-99513451D02*
X148750268Y-99513269D01*
X148750268Y-99513269D02*
X148281183Y-99513036D01*
X148281183Y-99513036D02*
X147905683Y-99512846D01*
X147905683Y-99512846D02*
X147624047Y-99512699D01*
X147624047Y-99512699D02*
X147389403Y-99512577D01*
X147389403Y-99512577D02*
X147107951Y-99512425D01*
X147107951Y-99512425D02*
X146902850Y-99512314D01*
X146902850Y-99512314D02*
X146686177Y-99512197D01*
X146686177Y-99512197D02*
X146381999Y-99512027D01*
X146381999Y-99512027D02*
X146171676Y-99511910D01*
X146171676Y-99511910D02*
X145938279Y-99511778D01*
X145938279Y-99511778D02*
X145612146Y-99511591D01*
X145612146Y-99511591D02*
X145402910Y-99511469D01*
X145402910Y-99511469D02*
X145194030Y-99511348D01*
X145194030Y-99511348D02*
X144904615Y-99511175D01*
X144904615Y-99511175D02*
X144639082Y-99511017D01*
X144639082Y-99511017D02*
X144408846Y-99510880D01*
X144408846Y-99510880D02*
X144179169Y-99510740D01*
X144179169Y-99510740D02*
X143813222Y-99510515D01*
X143813222Y-99510515D02*
X143449196Y-99510289D01*
X143449196Y-99510289D02*
X143087266Y-99510061D01*
X143087266Y-99510061D02*
X142727607Y-99509831D01*
X142727607Y-99509831D02*
X142526467Y-99509701D01*
X142526467Y-99509701D02*
X142281577Y-99509543D01*
X142281577Y-99509543D02*
X141993847Y-99509354D01*
X141993847Y-99509354D02*
X141664010Y-99509138D01*
X141664010Y-99509138D02*
X141315189Y-99508906D01*
X141315189Y-99508906D02*
X140969514Y-99508673D01*
X140969514Y-99508673D02*
X140627162Y-99508440D01*
X140627162Y-99508440D02*
X140288308Y-99508207D01*
X140288308Y-99508207D02*
X139953129Y-99507975D01*
X139953129Y-99507975D02*
X139621798Y-99507744D01*
X139621798Y-99507744D02*
X139294490Y-99507514D01*
X139294490Y-99507514D02*
X139051891Y-99507343D01*
X139051891Y-99507343D02*
X138732053Y-99507115D01*
X138732053Y-99507115D02*
X138338466Y-99506830D01*
X138338466Y-99506830D02*
X138029007Y-99506605D01*
X138029007Y-99506605D02*
X137724450Y-99506383D01*
X137724450Y-99506383D02*
X137424968Y-99506162D01*
X137424968Y-99506162D02*
X137130738Y-99505944D01*
X137130738Y-99505944D02*
X136841934Y-99505728D01*
X136841934Y-99505728D02*
X136558733Y-99505516D01*
X136558733Y-99505516D02*
X136281307Y-99505306D01*
X136281307Y-99505306D02*
X136009833Y-99505099D01*
X136009833Y-99505099D02*
X135744487Y-99504895D01*
X135744487Y-99504895D02*
X135485445Y-99504695D01*
X135485445Y-99504695D02*
X135232881Y-99504498D01*
X135232881Y-99504498D02*
X134986970Y-99504306D01*
X134986970Y-99504306D02*
X134747888Y-99504120D01*
X134747888Y-99504120D02*
X134515811Y-99503937D01*
X134515811Y-99503937D02*
X134290913Y-99503758D01*
X134290913Y-99503758D02*
X134073369Y-99503584D01*
X134073369Y-99503584D02*
X133760254Y-99503334D01*
X133760254Y-99503334D02*
X133371400Y-99503020D01*
X133371400Y-99503020D02*
X133102110Y-99502801D01*
X133102110Y-99502801D02*
X132692817Y-99502466D01*
X132692817Y-99502466D02*
X132475369Y-99502284D01*
X132475369Y-99502284D02*
X132155752Y-99502017D01*
X132155752Y-99502017D02*
X131943795Y-99501839D01*
X131943795Y-99501839D02*
X131695311Y-99501628D01*
X131695311Y-99501628D02*
X131502033Y-99501463D01*
X133336854Y-104584054D02*
X133336854Y-100606376D01*
X141513770Y-99497681D02*
X141542180Y-105227140D01*
D13*
X160553207Y-106680000D02*
X160553207Y-105612069D01*
X153636652Y-105612069D02*
X153636652Y-106680000D01*
X153026424Y-106680000D02*
X153026424Y-105612069D01*
X157720617Y-106680000D02*
X157720617Y-105612069D01*
X152237099Y-105612069D02*
X152237099Y-106680000D01*
X152085576Y-106680000D02*
X152085576Y-105612069D01*
X152237099Y-106680000D02*
X152085576Y-106680000D01*
X151765000Y-106680000D02*
X151613477Y-106680000D01*
D15*
X144256900Y-140927800D02*
X144256900Y-150927800D01*
X139253100Y-152916600D02*
X139253100Y-140927800D01*
X141755000Y-140927800D02*
X144256900Y-140927800D01*
X142755000Y-152916600D02*
X139253100Y-152916600D01*
X111314000Y-103570000D02*
X111314000Y-102170000D01*
X112714000Y-103570000D02*
X111314000Y-103570000D01*
X112714000Y-102170000D02*
X112714000Y-103570000D01*
X111314000Y-102170000D02*
X112714000Y-102170000D01*
X158501248Y-137710000D02*
X159023752Y-137710000D01*
X158501248Y-136290000D02*
X159023752Y-136290000D01*
X158501248Y-140210000D02*
X159023752Y-140210000D01*
X158501248Y-138790000D02*
X159023752Y-138790000D01*
X155885000Y-135740000D02*
X147650000Y-135740000D01*
X155885000Y-140260000D02*
X155885000Y-135740000D01*
X147650000Y-140260000D02*
X155885000Y-140260000D01*
X148000000Y-158000000D02*
X148000000Y-152000000D01*
X128000000Y-158000000D02*
X128000000Y-152000000D01*
X102932000Y-103570000D02*
X102932000Y-102170000D01*
X104332000Y-103570000D02*
X102932000Y-103570000D01*
X104332000Y-102170000D02*
X104332000Y-103570000D01*
X102932000Y-102170000D02*
X104332000Y-102170000D01*
X126300000Y-112714000D02*
X126300000Y-111314000D01*
X127700000Y-112714000D02*
X126300000Y-112714000D01*
X127700000Y-111314000D02*
X127700000Y-112714000D01*
X126300000Y-111314000D02*
X127700000Y-111314000D01*
X128840000Y-112714000D02*
X128840000Y-111314000D01*
X130240000Y-112714000D02*
X128840000Y-112714000D01*
X130240000Y-111314000D02*
X130240000Y-112714000D01*
X128840000Y-111314000D02*
X130240000Y-111314000D01*
X108520000Y-123890000D02*
X108520000Y-122490000D01*
X109920000Y-123890000D02*
X108520000Y-123890000D01*
X109920000Y-122490000D02*
X109920000Y-123890000D01*
X108520000Y-122490000D02*
X109920000Y-122490000D01*
X105980000Y-123890000D02*
X105980000Y-122490000D01*
X107380000Y-123890000D02*
X105980000Y-123890000D01*
X107380000Y-122490000D02*
X107380000Y-123890000D01*
X105980000Y-122490000D02*
X107380000Y-122490000D01*
X116902000Y-103570000D02*
X116902000Y-102170000D01*
X118302000Y-103570000D02*
X116902000Y-103570000D01*
X118302000Y-102170000D02*
X118302000Y-103570000D01*
X116902000Y-102170000D02*
X118302000Y-102170000D01*
X105726000Y-103570000D02*
X105726000Y-102170000D01*
X107126000Y-103570000D02*
X105726000Y-103570000D01*
X107126000Y-102170000D02*
X107126000Y-103570000D01*
X105726000Y-102170000D02*
X107126000Y-102170000D01*
X108520000Y-103570000D02*
X108520000Y-102170000D01*
X109920000Y-103570000D02*
X108520000Y-103570000D01*
X109920000Y-102170000D02*
X109920000Y-103570000D01*
X108520000Y-102170000D02*
X109920000Y-102170000D01*
X119696000Y-103570000D02*
X119696000Y-102170000D01*
X121096000Y-103570000D02*
X119696000Y-103570000D01*
X121096000Y-102170000D02*
X121096000Y-103570000D01*
X119696000Y-102170000D02*
X121096000Y-102170000D01*
X114108000Y-103570000D02*
X114108000Y-102170000D01*
X115508000Y-103570000D02*
X114108000Y-103570000D01*
X115508000Y-102170000D02*
X115508000Y-103570000D01*
X114108000Y-102170000D02*
X115508000Y-102170000D01*
X122490000Y-103570000D02*
X122490000Y-102170000D01*
X123890000Y-103570000D02*
X122490000Y-103570000D01*
X123890000Y-102170000D02*
X123890000Y-103570000D01*
X122490000Y-102170000D02*
X123890000Y-102170000D01*
X132783733Y-142750000D02*
X133126267Y-142750000D01*
X132783733Y-141730000D02*
X133126267Y-141730000D01*
X151475000Y-125001496D02*
X151475000Y-125524000D01*
X154015000Y-125001496D02*
X154015000Y-125524000D01*
X113665000Y-117446496D02*
X113665000Y-117969000D01*
X116205000Y-117446496D02*
X116205000Y-117969000D01*
X120240733Y-122824000D02*
X120583267Y-122824000D01*
X120240733Y-121804000D02*
X120583267Y-121804000D01*
D11*
X155300000Y-131790000D02*
X155300000Y-133190000D01*
X160400000Y-131790000D02*
X160400000Y-127640000D01*
X155250000Y-131790000D02*
X155250000Y-127640000D01*
X160400000Y-131790000D02*
X160255000Y-131790000D01*
X160400000Y-127640000D02*
X160255000Y-127640000D01*
X155250000Y-127640000D02*
X155395000Y-127640000D01*
X155250000Y-131790000D02*
X155300000Y-131790000D01*
D15*
X116643000Y-117604000D02*
X116643000Y-120554000D01*
X119863000Y-119404000D02*
X119863000Y-117604000D01*
X122430000Y-114471267D02*
X122430000Y-114128733D01*
X121410000Y-114471267D02*
X121410000Y-114128733D01*
X157700000Y-115521267D02*
X157700000Y-115178733D01*
X156680000Y-115521267D02*
X156680000Y-115178733D01*
X158585000Y-115178733D02*
X158585000Y-115521267D01*
X159605000Y-115178733D02*
X159605000Y-115521267D01*
X158048733Y-113080000D02*
X158391267Y-113080000D01*
X158048733Y-112060000D02*
X158391267Y-112060000D01*
X156970000Y-122778733D02*
X156970000Y-123121267D01*
X157990000Y-122778733D02*
X157990000Y-123121267D01*
X162733733Y-135130000D02*
X163076267Y-135130000D01*
X162733733Y-134110000D02*
X163076267Y-134110000D01*
X158453733Y-135130000D02*
X158796267Y-135130000D01*
X158453733Y-134110000D02*
X158796267Y-134110000D01*
X132783733Y-144655000D02*
X133126267Y-144655000D01*
X132783733Y-143635000D02*
X133126267Y-143635000D01*
X130685000Y-143441267D02*
X130685000Y-143098733D01*
X129665000Y-143441267D02*
X129665000Y-143098733D01*
X115652733Y-115572000D02*
X115995267Y-115572000D01*
X115652733Y-114552000D02*
X115995267Y-114552000D01*
X119410267Y-114552000D02*
X119067733Y-114552000D01*
X119410267Y-115572000D02*
X119067733Y-115572000D01*
X128670000Y-139965000D02*
X128670000Y-133955000D01*
X135490000Y-137715000D02*
X135490000Y-133955000D01*
X128670000Y-133955000D02*
X129930000Y-133955000D01*
X135490000Y-133955000D02*
X134230000Y-133955000D01*
X122664000Y-136428000D02*
X119464000Y-136428000D01*
X122664000Y-125828000D02*
X122664000Y-136428000D01*
X119464000Y-125828000D02*
X122664000Y-125828000D01*
X112064000Y-125828000D02*
X115264000Y-125828000D01*
X112064000Y-136428000D02*
X112064000Y-125828000D01*
X115264000Y-136428000D02*
X112064000Y-136428000D01*
X139825000Y-122950000D02*
X139825000Y-119750000D01*
X150425000Y-122950000D02*
X139825000Y-122950000D01*
X150425000Y-119750000D02*
X150425000Y-122950000D01*
X150425000Y-112350000D02*
X150425000Y-115550000D01*
X139825000Y-112350000D02*
X150425000Y-112350000D01*
X139825000Y-115550000D02*
X139825000Y-112350000D01*
X97141744Y-111093530D02*
X92441744Y-111922267D01*
X97141744Y-126826470D02*
X92441744Y-125997733D01*
X91070000Y-113557048D02*
X91070000Y-124362952D01*
X99090000Y-112728311D02*
X99090000Y-125191689D01*
X101851325Y-124500000D02*
X102284338Y-124250000D01*
X102284338Y-124750000D02*
X101851325Y-124500000D01*
X102284338Y-124250000D02*
X102284338Y-124750000D01*
X89830000Y-103475000D02*
X100330000Y-103475000D01*
X88770000Y-133385000D02*
X88770000Y-104535000D01*
X100330000Y-134445000D02*
X89830000Y-134445000D01*
X101390000Y-104535000D02*
X101390000Y-133385000D01*
X92441744Y-125997733D02*
G75*
G02X91070000Y-124362952I288256J1634781D01*
G01*
X92441744Y-111922267D02*
G75*
G03X91070000Y-113557048I288256J-1634781D01*
G01*
X97141744Y-126826470D02*
G75*
G03X99090000Y-125191689I288256J1634781D01*
G01*
X97141744Y-111093530D02*
G75*
G02X99090000Y-112728311I288256J-1634781D01*
G01*
X88770000Y-133385000D02*
G75*
G03X89830000Y-134445000I1060000J0D01*
G01*
X88770000Y-104535000D02*
G75*
G02X89830000Y-103475000I1060000J0D01*
G01*
X100330000Y-134445000D02*
G75*
G03X101390000Y-133385000I0J1060000D01*
G01*
X101390000Y-104535000D02*
G75*
G03X100330000Y-103475000I-1060000J0D01*
G01*
X101670000Y-137670000D02*
X103000000Y-137670000D01*
X101670000Y-139000000D02*
X101670000Y-137670000D01*
X104270000Y-137670000D02*
X106870000Y-137670000D01*
X104270000Y-140270000D02*
X104270000Y-137670000D01*
X101670000Y-140270000D02*
X104270000Y-140270000D01*
X106870000Y-137670000D02*
X106870000Y-150490000D01*
X101670000Y-140270000D02*
X101670000Y-150490000D01*
X101670000Y-150490000D02*
X106870000Y-150490000D01*
X128100000Y-159430000D02*
X128100000Y-158130000D01*
X135500000Y-159430000D02*
X128100000Y-159430000D01*
X135500000Y-159430000D02*
X135500000Y-158130000D01*
X150840000Y-123533000D02*
X150840000Y-127433000D01*
X148300000Y-123533000D02*
X148300000Y-127433000D01*
X150840000Y-123533000D02*
X148300000Y-123533000D01*
X103230000Y-119212000D02*
X103230000Y-115312000D01*
X105770000Y-119212000D02*
X105770000Y-115312000D01*
X103230000Y-119212000D02*
X105770000Y-119212000D01*
X131515000Y-112845436D02*
X131515000Y-114049564D01*
X133335000Y-112845436D02*
X133335000Y-114049564D01*
X136510000Y-114049564D02*
X136510000Y-112845436D01*
X134690000Y-114049564D02*
X134690000Y-112845436D01*
X121329936Y-140734000D02*
X122534064Y-140734000D01*
X121329936Y-138914000D02*
X122534064Y-138914000D01*
X113861564Y-138914000D02*
X112657436Y-138914000D01*
X113861564Y-140734000D02*
X112657436Y-140734000D01*
X129026267Y-117140000D02*
X128683733Y-117140000D01*
X129026267Y-118160000D02*
X128683733Y-118160000D01*
X133335000Y-122739564D02*
X133335000Y-121535436D01*
X131515000Y-122739564D02*
X131515000Y-121535436D01*
X134690000Y-121535436D02*
X134690000Y-122739564D01*
X136510000Y-121535436D02*
X136510000Y-122739564D01*
X160296267Y-119680000D02*
X159953733Y-119680000D01*
X160296267Y-120700000D02*
X159953733Y-120700000D01*
X160296267Y-121585000D02*
X159953733Y-121585000D01*
X160296267Y-122605000D02*
X159953733Y-122605000D01*
X162733733Y-133225000D02*
X163076267Y-133225000D01*
X162733733Y-132205000D02*
X163076267Y-132205000D01*
X154296267Y-133983000D02*
X153953733Y-133983000D01*
X154296267Y-135003000D02*
X153953733Y-135003000D01*
X124420000Y-119396252D02*
X124420000Y-118873748D01*
X123000000Y-119396252D02*
X123000000Y-118873748D01*
X121995000Y-119396252D02*
X121995000Y-118873748D01*
X120575000Y-119396252D02*
X120575000Y-118873748D01*
D11*
X140421666Y-137920561D02*
X140564523Y-137968180D01*
X140802619Y-137968180D01*
X140897857Y-137920561D01*
X140945476Y-137872942D01*
X140993095Y-137777704D01*
X140993095Y-137682466D01*
X140945476Y-137587228D01*
X140897857Y-137539609D01*
X140802619Y-137491990D01*
X140612142Y-137444371D01*
X140516904Y-137396752D01*
X140469285Y-137349133D01*
X140421666Y-137253895D01*
X140421666Y-137158657D01*
X140469285Y-137063419D01*
X140516904Y-137015800D01*
X140612142Y-136968180D01*
X140850238Y-136968180D01*
X140993095Y-137015800D01*
X141326428Y-136968180D02*
X141564523Y-137968180D01*
X141755000Y-137253895D01*
X141945476Y-137968180D01*
X142183571Y-136968180D01*
X143088333Y-137968180D02*
X142516904Y-137968180D01*
X142802619Y-137968180D02*
X142802619Y-136968180D01*
X142707380Y-137111038D01*
X142612142Y-137206276D01*
X142516904Y-137253895D01*
X111466380Y-101527261D02*
X111466380Y-100955833D01*
X112466380Y-101241547D02*
X111466380Y-101241547D01*
X112466380Y-100622500D02*
X111466380Y-100622500D01*
X111466380Y-100241547D01*
X111514000Y-100146309D01*
X111561619Y-100098690D01*
X111656857Y-100051071D01*
X111799714Y-100051071D01*
X111894952Y-100098690D01*
X111942571Y-100146309D01*
X111990190Y-100241547D01*
X111990190Y-100622500D01*
X112466380Y-99098690D02*
X112466380Y-99670119D01*
X112466380Y-99384404D02*
X111466380Y-99384404D01*
X111609238Y-99479642D01*
X111704476Y-99574880D01*
X111752095Y-99670119D01*
X112085428Y-114974642D02*
X112085428Y-114212738D01*
X112466380Y-114593690D02*
X111704476Y-114593690D01*
X112466380Y-113212738D02*
X112466380Y-113784166D01*
X112466380Y-113498452D02*
X111466380Y-113498452D01*
X111609238Y-113593690D01*
X111704476Y-113688928D01*
X111752095Y-113784166D01*
X111561619Y-112831785D02*
X111514000Y-112784166D01*
X111466380Y-112688928D01*
X111466380Y-112450833D01*
X111514000Y-112355595D01*
X111561619Y-112307976D01*
X111656857Y-112260357D01*
X111752095Y-112260357D01*
X111894952Y-112307976D01*
X112466380Y-112879404D01*
X112466380Y-112260357D01*
X111466380Y-111974642D02*
X112466380Y-111641309D01*
X111466380Y-111307976D01*
X112466380Y-110498452D02*
X112466380Y-110974642D01*
X111466380Y-110974642D01*
X111418761Y-109450833D02*
X112704476Y-110307976D01*
X111466380Y-108927023D02*
X111466380Y-108736547D01*
X111514000Y-108641309D01*
X111609238Y-108546071D01*
X111799714Y-108498452D01*
X112133047Y-108498452D01*
X112323523Y-108546071D01*
X112418761Y-108641309D01*
X112466380Y-108736547D01*
X112466380Y-108927023D01*
X112418761Y-109022261D01*
X112323523Y-109117500D01*
X112133047Y-109165119D01*
X111799714Y-109165119D01*
X111609238Y-109117500D01*
X111514000Y-109022261D01*
X111466380Y-108927023D01*
X112466380Y-108069880D02*
X111799714Y-108069880D01*
X111990190Y-108069880D02*
X111894952Y-108022261D01*
X111847333Y-107974642D01*
X111799714Y-107879404D01*
X111799714Y-107784166D01*
X112466380Y-107022261D02*
X111942571Y-107022261D01*
X111847333Y-107069880D01*
X111799714Y-107165119D01*
X111799714Y-107355595D01*
X111847333Y-107450833D01*
X112418761Y-107022261D02*
X112466380Y-107117500D01*
X112466380Y-107355595D01*
X112418761Y-107450833D01*
X112323523Y-107498452D01*
X112228285Y-107498452D01*
X112133047Y-107450833D01*
X112085428Y-107355595D01*
X112085428Y-107117500D01*
X112037809Y-107022261D01*
X111799714Y-106546071D02*
X112466380Y-106546071D01*
X111894952Y-106546071D02*
X111847333Y-106498452D01*
X111799714Y-106403214D01*
X111799714Y-106260357D01*
X111847333Y-106165119D01*
X111942571Y-106117500D01*
X112466380Y-106117500D01*
X111799714Y-105212738D02*
X112609238Y-105212738D01*
X112704476Y-105260357D01*
X112752095Y-105307976D01*
X112799714Y-105403214D01*
X112799714Y-105546071D01*
X112752095Y-105641309D01*
X112418761Y-105212738D02*
X112466380Y-105307976D01*
X112466380Y-105498452D01*
X112418761Y-105593690D01*
X112371142Y-105641309D01*
X112275904Y-105688928D01*
X111990190Y-105688928D01*
X111894952Y-105641309D01*
X111847333Y-105593690D01*
X111799714Y-105498452D01*
X111799714Y-105307976D01*
X111847333Y-105212738D01*
X112418761Y-104355595D02*
X112466380Y-104450833D01*
X112466380Y-104641309D01*
X112418761Y-104736547D01*
X112323523Y-104784166D01*
X111942571Y-104784166D01*
X111847333Y-104736547D01*
X111799714Y-104641309D01*
X111799714Y-104450833D01*
X111847333Y-104355595D01*
X111942571Y-104307976D01*
X112037809Y-104307976D01*
X112133047Y-104784166D01*
X161758333Y-138152142D02*
X161710714Y-138199761D01*
X161567857Y-138247380D01*
X161472619Y-138247380D01*
X161329761Y-138199761D01*
X161234523Y-138104523D01*
X161186904Y-138009285D01*
X161139285Y-137818809D01*
X161139285Y-137675952D01*
X161186904Y-137485476D01*
X161234523Y-137390238D01*
X161329761Y-137295000D01*
X161472619Y-137247380D01*
X161567857Y-137247380D01*
X161710714Y-137295000D01*
X161758333Y-137342619D01*
X162091666Y-137247380D02*
X162758333Y-137247380D01*
X162329761Y-138247380D01*
X158595833Y-141962142D02*
X158548214Y-142009761D01*
X158405357Y-142057380D01*
X158310119Y-142057380D01*
X158167261Y-142009761D01*
X158072023Y-141914523D01*
X158024404Y-141819285D01*
X157976785Y-141628809D01*
X157976785Y-141485952D01*
X158024404Y-141295476D01*
X158072023Y-141200238D01*
X158167261Y-141105000D01*
X158310119Y-141057380D01*
X158405357Y-141057380D01*
X158548214Y-141105000D01*
X158595833Y-141152619D01*
X159452976Y-141390714D02*
X159452976Y-142057380D01*
X159214880Y-141009761D02*
X158976785Y-141724047D01*
X159595833Y-141724047D01*
X151133333Y-141457142D02*
X151085714Y-141504761D01*
X150942857Y-141552380D01*
X150847619Y-141552380D01*
X150704761Y-141504761D01*
X150609523Y-141409523D01*
X150561904Y-141314285D01*
X150514285Y-141123809D01*
X150514285Y-140980952D01*
X150561904Y-140790476D01*
X150609523Y-140695238D01*
X150704761Y-140600000D01*
X150847619Y-140552380D01*
X150942857Y-140552380D01*
X151085714Y-140600000D01*
X151133333Y-140647619D01*
X151466666Y-140552380D02*
X152085714Y-140552380D01*
X151752380Y-140933333D01*
X151895238Y-140933333D01*
X151990476Y-140980952D01*
X152038095Y-141028571D01*
X152085714Y-141123809D01*
X152085714Y-141361904D01*
X152038095Y-141457142D01*
X151990476Y-141504761D01*
X151895238Y-141552380D01*
X151609523Y-141552380D01*
X151514285Y-141504761D01*
X151466666Y-141457142D01*
X127776666Y-149292380D02*
X127443333Y-148816190D01*
X127205238Y-149292380D02*
X127205238Y-148292380D01*
X127586190Y-148292380D01*
X127681428Y-148340000D01*
X127729047Y-148387619D01*
X127776666Y-148482857D01*
X127776666Y-148625714D01*
X127729047Y-148720952D01*
X127681428Y-148768571D01*
X127586190Y-148816190D01*
X127205238Y-148816190D01*
X128205238Y-148768571D02*
X128538571Y-148768571D01*
X128681428Y-149292380D02*
X128205238Y-149292380D01*
X128205238Y-148292380D01*
X128681428Y-148292380D01*
X129443333Y-148768571D02*
X129110000Y-148768571D01*
X129110000Y-149292380D02*
X129110000Y-148292380D01*
X129586190Y-148292380D01*
X130110000Y-148292380D02*
X130110000Y-148530476D01*
X129871904Y-148435238D02*
X130110000Y-148530476D01*
X130348095Y-148435238D01*
X129967142Y-148720952D02*
X130110000Y-148530476D01*
X130252857Y-148720952D01*
X130871904Y-148292380D02*
X130871904Y-148530476D01*
X130633809Y-148435238D02*
X130871904Y-148530476D01*
X131110000Y-148435238D01*
X130729047Y-148720952D02*
X130871904Y-148530476D01*
X131014761Y-148720952D01*
X103084380Y-101788261D02*
X103084380Y-101216833D01*
X104084380Y-101502547D02*
X103084380Y-101502547D01*
X104084380Y-100883500D02*
X103084380Y-100883500D01*
X103084380Y-100502547D01*
X103132000Y-100407309D01*
X103179619Y-100359690D01*
X103274857Y-100312071D01*
X103417714Y-100312071D01*
X103512952Y-100359690D01*
X103560571Y-100407309D01*
X103608190Y-100502547D01*
X103608190Y-100883500D01*
X104084380Y-99359690D02*
X104084380Y-99931119D01*
X104084380Y-99645404D02*
X103084380Y-99645404D01*
X103227238Y-99740642D01*
X103322476Y-99835880D01*
X103370095Y-99931119D01*
X103179619Y-98978738D02*
X103132000Y-98931119D01*
X103084380Y-98835880D01*
X103084380Y-98597785D01*
X103132000Y-98502547D01*
X103179619Y-98454928D01*
X103274857Y-98407309D01*
X103370095Y-98407309D01*
X103512952Y-98454928D01*
X104084380Y-99026357D01*
X104084380Y-98407309D01*
X103132000Y-111688928D02*
X103084380Y-111784166D01*
X103084380Y-111927023D01*
X103132000Y-112069880D01*
X103227238Y-112165119D01*
X103322476Y-112212738D01*
X103512952Y-112260357D01*
X103655809Y-112260357D01*
X103846285Y-112212738D01*
X103941523Y-112165119D01*
X104036761Y-112069880D01*
X104084380Y-111927023D01*
X104084380Y-111831785D01*
X104036761Y-111688928D01*
X103989142Y-111641309D01*
X103655809Y-111641309D01*
X103655809Y-111831785D01*
X104084380Y-111212738D02*
X103084380Y-111212738D01*
X104084380Y-110641309D01*
X103084380Y-110641309D01*
X104084380Y-110165119D02*
X103084380Y-110165119D01*
X103084380Y-109927023D01*
X103132000Y-109784166D01*
X103227238Y-109688928D01*
X103322476Y-109641309D01*
X103512952Y-109593690D01*
X103655809Y-109593690D01*
X103846285Y-109641309D01*
X103941523Y-109688928D01*
X104036761Y-109784166D01*
X104084380Y-109927023D01*
X104084380Y-110165119D01*
X103036761Y-108450833D02*
X104322476Y-109307976D01*
X103132000Y-107593690D02*
X103084380Y-107688928D01*
X103084380Y-107831785D01*
X103132000Y-107974642D01*
X103227238Y-108069880D01*
X103322476Y-108117500D01*
X103512952Y-108165119D01*
X103655809Y-108165119D01*
X103846285Y-108117500D01*
X103941523Y-108069880D01*
X104036761Y-107974642D01*
X104084380Y-107831785D01*
X104084380Y-107736547D01*
X104036761Y-107593690D01*
X103989142Y-107546071D01*
X103655809Y-107546071D01*
X103655809Y-107736547D01*
X104084380Y-107117500D02*
X103417714Y-107117500D01*
X103608190Y-107117500D02*
X103512952Y-107069880D01*
X103465333Y-107022261D01*
X103417714Y-106927023D01*
X103417714Y-106831785D01*
X104036761Y-106117500D02*
X104084380Y-106212738D01*
X104084380Y-106403214D01*
X104036761Y-106498452D01*
X103941523Y-106546071D01*
X103560571Y-106546071D01*
X103465333Y-106498452D01*
X103417714Y-106403214D01*
X103417714Y-106212738D01*
X103465333Y-106117500D01*
X103560571Y-106069880D01*
X103655809Y-106069880D01*
X103751047Y-106546071D01*
X104036761Y-105260357D02*
X104084380Y-105355595D01*
X104084380Y-105546071D01*
X104036761Y-105641309D01*
X103941523Y-105688928D01*
X103560571Y-105688928D01*
X103465333Y-105641309D01*
X103417714Y-105546071D01*
X103417714Y-105355595D01*
X103465333Y-105260357D01*
X103560571Y-105212738D01*
X103655809Y-105212738D01*
X103751047Y-105688928D01*
X103417714Y-104784166D02*
X104084380Y-104784166D01*
X103512952Y-104784166D02*
X103465333Y-104736547D01*
X103417714Y-104641309D01*
X103417714Y-104498452D01*
X103465333Y-104403214D01*
X103560571Y-104355595D01*
X104084380Y-104355595D01*
X126452380Y-110671261D02*
X126452380Y-110099833D01*
X127452380Y-110385547D02*
X126452380Y-110385547D01*
X127452380Y-109766500D02*
X126452380Y-109766500D01*
X126452380Y-109385547D01*
X126500000Y-109290309D01*
X126547619Y-109242690D01*
X126642857Y-109195071D01*
X126785714Y-109195071D01*
X126880952Y-109242690D01*
X126928571Y-109290309D01*
X126976190Y-109385547D01*
X126976190Y-109766500D01*
X127452380Y-108242690D02*
X127452380Y-108814119D01*
X127452380Y-108528404D02*
X126452380Y-108528404D01*
X126595238Y-108623642D01*
X126690476Y-108718880D01*
X126738095Y-108814119D01*
X127452380Y-107290309D02*
X127452380Y-107861738D01*
X127452380Y-107576023D02*
X126452380Y-107576023D01*
X126595238Y-107671261D01*
X126690476Y-107766500D01*
X126738095Y-107861738D01*
X126500000Y-115547214D02*
X126452380Y-115642452D01*
X126452380Y-115785309D01*
X126500000Y-115928166D01*
X126595238Y-116023404D01*
X126690476Y-116071023D01*
X126880952Y-116118642D01*
X127023809Y-116118642D01*
X127214285Y-116071023D01*
X127309523Y-116023404D01*
X127404761Y-115928166D01*
X127452380Y-115785309D01*
X127452380Y-115690071D01*
X127404761Y-115547214D01*
X127357142Y-115499595D01*
X127023809Y-115499595D01*
X127023809Y-115690071D01*
X127452380Y-115071023D02*
X126452380Y-115071023D01*
X127452380Y-114499595D01*
X126452380Y-114499595D01*
X127452380Y-114023404D02*
X126452380Y-114023404D01*
X126452380Y-113785309D01*
X126500000Y-113642452D01*
X126595238Y-113547214D01*
X126690476Y-113499595D01*
X126880952Y-113451976D01*
X127023809Y-113451976D01*
X127214285Y-113499595D01*
X127309523Y-113547214D01*
X127404761Y-113642452D01*
X127452380Y-113785309D01*
X127452380Y-114023404D01*
X128992380Y-110671261D02*
X128992380Y-110099833D01*
X129992380Y-110385547D02*
X128992380Y-110385547D01*
X129992380Y-109766500D02*
X128992380Y-109766500D01*
X128992380Y-109385547D01*
X129040000Y-109290309D01*
X129087619Y-109242690D01*
X129182857Y-109195071D01*
X129325714Y-109195071D01*
X129420952Y-109242690D01*
X129468571Y-109290309D01*
X129516190Y-109385547D01*
X129516190Y-109766500D01*
X129992380Y-108242690D02*
X129992380Y-108814119D01*
X129992380Y-108528404D02*
X128992380Y-108528404D01*
X129135238Y-108623642D01*
X129230476Y-108718880D01*
X129278095Y-108814119D01*
X128992380Y-107623642D02*
X128992380Y-107528404D01*
X129040000Y-107433166D01*
X129087619Y-107385547D01*
X129182857Y-107337928D01*
X129373333Y-107290309D01*
X129611428Y-107290309D01*
X129801904Y-107337928D01*
X129897142Y-107385547D01*
X129944761Y-107433166D01*
X129992380Y-107528404D01*
X129992380Y-107623642D01*
X129944761Y-107718880D01*
X129897142Y-107766500D01*
X129801904Y-107814119D01*
X129611428Y-107861738D01*
X129373333Y-107861738D01*
X129182857Y-107814119D01*
X129087619Y-107766500D01*
X129040000Y-107718880D01*
X128992380Y-107623642D01*
X129611428Y-116071023D02*
X129611428Y-115309119D01*
X129992380Y-115690071D02*
X129230476Y-115690071D01*
X128992380Y-114356738D02*
X128992380Y-114832928D01*
X129468571Y-114880547D01*
X129420952Y-114832928D01*
X129373333Y-114737690D01*
X129373333Y-114499595D01*
X129420952Y-114404357D01*
X129468571Y-114356738D01*
X129563809Y-114309119D01*
X129801904Y-114309119D01*
X129897142Y-114356738D01*
X129944761Y-114404357D01*
X129992380Y-114499595D01*
X129992380Y-114737690D01*
X129944761Y-114832928D01*
X129897142Y-114880547D01*
X128992380Y-114023404D02*
X129992380Y-113690071D01*
X128992380Y-113356738D01*
X108672380Y-121847261D02*
X108672380Y-121275833D01*
X109672380Y-121561547D02*
X108672380Y-121561547D01*
X109672380Y-120942500D02*
X108672380Y-120942500D01*
X108672380Y-120561547D01*
X108720000Y-120466309D01*
X108767619Y-120418690D01*
X108862857Y-120371071D01*
X109005714Y-120371071D01*
X109100952Y-120418690D01*
X109148571Y-120466309D01*
X109196190Y-120561547D01*
X109196190Y-120942500D01*
X109672380Y-119894880D02*
X109672380Y-119704404D01*
X109624761Y-119609166D01*
X109577142Y-119561547D01*
X109434285Y-119466309D01*
X109243809Y-119418690D01*
X108862857Y-119418690D01*
X108767619Y-119466309D01*
X108720000Y-119513928D01*
X108672380Y-119609166D01*
X108672380Y-119799642D01*
X108720000Y-119894880D01*
X108767619Y-119942500D01*
X108862857Y-119990119D01*
X109100952Y-119990119D01*
X109196190Y-119942500D01*
X109243809Y-119894880D01*
X109291428Y-119799642D01*
X109291428Y-119609166D01*
X109243809Y-119513928D01*
X109196190Y-119466309D01*
X109100952Y-119418690D01*
X109291428Y-127247023D02*
X109291428Y-126485119D01*
X108672380Y-125532738D02*
X108672380Y-126008928D01*
X109148571Y-126056547D01*
X109100952Y-126008928D01*
X109053333Y-125913690D01*
X109053333Y-125675595D01*
X109100952Y-125580357D01*
X109148571Y-125532738D01*
X109243809Y-125485119D01*
X109481904Y-125485119D01*
X109577142Y-125532738D01*
X109624761Y-125580357D01*
X109672380Y-125675595D01*
X109672380Y-125913690D01*
X109624761Y-126008928D01*
X109577142Y-126056547D01*
X108672380Y-125199404D02*
X109672380Y-124866071D01*
X108672380Y-124532738D01*
X106132380Y-121847261D02*
X106132380Y-121275833D01*
X107132380Y-121561547D02*
X106132380Y-121561547D01*
X107132380Y-120942500D02*
X106132380Y-120942500D01*
X106132380Y-120561547D01*
X106180000Y-120466309D01*
X106227619Y-120418690D01*
X106322857Y-120371071D01*
X106465714Y-120371071D01*
X106560952Y-120418690D01*
X106608571Y-120466309D01*
X106656190Y-120561547D01*
X106656190Y-120942500D01*
X106560952Y-119799642D02*
X106513333Y-119894880D01*
X106465714Y-119942500D01*
X106370476Y-119990119D01*
X106322857Y-119990119D01*
X106227619Y-119942500D01*
X106180000Y-119894880D01*
X106132380Y-119799642D01*
X106132380Y-119609166D01*
X106180000Y-119513928D01*
X106227619Y-119466309D01*
X106322857Y-119418690D01*
X106370476Y-119418690D01*
X106465714Y-119466309D01*
X106513333Y-119513928D01*
X106560952Y-119609166D01*
X106560952Y-119799642D01*
X106608571Y-119894880D01*
X106656190Y-119942500D01*
X106751428Y-119990119D01*
X106941904Y-119990119D01*
X107037142Y-119942500D01*
X107084761Y-119894880D01*
X107132380Y-119799642D01*
X107132380Y-119609166D01*
X107084761Y-119513928D01*
X107037142Y-119466309D01*
X106941904Y-119418690D01*
X106751428Y-119418690D01*
X106656190Y-119466309D01*
X106608571Y-119513928D01*
X106560952Y-119609166D01*
X106180000Y-126723214D02*
X106132380Y-126818452D01*
X106132380Y-126961309D01*
X106180000Y-127104166D01*
X106275238Y-127199404D01*
X106370476Y-127247023D01*
X106560952Y-127294642D01*
X106703809Y-127294642D01*
X106894285Y-127247023D01*
X106989523Y-127199404D01*
X107084761Y-127104166D01*
X107132380Y-126961309D01*
X107132380Y-126866071D01*
X107084761Y-126723214D01*
X107037142Y-126675595D01*
X106703809Y-126675595D01*
X106703809Y-126866071D01*
X107132380Y-126247023D02*
X106132380Y-126247023D01*
X107132380Y-125675595D01*
X106132380Y-125675595D01*
X107132380Y-125199404D02*
X106132380Y-125199404D01*
X106132380Y-124961309D01*
X106180000Y-124818452D01*
X106275238Y-124723214D01*
X106370476Y-124675595D01*
X106560952Y-124627976D01*
X106703809Y-124627976D01*
X106894285Y-124675595D01*
X106989523Y-124723214D01*
X107084761Y-124818452D01*
X107132380Y-124961309D01*
X107132380Y-125199404D01*
X117054380Y-101527261D02*
X117054380Y-100955833D01*
X118054380Y-101241547D02*
X117054380Y-101241547D01*
X118054380Y-100622500D02*
X117054380Y-100622500D01*
X117054380Y-100241547D01*
X117102000Y-100146309D01*
X117149619Y-100098690D01*
X117244857Y-100051071D01*
X117387714Y-100051071D01*
X117482952Y-100098690D01*
X117530571Y-100146309D01*
X117578190Y-100241547D01*
X117578190Y-100622500D01*
X117054380Y-99717738D02*
X117054380Y-99051071D01*
X118054380Y-99479642D01*
X117673428Y-111260357D02*
X117673428Y-110498452D01*
X117054380Y-109546071D02*
X117054380Y-110022261D01*
X117530571Y-110069880D01*
X117482952Y-110022261D01*
X117435333Y-109927023D01*
X117435333Y-109688928D01*
X117482952Y-109593690D01*
X117530571Y-109546071D01*
X117625809Y-109498452D01*
X117863904Y-109498452D01*
X117959142Y-109546071D01*
X118006761Y-109593690D01*
X118054380Y-109688928D01*
X118054380Y-109927023D01*
X118006761Y-110022261D01*
X117959142Y-110069880D01*
X117054380Y-109212738D02*
X118054380Y-108879404D01*
X117054380Y-108546071D01*
X117006761Y-107498452D02*
X118292476Y-108355595D01*
X117530571Y-106831785D02*
X117578190Y-106688928D01*
X117625809Y-106641309D01*
X117721047Y-106593690D01*
X117863904Y-106593690D01*
X117959142Y-106641309D01*
X118006761Y-106688928D01*
X118054380Y-106784166D01*
X118054380Y-107165119D01*
X117054380Y-107165119D01*
X117054380Y-106831785D01*
X117102000Y-106736547D01*
X117149619Y-106688928D01*
X117244857Y-106641309D01*
X117340095Y-106641309D01*
X117435333Y-106688928D01*
X117482952Y-106736547D01*
X117530571Y-106831785D01*
X117530571Y-107165119D01*
X118054380Y-106022261D02*
X118006761Y-106117500D01*
X117911523Y-106165119D01*
X117054380Y-106165119D01*
X117387714Y-105212738D02*
X118054380Y-105212738D01*
X117387714Y-105641309D02*
X117911523Y-105641309D01*
X118006761Y-105593690D01*
X118054380Y-105498452D01*
X118054380Y-105355595D01*
X118006761Y-105260357D01*
X117959142Y-105212738D01*
X118006761Y-104355595D02*
X118054380Y-104450833D01*
X118054380Y-104641309D01*
X118006761Y-104736547D01*
X117911523Y-104784166D01*
X117530571Y-104784166D01*
X117435333Y-104736547D01*
X117387714Y-104641309D01*
X117387714Y-104450833D01*
X117435333Y-104355595D01*
X117530571Y-104307976D01*
X117625809Y-104307976D01*
X117721047Y-104784166D01*
X105878380Y-101527261D02*
X105878380Y-100955833D01*
X106878380Y-101241547D02*
X105878380Y-101241547D01*
X106878380Y-100622500D02*
X105878380Y-100622500D01*
X105878380Y-100241547D01*
X105926000Y-100146309D01*
X105973619Y-100098690D01*
X106068857Y-100051071D01*
X106211714Y-100051071D01*
X106306952Y-100098690D01*
X106354571Y-100146309D01*
X106402190Y-100241547D01*
X106402190Y-100622500D01*
X105878380Y-99193928D02*
X105878380Y-99384404D01*
X105926000Y-99479642D01*
X105973619Y-99527261D01*
X106116476Y-99622500D01*
X106306952Y-99670119D01*
X106687904Y-99670119D01*
X106783142Y-99622500D01*
X106830761Y-99574880D01*
X106878380Y-99479642D01*
X106878380Y-99289166D01*
X106830761Y-99193928D01*
X106783142Y-99146309D01*
X106687904Y-99098690D01*
X106449809Y-99098690D01*
X106354571Y-99146309D01*
X106306952Y-99193928D01*
X106259333Y-99289166D01*
X106259333Y-99479642D01*
X106306952Y-99574880D01*
X106354571Y-99622500D01*
X106449809Y-99670119D01*
X105926000Y-111688928D02*
X105878380Y-111784166D01*
X105878380Y-111927023D01*
X105926000Y-112069880D01*
X106021238Y-112165119D01*
X106116476Y-112212738D01*
X106306952Y-112260357D01*
X106449809Y-112260357D01*
X106640285Y-112212738D01*
X106735523Y-112165119D01*
X106830761Y-112069880D01*
X106878380Y-111927023D01*
X106878380Y-111831785D01*
X106830761Y-111688928D01*
X106783142Y-111641309D01*
X106449809Y-111641309D01*
X106449809Y-111831785D01*
X106878380Y-111212738D02*
X105878380Y-111212738D01*
X106878380Y-110641309D01*
X105878380Y-110641309D01*
X106878380Y-110165119D02*
X105878380Y-110165119D01*
X105878380Y-109927023D01*
X105926000Y-109784166D01*
X106021238Y-109688928D01*
X106116476Y-109641309D01*
X106306952Y-109593690D01*
X106449809Y-109593690D01*
X106640285Y-109641309D01*
X106735523Y-109688928D01*
X106830761Y-109784166D01*
X106878380Y-109927023D01*
X106878380Y-110165119D01*
X105830761Y-108450833D02*
X107116476Y-109307976D01*
X105926000Y-107593690D02*
X105878380Y-107688928D01*
X105878380Y-107831785D01*
X105926000Y-107974642D01*
X106021238Y-108069880D01*
X106116476Y-108117500D01*
X106306952Y-108165119D01*
X106449809Y-108165119D01*
X106640285Y-108117500D01*
X106735523Y-108069880D01*
X106830761Y-107974642D01*
X106878380Y-107831785D01*
X106878380Y-107736547D01*
X106830761Y-107593690D01*
X106783142Y-107546071D01*
X106449809Y-107546071D01*
X106449809Y-107736547D01*
X106878380Y-107117500D02*
X106211714Y-107117500D01*
X106402190Y-107117500D02*
X106306952Y-107069880D01*
X106259333Y-107022261D01*
X106211714Y-106927023D01*
X106211714Y-106831785D01*
X106830761Y-106117500D02*
X106878380Y-106212738D01*
X106878380Y-106403214D01*
X106830761Y-106498452D01*
X106735523Y-106546071D01*
X106354571Y-106546071D01*
X106259333Y-106498452D01*
X106211714Y-106403214D01*
X106211714Y-106212738D01*
X106259333Y-106117500D01*
X106354571Y-106069880D01*
X106449809Y-106069880D01*
X106545047Y-106546071D01*
X106830761Y-105260357D02*
X106878380Y-105355595D01*
X106878380Y-105546071D01*
X106830761Y-105641309D01*
X106735523Y-105688928D01*
X106354571Y-105688928D01*
X106259333Y-105641309D01*
X106211714Y-105546071D01*
X106211714Y-105355595D01*
X106259333Y-105260357D01*
X106354571Y-105212738D01*
X106449809Y-105212738D01*
X106545047Y-105688928D01*
X106211714Y-104784166D02*
X106878380Y-104784166D01*
X106306952Y-104784166D02*
X106259333Y-104736547D01*
X106211714Y-104641309D01*
X106211714Y-104498452D01*
X106259333Y-104403214D01*
X106354571Y-104355595D01*
X106878380Y-104355595D01*
X108672380Y-101527261D02*
X108672380Y-100955833D01*
X109672380Y-101241547D02*
X108672380Y-101241547D01*
X109672380Y-100622500D02*
X108672380Y-100622500D01*
X108672380Y-100241547D01*
X108720000Y-100146309D01*
X108767619Y-100098690D01*
X108862857Y-100051071D01*
X109005714Y-100051071D01*
X109100952Y-100098690D01*
X109148571Y-100146309D01*
X109196190Y-100241547D01*
X109196190Y-100622500D01*
X108672380Y-99146309D02*
X108672380Y-99622500D01*
X109148571Y-99670119D01*
X109100952Y-99622500D01*
X109053333Y-99527261D01*
X109053333Y-99289166D01*
X109100952Y-99193928D01*
X109148571Y-99146309D01*
X109243809Y-99098690D01*
X109481904Y-99098690D01*
X109577142Y-99146309D01*
X109624761Y-99193928D01*
X109672380Y-99289166D01*
X109672380Y-99527261D01*
X109624761Y-99622500D01*
X109577142Y-99670119D01*
X109291428Y-110736547D02*
X109291428Y-109974642D01*
X109672380Y-110355595D02*
X108910476Y-110355595D01*
X108672380Y-109022261D02*
X108672380Y-109498452D01*
X109148571Y-109546071D01*
X109100952Y-109498452D01*
X109053333Y-109403214D01*
X109053333Y-109165119D01*
X109100952Y-109069880D01*
X109148571Y-109022261D01*
X109243809Y-108974642D01*
X109481904Y-108974642D01*
X109577142Y-109022261D01*
X109624761Y-109069880D01*
X109672380Y-109165119D01*
X109672380Y-109403214D01*
X109624761Y-109498452D01*
X109577142Y-109546071D01*
X108672380Y-108688928D02*
X109672380Y-108355595D01*
X108672380Y-108022261D01*
X108624761Y-106974642D02*
X109910476Y-107831785D01*
X109672380Y-106069880D02*
X109196190Y-106403214D01*
X109672380Y-106641309D02*
X108672380Y-106641309D01*
X108672380Y-106260357D01*
X108720000Y-106165119D01*
X108767619Y-106117500D01*
X108862857Y-106069880D01*
X109005714Y-106069880D01*
X109100952Y-106117500D01*
X109148571Y-106165119D01*
X109196190Y-106260357D01*
X109196190Y-106641309D01*
X109624761Y-105260357D02*
X109672380Y-105355595D01*
X109672380Y-105546071D01*
X109624761Y-105641309D01*
X109529523Y-105688928D01*
X109148571Y-105688928D01*
X109053333Y-105641309D01*
X109005714Y-105546071D01*
X109005714Y-105355595D01*
X109053333Y-105260357D01*
X109148571Y-105212738D01*
X109243809Y-105212738D01*
X109339047Y-105688928D01*
X109672380Y-104355595D02*
X108672380Y-104355595D01*
X109624761Y-104355595D02*
X109672380Y-104450833D01*
X109672380Y-104641309D01*
X109624761Y-104736547D01*
X109577142Y-104784166D01*
X109481904Y-104831785D01*
X109196190Y-104831785D01*
X109100952Y-104784166D01*
X109053333Y-104736547D01*
X109005714Y-104641309D01*
X109005714Y-104450833D01*
X109053333Y-104355595D01*
X119848380Y-101527261D02*
X119848380Y-100955833D01*
X120848380Y-101241547D02*
X119848380Y-101241547D01*
X120848380Y-100622500D02*
X119848380Y-100622500D01*
X119848380Y-100241547D01*
X119896000Y-100146309D01*
X119943619Y-100098690D01*
X120038857Y-100051071D01*
X120181714Y-100051071D01*
X120276952Y-100098690D01*
X120324571Y-100146309D01*
X120372190Y-100241547D01*
X120372190Y-100622500D01*
X120181714Y-99193928D02*
X120848380Y-99193928D01*
X119800761Y-99432023D02*
X120515047Y-99670119D01*
X120515047Y-99051071D01*
X120848380Y-112879404D02*
X119848380Y-112879404D01*
X119848380Y-112641309D01*
X119896000Y-112498452D01*
X119991238Y-112403214D01*
X120086476Y-112355595D01*
X120276952Y-112307976D01*
X120419809Y-112307976D01*
X120610285Y-112355595D01*
X120705523Y-112403214D01*
X120800761Y-112498452D01*
X120848380Y-112641309D01*
X120848380Y-112879404D01*
X120562666Y-111927023D02*
X120562666Y-111450833D01*
X120848380Y-112022261D02*
X119848380Y-111688928D01*
X120848380Y-111355595D01*
X119848380Y-111165119D02*
X119848380Y-110593690D01*
X120848380Y-110879404D02*
X119848380Y-110879404D01*
X120562666Y-110307976D02*
X120562666Y-109831785D01*
X120848380Y-110403214D02*
X119848380Y-110069880D01*
X120848380Y-109736547D01*
X119800761Y-108688928D02*
X121086476Y-109546071D01*
X120324571Y-108022261D02*
X120372190Y-107879404D01*
X120419809Y-107831785D01*
X120515047Y-107784166D01*
X120657904Y-107784166D01*
X120753142Y-107831785D01*
X120800761Y-107879404D01*
X120848380Y-107974642D01*
X120848380Y-108355595D01*
X119848380Y-108355595D01*
X119848380Y-108022261D01*
X119896000Y-107927023D01*
X119943619Y-107879404D01*
X120038857Y-107831785D01*
X120134095Y-107831785D01*
X120229333Y-107879404D01*
X120276952Y-107927023D01*
X120324571Y-108022261D01*
X120324571Y-108355595D01*
X120848380Y-107355595D02*
X120181714Y-107355595D01*
X120372190Y-107355595D02*
X120276952Y-107307976D01*
X120229333Y-107260357D01*
X120181714Y-107165119D01*
X120181714Y-107069880D01*
X120848380Y-106593690D02*
X120800761Y-106688928D01*
X120753142Y-106736547D01*
X120657904Y-106784166D01*
X120372190Y-106784166D01*
X120276952Y-106736547D01*
X120229333Y-106688928D01*
X120181714Y-106593690D01*
X120181714Y-106450833D01*
X120229333Y-106355595D01*
X120276952Y-106307976D01*
X120372190Y-106260357D01*
X120657904Y-106260357D01*
X120753142Y-106307976D01*
X120800761Y-106355595D01*
X120848380Y-106450833D01*
X120848380Y-106593690D01*
X120181714Y-105927023D02*
X120848380Y-105736547D01*
X120372190Y-105546071D01*
X120848380Y-105355595D01*
X120181714Y-105165119D01*
X120181714Y-104784166D02*
X120848380Y-104784166D01*
X120276952Y-104784166D02*
X120229333Y-104736547D01*
X120181714Y-104641309D01*
X120181714Y-104498452D01*
X120229333Y-104403214D01*
X120324571Y-104355595D01*
X120848380Y-104355595D01*
X114260380Y-101527261D02*
X114260380Y-100955833D01*
X115260380Y-101241547D02*
X114260380Y-101241547D01*
X115260380Y-100622500D02*
X114260380Y-100622500D01*
X114260380Y-100241547D01*
X114308000Y-100146309D01*
X114355619Y-100098690D01*
X114450857Y-100051071D01*
X114593714Y-100051071D01*
X114688952Y-100098690D01*
X114736571Y-100146309D01*
X114784190Y-100241547D01*
X114784190Y-100622500D01*
X114260380Y-99717738D02*
X114260380Y-99098690D01*
X114641333Y-99432023D01*
X114641333Y-99289166D01*
X114688952Y-99193928D01*
X114736571Y-99146309D01*
X114831809Y-99098690D01*
X115069904Y-99098690D01*
X115165142Y-99146309D01*
X115212761Y-99193928D01*
X115260380Y-99289166D01*
X115260380Y-99574880D01*
X115212761Y-99670119D01*
X115165142Y-99717738D01*
X114879428Y-114117500D02*
X114879428Y-113355595D01*
X115260380Y-113736547D02*
X114498476Y-113736547D01*
X115260380Y-112355595D02*
X115260380Y-112927023D01*
X115260380Y-112641309D02*
X114260380Y-112641309D01*
X114403238Y-112736547D01*
X114498476Y-112831785D01*
X114546095Y-112927023D01*
X114355619Y-111974642D02*
X114308000Y-111927023D01*
X114260380Y-111831785D01*
X114260380Y-111593690D01*
X114308000Y-111498452D01*
X114355619Y-111450833D01*
X114450857Y-111403214D01*
X114546095Y-111403214D01*
X114688952Y-111450833D01*
X115260380Y-112022261D01*
X115260380Y-111403214D01*
X114260380Y-111117500D02*
X115260380Y-110784166D01*
X114260380Y-110450833D01*
X115260380Y-110117500D02*
X114260380Y-110117500D01*
X114212761Y-108927023D02*
X115498476Y-109784166D01*
X114784190Y-108403214D02*
X115260380Y-108403214D01*
X114260380Y-108736547D02*
X114784190Y-108403214D01*
X114260380Y-108069880D01*
X115212761Y-107355595D02*
X115260380Y-107450833D01*
X115260380Y-107641309D01*
X115212761Y-107736547D01*
X115117523Y-107784166D01*
X114736571Y-107784166D01*
X114641333Y-107736547D01*
X114593714Y-107641309D01*
X114593714Y-107450833D01*
X114641333Y-107355595D01*
X114736571Y-107307976D01*
X114831809Y-107307976D01*
X114927047Y-107784166D01*
X115260380Y-106736547D02*
X115212761Y-106831785D01*
X115117523Y-106879404D01*
X114260380Y-106879404D01*
X115260380Y-106212738D02*
X115212761Y-106307976D01*
X115117523Y-106355595D01*
X114260380Y-106355595D01*
X115260380Y-105688928D02*
X115212761Y-105784166D01*
X115165142Y-105831785D01*
X115069904Y-105879404D01*
X114784190Y-105879404D01*
X114688952Y-105831785D01*
X114641333Y-105784166D01*
X114593714Y-105688928D01*
X114593714Y-105546071D01*
X114641333Y-105450833D01*
X114688952Y-105403214D01*
X114784190Y-105355595D01*
X115069904Y-105355595D01*
X115165142Y-105403214D01*
X115212761Y-105450833D01*
X115260380Y-105546071D01*
X115260380Y-105688928D01*
X114593714Y-105022261D02*
X115260380Y-104831785D01*
X114784190Y-104641309D01*
X115260380Y-104450833D01*
X114593714Y-104260357D01*
X122642380Y-101527261D02*
X122642380Y-100955833D01*
X123642380Y-101241547D02*
X122642380Y-101241547D01*
X123642380Y-100622500D02*
X122642380Y-100622500D01*
X122642380Y-100241547D01*
X122690000Y-100146309D01*
X122737619Y-100098690D01*
X122832857Y-100051071D01*
X122975714Y-100051071D01*
X123070952Y-100098690D01*
X123118571Y-100146309D01*
X123166190Y-100241547D01*
X123166190Y-100622500D01*
X122737619Y-99670119D02*
X122690000Y-99622500D01*
X122642380Y-99527261D01*
X122642380Y-99289166D01*
X122690000Y-99193928D01*
X122737619Y-99146309D01*
X122832857Y-99098690D01*
X122928095Y-99098690D01*
X123070952Y-99146309D01*
X123642380Y-99717738D01*
X123642380Y-99098690D01*
X123642380Y-112974642D02*
X123166190Y-113307976D01*
X123642380Y-113546071D02*
X122642380Y-113546071D01*
X122642380Y-113165119D01*
X122690000Y-113069880D01*
X122737619Y-113022261D01*
X122832857Y-112974642D01*
X122975714Y-112974642D01*
X123070952Y-113022261D01*
X123118571Y-113069880D01*
X123166190Y-113165119D01*
X123166190Y-113546071D01*
X123118571Y-112546071D02*
X123118571Y-112212738D01*
X123642380Y-112069880D02*
X123642380Y-112546071D01*
X122642380Y-112546071D01*
X122642380Y-112069880D01*
X123594761Y-111688928D02*
X123642380Y-111546071D01*
X123642380Y-111307976D01*
X123594761Y-111212738D01*
X123547142Y-111165119D01*
X123451904Y-111117500D01*
X123356666Y-111117500D01*
X123261428Y-111165119D01*
X123213809Y-111212738D01*
X123166190Y-111307976D01*
X123118571Y-111498452D01*
X123070952Y-111593690D01*
X123023333Y-111641309D01*
X122928095Y-111688928D01*
X122832857Y-111688928D01*
X122737619Y-111641309D01*
X122690000Y-111593690D01*
X122642380Y-111498452D01*
X122642380Y-111260357D01*
X122690000Y-111117500D01*
X123118571Y-110688928D02*
X123118571Y-110355595D01*
X123642380Y-110212738D02*
X123642380Y-110688928D01*
X122642380Y-110688928D01*
X122642380Y-110212738D01*
X122642380Y-109927023D02*
X122642380Y-109355595D01*
X123642380Y-109641309D02*
X122642380Y-109641309D01*
X122594761Y-108307976D02*
X123880476Y-109165119D01*
X123118571Y-107641309D02*
X123166190Y-107498452D01*
X123213809Y-107450833D01*
X123309047Y-107403214D01*
X123451904Y-107403214D01*
X123547142Y-107450833D01*
X123594761Y-107498452D01*
X123642380Y-107593690D01*
X123642380Y-107974642D01*
X122642380Y-107974642D01*
X122642380Y-107641309D01*
X122690000Y-107546071D01*
X122737619Y-107498452D01*
X122832857Y-107450833D01*
X122928095Y-107450833D01*
X123023333Y-107498452D01*
X123070952Y-107546071D01*
X123118571Y-107641309D01*
X123118571Y-107974642D01*
X123642380Y-106831785D02*
X123594761Y-106927023D01*
X123499523Y-106974642D01*
X122642380Y-106974642D01*
X123642380Y-106022261D02*
X123118571Y-106022261D01*
X123023333Y-106069880D01*
X122975714Y-106165119D01*
X122975714Y-106355595D01*
X123023333Y-106450833D01*
X123594761Y-106022261D02*
X123642380Y-106117500D01*
X123642380Y-106355595D01*
X123594761Y-106450833D01*
X123499523Y-106498452D01*
X123404285Y-106498452D01*
X123309047Y-106450833D01*
X123261428Y-106355595D01*
X123261428Y-106117500D01*
X123213809Y-106022261D01*
X123594761Y-105117500D02*
X123642380Y-105212738D01*
X123642380Y-105403214D01*
X123594761Y-105498452D01*
X123547142Y-105546071D01*
X123451904Y-105593690D01*
X123166190Y-105593690D01*
X123070952Y-105546071D01*
X123023333Y-105498452D01*
X122975714Y-105403214D01*
X122975714Y-105212738D01*
X123023333Y-105117500D01*
X123642380Y-104688928D02*
X122642380Y-104688928D01*
X123261428Y-104593690D02*
X123642380Y-104307976D01*
X122975714Y-104307976D02*
X123356666Y-104688928D01*
X132312142Y-141167142D02*
X132264523Y-141214761D01*
X132121666Y-141262380D01*
X132026428Y-141262380D01*
X131883571Y-141214761D01*
X131788333Y-141119523D01*
X131740714Y-141024285D01*
X131693095Y-140833809D01*
X131693095Y-140690952D01*
X131740714Y-140500476D01*
X131788333Y-140405238D01*
X131883571Y-140310000D01*
X132026428Y-140262380D01*
X132121666Y-140262380D01*
X132264523Y-140310000D01*
X132312142Y-140357619D01*
X133264523Y-141262380D02*
X132693095Y-141262380D01*
X132978809Y-141262380D02*
X132978809Y-140262380D01*
X132883571Y-140405238D01*
X132788333Y-140500476D01*
X132693095Y-140548095D01*
X134121666Y-140262380D02*
X133931190Y-140262380D01*
X133835952Y-140310000D01*
X133788333Y-140357619D01*
X133693095Y-140500476D01*
X133645476Y-140690952D01*
X133645476Y-141071904D01*
X133693095Y-141167142D01*
X133740714Y-141214761D01*
X133835952Y-141262380D01*
X134026428Y-141262380D01*
X134121666Y-141214761D01*
X134169285Y-141167142D01*
X134216904Y-141071904D01*
X134216904Y-140833809D01*
X134169285Y-140738571D01*
X134121666Y-140690952D01*
X134026428Y-140643333D01*
X133835952Y-140643333D01*
X133740714Y-140690952D01*
X133693095Y-140738571D01*
X133645476Y-140833809D01*
X155388142Y-125436666D02*
X155435761Y-125484285D01*
X155483380Y-125627142D01*
X155483380Y-125722380D01*
X155435761Y-125865238D01*
X155340523Y-125960476D01*
X155245285Y-126008095D01*
X155054809Y-126055714D01*
X154911952Y-126055714D01*
X154721476Y-126008095D01*
X154626238Y-125960476D01*
X154531000Y-125865238D01*
X154483380Y-125722380D01*
X154483380Y-125627142D01*
X154531000Y-125484285D01*
X154578619Y-125436666D01*
X155483380Y-124960476D02*
X155483380Y-124770000D01*
X155435761Y-124674761D01*
X155388142Y-124627142D01*
X155245285Y-124531904D01*
X155054809Y-124484285D01*
X154673857Y-124484285D01*
X154578619Y-124531904D01*
X154531000Y-124579523D01*
X154483380Y-124674761D01*
X154483380Y-124865238D01*
X154531000Y-124960476D01*
X154578619Y-125008095D01*
X154673857Y-125055714D01*
X154911952Y-125055714D01*
X155007190Y-125008095D01*
X155054809Y-124960476D01*
X155102428Y-124865238D01*
X155102428Y-124674761D01*
X155054809Y-124579523D01*
X155007190Y-124531904D01*
X154911952Y-124484285D01*
X113260142Y-117881666D02*
X113307761Y-117929285D01*
X113355380Y-118072142D01*
X113355380Y-118167380D01*
X113307761Y-118310238D01*
X113212523Y-118405476D01*
X113117285Y-118453095D01*
X112926809Y-118500714D01*
X112783952Y-118500714D01*
X112593476Y-118453095D01*
X112498238Y-118405476D01*
X112403000Y-118310238D01*
X112355380Y-118167380D01*
X112355380Y-118072142D01*
X112403000Y-117929285D01*
X112450619Y-117881666D01*
X112355380Y-117024523D02*
X112355380Y-117215000D01*
X112403000Y-117310238D01*
X112450619Y-117357857D01*
X112593476Y-117453095D01*
X112783952Y-117500714D01*
X113164904Y-117500714D01*
X113260142Y-117453095D01*
X113307761Y-117405476D01*
X113355380Y-117310238D01*
X113355380Y-117119761D01*
X113307761Y-117024523D01*
X113260142Y-116976904D01*
X113164904Y-116929285D01*
X112926809Y-116929285D01*
X112831571Y-116976904D01*
X112783952Y-117024523D01*
X112736333Y-117119761D01*
X112736333Y-117310238D01*
X112783952Y-117405476D01*
X112831571Y-117453095D01*
X112926809Y-117500714D01*
X120245333Y-124195142D02*
X120197714Y-124242761D01*
X120054857Y-124290380D01*
X119959619Y-124290380D01*
X119816761Y-124242761D01*
X119721523Y-124147523D01*
X119673904Y-124052285D01*
X119626285Y-123861809D01*
X119626285Y-123718952D01*
X119673904Y-123528476D01*
X119721523Y-123433238D01*
X119816761Y-123338000D01*
X119959619Y-123290380D01*
X120054857Y-123290380D01*
X120197714Y-123338000D01*
X120245333Y-123385619D01*
X121150095Y-123290380D02*
X120673904Y-123290380D01*
X120626285Y-123766571D01*
X120673904Y-123718952D01*
X120769142Y-123671333D01*
X121007238Y-123671333D01*
X121102476Y-123718952D01*
X121150095Y-123766571D01*
X121197714Y-123861809D01*
X121197714Y-124099904D01*
X121150095Y-124195142D01*
X121102476Y-124242761D01*
X121007238Y-124290380D01*
X120769142Y-124290380D01*
X120673904Y-124242761D01*
X120626285Y-124195142D01*
X153777380Y-130476904D02*
X154586904Y-130476904D01*
X154682142Y-130429285D01*
X154729761Y-130381666D01*
X154777380Y-130286428D01*
X154777380Y-130095952D01*
X154729761Y-130000714D01*
X154682142Y-129953095D01*
X154586904Y-129905476D01*
X153777380Y-129905476D01*
X153872619Y-129476904D02*
X153825000Y-129429285D01*
X153777380Y-129334047D01*
X153777380Y-129095952D01*
X153825000Y-129000714D01*
X153872619Y-128953095D01*
X153967857Y-128905476D01*
X154063095Y-128905476D01*
X154205952Y-128953095D01*
X154777380Y-129524523D01*
X154777380Y-128905476D01*
X117070380Y-122821904D02*
X117879904Y-122821904D01*
X117975142Y-122774285D01*
X118022761Y-122726666D01*
X118070380Y-122631428D01*
X118070380Y-122440952D01*
X118022761Y-122345714D01*
X117975142Y-122298095D01*
X117879904Y-122250476D01*
X117070380Y-122250476D01*
X118070380Y-121250476D02*
X118070380Y-121821904D01*
X118070380Y-121536190D02*
X117070380Y-121536190D01*
X117213238Y-121631428D01*
X117308476Y-121726666D01*
X117356095Y-121821904D01*
X123896380Y-116466857D02*
X123420190Y-116800190D01*
X123896380Y-117038285D02*
X122896380Y-117038285D01*
X122896380Y-116657333D01*
X122944000Y-116562095D01*
X122991619Y-116514476D01*
X123086857Y-116466857D01*
X123229714Y-116466857D01*
X123324952Y-116514476D01*
X123372571Y-116562095D01*
X123420190Y-116657333D01*
X123420190Y-117038285D01*
X123896380Y-115514476D02*
X123896380Y-116085904D01*
X123896380Y-115800190D02*
X122896380Y-115800190D01*
X123039238Y-115895428D01*
X123134476Y-115990666D01*
X123182095Y-116085904D01*
X123896380Y-114562095D02*
X123896380Y-115133523D01*
X123896380Y-114847809D02*
X122896380Y-114847809D01*
X123039238Y-114943047D01*
X123134476Y-115038285D01*
X123182095Y-115133523D01*
X156212380Y-115992857D02*
X155736190Y-116326190D01*
X156212380Y-116564285D02*
X155212380Y-116564285D01*
X155212380Y-116183333D01*
X155260000Y-116088095D01*
X155307619Y-116040476D01*
X155402857Y-115992857D01*
X155545714Y-115992857D01*
X155640952Y-116040476D01*
X155688571Y-116088095D01*
X155736190Y-116183333D01*
X155736190Y-116564285D01*
X156212380Y-115040476D02*
X156212380Y-115611904D01*
X156212380Y-115326190D02*
X155212380Y-115326190D01*
X155355238Y-115421428D01*
X155450476Y-115516666D01*
X155498095Y-115611904D01*
X155212380Y-114421428D02*
X155212380Y-114326190D01*
X155260000Y-114230952D01*
X155307619Y-114183333D01*
X155402857Y-114135714D01*
X155593333Y-114088095D01*
X155831428Y-114088095D01*
X156021904Y-114135714D01*
X156117142Y-114183333D01*
X156164761Y-114230952D01*
X156212380Y-114326190D01*
X156212380Y-114421428D01*
X156164761Y-114516666D01*
X156117142Y-114564285D01*
X156021904Y-114611904D01*
X155831428Y-114659523D01*
X155593333Y-114659523D01*
X155402857Y-114611904D01*
X155307619Y-114564285D01*
X155260000Y-114516666D01*
X155212380Y-114421428D01*
X160977380Y-115516666D02*
X160501190Y-115850000D01*
X160977380Y-116088095D02*
X159977380Y-116088095D01*
X159977380Y-115707142D01*
X160025000Y-115611904D01*
X160072619Y-115564285D01*
X160167857Y-115516666D01*
X160310714Y-115516666D01*
X160405952Y-115564285D01*
X160453571Y-115611904D01*
X160501190Y-115707142D01*
X160501190Y-116088095D01*
X160977380Y-115040476D02*
X160977380Y-114850000D01*
X160929761Y-114754761D01*
X160882142Y-114707142D01*
X160739285Y-114611904D01*
X160548809Y-114564285D01*
X160167857Y-114564285D01*
X160072619Y-114611904D01*
X160025000Y-114659523D01*
X159977380Y-114754761D01*
X159977380Y-114945238D01*
X160025000Y-115040476D01*
X160072619Y-115088095D01*
X160167857Y-115135714D01*
X160405952Y-115135714D01*
X160501190Y-115088095D01*
X160548809Y-115040476D01*
X160596428Y-114945238D01*
X160596428Y-114754761D01*
X160548809Y-114659523D01*
X160501190Y-114611904D01*
X160405952Y-114564285D01*
X158053333Y-111592380D02*
X157720000Y-111116190D01*
X157481904Y-111592380D02*
X157481904Y-110592380D01*
X157862857Y-110592380D01*
X157958095Y-110640000D01*
X158005714Y-110687619D01*
X158053333Y-110782857D01*
X158053333Y-110925714D01*
X158005714Y-111020952D01*
X157958095Y-111068571D01*
X157862857Y-111116190D01*
X157481904Y-111116190D01*
X158624761Y-111020952D02*
X158529523Y-110973333D01*
X158481904Y-110925714D01*
X158434285Y-110830476D01*
X158434285Y-110782857D01*
X158481904Y-110687619D01*
X158529523Y-110640000D01*
X158624761Y-110592380D01*
X158815238Y-110592380D01*
X158910476Y-110640000D01*
X158958095Y-110687619D01*
X159005714Y-110782857D01*
X159005714Y-110830476D01*
X158958095Y-110925714D01*
X158910476Y-110973333D01*
X158815238Y-111020952D01*
X158624761Y-111020952D01*
X158529523Y-111068571D01*
X158481904Y-111116190D01*
X158434285Y-111211428D01*
X158434285Y-111401904D01*
X158481904Y-111497142D01*
X158529523Y-111544761D01*
X158624761Y-111592380D01*
X158815238Y-111592380D01*
X158910476Y-111544761D01*
X158958095Y-111497142D01*
X159005714Y-111401904D01*
X159005714Y-111211428D01*
X158958095Y-111116190D01*
X158910476Y-111068571D01*
X158815238Y-111020952D01*
X159362380Y-123116666D02*
X158886190Y-123450000D01*
X159362380Y-123688095D02*
X158362380Y-123688095D01*
X158362380Y-123307142D01*
X158410000Y-123211904D01*
X158457619Y-123164285D01*
X158552857Y-123116666D01*
X158695714Y-123116666D01*
X158790952Y-123164285D01*
X158838571Y-123211904D01*
X158886190Y-123307142D01*
X158886190Y-123688095D01*
X158362380Y-122783333D02*
X158362380Y-122116666D01*
X159362380Y-122545238D01*
X165568333Y-134897380D02*
X165235000Y-134421190D01*
X164996904Y-134897380D02*
X164996904Y-133897380D01*
X165377857Y-133897380D01*
X165473095Y-133945000D01*
X165520714Y-133992619D01*
X165568333Y-134087857D01*
X165568333Y-134230714D01*
X165520714Y-134325952D01*
X165473095Y-134373571D01*
X165377857Y-134421190D01*
X164996904Y-134421190D01*
X166425476Y-133897380D02*
X166235000Y-133897380D01*
X166139761Y-133945000D01*
X166092142Y-133992619D01*
X165996904Y-134135476D01*
X165949285Y-134325952D01*
X165949285Y-134706904D01*
X165996904Y-134802142D01*
X166044523Y-134849761D01*
X166139761Y-134897380D01*
X166330238Y-134897380D01*
X166425476Y-134849761D01*
X166473095Y-134802142D01*
X166520714Y-134706904D01*
X166520714Y-134468809D01*
X166473095Y-134373571D01*
X166425476Y-134325952D01*
X166330238Y-134278333D01*
X166139761Y-134278333D01*
X166044523Y-134325952D01*
X165996904Y-134373571D01*
X165949285Y-134468809D01*
X156857380Y-134786666D02*
X156381190Y-135120000D01*
X156857380Y-135358095D02*
X155857380Y-135358095D01*
X155857380Y-134977142D01*
X155905000Y-134881904D01*
X155952619Y-134834285D01*
X156047857Y-134786666D01*
X156190714Y-134786666D01*
X156285952Y-134834285D01*
X156333571Y-134881904D01*
X156381190Y-134977142D01*
X156381190Y-135358095D01*
X155857380Y-133881904D02*
X155857380Y-134358095D01*
X156333571Y-134405714D01*
X156285952Y-134358095D01*
X156238333Y-134262857D01*
X156238333Y-134024761D01*
X156285952Y-133929523D01*
X156333571Y-133881904D01*
X156428809Y-133834285D01*
X156666904Y-133834285D01*
X156762142Y-133881904D01*
X156809761Y-133929523D01*
X156857380Y-134024761D01*
X156857380Y-134262857D01*
X156809761Y-134358095D01*
X156762142Y-134405714D01*
X132788333Y-145867380D02*
X132455000Y-145391190D01*
X132216904Y-145867380D02*
X132216904Y-144867380D01*
X132597857Y-144867380D01*
X132693095Y-144915000D01*
X132740714Y-144962619D01*
X132788333Y-145057857D01*
X132788333Y-145200714D01*
X132740714Y-145295952D01*
X132693095Y-145343571D01*
X132597857Y-145391190D01*
X132216904Y-145391190D01*
X133645476Y-145200714D02*
X133645476Y-145867380D01*
X133407380Y-144819761D02*
X133169285Y-145534047D01*
X133788333Y-145534047D01*
X129197380Y-143436666D02*
X128721190Y-143770000D01*
X129197380Y-144008095D02*
X128197380Y-144008095D01*
X128197380Y-143627142D01*
X128245000Y-143531904D01*
X128292619Y-143484285D01*
X128387857Y-143436666D01*
X128530714Y-143436666D01*
X128625952Y-143484285D01*
X128673571Y-143531904D01*
X128721190Y-143627142D01*
X128721190Y-144008095D01*
X128197380Y-143103333D02*
X128197380Y-142484285D01*
X128578333Y-142817619D01*
X128578333Y-142674761D01*
X128625952Y-142579523D01*
X128673571Y-142531904D01*
X128768809Y-142484285D01*
X129006904Y-142484285D01*
X129102142Y-142531904D01*
X129149761Y-142579523D01*
X129197380Y-142674761D01*
X129197380Y-142960476D01*
X129149761Y-143055714D01*
X129102142Y-143103333D01*
X116292333Y-114084380D02*
X115959000Y-113608190D01*
X115720904Y-114084380D02*
X115720904Y-113084380D01*
X116101857Y-113084380D01*
X116197095Y-113132000D01*
X116244714Y-113179619D01*
X116292333Y-113274857D01*
X116292333Y-113417714D01*
X116244714Y-113512952D01*
X116197095Y-113560571D01*
X116101857Y-113608190D01*
X115720904Y-113608190D01*
X116673285Y-113179619D02*
X116720904Y-113132000D01*
X116816142Y-113084380D01*
X117054238Y-113084380D01*
X117149476Y-113132000D01*
X117197095Y-113179619D01*
X117244714Y-113274857D01*
X117244714Y-113370095D01*
X117197095Y-113512952D01*
X116625666Y-114084380D01*
X117244714Y-114084380D01*
X118324333Y-114117380D02*
X117991000Y-113641190D01*
X117752904Y-114117380D02*
X117752904Y-113117380D01*
X118133857Y-113117380D01*
X118229095Y-113165000D01*
X118276714Y-113212619D01*
X118324333Y-113307857D01*
X118324333Y-113450714D01*
X118276714Y-113545952D01*
X118229095Y-113593571D01*
X118133857Y-113641190D01*
X117752904Y-113641190D01*
X119276714Y-114117380D02*
X118705285Y-114117380D01*
X118991000Y-114117380D02*
X118991000Y-113117380D01*
X118895761Y-113260238D01*
X118800523Y-113355476D01*
X118705285Y-113403095D01*
X128127619Y-135960238D02*
X128080000Y-136055476D01*
X127984761Y-136150714D01*
X127841904Y-136293571D01*
X127794285Y-136388809D01*
X127794285Y-136484047D01*
X128032380Y-136436428D02*
X127984761Y-136531666D01*
X127889523Y-136626904D01*
X127699047Y-136674523D01*
X127365714Y-136674523D01*
X127175238Y-136626904D01*
X127080000Y-136531666D01*
X127032380Y-136436428D01*
X127032380Y-136245952D01*
X127080000Y-136150714D01*
X127175238Y-136055476D01*
X127365714Y-136007857D01*
X127699047Y-136007857D01*
X127889523Y-136055476D01*
X127984761Y-136150714D01*
X128032380Y-136245952D01*
X128032380Y-136436428D01*
X128032380Y-135055476D02*
X128032380Y-135626904D01*
X128032380Y-135341190D02*
X127032380Y-135341190D01*
X127175238Y-135436428D01*
X127270476Y-135531666D01*
X127318095Y-135626904D01*
X124166380Y-131294666D02*
X124166380Y-131770857D01*
X123166380Y-131770857D01*
X123261619Y-131008952D02*
X123214000Y-130961333D01*
X123166380Y-130866095D01*
X123166380Y-130628000D01*
X123214000Y-130532761D01*
X123261619Y-130485142D01*
X123356857Y-130437523D01*
X123452095Y-130437523D01*
X123594952Y-130485142D01*
X124166380Y-131056571D01*
X124166380Y-130437523D01*
X144958333Y-124452380D02*
X144482142Y-124452380D01*
X144482142Y-123452380D01*
X145815476Y-124452380D02*
X145244047Y-124452380D01*
X145529761Y-124452380D02*
X145529761Y-123452380D01*
X145434523Y-123595238D01*
X145339285Y-123690476D01*
X145244047Y-123738095D01*
X101842380Y-119293333D02*
X102556666Y-119293333D01*
X102699523Y-119340952D01*
X102794761Y-119436190D01*
X102842380Y-119579047D01*
X102842380Y-119674285D01*
X101842380Y-118912380D02*
X101842380Y-118293333D01*
X102223333Y-118626666D01*
X102223333Y-118483809D01*
X102270952Y-118388571D01*
X102318571Y-118340952D01*
X102413809Y-118293333D01*
X102651904Y-118293333D01*
X102747142Y-118340952D01*
X102794761Y-118388571D01*
X102842380Y-118483809D01*
X102842380Y-118769523D01*
X102794761Y-118864761D01*
X102747142Y-118912380D01*
X103936666Y-136122380D02*
X103936666Y-136836666D01*
X103889047Y-136979523D01*
X103793809Y-137074761D01*
X103650952Y-137122380D01*
X103555714Y-137122380D01*
X104365238Y-136217619D02*
X104412857Y-136170000D01*
X104508095Y-136122380D01*
X104746190Y-136122380D01*
X104841428Y-136170000D01*
X104889047Y-136217619D01*
X104936666Y-136312857D01*
X104936666Y-136408095D01*
X104889047Y-136550952D01*
X104317619Y-137122380D01*
X104936666Y-137122380D01*
X126031666Y-145632380D02*
X126031666Y-146346666D01*
X125984047Y-146489523D01*
X125888809Y-146584761D01*
X125745952Y-146632380D01*
X125650714Y-146632380D01*
X127031666Y-146632380D02*
X126460238Y-146632380D01*
X126745952Y-146632380D02*
X126745952Y-145632380D01*
X126650714Y-145775238D01*
X126555476Y-145870476D01*
X126460238Y-145918095D01*
X147772380Y-127573095D02*
X146772380Y-127573095D01*
X146772380Y-127335000D01*
X146820000Y-127192142D01*
X146915238Y-127096904D01*
X147010476Y-127049285D01*
X147200952Y-127001666D01*
X147343809Y-127001666D01*
X147534285Y-127049285D01*
X147629523Y-127096904D01*
X147724761Y-127192142D01*
X147772380Y-127335000D01*
X147772380Y-127573095D01*
X146867619Y-126620714D02*
X146820000Y-126573095D01*
X146772380Y-126477857D01*
X146772380Y-126239761D01*
X146820000Y-126144523D01*
X146867619Y-126096904D01*
X146962857Y-126049285D01*
X147058095Y-126049285D01*
X147200952Y-126096904D01*
X147772380Y-126668333D01*
X147772380Y-126049285D01*
X107767380Y-116648095D02*
X106767380Y-116648095D01*
X106767380Y-116410000D01*
X106815000Y-116267142D01*
X106910238Y-116171904D01*
X107005476Y-116124285D01*
X107195952Y-116076666D01*
X107338809Y-116076666D01*
X107529285Y-116124285D01*
X107624523Y-116171904D01*
X107719761Y-116267142D01*
X107767380Y-116410000D01*
X107767380Y-116648095D01*
X107767380Y-115124285D02*
X107767380Y-115695714D01*
X107767380Y-115410000D02*
X106767380Y-115410000D01*
X106910238Y-115505238D01*
X107005476Y-115600476D01*
X107053095Y-115695714D01*
X133072142Y-109862857D02*
X133119761Y-109910476D01*
X133167380Y-110053333D01*
X133167380Y-110148571D01*
X133119761Y-110291428D01*
X133024523Y-110386666D01*
X132929285Y-110434285D01*
X132738809Y-110481904D01*
X132595952Y-110481904D01*
X132405476Y-110434285D01*
X132310238Y-110386666D01*
X132215000Y-110291428D01*
X132167380Y-110148571D01*
X132167380Y-110053333D01*
X132215000Y-109910476D01*
X132262619Y-109862857D01*
X132262619Y-109481904D02*
X132215000Y-109434285D01*
X132167380Y-109339047D01*
X132167380Y-109100952D01*
X132215000Y-109005714D01*
X132262619Y-108958095D01*
X132357857Y-108910476D01*
X132453095Y-108910476D01*
X132595952Y-108958095D01*
X133167380Y-109529523D01*
X133167380Y-108910476D01*
X132167380Y-108291428D02*
X132167380Y-108196190D01*
X132215000Y-108100952D01*
X132262619Y-108053333D01*
X132357857Y-108005714D01*
X132548333Y-107958095D01*
X132786428Y-107958095D01*
X132976904Y-108005714D01*
X133072142Y-108053333D01*
X133119761Y-108100952D01*
X133167380Y-108196190D01*
X133167380Y-108291428D01*
X133119761Y-108386666D01*
X133072142Y-108434285D01*
X132976904Y-108481904D01*
X132786428Y-108529523D01*
X132548333Y-108529523D01*
X132357857Y-108481904D01*
X132262619Y-108434285D01*
X132215000Y-108386666D01*
X132167380Y-108291428D01*
X136247142Y-109862857D02*
X136294761Y-109910476D01*
X136342380Y-110053333D01*
X136342380Y-110148571D01*
X136294761Y-110291428D01*
X136199523Y-110386666D01*
X136104285Y-110434285D01*
X135913809Y-110481904D01*
X135770952Y-110481904D01*
X135580476Y-110434285D01*
X135485238Y-110386666D01*
X135390000Y-110291428D01*
X135342380Y-110148571D01*
X135342380Y-110053333D01*
X135390000Y-109910476D01*
X135437619Y-109862857D01*
X136342380Y-108910476D02*
X136342380Y-109481904D01*
X136342380Y-109196190D02*
X135342380Y-109196190D01*
X135485238Y-109291428D01*
X135580476Y-109386666D01*
X135628095Y-109481904D01*
X136342380Y-108434285D02*
X136342380Y-108243809D01*
X136294761Y-108148571D01*
X136247142Y-108100952D01*
X136104285Y-108005714D01*
X135913809Y-107958095D01*
X135532857Y-107958095D01*
X135437619Y-108005714D01*
X135390000Y-108053333D01*
X135342380Y-108148571D01*
X135342380Y-108339047D01*
X135390000Y-108434285D01*
X135437619Y-108481904D01*
X135532857Y-108529523D01*
X135770952Y-108529523D01*
X135866190Y-108481904D01*
X135913809Y-108434285D01*
X135961428Y-108339047D01*
X135961428Y-108148571D01*
X135913809Y-108053333D01*
X135866190Y-108005714D01*
X135770952Y-107958095D01*
X121277142Y-141962142D02*
X121229523Y-142009761D01*
X121086666Y-142057380D01*
X120991428Y-142057380D01*
X120848571Y-142009761D01*
X120753333Y-141914523D01*
X120705714Y-141819285D01*
X120658095Y-141628809D01*
X120658095Y-141485952D01*
X120705714Y-141295476D01*
X120753333Y-141200238D01*
X120848571Y-141105000D01*
X120991428Y-141057380D01*
X121086666Y-141057380D01*
X121229523Y-141105000D01*
X121277142Y-141152619D01*
X122229523Y-142057380D02*
X121658095Y-142057380D01*
X121943809Y-142057380D02*
X121943809Y-141057380D01*
X121848571Y-141200238D01*
X121753333Y-141295476D01*
X121658095Y-141343095D01*
X122800952Y-141485952D02*
X122705714Y-141438333D01*
X122658095Y-141390714D01*
X122610476Y-141295476D01*
X122610476Y-141247857D01*
X122658095Y-141152619D01*
X122705714Y-141105000D01*
X122800952Y-141057380D01*
X122991428Y-141057380D01*
X123086666Y-141105000D01*
X123134285Y-141152619D01*
X123181904Y-141247857D01*
X123181904Y-141295476D01*
X123134285Y-141390714D01*
X123086666Y-141438333D01*
X122991428Y-141485952D01*
X122800952Y-141485952D01*
X122705714Y-141533571D01*
X122658095Y-141581190D01*
X122610476Y-141676428D01*
X122610476Y-141866904D01*
X122658095Y-141962142D01*
X122705714Y-142009761D01*
X122800952Y-142057380D01*
X122991428Y-142057380D01*
X123086666Y-142009761D01*
X123134285Y-141962142D01*
X123181904Y-141866904D01*
X123181904Y-141676428D01*
X123134285Y-141581190D01*
X123086666Y-141533571D01*
X122991428Y-141485952D01*
X112616642Y-142001142D02*
X112569023Y-142048761D01*
X112426166Y-142096380D01*
X112330928Y-142096380D01*
X112188071Y-142048761D01*
X112092833Y-141953523D01*
X112045214Y-141858285D01*
X111997595Y-141667809D01*
X111997595Y-141524952D01*
X112045214Y-141334476D01*
X112092833Y-141239238D01*
X112188071Y-141144000D01*
X112330928Y-141096380D01*
X112426166Y-141096380D01*
X112569023Y-141144000D01*
X112616642Y-141191619D01*
X113569023Y-142096380D02*
X112997595Y-142096380D01*
X113283309Y-142096380D02*
X113283309Y-141096380D01*
X113188071Y-141239238D01*
X113092833Y-141334476D01*
X112997595Y-141382095D01*
X113902357Y-141096380D02*
X114569023Y-141096380D01*
X114140452Y-142096380D01*
X128212142Y-119437142D02*
X128164523Y-119484761D01*
X128021666Y-119532380D01*
X127926428Y-119532380D01*
X127783571Y-119484761D01*
X127688333Y-119389523D01*
X127640714Y-119294285D01*
X127593095Y-119103809D01*
X127593095Y-118960952D01*
X127640714Y-118770476D01*
X127688333Y-118675238D01*
X127783571Y-118580000D01*
X127926428Y-118532380D01*
X128021666Y-118532380D01*
X128164523Y-118580000D01*
X128212142Y-118627619D01*
X129164523Y-119532380D02*
X128593095Y-119532380D01*
X128878809Y-119532380D02*
X128878809Y-118532380D01*
X128783571Y-118675238D01*
X128688333Y-118770476D01*
X128593095Y-118818095D01*
X130069285Y-118532380D02*
X129593095Y-118532380D01*
X129545476Y-119008571D01*
X129593095Y-118960952D01*
X129688333Y-118913333D01*
X129926428Y-118913333D01*
X130021666Y-118960952D01*
X130069285Y-119008571D01*
X130116904Y-119103809D01*
X130116904Y-119341904D01*
X130069285Y-119437142D01*
X130021666Y-119484761D01*
X129926428Y-119532380D01*
X129688333Y-119532380D01*
X129593095Y-119484761D01*
X129545476Y-119437142D01*
X130962142Y-122780357D02*
X131009761Y-122827976D01*
X131057380Y-122970833D01*
X131057380Y-123066071D01*
X131009761Y-123208928D01*
X130914523Y-123304166D01*
X130819285Y-123351785D01*
X130628809Y-123399404D01*
X130485952Y-123399404D01*
X130295476Y-123351785D01*
X130200238Y-123304166D01*
X130105000Y-123208928D01*
X130057380Y-123066071D01*
X130057380Y-122970833D01*
X130105000Y-122827976D01*
X130152619Y-122780357D01*
X131057380Y-121827976D02*
X131057380Y-122399404D01*
X131057380Y-122113690D02*
X130057380Y-122113690D01*
X130200238Y-122208928D01*
X130295476Y-122304166D01*
X130343095Y-122399404D01*
X130390714Y-120970833D02*
X131057380Y-120970833D01*
X130009761Y-121208928D02*
X130724047Y-121447023D01*
X130724047Y-120827976D01*
X137777142Y-122780357D02*
X137824761Y-122827976D01*
X137872380Y-122970833D01*
X137872380Y-123066071D01*
X137824761Y-123208928D01*
X137729523Y-123304166D01*
X137634285Y-123351785D01*
X137443809Y-123399404D01*
X137300952Y-123399404D01*
X137110476Y-123351785D01*
X137015238Y-123304166D01*
X136920000Y-123208928D01*
X136872380Y-123066071D01*
X136872380Y-122970833D01*
X136920000Y-122827976D01*
X136967619Y-122780357D01*
X137872380Y-121827976D02*
X137872380Y-122399404D01*
X137872380Y-122113690D02*
X136872380Y-122113690D01*
X137015238Y-122208928D01*
X137110476Y-122304166D01*
X137158095Y-122399404D01*
X136872380Y-121494642D02*
X136872380Y-120875595D01*
X137253333Y-121208928D01*
X137253333Y-121066071D01*
X137300952Y-120970833D01*
X137348571Y-120923214D01*
X137443809Y-120875595D01*
X137681904Y-120875595D01*
X137777142Y-120923214D01*
X137824761Y-120970833D01*
X137872380Y-121066071D01*
X137872380Y-121351785D01*
X137824761Y-121447023D01*
X137777142Y-121494642D01*
X159482142Y-118642142D02*
X159434523Y-118689761D01*
X159291666Y-118737380D01*
X159196428Y-118737380D01*
X159053571Y-118689761D01*
X158958333Y-118594523D01*
X158910714Y-118499285D01*
X158863095Y-118308809D01*
X158863095Y-118165952D01*
X158910714Y-117975476D01*
X158958333Y-117880238D01*
X159053571Y-117785000D01*
X159196428Y-117737380D01*
X159291666Y-117737380D01*
X159434523Y-117785000D01*
X159482142Y-117832619D01*
X160434523Y-118737380D02*
X159863095Y-118737380D01*
X160148809Y-118737380D02*
X160148809Y-117737380D01*
X160053571Y-117880238D01*
X159958333Y-117975476D01*
X159863095Y-118023095D01*
X160815476Y-117832619D02*
X160863095Y-117785000D01*
X160958333Y-117737380D01*
X161196428Y-117737380D01*
X161291666Y-117785000D01*
X161339285Y-117832619D01*
X161386904Y-117927857D01*
X161386904Y-118023095D01*
X161339285Y-118165952D01*
X160767857Y-118737380D01*
X161386904Y-118737380D01*
X159482142Y-123882142D02*
X159434523Y-123929761D01*
X159291666Y-123977380D01*
X159196428Y-123977380D01*
X159053571Y-123929761D01*
X158958333Y-123834523D01*
X158910714Y-123739285D01*
X158863095Y-123548809D01*
X158863095Y-123405952D01*
X158910714Y-123215476D01*
X158958333Y-123120238D01*
X159053571Y-123025000D01*
X159196428Y-122977380D01*
X159291666Y-122977380D01*
X159434523Y-123025000D01*
X159482142Y-123072619D01*
X160434523Y-123977380D02*
X159863095Y-123977380D01*
X160148809Y-123977380D02*
X160148809Y-122977380D01*
X160053571Y-123120238D01*
X159958333Y-123215476D01*
X159863095Y-123263095D01*
X161386904Y-123977380D02*
X160815476Y-123977380D01*
X161101190Y-123977380D02*
X161101190Y-122977380D01*
X161005952Y-123120238D01*
X160910714Y-123215476D01*
X160815476Y-123263095D01*
X162262142Y-131642142D02*
X162214523Y-131689761D01*
X162071666Y-131737380D01*
X161976428Y-131737380D01*
X161833571Y-131689761D01*
X161738333Y-131594523D01*
X161690714Y-131499285D01*
X161643095Y-131308809D01*
X161643095Y-131165952D01*
X161690714Y-130975476D01*
X161738333Y-130880238D01*
X161833571Y-130785000D01*
X161976428Y-130737380D01*
X162071666Y-130737380D01*
X162214523Y-130785000D01*
X162262142Y-130832619D01*
X163214523Y-131737380D02*
X162643095Y-131737380D01*
X162928809Y-131737380D02*
X162928809Y-130737380D01*
X162833571Y-130880238D01*
X162738333Y-130975476D01*
X162643095Y-131023095D01*
X163833571Y-130737380D02*
X163928809Y-130737380D01*
X164024047Y-130785000D01*
X164071666Y-130832619D01*
X164119285Y-130927857D01*
X164166904Y-131118333D01*
X164166904Y-131356428D01*
X164119285Y-131546904D01*
X164071666Y-131642142D01*
X164024047Y-131689761D01*
X163928809Y-131737380D01*
X163833571Y-131737380D01*
X163738333Y-131689761D01*
X163690714Y-131642142D01*
X163643095Y-131546904D01*
X163595476Y-131356428D01*
X163595476Y-131118333D01*
X163643095Y-130927857D01*
X163690714Y-130832619D01*
X163738333Y-130785000D01*
X163833571Y-130737380D01*
X150963333Y-134720142D02*
X150915714Y-134767761D01*
X150772857Y-134815380D01*
X150677619Y-134815380D01*
X150534761Y-134767761D01*
X150439523Y-134672523D01*
X150391904Y-134577285D01*
X150344285Y-134386809D01*
X150344285Y-134243952D01*
X150391904Y-134053476D01*
X150439523Y-133958238D01*
X150534761Y-133863000D01*
X150677619Y-133815380D01*
X150772857Y-133815380D01*
X150915714Y-133863000D01*
X150963333Y-133910619D01*
X151534761Y-134243952D02*
X151439523Y-134196333D01*
X151391904Y-134148714D01*
X151344285Y-134053476D01*
X151344285Y-134005857D01*
X151391904Y-133910619D01*
X151439523Y-133863000D01*
X151534761Y-133815380D01*
X151725238Y-133815380D01*
X151820476Y-133863000D01*
X151868095Y-133910619D01*
X151915714Y-134005857D01*
X151915714Y-134053476D01*
X151868095Y-134148714D01*
X151820476Y-134196333D01*
X151725238Y-134243952D01*
X151534761Y-134243952D01*
X151439523Y-134291571D01*
X151391904Y-134339190D01*
X151344285Y-134434428D01*
X151344285Y-134624904D01*
X151391904Y-134720142D01*
X151439523Y-134767761D01*
X151534761Y-134815380D01*
X151725238Y-134815380D01*
X151820476Y-134767761D01*
X151868095Y-134720142D01*
X151915714Y-134624904D01*
X151915714Y-134434428D01*
X151868095Y-134339190D01*
X151820476Y-134291571D01*
X151725238Y-134243952D01*
X124436142Y-121959666D02*
X124483761Y-122007285D01*
X124531380Y-122150142D01*
X124531380Y-122245380D01*
X124483761Y-122388238D01*
X124388523Y-122483476D01*
X124293285Y-122531095D01*
X124102809Y-122578714D01*
X123959952Y-122578714D01*
X123769476Y-122531095D01*
X123674238Y-122483476D01*
X123579000Y-122388238D01*
X123531380Y-122245380D01*
X123531380Y-122150142D01*
X123579000Y-122007285D01*
X123626619Y-121959666D01*
X123626619Y-121578714D02*
X123579000Y-121531095D01*
X123531380Y-121435857D01*
X123531380Y-121197761D01*
X123579000Y-121102523D01*
X123626619Y-121054904D01*
X123721857Y-121007285D01*
X123817095Y-121007285D01*
X123959952Y-121054904D01*
X124531380Y-121626333D01*
X124531380Y-121007285D01*
X123039142Y-121959666D02*
X123086761Y-122007285D01*
X123134380Y-122150142D01*
X123134380Y-122245380D01*
X123086761Y-122388238D01*
X122991523Y-122483476D01*
X122896285Y-122531095D01*
X122705809Y-122578714D01*
X122562952Y-122578714D01*
X122372476Y-122531095D01*
X122277238Y-122483476D01*
X122182000Y-122388238D01*
X122134380Y-122245380D01*
X122134380Y-122150142D01*
X122182000Y-122007285D01*
X122229619Y-121959666D01*
X123134380Y-121007285D02*
X123134380Y-121578714D01*
X123134380Y-121293000D02*
X122134380Y-121293000D01*
X122277238Y-121388238D01*
X122372476Y-121483476D01*
X122420095Y-121578714D01*
M02*
