M48
INCH,TZ
T1C0.0118
T2C0.0157
T3C0.0197
T4C0.0240
T5C0.0394
T6C0.0400
T7C0.0600
T8C0.1260
%
G90
G05
T1
X61427Y-50833
X61427Y-51305
X61900Y-50833
X61900Y-51305
X62411Y-50833
X62411Y-51305
X62844Y-50833
X62844Y-51305
T2
X39500Y-50500
X47250Y-44750
X47413Y-45750
X52000Y-55500
X53000Y-46000
X53000Y-46750
X54115Y-45385
X54250Y-47250
X60000Y-50250
X60000Y-52000
X61000Y-39500
X61000Y-41250
X61000Y-43250
X62500Y-39500
X63000Y-56250
X63695Y-51305
X64000Y-43500
X64250Y-40000
X64250Y-49500
X64250Y-50750
X64250Y-54750
X64500Y-46500
X64750Y-47750
X65000Y-51000
X65000Y-55250
X65250Y-57000
T3
X48500Y-40500
X43000Y-48500
X50000Y-44100
X40800Y-40500
X46300Y-40500
X42000Y-48500
X45200Y-40500
X51000Y-44100
X44100Y-40500
X47400Y-40500
X43000Y-40500
X41900Y-40500
T4
X40250Y-46250
X42000Y-44250
X42000Y-46250
X49250Y-47750
X52000Y-46250
T5
X40551Y-54724
X40551Y-55724
X40551Y-56724
X40551Y-57724
X40551Y-58724
X41551Y-54724
X41551Y-55724
X41551Y-56724
X41551Y-57724
X41551Y-58724
X36874Y-45199
X36874Y-46289
X36874Y-47380
X36874Y-48470
X37992Y-44654
X37992Y-45744
X37992Y-46835
X37992Y-47925
X37992Y-49016
T6
X55809Y-56703
X55809Y-57683
X55809Y-58663
T7
X55339Y-55483
X56719Y-59883
T8
X37433Y-41913
X37433Y-51756
T5
G00X50433Y-61252
M15
G01X50433Y-61843
M16
G05
G00X50591Y-58929
M15
G01X50591Y-58339
M16
G05
G00X52185Y-59500
M15
G01X51594Y-59500
M16
G05
G00X53189Y-58929
M15
G01X53189Y-58339
M16
G05
G00X53346Y-61252
M15
G01X53346Y-61843
M16
G05
T0
M30
